<?xml version="1.0" encoding="us-ascii" standalone="no"?><svg xmlns="http://www.w3.org/2000/svg" xmlns:xlink="http://www.w3.org/1999/xlink" contentStyleType="text/css" height="923px" preserveAspectRatio="none" style="width:1994px;height:923px;background:#FFFFFF;" version="1.1" viewBox="0 0 1994 923" width="1994px" zoomAndPan="magnify"><defs/><g><text fill="#000000" font-family="sans-serif" font-size="14" font-weight="bold" lengthAdjust="spacing" textLength="271" x="863.25" y="30.1074">Subscribe to a plan Sequence Diagram</text><rect fill="#FFFFFF" height="697.7715" style="stroke:#181818;stroke-width:1.0;" width="10" x="17.5" y="133.2422"/><rect fill="#FFFFFF" height="674.4805" style="stroke:#181818;stroke-width:1.0;" width="10" x="234.5" y="156.5332"/><rect fill="#FFFFFF" height="563.6074" style="stroke:#181818;stroke-width:1.0;" width="10" x="239.5" y="258.4063"/><rect fill="#FFFFFF" height="31.291" style="stroke:#181818;stroke-width:1.0;" width="10" x="421.5" y="187.8242"/><rect fill="#FFFFFF" height="31.291" style="stroke:#181818;stroke-width:1.0;" width="10" x="535" y="294.6973"/><rect fill="#FFFFFF" height="403.8223" style="stroke:#181818;stroke-width:1.0;" width="10" x="656.5" y="427.1914"/><rect fill="#FFFFFF" height="262.6582" style="stroke:#181818;stroke-width:1.0;" width="10" x="798" y="458.4824"/><rect fill="#FFFFFF" height="31.291" style="stroke:#181818;stroke-width:1.0;" width="10" x="1089" y="521.0645"/><rect fill="#FFFFFF" height="31.291" style="stroke:#181818;stroke-width:1.0;" width="10" x="1267" y="658.5586"/><rect fill="#FFFFFF" height="341.2402" style="stroke:#181818;stroke-width:1.0;" width="10" x="1481.5" y="489.7734"/><rect fill="#FFFFFF" height="203.7461" style="stroke:#181818;stroke-width:1.0;" width="10" x="1685.5" y="627.2676"/><rect fill="#FFFFFF" height="31.291" style="stroke:#181818;stroke-width:1.0;" width="10" x="1877.5" y="752.4316"/><rect fill="none" height="407.1133" style="stroke:#000000;stroke-width:1.5;" width="1838" x="150.5" y="384.6094"/><line style="stroke:#181818;stroke-width:0.5;stroke-dasharray:5.0,5.0;" x1="22" x2="22" y1="123.2422" y2="840.0137"/><line style="stroke:#181818;stroke-width:0.5;stroke-dasharray:5.0,5.0;" x1="239.5" x2="239.5" y1="123.2422" y2="840.0137"/><line style="stroke:#181818;stroke-width:0.5;stroke-dasharray:5.0,5.0;" x1="426" x2="426" y1="123.2422" y2="840.0137"/><line style="stroke:#181818;stroke-width:0.5;stroke-dasharray:5.0,5.0;" x1="540" x2="540" y1="123.2422" y2="840.0137"/><line style="stroke:#181818;stroke-width:0.5;stroke-dasharray:5.0,5.0;" x1="661" x2="661" y1="365.7988" y2="840.0137"/><line style="stroke:#181818;stroke-width:0.5;stroke-dasharray:5.0,5.0;" x1="803" x2="803" y1="123.2422" y2="840.0137"/><line style="stroke:#181818;stroke-width:0.5;stroke-dasharray:5.0,5.0;" x1="1093.5" x2="1093.5" y1="123.2422" y2="840.0137"/><line style="stroke:#181818;stroke-width:0.5;stroke-dasharray:5.0,5.0;" x1="1271.5" x2="1271.5" y1="123.2422" y2="840.0137"/><line style="stroke:#181818;stroke-width:0.5;stroke-dasharray:5.0,5.0;" x1="1486.5" x2="1486.5" y1="123.2422" y2="840.0137"/><line style="stroke:#181818;stroke-width:0.5;stroke-dasharray:5.0,5.0;" x1="1690.5" x2="1690.5" y1="592.166" y2="840.0137"/><line style="stroke:#181818;stroke-width:0.5;stroke-dasharray:5.0,5.0;" x1="1882.5" x2="1882.5" y1="123.2422" y2="840.0137"/><text fill="#000000" font-family="sans-serif" font-size="14" lengthAdjust="spacing" textLength="29" x="5" y="119.7285">User</text><ellipse cx="22.5" cy="53.1211" fill="#E2E2F0" rx="8" ry="8" style="stroke:#181818;stroke-width:0.5;"/><path d="M22.5,61.1211 L22.5,88.1211 M9.5,69.1211 L35.5,69.1211 M22.5,88.1211 L9.5,103.1211 M22.5,88.1211 L35.5,103.1211 " fill="none" style="stroke:#181818;stroke-width:0.5;"/><text fill="#000000" font-family="sans-serif" font-size="14" lengthAdjust="spacing" textLength="29" x="5" y="854.1211">User</text><ellipse cx="22.5" cy="866.1348" fill="#E2E2F0" rx="8" ry="8" style="stroke:#181818;stroke-width:0.5;"/><path d="M22.5,874.1348 L22.5,901.1348 M9.5,882.1348 L35.5,882.1348 M22.5,901.1348 L9.5,916.1348 M22.5,901.1348 L35.5,916.1348 " fill="none" style="stroke:#181818;stroke-width:0.5;"/><rect fill="#E2E2F0" height="32.6211" rx="2.5" ry="2.5" style="stroke:#181818;stroke-width:0.5;" width="158" x="160.5" y="89.6211"/><text fill="#000000" font-family="sans-serif" font-size="14" lengthAdjust="spacing" textLength="144" x="167.5" y="111.7285">:SubscriptionController</text><rect fill="#E2E2F0" height="32.6211" rx="2.5" ry="2.5" style="stroke:#181818;stroke-width:0.5;" width="158" x="160.5" y="839.0137"/><text fill="#000000" font-family="sans-serif" font-size="14" lengthAdjust="spacing" textLength="144" x="167.5" y="861.1211">:SubscriptionController</text><rect fill="#E2E2F0" height="32.6211" rx="2.5" ry="2.5" style="stroke:#181818;stroke-width:0.5;" width="59" x="397" y="89.6211"/><text fill="#000000" font-family="sans-serif" font-size="14" lengthAdjust="spacing" textLength="45" x="404" y="111.7285">:Helper</text><rect fill="#E2E2F0" height="32.6211" rx="2.5" ry="2.5" style="stroke:#181818;stroke-width:0.5;" width="59" x="397" y="839.0137"/><text fill="#000000" font-family="sans-serif" font-size="14" lengthAdjust="spacing" textLength="45" x="404" y="861.1211">:Helper</text><rect fill="#E2E2F0" height="32.6211" rx="2.5" ry="2.5" style="stroke:#181818;stroke-width:0.5;" width="148" x="466" y="89.6211"/><text fill="#000000" font-family="sans-serif" font-size="14" lengthAdjust="spacing" textLength="134" x="473" y="111.7285">:repo:UserRepository</text><rect fill="#E2E2F0" height="32.6211" rx="2.5" ry="2.5" style="stroke:#181818;stroke-width:0.5;" width="148" x="466" y="839.0137"/><text fill="#000000" font-family="sans-serif" font-size="14" lengthAdjust="spacing" textLength="134" x="473" y="861.1211">:repo:UserRepository</text><rect fill="#E2E2F0" height="32.6211" rx="2.5" ry="2.5" style="stroke:#181818;stroke-width:0.5;" width="75" x="624" y="839.0137"/><text fill="#000000" font-family="sans-serif" font-size="14" lengthAdjust="spacing" textLength="61" x="631" y="861.1211">user:User</text><rect fill="#E2E2F0" height="32.6211" rx="2.5" ry="2.5" style="stroke:#181818;stroke-width:0.5;" width="188" x="709" y="89.6211"/><text fill="#000000" font-family="sans-serif" font-size="14" lengthAdjust="spacing" textLength="174" x="716" y="111.7285">service:SubscriptionService</text><rect fill="#E2E2F0" height="32.6211" rx="2.5" ry="2.5" style="stroke:#181818;stroke-width:0.5;" width="188" x="709" y="839.0137"/><text fill="#000000" font-family="sans-serif" font-size="14" lengthAdjust="spacing" textLength="174" x="716" y="861.1211">service:SubscriptionService</text><rect fill="#E2E2F0" height="32.6211" rx="2.5" ry="2.5" style="stroke:#181818;stroke-width:0.5;" width="143" x="1022.5" y="89.6211"/><text fill="#000000" font-family="sans-serif" font-size="14" lengthAdjust="spacing" textLength="129" x="1029.5" y="111.7285">repo:PlanRepository</text><rect fill="#E2E2F0" height="32.6211" rx="2.5" ry="2.5" style="stroke:#181818;stroke-width:0.5;" width="143" x="1022.5" y="839.0137"/><text fill="#000000" font-family="sans-serif" font-size="14" lengthAdjust="spacing" textLength="129" x="1029.5" y="861.1211">repo:PlanRepository</text><rect fill="#E2E2F0" height="32.6211" rx="2.5" ry="2.5" style="stroke:#181818;stroke-width:0.5;" width="193" x="1175.5" y="89.6211"/><text fill="#000000" font-family="sans-serif" font-size="14" lengthAdjust="spacing" textLength="179" x="1182.5" y="111.7285">repo:SubscriptionRepository</text><rect fill="#E2E2F0" height="32.6211" rx="2.5" ry="2.5" style="stroke:#181818;stroke-width:0.5;" width="193" x="1175.5" y="839.0137"/><text fill="#000000" font-family="sans-serif" font-size="14" lengthAdjust="spacing" textLength="179" x="1182.5" y="861.1211">repo:SubscriptionRepository</text><rect fill="#E2E2F0" height="32.6211" rx="2.5" ry="2.5" style="stroke:#181818;stroke-width:0.5;" width="216" x="1378.5" y="89.6211"/><text fill="#000000" font-family="sans-serif" font-size="14" lengthAdjust="spacing" textLength="202" x="1385.5" y="111.7285">mapper:EditSubscriptionMapper</text><rect fill="#E2E2F0" height="32.6211" rx="2.5" ry="2.5" style="stroke:#181818;stroke-width:0.5;" width="216" x="1378.5" y="839.0137"/><text fill="#000000" font-family="sans-serif" font-size="14" lengthAdjust="spacing" textLength="202" x="1385.5" y="861.1211">mapper:EditSubscriptionMapper</text><rect fill="#E2E2F0" height="32.6211" rx="2.5" ry="2.5" style="stroke:#181818;stroke-width:0.5;" width="172" x="1604.5" y="839.0137"/><text fill="#000000" font-family="sans-serif" font-size="14" lengthAdjust="spacing" textLength="158" x="1611.5" y="861.1211">subscription:Subscription</text><rect fill="#E2E2F0" height="32.6211" rx="2.5" ry="2.5" style="stroke:#181818;stroke-width:0.5;" width="192" x="1786.5" y="89.6211"/><text fill="#000000" font-family="sans-serif" font-size="14" lengthAdjust="spacing" textLength="178" x="1793.5" y="111.7285">mapper:SubscriptionMapper</text><rect fill="#E2E2F0" height="32.6211" rx="2.5" ry="2.5" style="stroke:#181818;stroke-width:0.5;" width="192" x="1786.5" y="839.0137"/><text fill="#000000" font-family="sans-serif" font-size="14" lengthAdjust="spacing" textLength="178" x="1793.5" y="861.1211">mapper:SubscriptionMapper</text><rect fill="#FFFFFF" height="697.7715" style="stroke:#181818;stroke-width:1.0;" width="10" x="17.5" y="133.2422"/><rect fill="#FFFFFF" height="674.4805" style="stroke:#181818;stroke-width:1.0;" width="10" x="234.5" y="156.5332"/><rect fill="#FFFFFF" height="563.6074" style="stroke:#181818;stroke-width:1.0;" width="10" x="239.5" y="258.4063"/><rect fill="#FFFFFF" height="31.291" style="stroke:#181818;stroke-width:1.0;" width="10" x="421.5" y="187.8242"/><rect fill="#FFFFFF" height="31.291" style="stroke:#181818;stroke-width:1.0;" width="10" x="535" y="294.6973"/><rect fill="#FFFFFF" height="403.8223" style="stroke:#181818;stroke-width:1.0;" width="10" x="656.5" y="427.1914"/><rect fill="#FFFFFF" height="262.6582" style="stroke:#181818;stroke-width:1.0;" width="10" x="798" y="458.4824"/><rect fill="#FFFFFF" height="31.291" style="stroke:#181818;stroke-width:1.0;" width="10" x="1089" y="521.0645"/><rect fill="#FFFFFF" height="31.291" style="stroke:#181818;stroke-width:1.0;" width="10" x="1267" y="658.5586"/><rect fill="#FFFFFF" height="341.2402" style="stroke:#181818;stroke-width:1.0;" width="10" x="1481.5" y="489.7734"/><rect fill="#FFFFFF" height="203.7461" style="stroke:#181818;stroke-width:1.0;" width="10" x="1685.5" y="627.2676"/><rect fill="#FFFFFF" height="31.291" style="stroke:#181818;stroke-width:1.0;" width="10" x="1877.5" y="752.4316"/><polygon fill="#181818" points="222.5,152.5332,232.5,156.5332,222.5,160.5332,226.5,156.5332" style="stroke:#181818;stroke-width:1.0;"/><line style="stroke:#181818;stroke-width:1.0;" x1="27.5" x2="228.5" y1="156.5332" y2="156.5332"/><text fill="#000000" font-family="sans-serif" font-size="13" font-weight="bold" lengthAdjust="spacing" textLength="7" x="34.5" y="151.2705">1</text><text fill="#000000" font-family="sans-serif" font-size="13" lengthAdjust="spacing" textLength="177" x="45.5" y="151.2705">POST/api/subscriptions/create</text><polygon fill="#181818" points="409.5,183.8242,419.5,187.8242,409.5,191.8242,413.5,187.8242" style="stroke:#181818;stroke-width:1.0;"/><line style="stroke:#181818;stroke-width:1.0;" x1="244.5" x2="415.5" y1="187.8242" y2="187.8242"/><text fill="#000000" font-family="sans-serif" font-size="13" font-weight="bold" lengthAdjust="spacing" textLength="7" x="251.5" y="182.5615">2</text><text fill="#000000" font-family="sans-serif" font-size="13" lengthAdjust="spacing" textLength="147" x="262.5" y="182.5615">getUserByToken(request)</text><polygon fill="#181818" points="255.5,215.1152,245.5,219.1152,255.5,223.1152,251.5,219.1152" style="stroke:#181818;stroke-width:1.0;"/><line style="stroke:#181818;stroke-width:1.0;stroke-dasharray:2.0,2.0;" x1="249.5" x2="425.5" y1="219.1152" y2="219.1152"/><text fill="#000000" font-family="sans-serif" font-size="13" font-weight="bold" lengthAdjust="spacing" textLength="7" x="261.5" y="213.8525">3</text><text fill="#000000" font-family="sans-serif" font-size="13" lengthAdjust="spacing" textLength="35" x="272.5" y="213.8525">userId</text><line style="stroke:#181818;stroke-width:1.0;" x1="244.5" x2="291.5" y1="245.4063" y2="245.4063"/><line style="stroke:#181818;stroke-width:1.0;" x1="291.5" x2="291.5" y1="245.4063" y2="258.4063"/><line style="stroke:#181818;stroke-width:1.0;" x1="250.5" x2="291.5" y1="258.4063" y2="258.4063"/><polygon fill="#181818" points="260.5,254.4063,250.5,258.4063,260.5,262.4063,256.5,258.4063" style="stroke:#181818;stroke-width:1.0;"/><text fill="#000000" font-family="sans-serif" font-size="13" font-weight="bold" lengthAdjust="spacing" textLength="7" x="256.5" y="240.1436">4</text><text fill="#000000" font-family="sans-serif" font-size="13" lengthAdjust="spacing" textLength="152" x="267.5" y="240.1436">resource.setUserId(userId)</text><polygon fill="#181818" points="523,290.6973,533,294.6973,523,298.6973,527,294.6973" style="stroke:#181818;stroke-width:1.0;"/><line style="stroke:#181818;stroke-width:1.0;" x1="249.5" x2="529" y1="294.6973" y2="294.6973"/><text fill="#000000" font-family="sans-serif" font-size="13" font-weight="bold" lengthAdjust="spacing" textLength="7" x="256.5" y="289.4346">5</text><text fill="#000000" font-family="sans-serif" font-size="13" lengthAdjust="spacing" textLength="89" x="267.5" y="289.4346">findById(userId)</text><polygon fill="#181818" points="260.5,321.9883,250.5,325.9883,260.5,329.9883,256.5,325.9883" style="stroke:#181818;stroke-width:1.0;"/><line style="stroke:#181818;stroke-width:1.0;stroke-dasharray:2.0,2.0;" x1="254.5" x2="539" y1="325.9883" y2="325.9883"/><text fill="#000000" font-family="sans-serif" font-size="13" font-weight="bold" lengthAdjust="spacing" textLength="7" x="266.5" y="320.7256">6</text><text fill="#000000" font-family="sans-serif" font-size="13" lengthAdjust="spacing" textLength="25" x="277.5" y="320.7256">user</text><polygon fill="#181818" points="612,353.2793,622,357.2793,612,361.2793,616,357.2793" style="stroke:#181818;stroke-width:1.0;"/><line style="stroke:#181818;stroke-width:1.0;" x1="249.5" x2="618" y1="357.2793" y2="357.2793"/><text fill="#000000" font-family="sans-serif" font-size="13" font-weight="bold" lengthAdjust="spacing" textLength="7" x="256.5" y="352.0166">7</text><text fill="#000000" font-family="sans-serif" font-size="13" lengthAdjust="spacing" textLength="88" x="267.5" y="352.0166">getAuthorities()</text><rect fill="#E2E2F0" height="32.6211" rx="2.5" ry="2.5" style="stroke:#181818;stroke-width:0.5;" width="75" x="624" y="333.9883"/><text fill="#000000" font-family="sans-serif" font-size="14" lengthAdjust="spacing" textLength="61" x="631" y="356.0957">user:User</text><path d="M150.5,384.6094 L211.5,384.6094 L211.5,393.9004 L201.5,403.9004 L150.5,403.9004 L150.5,384.6094 " fill="#EEEEEE" style="stroke:#000000;stroke-width:1.5;"/><rect fill="none" height="407.1133" style="stroke:#000000;stroke-width:1.5;" width="1838" x="150.5" y="384.6094"/><text fill="#000000" font-family="sans-serif" font-size="13" font-weight="bold" lengthAdjust="spacing" textLength="16" x="165.5" y="399.6377">alt</text><text fill="#000000" font-family="sans-serif" font-size="11" font-weight="bold" lengthAdjust="spacing" textLength="185" x="226.5" y="398.4795">[if(user.role = "NEW_COSTUMER")]</text><polygon fill="#181818" points="644.5,423.1914,654.5,427.1914,644.5,431.1914,648.5,427.1914" style="stroke:#181818;stroke-width:1.0;"/><line style="stroke:#181818;stroke-width:1.0;" x1="249.5" x2="650.5" y1="427.1914" y2="427.1914"/><text fill="#000000" font-family="sans-serif" font-size="13" font-weight="bold" lengthAdjust="spacing" textLength="7" x="256.5" y="421.9287">8</text><text fill="#000000" font-family="sans-serif" font-size="13" lengthAdjust="spacing" textLength="175" x="267.5" y="421.9287">addAuthority("SUBSCRIBER")</text><polygon fill="#181818" points="786,454.4824,796,458.4824,786,462.4824,790,458.4824" style="stroke:#181818;stroke-width:1.0;"/><line style="stroke:#181818;stroke-width:1.0;" x1="249.5" x2="792" y1="458.4824" y2="458.4824"/><text fill="#000000" font-family="sans-serif" font-size="13" font-weight="bold" lengthAdjust="spacing" textLength="7" x="256.5" y="453.2197">9</text><text fill="#000000" font-family="sans-serif" font-size="13" lengthAdjust="spacing" textLength="166" x="267.5" y="453.2197">createSubscription(resource)</text><polygon fill="#181818" points="1469.5,485.7734,1479.5,489.7734,1469.5,493.7734,1473.5,489.7734" style="stroke:#181818;stroke-width:1.0;"/><line style="stroke:#181818;stroke-width:1.0;" x1="808" x2="1475.5" y1="489.7734" y2="489.7734"/><text fill="#000000" font-family="sans-serif" font-size="13" font-weight="bold" lengthAdjust="spacing" textLength="14" x="815" y="484.5107">10</text><text fill="#000000" font-family="sans-serif" font-size="13" lengthAdjust="spacing" textLength="94" x="833" y="484.5107">create(resource)</text><polygon fill="#181818" points="1077,517.0645,1087,521.0645,1077,525.0645,1081,521.0645" style="stroke:#181818;stroke-width:1.0;"/><line style="stroke:#181818;stroke-width:1.0;" x1="808" x2="1083" y1="521.0645" y2="521.0645"/><text fill="#000000" font-family="sans-serif" font-size="13" font-weight="bold" lengthAdjust="spacing" textLength="14" x="815" y="515.8018">11</text><text fill="#000000" font-family="sans-serif" font-size="13" lengthAdjust="spacing" textLength="244" x="833" y="515.8018">findByPlanName(resource.getPlanName())</text><polygon fill="#181818" points="819,548.3555,809,552.3555,819,556.3555,815,552.3555" style="stroke:#181818;stroke-width:1.0;"/><line style="stroke:#181818;stroke-width:1.0;stroke-dasharray:2.0,2.0;" x1="813" x2="1093" y1="552.3555" y2="552.3555"/><text fill="#000000" font-family="sans-serif" font-size="13" font-weight="bold" lengthAdjust="spacing" textLength="14" x="825" y="547.0928">12</text><text fill="#000000" font-family="sans-serif" font-size="13" lengthAdjust="spacing" textLength="24" x="843" y="547.0928">plan</text><polygon fill="#181818" points="1592.5,579.6465,1602.5,583.6465,1592.5,587.6465,1596.5,583.6465" style="stroke:#181818;stroke-width:1.0;"/><line style="stroke:#181818;stroke-width:1.0;" x1="808" x2="1598.5" y1="583.6465" y2="583.6465"/><text fill="#000000" font-family="sans-serif" font-size="13" font-weight="bold" lengthAdjust="spacing" textLength="14" x="815" y="578.3838">13</text><text fill="#000000" font-family="sans-serif" font-size="13" lengthAdjust="spacing" textLength="150" x="833" y="578.3838">setSubscriptionDate(date)</text><rect fill="#E2E2F0" height="32.6211" rx="2.5" ry="2.5" style="stroke:#181818;stroke-width:0.5;" width="172" x="1604.5" y="560.3555"/><text fill="#000000" font-family="sans-serif" font-size="14" lengthAdjust="spacing" textLength="158" x="1611.5" y="582.4629">subscription:Subscription</text><polygon fill="#181818" points="1673.5,623.2676,1683.5,627.2676,1673.5,631.2676,1677.5,627.2676" style="stroke:#181818;stroke-width:1.0;"/><line style="stroke:#181818;stroke-width:1.0;" x1="808" x2="1679.5" y1="627.2676" y2="627.2676"/><text fill="#000000" font-family="sans-serif" font-size="13" font-weight="bold" lengthAdjust="spacing" textLength="14" x="815" y="622.0049">14</text><text fill="#000000" font-family="sans-serif" font-size="13" lengthAdjust="spacing" textLength="118" x="833" y="622.0049">setQuoteOfTheDay()</text><polygon fill="#181818" points="1255,654.5586,1265,658.5586,1255,662.5586,1259,658.5586" style="stroke:#181818;stroke-width:1.0;"/><line style="stroke:#181818;stroke-width:1.0;" x1="808" x2="1261" y1="658.5586" y2="658.5586"/><text fill="#000000" font-family="sans-serif" font-size="13" font-weight="bold" lengthAdjust="spacing" textLength="14" x="815" y="653.2959">15</text><text fill="#000000" font-family="sans-serif" font-size="13" lengthAdjust="spacing" textLength="104" x="833" y="653.2959">save(subscription)</text><polygon fill="#181818" points="819,685.8496,809,689.8496,819,693.8496,815,689.8496" style="stroke:#181818;stroke-width:1.0;"/><line style="stroke:#181818;stroke-width:1.0;stroke-dasharray:2.0,2.0;" x1="813" x2="1271" y1="689.8496" y2="689.8496"/><text fill="#000000" font-family="sans-serif" font-size="13" font-weight="bold" lengthAdjust="spacing" textLength="14" x="825" y="684.5869">16</text><text fill="#000000" font-family="sans-serif" font-size="13" lengthAdjust="spacing" textLength="70" x="843" y="684.5869">subscription</text><polygon fill="#181818" points="260.5,717.1406,250.5,721.1406,260.5,725.1406,256.5,721.1406" style="stroke:#181818;stroke-width:1.0;"/><line style="stroke:#181818;stroke-width:1.0;stroke-dasharray:2.0,2.0;" x1="254.5" x2="802" y1="721.1406" y2="721.1406"/><text fill="#000000" font-family="sans-serif" font-size="13" font-weight="bold" lengthAdjust="spacing" textLength="14" x="266.5" y="715.8779">17</text><text fill="#000000" font-family="sans-serif" font-size="13" lengthAdjust="spacing" textLength="70" x="284.5" y="715.8779">subscription</text><polygon fill="#181818" points="1865.5,748.4316,1875.5,752.4316,1865.5,756.4316,1869.5,752.4316" style="stroke:#181818;stroke-width:1.0;"/><line style="stroke:#181818;stroke-width:1.0;" x1="249.5" x2="1871.5" y1="752.4316" y2="752.4316"/><text fill="#000000" font-family="sans-serif" font-size="13" font-weight="bold" lengthAdjust="spacing" textLength="14" x="256.5" y="747.1689">18</text><text fill="#000000" font-family="sans-serif" font-size="13" lengthAdjust="spacing" textLength="187" x="274.5" y="747.1689">toSubscriptionDTO(subscription)</text><polygon fill="#181818" points="260.5,779.7227,250.5,783.7227,260.5,787.7227,256.5,783.7227" style="stroke:#181818;stroke-width:1.0;"/><line style="stroke:#181818;stroke-width:1.0;stroke-dasharray:2.0,2.0;" x1="254.5" x2="1881.5" y1="783.7227" y2="783.7227"/><text fill="#000000" font-family="sans-serif" font-size="13" font-weight="bold" lengthAdjust="spacing" textLength="14" x="266.5" y="778.46">19</text><text fill="#000000" font-family="sans-serif" font-size="13" lengthAdjust="spacing" textLength="96" x="284.5" y="778.46">subscriptionDTO</text><polygon fill="#181818" points="38.5,818.0137,28.5,822.0137,38.5,826.0137,34.5,822.0137" style="stroke:#181818;stroke-width:1.0;"/><line style="stroke:#181818;stroke-width:1.0;stroke-dasharray:2.0,2.0;" x1="32.5" x2="233.5" y1="822.0137" y2="822.0137"/><text fill="#000000" font-family="sans-serif" font-size="13" font-weight="bold" lengthAdjust="spacing" textLength="14" x="44.5" y="816.751">20</text><text fill="#000000" font-family="sans-serif" font-size="13" lengthAdjust="spacing" textLength="70" x="62.5" y="816.751">201 Created</text><!--SRC=[ZLJBZfim5DtxAwxO54PAQBkqr4hDGseMCvc6H5rM3ZWJgu2fRIBbx-i79eQ4Th90vjvppdtua0zdfHg9qxGfIQtQgfpdl4eb_TFIEgUpWf4tGIg455CbXQmzobom8mN5WO3XGDPXOUMnf5MSv8fTYAB0Q_jUjzMH2ftB5HSG7IGL4H09ve0Q8XJBMQCxW0XtHHh5UBtajHAyB3lqKeboXFvEowRBkkCeBsZ3iQcoqmV9TFMh1RTTQ0WtKTmtrygHcavSM4u7BMOkPWdTEKmF1Mmthtfjesvyw04w51knTEgUL956Rm6l2wP2whCDMrgNSf7HW05ZKDdNcvYhApfHy5OCzRwm5u_C4sPVxSLYUDrc-vGqB0tRa6akg6OWWp5OTyqOtgWozCLrpt_JEXR6Xr8boELXrikQIzqKFTy51PMy5JcTIoUpAMA7ItgWjmY64wkBnJM0-DIeIa0LJq-snM-jEdF15ACoJX0f5R2JbPbhNrFu0j7B-kUlfPxyyBpUHGa2_GjaC92Yy2BNECeEYsovsopki0-yXy6jBep5Vd37Vi0oOWEBU9dtKRsL_TRC-mkfRkovtaeVJ9oM9zbzFfp4_DVygspuRbQlhpKChKp_XNuaxnMn4ZzQhkZsj3_J5Rd6_-EwiIMvq3XqS4Tp-Ua9GyfqeTvlT_3U2BTxKtomW_tsSLyEFg6jMOZM1UgyhJ7cSy7m-UCdM5fV5EWl]--></g></svg>