<?xml version="1.0" encoding="us-ascii" standalone="no"?><svg xmlns="http://www.w3.org/2000/svg" xmlns:xlink="http://www.w3.org/1999/xlink" contentStyleType="text/css" height="939px" preserveAspectRatio="none" style="width:1769px;height:939px;background:#FFFFFF;" version="1.1" viewBox="0 0 1769 939" width="1769px" zoomAndPan="magnify"><defs/><g><text fill="#000000" font-family="sans-serif" font-size="14" font-weight="bold" lengthAdjust="spacing" textLength="364" x="704" y="28.1318">Remove Device from Subscription Sequence Diagram</text><rect fill="#FFFFFF" height="721.9707" style="stroke:#181818;stroke-width:1.0;" width="10" x="18" y="128.1973"/><rect fill="#FFFFFF" height="692.022" style="stroke:#181818;stroke-width:1.0;" width="10" x="267" y="149.146"/><rect fill="#FFFFFF" height="28.9487" style="stroke:#181818;stroke-width:1.0;" width="10" x="444" y="178.0947"/><rect fill="#FFFFFF" height="28.9487" style="stroke:#181818;stroke-width:1.0;" width="10" x="558.5" y="235.9922"/><rect fill="#FFFFFF" height="446.2822" style="stroke:#181818;stroke-width:1.0;" width="10" x="827" y="358.937"/><rect fill="#FFFFFF" height="28.9487" style="stroke:#181818;stroke-width:1.0;" width="10" x="1040" y="387.8857"/><rect fill="#FFFFFF" height="28.9487" style="stroke:#181818;stroke-width:1.0;" width="10" x="1040" y="747.3218"/><rect fill="#FFFFFF" height="28.9487" style="stroke:#181818;stroke-width:1.0;" width="10" x="1289" y="445.7832"/><rect fill="#FFFFFF" height="28.9487" style="stroke:#181818;stroke-width:1.0;" width="10" x="1289" y="689.4243"/><rect fill="#FFFFFF" height="28.9487" style="stroke:#181818;stroke-width:1.0;" width="10" x="1634" y="503.6807"/><rect fill="#FFFFFF" height="14" style="stroke:#181818;stroke-width:1.0;" width="10" x="1634" y="561.5781"/><rect fill="#FFFFFF" height="55.9487" style="stroke:#181818;stroke-width:1.0;" width="10" x="1634" y="604.5269"/><rect fill="#FFFFFF" height="19" style="stroke:#181818;stroke-width:1.0;" width="10" x="1639" y="641.4756"/><rect fill="none" height="492.1797" style="stroke:#000000;stroke-width:1.5;" width="1562.5" x="200.5" y="321.0396"/><line style="stroke:#181818;stroke-width:0.5;stroke-dasharray:5.0,5.0;" x1="23" x2="23" y1="118.1973" y2="859.168"/><line style="stroke:#181818;stroke-width:0.5;stroke-dasharray:5.0,5.0;" x1="271.5" x2="271.5" y1="118.1973" y2="859.168"/><line style="stroke:#181818;stroke-width:0.5;stroke-dasharray:5.0,5.0;" x1="449" x2="449" y1="118.1973" y2="859.168"/><line style="stroke:#181818;stroke-width:0.5;stroke-dasharray:5.0,5.0;" x1="563" x2="563" y1="118.1973" y2="859.168"/><line style="stroke:#181818;stroke-width:0.5;stroke-dasharray:5.0,5.0;" x1="686" x2="686" y1="303.4902" y2="859.168"/><line style="stroke:#181818;stroke-width:0.5;stroke-dasharray:5.0,5.0;" x1="832" x2="832" y1="118.1973" y2="859.168"/><line style="stroke:#181818;stroke-width:0.5;stroke-dasharray:5.0,5.0;" x1="1045" x2="1045" y1="118.1973" y2="859.168"/><line style="stroke:#181818;stroke-width:0.5;stroke-dasharray:5.0,5.0;" x1="1294" x2="1294" y1="118.1973" y2="859.168"/><line style="stroke:#181818;stroke-width:0.5;stroke-dasharray:5.0,5.0;" x1="1492" x2="1492" y1="118.1973" y2="859.168"/><line style="stroke:#181818;stroke-width:0.5;stroke-dasharray:5.0,5.0;" x1="1639" x2="1639" y1="118.1973" y2="859.168"/><text fill="#000000" font-family="sans-serif" font-size="14" lengthAdjust="spacing" textLength="30" x="5" y="115.2305">User</text><ellipse cx="23" cy="50.5986" fill="#E2E2F0" rx="8" ry="8" style="stroke:#181818;stroke-width:0.5;"/><path d="M23,58.5986 L23,85.5986 M10,66.5986 L36,66.5986 M23,85.5986 L10,100.5986 M23,85.5986 L36,100.5986 " fill="none" style="stroke:#181818;stroke-width:0.5;"/><text fill="#000000" font-family="sans-serif" font-size="14" lengthAdjust="spacing" textLength="30" x="5" y="871.2998">User</text><ellipse cx="23" cy="882.7666" fill="#E2E2F0" rx="8" ry="8" style="stroke:#181818;stroke-width:0.5;"/><path d="M23,890.7666 L23,917.7666 M10,898.7666 L36,898.7666 M23,917.7666 L10,932.7666 M23,917.7666 L36,932.7666 " fill="none" style="stroke:#181818;stroke-width:0.5;"/><rect fill="#E2E2F0" height="30.0986" rx="2.5" ry="2.5" style="stroke:#181818;stroke-width:0.5;" width="123" x="210.5" y="87.0986"/><text fill="#000000" font-family="sans-serif" font-size="14" lengthAdjust="spacing" textLength="109" x="217.5" y="107.2305">:DeviceController</text><rect fill="#E2E2F0" height="30.0986" rx="2.5" ry="2.5" style="stroke:#181818;stroke-width:0.5;" width="123" x="210.5" y="858.168"/><text fill="#000000" font-family="sans-serif" font-size="14" lengthAdjust="spacing" textLength="109" x="217.5" y="878.2998">:DeviceController</text><rect fill="#E2E2F0" height="30.0986" rx="2.5" ry="2.5" style="stroke:#181818;stroke-width:0.5;" width="60" x="419" y="87.0986"/><text fill="#000000" font-family="sans-serif" font-size="14" lengthAdjust="spacing" textLength="46" x="426" y="107.2305">:Helper</text><rect fill="#E2E2F0" height="30.0986" rx="2.5" ry="2.5" style="stroke:#181818;stroke-width:0.5;" width="60" x="419" y="858.168"/><text fill="#000000" font-family="sans-serif" font-size="14" lengthAdjust="spacing" textLength="46" x="426" y="878.2998">:Helper</text><rect fill="#E2E2F0" height="30.0986" rx="2.5" ry="2.5" style="stroke:#181818;stroke-width:0.5;" width="149" x="489" y="87.0986"/><text fill="#000000" font-family="sans-serif" font-size="14" lengthAdjust="spacing" textLength="135" x="496" y="107.2305">:repo:UserRepository</text><rect fill="#E2E2F0" height="30.0986" rx="2.5" ry="2.5" style="stroke:#181818;stroke-width:0.5;" width="149" x="489" y="858.168"/><text fill="#000000" font-family="sans-serif" font-size="14" lengthAdjust="spacing" textLength="135" x="496" y="878.2998">:repo:UserRepository</text><rect fill="#E2E2F0" height="30.0986" rx="2.5" ry="2.5" style="stroke:#181818;stroke-width:0.5;" width="76" x="648" y="858.168"/><text fill="#000000" font-family="sans-serif" font-size="14" lengthAdjust="spacing" textLength="62" x="655" y="878.2998">user:User</text><rect fill="#E2E2F0" height="30.0986" rx="2.5" ry="2.5" style="stroke:#181818;stroke-width:0.5;" width="196" x="734" y="87.0986"/><text fill="#000000" font-family="sans-serif" font-size="14" lengthAdjust="spacing" textLength="182" x="741" y="107.2305">deviceService:DeviceService</text><rect fill="#E2E2F0" height="30.0986" rx="2.5" ry="2.5" style="stroke:#181818;stroke-width:0.5;" width="196" x="734" y="858.168"/><text fill="#000000" font-family="sans-serif" font-size="14" lengthAdjust="spacing" textLength="182" x="741" y="878.2998">deviceService:DeviceService</text><rect fill="#E2E2F0" height="30.0986" rx="2.5" ry="2.5" style="stroke:#181818;stroke-width:0.5;" width="204" x="943" y="87.0986"/><text fill="#000000" font-family="sans-serif" font-size="14" lengthAdjust="spacing" textLength="190" x="950" y="107.2305">deviceRepo:DeviceRepository</text><rect fill="#E2E2F0" height="30.0986" rx="2.5" ry="2.5" style="stroke:#181818;stroke-width:0.5;" width="204" x="943" y="858.168"/><text fill="#000000" font-family="sans-serif" font-size="14" lengthAdjust="spacing" textLength="190" x="950" y="878.2998">deviceRepo:DeviceRepository</text><rect fill="#E2E2F0" height="30.0986" rx="2.5" ry="2.5" style="stroke:#181818;stroke-width:0.5;" width="274" x="1157" y="87.0986"/><text fill="#000000" font-family="sans-serif" font-size="14" lengthAdjust="spacing" textLength="260" x="1164" y="107.2305">subscriptionRepo:SubscriptionRepository</text><rect fill="#E2E2F0" height="30.0986" rx="2.5" ry="2.5" style="stroke:#181818;stroke-width:0.5;" width="274" x="1157" y="858.168"/><text fill="#000000" font-family="sans-serif" font-size="14" lengthAdjust="spacing" textLength="260" x="1164" y="878.2998">subscriptionRepo:SubscriptionRepository</text><rect fill="#E2E2F0" height="30.0986" rx="2.5" ry="2.5" style="stroke:#181818;stroke-width:0.5;" width="102" x="1441" y="87.0986"/><text fill="#000000" font-family="sans-serif" font-size="14" lengthAdjust="spacing" textLength="88" x="1448" y="107.2305">device:Device</text><rect fill="#E2E2F0" height="30.0986" rx="2.5" ry="2.5" style="stroke:#181818;stroke-width:0.5;" width="102" x="1441" y="858.168"/><text fill="#000000" font-family="sans-serif" font-size="14" lengthAdjust="spacing" textLength="88" x="1448" y="878.2998">device:Device</text><rect fill="#E2E2F0" height="30.0986" rx="2.5" ry="2.5" style="stroke:#181818;stroke-width:0.5;" width="172" x="1553" y="87.0986"/><text fill="#000000" font-family="sans-serif" font-size="14" lengthAdjust="spacing" textLength="158" x="1560" y="107.2305">subscription:Subscription</text><rect fill="#E2E2F0" height="30.0986" rx="2.5" ry="2.5" style="stroke:#181818;stroke-width:0.5;" width="172" x="1553" y="858.168"/><text fill="#000000" font-family="sans-serif" font-size="14" lengthAdjust="spacing" textLength="158" x="1560" y="878.2998">subscription:Subscription</text><rect fill="#FFFFFF" height="721.9707" style="stroke:#181818;stroke-width:1.0;" width="10" x="18" y="128.1973"/><rect fill="#FFFFFF" height="692.022" style="stroke:#181818;stroke-width:1.0;" width="10" x="267" y="149.146"/><rect fill="#FFFFFF" height="28.9487" style="stroke:#181818;stroke-width:1.0;" width="10" x="444" y="178.0947"/><rect fill="#FFFFFF" height="28.9487" style="stroke:#181818;stroke-width:1.0;" width="10" x="558.5" y="235.9922"/><rect fill="#FFFFFF" height="446.2822" style="stroke:#181818;stroke-width:1.0;" width="10" x="827" y="358.937"/><rect fill="#FFFFFF" height="28.9487" style="stroke:#181818;stroke-width:1.0;" width="10" x="1040" y="387.8857"/><rect fill="#FFFFFF" height="28.9487" style="stroke:#181818;stroke-width:1.0;" width="10" x="1040" y="747.3218"/><rect fill="#FFFFFF" height="28.9487" style="stroke:#181818;stroke-width:1.0;" width="10" x="1289" y="445.7832"/><rect fill="#FFFFFF" height="28.9487" style="stroke:#181818;stroke-width:1.0;" width="10" x="1289" y="689.4243"/><rect fill="#FFFFFF" height="28.9487" style="stroke:#181818;stroke-width:1.0;" width="10" x="1634" y="503.6807"/><rect fill="#FFFFFF" height="14" style="stroke:#181818;stroke-width:1.0;" width="10" x="1634" y="561.5781"/><rect fill="#FFFFFF" height="55.9487" style="stroke:#181818;stroke-width:1.0;" width="10" x="1634" y="604.5269"/><rect fill="#FFFFFF" height="19" style="stroke:#181818;stroke-width:1.0;" width="10" x="1639" y="641.4756"/><polygon fill="#181818" points="255,145.146,265,149.146,255,153.146,259,149.146" style="stroke:#181818;stroke-width:1.0;"/><line style="stroke:#181818;stroke-width:1.0;" x1="28" x2="261" y1="149.146" y2="149.146"/><text fill="#000000" font-family="sans-serif" font-size="13" lengthAdjust="spacing" textLength="220" x="35" y="144.3911">DELETE/api/devices/:macAddr/delete</text><polygon fill="#181818" points="432,174.0947,442,178.0947,432,182.0947,436,178.0947" style="stroke:#181818;stroke-width:1.0;"/><line style="stroke:#181818;stroke-width:1.0;" x1="277" x2="438" y1="178.0947" y2="178.0947"/><text fill="#000000" font-family="sans-serif" font-size="13" lengthAdjust="spacing" textLength="148" x="284" y="173.3398">getUserByToken(request)</text><polygon fill="#181818" points="288,203.0435,278,207.0435,288,211.0435,284,207.0435" style="stroke:#181818;stroke-width:1.0;"/><line style="stroke:#181818;stroke-width:1.0;stroke-dasharray:2.0,2.0;" x1="282" x2="448" y1="207.0435" y2="207.0435"/><text fill="#000000" font-family="sans-serif" font-size="13" lengthAdjust="spacing" textLength="36" x="294" y="202.2886">userId</text><polygon fill="#181818" points="546.5,231.9922,556.5,235.9922,546.5,239.9922,550.5,235.9922" style="stroke:#181818;stroke-width:1.0;"/><line style="stroke:#181818;stroke-width:1.0;" x1="277" x2="552.5" y1="235.9922" y2="235.9922"/><text fill="#000000" font-family="sans-serif" font-size="13" lengthAdjust="spacing" textLength="92" x="284" y="231.2373">findById(userId)</text><polygon fill="#181818" points="288,260.9409,278,264.9409,288,268.9409,284,264.9409" style="stroke:#181818;stroke-width:1.0;"/><line style="stroke:#181818;stroke-width:1.0;stroke-dasharray:2.0,2.0;" x1="282" x2="562.5" y1="264.9409" y2="264.9409"/><text fill="#000000" font-family="sans-serif" font-size="13" lengthAdjust="spacing" textLength="25" x="294" y="260.186">user</text><polygon fill="#181818" points="636,289.8896,646,293.8896,636,297.8896,640,293.8896" style="stroke:#181818;stroke-width:1.0;"/><line style="stroke:#181818;stroke-width:1.0;" x1="277" x2="642" y1="293.8896" y2="293.8896"/><text fill="#000000" font-family="sans-serif" font-size="13" lengthAdjust="spacing" textLength="88" x="284" y="289.1348">getAuthorities()</text><rect fill="#E2E2F0" height="30.0986" rx="2.5" ry="2.5" style="stroke:#181818;stroke-width:0.5;" width="76" x="648" y="272.9409"/><text fill="#000000" font-family="sans-serif" font-size="14" lengthAdjust="spacing" textLength="62" x="655" y="293.0728">user:User</text><path d="M200.5,321.0396 L460.5,321.0396 L460.5,327.9883 L450.5,337.9883 L200.5,337.9883 L200.5,321.0396 " fill="#EEEEEE" style="stroke:#000000;stroke-width:1.5;"/><rect fill="none" height="492.1797" style="stroke:#000000;stroke-width:1.5;" width="1562.5" x="200.5" y="321.0396"/><text fill="#000000" font-family="sans-serif" font-size="13" font-weight="bold" lengthAdjust="spacing" textLength="215" x="215.5" y="334.2334">alt if (user.role == "SUBSCRIBER")</text><polygon fill="#181818" points="815,354.937,825,358.937,815,362.937,819,358.937" style="stroke:#181818;stroke-width:1.0;"/><line style="stroke:#181818;stroke-width:1.0;" x1="277" x2="821" y1="358.937" y2="358.937"/><text fill="#000000" font-family="sans-serif" font-size="13" lengthAdjust="spacing" textLength="122" x="284" y="354.1821">deleteById(macAddr)</text><polygon fill="#181818" points="1028,383.8857,1038,387.8857,1028,391.8857,1032,387.8857" style="stroke:#181818;stroke-width:1.0;"/><line style="stroke:#181818;stroke-width:1.0;" x1="837" x2="1034" y1="387.8857" y2="387.8857"/><text fill="#000000" font-family="sans-serif" font-size="13" lengthAdjust="spacing" textLength="108" x="844" y="383.1309">findById(macAddr)</text><polygon fill="#181818" points="848,412.8345,838,416.8345,848,420.8345,844,416.8345" style="stroke:#181818;stroke-width:1.0;"/><line style="stroke:#181818;stroke-width:1.0;stroke-dasharray:2.0,2.0;" x1="842" x2="1044" y1="416.8345" y2="416.8345"/><text fill="#000000" font-family="sans-serif" font-size="13" lengthAdjust="spacing" textLength="38" x="854" y="412.0796">device</text><polygon fill="#181818" points="1277,441.7832,1287,445.7832,1277,449.7832,1281,445.7832" style="stroke:#181818;stroke-width:1.0;"/><line style="stroke:#181818;stroke-width:1.0;" x1="837" x2="1283" y1="445.7832" y2="445.7832"/><text fill="#000000" font-family="sans-serif" font-size="13" lengthAdjust="spacing" textLength="92" x="844" y="441.0283">findById(userId)</text><polygon fill="#181818" points="848,470.7319,838,474.7319,848,478.7319,844,474.7319" style="stroke:#181818;stroke-width:1.0;"/><line style="stroke:#181818;stroke-width:1.0;stroke-dasharray:2.0,2.0;" x1="842" x2="1293" y1="474.7319" y2="474.7319"/><text fill="#000000" font-family="sans-serif" font-size="13" lengthAdjust="spacing" textLength="70" x="854" y="469.9771">subscription</text><polygon fill="#181818" points="1622,499.6807,1632,503.6807,1622,507.6807,1626,503.6807" style="stroke:#181818;stroke-width:1.0;"/><line style="stroke:#181818;stroke-width:1.0;" x1="837" x2="1628" y1="503.6807" y2="503.6807"/><text fill="#000000" font-family="sans-serif" font-size="13" lengthAdjust="spacing" textLength="73" x="844" y="498.9258">getDevices()</text><polygon fill="#181818" points="848,528.6294,838,532.6294,848,536.6294,844,532.6294" style="stroke:#181818;stroke-width:1.0;"/><line style="stroke:#181818;stroke-width:1.0;stroke-dasharray:2.0,2.0;" x1="842" x2="1638" y1="532.6294" y2="532.6294"/><text fill="#000000" font-family="sans-serif" font-size="13" lengthAdjust="spacing" textLength="45" x="854" y="527.8745">devices</text><polygon fill="#181818" points="1622,557.5781,1632,561.5781,1622,565.5781,1626,561.5781" style="stroke:#181818;stroke-width:1.0;"/><line style="stroke:#181818;stroke-width:1.0;" x1="837" x2="1628" y1="561.5781" y2="561.5781"/><text fill="#000000" font-family="sans-serif" font-size="13" lengthAdjust="spacing" textLength="138" x="844" y="556.8232">devices.remove(device)</text><polygon fill="#181818" points="848,571.5781,838,575.5781,848,579.5781,844,575.5781" style="stroke:#181818;stroke-width:1.0;"/><line style="stroke:#181818;stroke-width:1.0;stroke-dasharray:2.0,2.0;" x1="842" x2="1638" y1="575.5781" y2="575.5781"/><polygon fill="#181818" points="1622,600.5269,1632,604.5269,1622,608.5269,1626,604.5269" style="stroke:#181818;stroke-width:1.0;"/><line style="stroke:#181818;stroke-width:1.0;" x1="837" x2="1628" y1="604.5269" y2="604.5269"/><text fill="#000000" font-family="sans-serif" font-size="13" lengthAdjust="spacing" textLength="115" x="844" y="599.772">setCurrentDevices()</text><line style="stroke:#181818;stroke-width:1.0;" x1="1644" x2="1691" y1="628.4756" y2="628.4756"/><line style="stroke:#181818;stroke-width:1.0;" x1="1691" x2="1691" y1="628.4756" y2="641.4756"/><line style="stroke:#181818;stroke-width:1.0;" x1="1650" x2="1691" y1="641.4756" y2="641.4756"/><polygon fill="#181818" points="1660,637.4756,1650,641.4756,1660,645.4756,1656,641.4756" style="stroke:#181818;stroke-width:1.0;"/><text fill="#000000" font-family="sans-serif" font-size="13" lengthAdjust="spacing" textLength="95" x="1656" y="623.7207">currentDevices--</text><polygon fill="#181818" points="848,656.4756,838,660.4756,848,664.4756,844,660.4756" style="stroke:#181818;stroke-width:1.0;"/><line style="stroke:#181818;stroke-width:1.0;stroke-dasharray:2.0,2.0;" x1="842" x2="1638" y1="660.4756" y2="660.4756"/><polygon fill="#181818" points="1277,685.4243,1287,689.4243,1277,693.4243,1281,689.4243" style="stroke:#181818;stroke-width:1.0;"/><line style="stroke:#181818;stroke-width:1.0;" x1="837" x2="1283" y1="689.4243" y2="689.4243"/><text fill="#000000" font-family="sans-serif" font-size="13" lengthAdjust="spacing" textLength="106" x="844" y="684.6694">save(subscription)</text><polygon fill="#181818" points="848,714.373,838,718.373,848,722.373,844,718.373" style="stroke:#181818;stroke-width:1.0;"/><line style="stroke:#181818;stroke-width:1.0;stroke-dasharray:2.0,2.0;" x1="842" x2="1293" y1="718.373" y2="718.373"/><text fill="#000000" font-family="sans-serif" font-size="13" lengthAdjust="spacing" textLength="14" x="854" y="713.6182">ok</text><polygon fill="#181818" points="1028,743.3218,1038,747.3218,1028,751.3218,1032,747.3218" style="stroke:#181818;stroke-width:1.0;"/><line style="stroke:#181818;stroke-width:1.0;" x1="837" x2="1034" y1="747.3218" y2="747.3218"/><text fill="#000000" font-family="sans-serif" font-size="13" lengthAdjust="spacing" textLength="184" x="844" y="742.5669">deleteByMacAddress(macAddr)</text><polygon fill="#181818" points="848,772.2705,838,776.2705,848,780.2705,844,776.2705" style="stroke:#181818;stroke-width:1.0;"/><line style="stroke:#181818;stroke-width:1.0;stroke-dasharray:2.0,2.0;" x1="842" x2="1044" y1="776.2705" y2="776.2705"/><text fill="#000000" font-family="sans-serif" font-size="13" lengthAdjust="spacing" textLength="14" x="854" y="771.5156">ok</text><polygon fill="#181818" points="288,801.2192,278,805.2192,288,809.2192,284,805.2192" style="stroke:#181818;stroke-width:1.0;"/><line style="stroke:#181818;stroke-width:1.0;stroke-dasharray:2.0,2.0;" x1="282" x2="831" y1="805.2192" y2="805.2192"/><text fill="#000000" font-family="sans-serif" font-size="13" lengthAdjust="spacing" textLength="49" x="294" y="800.4644">success</text><polygon fill="#181818" points="39,837.168,29,841.168,39,845.168,35,841.168" style="stroke:#181818;stroke-width:1.0;"/><line style="stroke:#181818;stroke-width:1.0;stroke-dasharray:2.0,2.0;" x1="33" x2="271" y1="841.168" y2="841.168"/><text fill="#000000" font-family="sans-serif" font-size="13" lengthAdjust="spacing" textLength="90" x="45" y="836.4131">204 No Content</text><!--SRC=[XLJRRfj047tVhnZnKZiI9ghwX9HAyKMgfROF9lc0pJ9sLW6MxCMI_xvx0mCnBYyiCsVENCuitzwrRbMUPMr56stgQiL4dIdyDDWmJ4jEJvBMX6YkAuG3rkACiCKpPmX7AMeep9jYahUQYmQA60VRBeuQBIZJ_4mrWcYiWMaX8NbLA1EW2jo1j5HgpdXhIu0a3_GRqMWfgYhYDbfM4zmlhDhe3SU9Ns8hSiT_i0V5RTwB1vje6iETDU_BCch2LlgY2fJk5KkCNpwWEBDR0IvFH4-giFwlHQZ1D7reCJ4C22psAq786ZDsUUnnFiqeHKVS6uXNBCZdfIB4lI3zwHN9ORlxlNlPPRJbMSYaihocxBaifJLKg94ue0i88kLmGkqurfSNyO7DGhgbKNf9WX_Idjj9iY_x-4wt78wyATUNVRa8Y2NfN9FWGQXyUF2Pdur-5v9hZcgn92SfJ0kqqi2FuDbMTkSGdfuWALxNnUQmN-yEoPA0VJeoAtKEeJTVH6mtWApJOQAwWr97gEZsvKOwhzA08Sfxera7YjuhmKYqCSrLQZU0i1gk-SXplRwJQjGyJmIifFyXBCBdFECyaKAzCL9YSxUkQHGRXQJf_SGbzYjyPqfXs8hQTeQecN6BZvjgTrln9uYDIlr7zo5FlxhACDkM8jXqoszTxihayFtn1_mLu7wETW3a7m00]--></g></svg>