<?xml version="1.0" encoding="us-ascii" standalone="no"?><svg xmlns="http://www.w3.org/2000/svg" xmlns:xlink="http://www.w3.org/1999/xlink" contentStyleType="text/css" height="871px" preserveAspectRatio="none" style="width:1688px;height:871px;background:#FFFFFF;" version="1.1" viewBox="0 0 1688 871" width="1688px" zoomAndPan="magnify"><defs/><g><text fill="#000000" font-family="sans-serif" font-size="14" font-weight="bold" lengthAdjust="spacing" textLength="280" x="705.5" y="28.1318">Update device details Sequence Diagram</text><rect fill="#FFFFFF" height="654.1245" style="stroke:#181818;stroke-width:1.0;" width="10" x="18" y="128.1973"/><rect fill="#FFFFFF" height="624.1758" style="stroke:#181818;stroke-width:1.0;" width="10" x="257" y="149.146"/><rect fill="#FFFFFF" height="28.9487" style="stroke:#181818;stroke-width:1.0;" width="10" x="445" y="178.0947"/><rect fill="#FFFFFF" height="28.9487" style="stroke:#181818;stroke-width:1.0;" width="10" x="559.5" y="235.9922"/><rect fill="#FFFFFF" height="347.4873" style="stroke:#181818;stroke-width:1.0;" width="10" x="828" y="382.8857"/><rect fill="#FFFFFF" height="173.7949" style="stroke:#181818;stroke-width:1.0;" width="10" x="1271" y="469.7319"/><rect fill="#FFFFFF" height="28" style="stroke:#181818;stroke-width:1.0;" width="10" x="1276" y="530.6294"/><rect fill="#FFFFFF" height="40.9487" style="stroke:#181818;stroke-width:1.0;" width="10" x="1276" y="602.5781"/><rect fill="#FFFFFF" height="28.9487" style="stroke:#181818;stroke-width:1.0;" width="10" x="1555" y="411.8345"/><rect fill="#FFFFFF" height="28.9487" style="stroke:#181818;stroke-width:1.0;" width="10" x="1555" y="672.4756"/><rect fill="none" height="424.3335" style="stroke:#000000;stroke-width:1.5;" width="1501.5" x="180.5" y="321.0396"/><rect fill="none" height="393.3848" style="stroke:#000000;stroke-width:1.5;" width="1481.5" x="190.5" y="344.9883"/><rect fill="none" height="130.8462" style="stroke:#000000;stroke-width:1.5;" width="350" x="1215" y="484.7319"/><line style="stroke:#181818;stroke-width:0.5;stroke-dasharray:5.0,5.0;" x1="23" x2="23" y1="118.1973" y2="791.3218"/><line style="stroke:#181818;stroke-width:0.5;stroke-dasharray:5.0,5.0;" x1="261.5" x2="261.5" y1="118.1973" y2="791.3218"/><line style="stroke:#181818;stroke-width:0.5;stroke-dasharray:5.0,5.0;" x1="450" x2="450" y1="118.1973" y2="791.3218"/><line style="stroke:#181818;stroke-width:0.5;stroke-dasharray:5.0,5.0;" x1="564" x2="564" y1="118.1973" y2="791.3218"/><line style="stroke:#181818;stroke-width:0.5;stroke-dasharray:5.0,5.0;" x1="687" x2="687" y1="303.4902" y2="791.3218"/><line style="stroke:#181818;stroke-width:0.5;stroke-dasharray:5.0,5.0;" x1="833" x2="833" y1="118.1973" y2="791.3218"/><line style="stroke:#181818;stroke-width:0.5;stroke-dasharray:5.0,5.0;" x1="1078" x2="1078" y1="118.1973" y2="791.3218"/><line style="stroke:#181818;stroke-width:0.5;stroke-dasharray:5.0,5.0;" x1="1276" x2="1276" y1="118.1973" y2="791.3218"/><line style="stroke:#181818;stroke-width:0.5;stroke-dasharray:5.0,5.0;" x1="1560" x2="1560" y1="118.1973" y2="791.3218"/><text fill="#000000" font-family="sans-serif" font-size="14" lengthAdjust="spacing" textLength="30" x="5" y="115.2305">User</text><ellipse cx="23" cy="50.5986" fill="#E2E2F0" rx="8" ry="8" style="stroke:#181818;stroke-width:0.5;"/><path d="M23,58.5986 L23,85.5986 M10,66.5986 L36,66.5986 M23,85.5986 L10,100.5986 M23,85.5986 L36,100.5986 " fill="none" style="stroke:#181818;stroke-width:0.5;"/><text fill="#000000" font-family="sans-serif" font-size="14" lengthAdjust="spacing" textLength="30" x="5" y="803.4536">User</text><ellipse cx="23" cy="814.9204" fill="#E2E2F0" rx="8" ry="8" style="stroke:#181818;stroke-width:0.5;"/><path d="M23,822.9204 L23,849.9204 M10,830.9204 L36,830.9204 M23,849.9204 L10,864.9204 M23,849.9204 L36,864.9204 " fill="none" style="stroke:#181818;stroke-width:0.5;"/><rect fill="#E2E2F0" height="30.0986" rx="2.5" ry="2.5" style="stroke:#181818;stroke-width:0.5;" width="123" x="200.5" y="87.0986"/><text fill="#000000" font-family="sans-serif" font-size="14" lengthAdjust="spacing" textLength="109" x="207.5" y="107.2305">:DeviceController</text><rect fill="#E2E2F0" height="30.0986" rx="2.5" ry="2.5" style="stroke:#181818;stroke-width:0.5;" width="123" x="200.5" y="790.3218"/><text fill="#000000" font-family="sans-serif" font-size="14" lengthAdjust="spacing" textLength="109" x="207.5" y="810.4536">:DeviceController</text><rect fill="#E2E2F0" height="30.0986" rx="2.5" ry="2.5" style="stroke:#181818;stroke-width:0.5;" width="60" x="420" y="87.0986"/><text fill="#000000" font-family="sans-serif" font-size="14" lengthAdjust="spacing" textLength="46" x="427" y="107.2305">:Helper</text><rect fill="#E2E2F0" height="30.0986" rx="2.5" ry="2.5" style="stroke:#181818;stroke-width:0.5;" width="60" x="420" y="790.3218"/><text fill="#000000" font-family="sans-serif" font-size="14" lengthAdjust="spacing" textLength="46" x="427" y="810.4536">:Helper</text><rect fill="#E2E2F0" height="30.0986" rx="2.5" ry="2.5" style="stroke:#181818;stroke-width:0.5;" width="149" x="490" y="87.0986"/><text fill="#000000" font-family="sans-serif" font-size="14" lengthAdjust="spacing" textLength="135" x="497" y="107.2305">:repo:UserRepository</text><rect fill="#E2E2F0" height="30.0986" rx="2.5" ry="2.5" style="stroke:#181818;stroke-width:0.5;" width="149" x="490" y="790.3218"/><text fill="#000000" font-family="sans-serif" font-size="14" lengthAdjust="spacing" textLength="135" x="497" y="810.4536">:repo:UserRepository</text><rect fill="#E2E2F0" height="30.0986" rx="2.5" ry="2.5" style="stroke:#181818;stroke-width:0.5;" width="76" x="649" y="790.3218"/><text fill="#000000" font-family="sans-serif" font-size="14" lengthAdjust="spacing" textLength="62" x="656" y="810.4536">user:User</text><rect fill="#E2E2F0" height="30.0986" rx="2.5" ry="2.5" style="stroke:#181818;stroke-width:0.5;" width="196" x="735" y="87.0986"/><text fill="#000000" font-family="sans-serif" font-size="14" lengthAdjust="spacing" textLength="182" x="742" y="107.2305">deviceService:DeviceService</text><rect fill="#E2E2F0" height="30.0986" rx="2.5" ry="2.5" style="stroke:#181818;stroke-width:0.5;" width="196" x="735" y="790.3218"/><text fill="#000000" font-family="sans-serif" font-size="14" lengthAdjust="spacing" textLength="182" x="742" y="810.4536">deviceService:DeviceService</text><rect fill="#E2E2F0" height="30.0986" rx="2.5" ry="2.5" style="stroke:#181818;stroke-width:0.5;" width="274" x="941" y="87.0986"/><text fill="#000000" font-family="sans-serif" font-size="14" lengthAdjust="spacing" textLength="260" x="948" y="107.2305">subscriptionRepo:SubscriptionRepository</text><rect fill="#E2E2F0" height="30.0986" rx="2.5" ry="2.5" style="stroke:#181818;stroke-width:0.5;" width="274" x="941" y="790.3218"/><text fill="#000000" font-family="sans-serif" font-size="14" lengthAdjust="spacing" textLength="260" x="948" y="810.4536">subscriptionRepo:SubscriptionRepository</text><rect fill="#E2E2F0" height="30.0986" rx="2.5" ry="2.5" style="stroke:#181818;stroke-width:0.5;" width="102" x="1225" y="87.0986"/><text fill="#000000" font-family="sans-serif" font-size="14" lengthAdjust="spacing" textLength="88" x="1232" y="107.2305">device:Device</text><rect fill="#E2E2F0" height="30.0986" rx="2.5" ry="2.5" style="stroke:#181818;stroke-width:0.5;" width="102" x="1225" y="790.3218"/><text fill="#000000" font-family="sans-serif" font-size="14" lengthAdjust="spacing" textLength="88" x="1232" y="810.4536">device:Device</text><rect fill="#E2E2F0" height="30.0986" rx="2.5" ry="2.5" style="stroke:#181818;stroke-width:0.5;" width="204" x="1458" y="87.0986"/><text fill="#000000" font-family="sans-serif" font-size="14" lengthAdjust="spacing" textLength="190" x="1465" y="107.2305">deviceRepo:DeviceRepository</text><rect fill="#E2E2F0" height="30.0986" rx="2.5" ry="2.5" style="stroke:#181818;stroke-width:0.5;" width="204" x="1458" y="790.3218"/><text fill="#000000" font-family="sans-serif" font-size="14" lengthAdjust="spacing" textLength="190" x="1465" y="810.4536">deviceRepo:DeviceRepository</text><rect fill="#FFFFFF" height="654.1245" style="stroke:#181818;stroke-width:1.0;" width="10" x="18" y="128.1973"/><rect fill="#FFFFFF" height="624.1758" style="stroke:#181818;stroke-width:1.0;" width="10" x="257" y="149.146"/><rect fill="#FFFFFF" height="28.9487" style="stroke:#181818;stroke-width:1.0;" width="10" x="445" y="178.0947"/><rect fill="#FFFFFF" height="28.9487" style="stroke:#181818;stroke-width:1.0;" width="10" x="559.5" y="235.9922"/><rect fill="#FFFFFF" height="347.4873" style="stroke:#181818;stroke-width:1.0;" width="10" x="828" y="382.8857"/><rect fill="#FFFFFF" height="173.7949" style="stroke:#181818;stroke-width:1.0;" width="10" x="1271" y="469.7319"/><rect fill="#FFFFFF" height="28" style="stroke:#181818;stroke-width:1.0;" width="10" x="1276" y="530.6294"/><rect fill="#FFFFFF" height="40.9487" style="stroke:#181818;stroke-width:1.0;" width="10" x="1276" y="602.5781"/><rect fill="#FFFFFF" height="28.9487" style="stroke:#181818;stroke-width:1.0;" width="10" x="1555" y="411.8345"/><rect fill="#FFFFFF" height="28.9487" style="stroke:#181818;stroke-width:1.0;" width="10" x="1555" y="672.4756"/><polygon fill="#181818" points="245,145.146,255,149.146,245,153.146,249,149.146" style="stroke:#181818;stroke-width:1.0;"/><line style="stroke:#181818;stroke-width:1.0;" x1="28" x2="251" y1="149.146" y2="149.146"/><text fill="#000000" font-family="sans-serif" font-size="13" font-weight="bold" lengthAdjust="spacing" textLength="7" x="35" y="144.3911">1</text><text fill="#000000" font-family="sans-serif" font-size="13" lengthAdjust="spacing" textLength="199" x="46" y="144.3911">PUT/api/devices/update/:macAddr</text><polygon fill="#181818" points="433,174.0947,443,178.0947,433,182.0947,437,178.0947" style="stroke:#181818;stroke-width:1.0;"/><line style="stroke:#181818;stroke-width:1.0;" x1="267" x2="439" y1="178.0947" y2="178.0947"/><text fill="#000000" font-family="sans-serif" font-size="13" font-weight="bold" lengthAdjust="spacing" textLength="7" x="274" y="173.3398">2</text><text fill="#000000" font-family="sans-serif" font-size="13" lengthAdjust="spacing" textLength="148" x="285" y="173.3398">getUserByToken(request)</text><polygon fill="#181818" points="278,203.0435,268,207.0435,278,211.0435,274,207.0435" style="stroke:#181818;stroke-width:1.0;"/><line style="stroke:#181818;stroke-width:1.0;stroke-dasharray:2.0,2.0;" x1="272" x2="449" y1="207.0435" y2="207.0435"/><text fill="#000000" font-family="sans-serif" font-size="13" font-weight="bold" lengthAdjust="spacing" textLength="7" x="284" y="202.2886">3</text><text fill="#000000" font-family="sans-serif" font-size="13" lengthAdjust="spacing" textLength="36" x="295" y="202.2886">userId</text><polygon fill="#181818" points="547.5,231.9922,557.5,235.9922,547.5,239.9922,551.5,235.9922" style="stroke:#181818;stroke-width:1.0;"/><line style="stroke:#181818;stroke-width:1.0;" x1="267" x2="553.5" y1="235.9922" y2="235.9922"/><text fill="#000000" font-family="sans-serif" font-size="13" font-weight="bold" lengthAdjust="spacing" textLength="7" x="274" y="231.2373">4</text><text fill="#000000" font-family="sans-serif" font-size="13" lengthAdjust="spacing" textLength="92" x="285" y="231.2373">findById(userId)</text><polygon fill="#181818" points="278,260.9409,268,264.9409,278,268.9409,274,264.9409" style="stroke:#181818;stroke-width:1.0;"/><line style="stroke:#181818;stroke-width:1.0;stroke-dasharray:2.0,2.0;" x1="272" x2="563.5" y1="264.9409" y2="264.9409"/><text fill="#000000" font-family="sans-serif" font-size="13" font-weight="bold" lengthAdjust="spacing" textLength="7" x="284" y="260.186">5</text><text fill="#000000" font-family="sans-serif" font-size="13" lengthAdjust="spacing" textLength="25" x="295" y="260.186">user</text><polygon fill="#181818" points="637,289.8896,647,293.8896,637,297.8896,641,293.8896" style="stroke:#181818;stroke-width:1.0;"/><line style="stroke:#181818;stroke-width:1.0;" x1="267" x2="643" y1="293.8896" y2="293.8896"/><text fill="#000000" font-family="sans-serif" font-size="13" font-weight="bold" lengthAdjust="spacing" textLength="7" x="274" y="289.1348">6</text><text fill="#000000" font-family="sans-serif" font-size="13" lengthAdjust="spacing" textLength="88" x="285" y="289.1348">getAuthorities()</text><rect fill="#E2E2F0" height="30.0986" rx="2.5" ry="2.5" style="stroke:#181818;stroke-width:0.5;" width="76" x="649" y="272.9409"/><text fill="#000000" font-family="sans-serif" font-size="14" lengthAdjust="spacing" textLength="62" x="656" y="293.0728">user:User</text><path d="M180.5,321.0396 L440.5,321.0396 L440.5,327.9883 L430.5,337.9883 L180.5,337.9883 L180.5,321.0396 " fill="#EEEEEE" style="stroke:#000000;stroke-width:1.5;"/><rect fill="none" height="424.3335" style="stroke:#000000;stroke-width:1.5;" width="1501.5" x="180.5" y="321.0396"/><text fill="#000000" font-family="sans-serif" font-size="13" font-weight="bold" lengthAdjust="spacing" textLength="215" x="195.5" y="334.2334">alt if (user.role == "SUBSCRIBER")</text><path d="M190.5,344.9883 L566.5,344.9883 L566.5,351.937 L556.5,361.937 L190.5,361.937 L190.5,344.9883 " fill="#EEEEEE" style="stroke:#000000;stroke-width:1.5;"/><rect fill="none" height="393.3848" style="stroke:#000000;stroke-width:1.5;" width="1481.5" x="190.5" y="344.9883"/><text fill="#000000" font-family="sans-serif" font-size="13" font-weight="bold" lengthAdjust="spacing" textLength="331" x="205.5" y="358.1821">alt if (ifMatchValue != null || !ifMatchValue.isEmpty()){</text><polygon fill="#181818" points="816,378.8857,826,382.8857,816,386.8857,820,382.8857" style="stroke:#181818;stroke-width:1.0;"/><line style="stroke:#181818;stroke-width:1.0;" x1="267" x2="822" y1="382.8857" y2="382.8857"/><text fill="#000000" font-family="sans-serif" font-size="13" font-weight="bold" lengthAdjust="spacing" textLength="7" x="274" y="378.1309">7</text><text fill="#000000" font-family="sans-serif" font-size="13" lengthAdjust="spacing" textLength="264" x="285" y="378.1309">update(macAddress,resource,desiredVersion)</text><polygon fill="#181818" points="1543,407.8345,1553,411.8345,1543,415.8345,1547,411.8345" style="stroke:#181818;stroke-width:1.0;"/><line style="stroke:#181818;stroke-width:1.0;" x1="838" x2="1549" y1="411.8345" y2="411.8345"/><text fill="#000000" font-family="sans-serif" font-size="13" font-weight="bold" lengthAdjust="spacing" textLength="7" x="845" y="407.0796">8</text><text fill="#000000" font-family="sans-serif" font-size="13" lengthAdjust="spacing" textLength="129" x="856" y="407.0796">findById(macAddress)</text><polygon fill="#181818" points="849,436.7832,839,440.7832,849,444.7832,845,440.7832" style="stroke:#181818;stroke-width:1.0;"/><line style="stroke:#181818;stroke-width:1.0;stroke-dasharray:2.0,2.0;" x1="843" x2="1559" y1="440.7832" y2="440.7832"/><text fill="#000000" font-family="sans-serif" font-size="13" font-weight="bold" lengthAdjust="spacing" textLength="7" x="855" y="436.0283">9</text><text fill="#000000" font-family="sans-serif" font-size="13" lengthAdjust="spacing" textLength="38" x="866" y="436.0283">device</text><polygon fill="#181818" points="1259,465.7319,1269,469.7319,1259,473.7319,1263,469.7319" style="stroke:#181818;stroke-width:1.0;"/><line style="stroke:#181818;stroke-width:1.0;" x1="838" x2="1265" y1="469.7319" y2="469.7319"/><text fill="#000000" font-family="sans-serif" font-size="13" font-weight="bold" lengthAdjust="spacing" textLength="14" x="845" y="464.9771">10</text><text fill="#000000" font-family="sans-serif" font-size="13" lengthAdjust="spacing" textLength="337" x="863" y="464.9771">update(desiredVersion, userId, resource.getDesignation() )</text><path d="M1215,484.7319 L1275,484.7319 L1275,491.6807 L1265,501.6807 L1215,501.6807 L1215,484.7319 " fill="#EEEEEE" style="stroke:#000000;stroke-width:1.5;"/><rect fill="none" height="130.8462" style="stroke:#000000;stroke-width:1.5;" width="350" x="1215" y="484.7319"/><text fill="#000000" font-family="sans-serif" font-size="13" font-weight="bold" lengthAdjust="spacing" textLength="15" x="1230" y="497.9258">alt</text><text fill="#000000" font-family="sans-serif" font-size="11" font-weight="bold" lengthAdjust="spacing" textLength="196" x="1290" y="497.0498">[if(currentVersion != desiredVersion)]</text><line style="stroke:#181818;stroke-width:1.0;" x1="1286" x2="1328" y1="522.6294" y2="522.6294"/><line style="stroke:#181818;stroke-width:1.0;" x1="1328" x2="1328" y1="522.6294" y2="535.6294"/><line style="stroke:#181818;stroke-width:1.0;" x1="1287" x2="1328" y1="535.6294" y2="535.6294"/><polygon fill="#181818" points="1297,531.6294,1287,535.6294,1297,539.6294,1293,535.6294" style="stroke:#181818;stroke-width:1.0;"/><text fill="#000000" font-family="sans-serif" font-size="13" font-weight="bold" lengthAdjust="spacing" textLength="14" x="1293" y="517.8745">11</text><text fill="#000000" font-family="sans-serif" font-size="13" lengthAdjust="spacing" textLength="242" x="1311" y="517.8745">setDesignation(resource.getDesignation())</text><line style="stroke:#181818;stroke-width:1.0;" x1="1281" x2="1328" y1="589.5781" y2="589.5781"/><line style="stroke:#181818;stroke-width:1.0;" x1="1328" x2="1328" y1="589.5781" y2="602.5781"/><line style="stroke:#181818;stroke-width:1.0;" x1="1287" x2="1328" y1="602.5781" y2="602.5781"/><polygon fill="#181818" points="1297,598.5781,1287,602.5781,1297,606.5781,1293,602.5781" style="stroke:#181818;stroke-width:1.0;"/><text fill="#000000" font-family="sans-serif" font-size="13" font-weight="bold" lengthAdjust="spacing" textLength="14" x="1293" y="584.8232">12</text><text fill="#000000" font-family="sans-serif" font-size="13" lengthAdjust="spacing" textLength="227" x="1311" y="584.8232">setSubscriptionId(resource.getUserId())</text><polygon fill="#181818" points="849,639.5269,839,643.5269,849,647.5269,845,643.5269" style="stroke:#181818;stroke-width:1.0;"/><line style="stroke:#181818;stroke-width:1.0;stroke-dasharray:2.0,2.0;" x1="843" x2="1275" y1="643.5269" y2="643.5269"/><text fill="#000000" font-family="sans-serif" font-size="13" font-weight="bold" lengthAdjust="spacing" textLength="14" x="855" y="638.772">13</text><text fill="#000000" font-family="sans-serif" font-size="13" lengthAdjust="spacing" textLength="38" x="873" y="638.772">device</text><polygon fill="#181818" points="1543,668.4756,1553,672.4756,1543,676.4756,1547,672.4756" style="stroke:#181818;stroke-width:1.0;"/><line style="stroke:#181818;stroke-width:1.0;" x1="838" x2="1549" y1="672.4756" y2="672.4756"/><text fill="#000000" font-family="sans-serif" font-size="13" font-weight="bold" lengthAdjust="spacing" textLength="14" x="845" y="667.7207">14</text><text fill="#000000" font-family="sans-serif" font-size="13" lengthAdjust="spacing" textLength="74" x="863" y="667.7207">save(device)</text><polygon fill="#181818" points="849,697.4243,839,701.4243,849,705.4243,845,701.4243" style="stroke:#181818;stroke-width:1.0;"/><line style="stroke:#181818;stroke-width:1.0;stroke-dasharray:2.0,2.0;" x1="843" x2="1559" y1="701.4243" y2="701.4243"/><text fill="#000000" font-family="sans-serif" font-size="13" font-weight="bold" lengthAdjust="spacing" textLength="14" x="855" y="696.6694">15</text><text fill="#000000" font-family="sans-serif" font-size="13" lengthAdjust="spacing" textLength="38" x="873" y="696.6694">device</text><polygon fill="#181818" points="278,726.373,268,730.373,278,734.373,274,730.373" style="stroke:#181818;stroke-width:1.0;"/><line style="stroke:#181818;stroke-width:1.0;stroke-dasharray:2.0,2.0;" x1="272" x2="832" y1="730.373" y2="730.373"/><text fill="#000000" font-family="sans-serif" font-size="13" font-weight="bold" lengthAdjust="spacing" textLength="14" x="284" y="725.6182">16</text><text fill="#000000" font-family="sans-serif" font-size="13" lengthAdjust="spacing" textLength="38" x="302" y="725.6182">device</text><polygon fill="#181818" points="39,769.3218,29,773.3218,39,777.3218,35,773.3218" style="stroke:#181818;stroke-width:1.0;"/><line style="stroke:#181818;stroke-width:1.0;stroke-dasharray:2.0,2.0;" x1="33" x2="261" y1="773.3218" y2="773.3218"/><text fill="#000000" font-family="sans-serif" font-size="13" font-weight="bold" lengthAdjust="spacing" textLength="14" x="45" y="768.5669">17</text><text fill="#000000" font-family="sans-serif" font-size="13" lengthAdjust="spacing" textLength="44" x="63" y="768.5669">200 OK</text><!--SRC=[ZLDTQzim57tNhxZDo-oIn6MFXWoQfB0mnaPSzrsLbKHCbZnz1CBwuwSlktQMZGLYoxhdddDyhlpXP4odowBeE1R6jdn9P5je-jDIGUYYOVYeS8kGOOPJgBi66meDFJFYRmOphg5AQDZsQ6oDnCImiqTB4Pw5RL-fSZLYf89PhQcQ0TRW5wZ3oZ32EkS1PkKsy6-aC4fodd0Re_WLxZFbNQh6vLLTqKwMdd_l5fevtKi0sxGrXVlTSh1bzHLRVEcAAdzB5jDJQAZEPDgWxQicYdM6IU7LokfgO-J8OVyq51MJL835dLke8B0TbYDgLm_KQ1X8I1pvAom-XLnB-5u_5xXZHMJJXGsJBieMayUcKSYZF3hcNCAH6a-mlZpB7rHaoXy1RN8Kwx0OY7sgksRexwCluS14ixxicYmYSjINhff7hUh-FYW_MdEIYXb6TPQZevAs0ymDi0C4jgKxDXHMAvXLzRhQx7Vhf_qiH-1-Kp0xVCM6d5umjnJkLY0iv_3s1dVZmfBffxOpbopFVmMEtf2RkBCOWifIJbJhkRj8gmYTDrGpHPiNghIRUDHtFRur3MMKmZj112P422C8fTbFIVpvw2rCvUOf-JdqVfOkkQt370Ns9p3B8Ih5C39YbQB2f7QVnYt_oPh__4SEz9JvhufZZluu_fjs_CsubCRCTNY_dfIA1erPRiJshdaxp3WHZSy-Ir__pqaCntLKy7RyFvuLX_1kI_Zuy03Vlg3V]--></g></svg>