<?xml version="1.0" encoding="us-ascii" standalone="no"?><svg xmlns="http://www.w3.org/2000/svg" xmlns:xlink="http://www.w3.org/1999/xlink" contentStyleType="text/css" height="580px" preserveAspectRatio="none" style="width:1601px;height:580px;background:#FFFFFF;" version="1.1" viewBox="0 0 1601 580" width="1601px" zoomAndPan="magnify"><defs/><g><text fill="#000000" font-family="sans-serif" font-size="14" font-weight="bold" lengthAdjust="spacing" textLength="412" x="593.5" y="28.1318">List Devices from a specific subscription Sequence Diagram</text><rect fill="#FFFFFF" height="362.5347" style="stroke:#181818;stroke-width:1.0;" width="10" x="18" y="128.1973"/><rect fill="#FFFFFF" height="332.5859" style="stroke:#181818;stroke-width:1.0;" width="10" x="184" y="149.146"/><rect fill="#FFFFFF" height="28.9487" style="stroke:#181818;stroke-width:1.0;" width="10" x="372" y="178.0947"/><rect fill="#FFFFFF" height="28.9487" style="stroke:#181818;stroke-width:1.0;" width="10" x="486.5" y="235.9922"/><rect fill="#FFFFFF" height="86.8462" style="stroke:#181818;stroke-width:1.0;" width="10" x="790" y="358.937"/><rect fill="#FFFFFF" height="28.9487" style="stroke:#181818;stroke-width:1.0;" width="10" x="1319" y="387.8857"/><rect fill="none" height="132.7437" style="stroke:#000000;stroke-width:1.5;" width="1318.5" x="117.5" y="321.0396"/><line style="stroke:#181818;stroke-width:0.5;stroke-dasharray:5.0,5.0;" x1="23" x2="23" y1="118.1973" y2="499.7319"/><line style="stroke:#181818;stroke-width:0.5;stroke-dasharray:5.0,5.0;" x1="188.5" x2="188.5" y1="118.1973" y2="499.7319"/><line style="stroke:#181818;stroke-width:0.5;stroke-dasharray:5.0,5.0;" x1="377" x2="377" y1="118.1973" y2="499.7319"/><line style="stroke:#181818;stroke-width:0.5;stroke-dasharray:5.0,5.0;" x1="491" x2="491" y1="118.1973" y2="499.7319"/><line style="stroke:#181818;stroke-width:0.5;stroke-dasharray:5.0,5.0;" x1="614" x2="614" y1="303.4902" y2="499.7319"/><line style="stroke:#181818;stroke-width:0.5;stroke-dasharray:5.0,5.0;" x1="795" x2="795" y1="118.1973" y2="499.7319"/><line style="stroke:#181818;stroke-width:0.5;stroke-dasharray:5.0,5.0;" x1="1075" x2="1075" y1="118.1973" y2="499.7319"/><line style="stroke:#181818;stroke-width:0.5;stroke-dasharray:5.0,5.0;" x1="1324" x2="1324" y1="118.1973" y2="499.7319"/><line style="stroke:#181818;stroke-width:0.5;stroke-dasharray:5.0,5.0;" x1="1515" x2="1515" y1="118.1973" y2="499.7319"/><text fill="#000000" font-family="sans-serif" font-size="14" lengthAdjust="spacing" textLength="30" x="5" y="115.2305">User</text><ellipse cx="23" cy="50.5986" fill="#E2E2F0" rx="8" ry="8" style="stroke:#181818;stroke-width:0.5;"/><path d="M23,58.5986 L23,85.5986 M10,66.5986 L36,66.5986 M23,85.5986 L10,100.5986 M23,85.5986 L36,100.5986 " fill="none" style="stroke:#181818;stroke-width:0.5;"/><text fill="#000000" font-family="sans-serif" font-size="14" lengthAdjust="spacing" textLength="30" x="5" y="511.8638">User</text><ellipse cx="23" cy="523.3306" fill="#E2E2F0" rx="8" ry="8" style="stroke:#181818;stroke-width:0.5;"/><path d="M23,531.3306 L23,558.3306 M10,539.3306 L36,539.3306 M23,558.3306 L10,573.3306 M23,558.3306 L36,573.3306 " fill="none" style="stroke:#181818;stroke-width:0.5;"/><rect fill="#E2E2F0" height="30.0986" rx="2.5" ry="2.5" style="stroke:#181818;stroke-width:0.5;" width="123" x="127.5" y="87.0986"/><text fill="#000000" font-family="sans-serif" font-size="14" lengthAdjust="spacing" textLength="109" x="134.5" y="107.2305">:DeviceController</text><rect fill="#E2E2F0" height="30.0986" rx="2.5" ry="2.5" style="stroke:#181818;stroke-width:0.5;" width="123" x="127.5" y="498.7319"/><text fill="#000000" font-family="sans-serif" font-size="14" lengthAdjust="spacing" textLength="109" x="134.5" y="518.8638">:DeviceController</text><rect fill="#E2E2F0" height="30.0986" rx="2.5" ry="2.5" style="stroke:#181818;stroke-width:0.5;" width="60" x="347" y="87.0986"/><text fill="#000000" font-family="sans-serif" font-size="14" lengthAdjust="spacing" textLength="46" x="354" y="107.2305">:Helper</text><rect fill="#E2E2F0" height="30.0986" rx="2.5" ry="2.5" style="stroke:#181818;stroke-width:0.5;" width="60" x="347" y="498.7319"/><text fill="#000000" font-family="sans-serif" font-size="14" lengthAdjust="spacing" textLength="46" x="354" y="518.8638">:Helper</text><rect fill="#E2E2F0" height="30.0986" rx="2.5" ry="2.5" style="stroke:#181818;stroke-width:0.5;" width="149" x="417" y="87.0986"/><text fill="#000000" font-family="sans-serif" font-size="14" lengthAdjust="spacing" textLength="135" x="424" y="107.2305">:repo:UserRepository</text><rect fill="#E2E2F0" height="30.0986" rx="2.5" ry="2.5" style="stroke:#181818;stroke-width:0.5;" width="149" x="417" y="498.7319"/><text fill="#000000" font-family="sans-serif" font-size="14" lengthAdjust="spacing" textLength="135" x="424" y="518.8638">:repo:UserRepository</text><rect fill="#E2E2F0" height="30.0986" rx="2.5" ry="2.5" style="stroke:#181818;stroke-width:0.5;" width="76" x="576" y="498.7319"/><text fill="#000000" font-family="sans-serif" font-size="14" lengthAdjust="spacing" textLength="62" x="583" y="518.8638">user:User</text><rect fill="#E2E2F0" height="30.0986" rx="2.5" ry="2.5" style="stroke:#181818;stroke-width:0.5;" width="266" x="662" y="87.0986"/><text fill="#000000" font-family="sans-serif" font-size="14" lengthAdjust="spacing" textLength="252" x="669" y="107.2305">subscriptionService:SubscriptionService</text><rect fill="#E2E2F0" height="30.0986" rx="2.5" ry="2.5" style="stroke:#181818;stroke-width:0.5;" width="266" x="662" y="498.7319"/><text fill="#000000" font-family="sans-serif" font-size="14" lengthAdjust="spacing" textLength="252" x="669" y="518.8638">subscriptionService:SubscriptionService</text><rect fill="#E2E2F0" height="30.0986" rx="2.5" ry="2.5" style="stroke:#181818;stroke-width:0.5;" width="274" x="938" y="87.0986"/><text fill="#000000" font-family="sans-serif" font-size="14" lengthAdjust="spacing" textLength="260" x="945" y="107.2305">subscriptionRepo:SubscriptionRepository</text><rect fill="#E2E2F0" height="30.0986" rx="2.5" ry="2.5" style="stroke:#181818;stroke-width:0.5;" width="274" x="938" y="498.7319"/><text fill="#000000" font-family="sans-serif" font-size="14" lengthAdjust="spacing" textLength="260" x="945" y="518.8638">subscriptionRepo:SubscriptionRepository</text><rect fill="#E2E2F0" height="30.0986" rx="2.5" ry="2.5" style="stroke:#181818;stroke-width:0.5;" width="204" x="1222" y="87.0986"/><text fill="#000000" font-family="sans-serif" font-size="14" lengthAdjust="spacing" textLength="190" x="1229" y="107.2305">deviceRepo:DeviceRepository</text><rect fill="#E2E2F0" height="30.0986" rx="2.5" ry="2.5" style="stroke:#181818;stroke-width:0.5;" width="204" x="1222" y="498.7319"/><text fill="#000000" font-family="sans-serif" font-size="14" lengthAdjust="spacing" textLength="190" x="1229" y="518.8638">deviceRepo:DeviceRepository</text><rect fill="#E2E2F0" height="30.0986" rx="2.5" ry="2.5" style="stroke:#181818;stroke-width:0.5;" width="159" x="1436" y="87.0986"/><text fill="#000000" font-family="sans-serif" font-size="14" lengthAdjust="spacing" textLength="145" x="1443" y="107.2305">mapper:DeviceMapper</text><rect fill="#E2E2F0" height="30.0986" rx="2.5" ry="2.5" style="stroke:#181818;stroke-width:0.5;" width="159" x="1436" y="498.7319"/><text fill="#000000" font-family="sans-serif" font-size="14" lengthAdjust="spacing" textLength="145" x="1443" y="518.8638">mapper:DeviceMapper</text><rect fill="#FFFFFF" height="362.5347" style="stroke:#181818;stroke-width:1.0;" width="10" x="18" y="128.1973"/><rect fill="#FFFFFF" height="332.5859" style="stroke:#181818;stroke-width:1.0;" width="10" x="184" y="149.146"/><rect fill="#FFFFFF" height="28.9487" style="stroke:#181818;stroke-width:1.0;" width="10" x="372" y="178.0947"/><rect fill="#FFFFFF" height="28.9487" style="stroke:#181818;stroke-width:1.0;" width="10" x="486.5" y="235.9922"/><rect fill="#FFFFFF" height="86.8462" style="stroke:#181818;stroke-width:1.0;" width="10" x="790" y="358.937"/><rect fill="#FFFFFF" height="28.9487" style="stroke:#181818;stroke-width:1.0;" width="10" x="1319" y="387.8857"/><polygon fill="#181818" points="172,145.146,182,149.146,172,153.146,176,149.146" style="stroke:#181818;stroke-width:1.0;"/><line style="stroke:#181818;stroke-width:1.0;" x1="28" x2="178" y1="149.146" y2="149.146"/><text fill="#000000" font-family="sans-serif" font-size="13" font-weight="bold" lengthAdjust="spacing" textLength="7" x="35" y="144.3911">1</text><text fill="#000000" font-family="sans-serif" font-size="13" lengthAdjust="spacing" textLength="126" x="46" y="144.3911">GET/api/devices/user</text><polygon fill="#181818" points="360,174.0947,370,178.0947,360,182.0947,364,178.0947" style="stroke:#181818;stroke-width:1.0;"/><line style="stroke:#181818;stroke-width:1.0;" x1="194" x2="366" y1="178.0947" y2="178.0947"/><text fill="#000000" font-family="sans-serif" font-size="13" font-weight="bold" lengthAdjust="spacing" textLength="7" x="201" y="173.3398">2</text><text fill="#000000" font-family="sans-serif" font-size="13" lengthAdjust="spacing" textLength="148" x="212" y="173.3398">getUserByToken(request)</text><polygon fill="#181818" points="205,203.0435,195,207.0435,205,211.0435,201,207.0435" style="stroke:#181818;stroke-width:1.0;"/><line style="stroke:#181818;stroke-width:1.0;stroke-dasharray:2.0,2.0;" x1="199" x2="376" y1="207.0435" y2="207.0435"/><text fill="#000000" font-family="sans-serif" font-size="13" font-weight="bold" lengthAdjust="spacing" textLength="7" x="211" y="202.2886">3</text><text fill="#000000" font-family="sans-serif" font-size="13" lengthAdjust="spacing" textLength="36" x="222" y="202.2886">userId</text><polygon fill="#181818" points="474.5,231.9922,484.5,235.9922,474.5,239.9922,478.5,235.9922" style="stroke:#181818;stroke-width:1.0;"/><line style="stroke:#181818;stroke-width:1.0;" x1="194" x2="480.5" y1="235.9922" y2="235.9922"/><text fill="#000000" font-family="sans-serif" font-size="13" font-weight="bold" lengthAdjust="spacing" textLength="7" x="201" y="231.2373">4</text><text fill="#000000" font-family="sans-serif" font-size="13" lengthAdjust="spacing" textLength="92" x="212" y="231.2373">findById(userId)</text><polygon fill="#181818" points="205,260.9409,195,264.9409,205,268.9409,201,264.9409" style="stroke:#181818;stroke-width:1.0;"/><line style="stroke:#181818;stroke-width:1.0;stroke-dasharray:2.0,2.0;" x1="199" x2="490.5" y1="264.9409" y2="264.9409"/><text fill="#000000" font-family="sans-serif" font-size="13" font-weight="bold" lengthAdjust="spacing" textLength="7" x="211" y="260.186">5</text><text fill="#000000" font-family="sans-serif" font-size="13" lengthAdjust="spacing" textLength="25" x="222" y="260.186">user</text><polygon fill="#181818" points="564,289.8896,574,293.8896,564,297.8896,568,293.8896" style="stroke:#181818;stroke-width:1.0;"/><line style="stroke:#181818;stroke-width:1.0;" x1="194" x2="570" y1="293.8896" y2="293.8896"/><text fill="#000000" font-family="sans-serif" font-size="13" font-weight="bold" lengthAdjust="spacing" textLength="7" x="201" y="289.1348">6</text><text fill="#000000" font-family="sans-serif" font-size="13" lengthAdjust="spacing" textLength="88" x="212" y="289.1348">getAuthorities()</text><rect fill="#E2E2F0" height="30.0986" rx="2.5" ry="2.5" style="stroke:#181818;stroke-width:0.5;" width="76" x="576" y="272.9409"/><text fill="#000000" font-family="sans-serif" font-size="14" lengthAdjust="spacing" textLength="62" x="583" y="293.0728">user:User</text><path d="M117.5,321.0396 L177.5,321.0396 L177.5,327.9883 L167.5,337.9883 L117.5,337.9883 L117.5,321.0396 " fill="#EEEEEE" style="stroke:#000000;stroke-width:1.5;"/><rect fill="none" height="132.7437" style="stroke:#000000;stroke-width:1.5;" width="1318.5" x="117.5" y="321.0396"/><text fill="#000000" font-family="sans-serif" font-size="13" font-weight="bold" lengthAdjust="spacing" textLength="15" x="132.5" y="334.2334">alt</text><text fill="#000000" font-family="sans-serif" font-size="11" font-weight="bold" lengthAdjust="spacing" textLength="163" x="192.5" y="333.3574">[if(user.role = "SUBSCRIBER")]</text><polygon fill="#181818" points="778,354.937,788,358.937,778,362.937,782,358.937" style="stroke:#181818;stroke-width:1.0;"/><line style="stroke:#181818;stroke-width:1.0;" x1="194" x2="784" y1="358.937" y2="358.937"/><text fill="#000000" font-family="sans-serif" font-size="13" font-weight="bold" lengthAdjust="spacing" textLength="7" x="201" y="354.1821">7</text><text fill="#000000" font-family="sans-serif" font-size="13" lengthAdjust="spacing" textLength="118" x="212" y="354.1821">findDevSubs(userId)</text><polygon fill="#181818" points="1307,383.8857,1317,387.8857,1307,391.8857,1311,387.8857" style="stroke:#181818;stroke-width:1.0;"/><line style="stroke:#181818;stroke-width:1.0;" x1="800" x2="1313" y1="387.8857" y2="387.8857"/><text fill="#000000" font-family="sans-serif" font-size="13" font-weight="bold" lengthAdjust="spacing" textLength="7" x="807" y="383.1309">8</text><text fill="#000000" font-family="sans-serif" font-size="13" lengthAdjust="spacing" textLength="164" x="818" y="383.1309">findByUserId(subscriptionId)</text><polygon fill="#181818" points="811,412.8345,801,416.8345,811,420.8345,807,416.8345" style="stroke:#181818;stroke-width:1.0;"/><line style="stroke:#181818;stroke-width:1.0;stroke-dasharray:2.0,2.0;" x1="805" x2="1323" y1="416.8345" y2="416.8345"/><text fill="#000000" font-family="sans-serif" font-size="13" font-weight="bold" lengthAdjust="spacing" textLength="7" x="817" y="412.0796">9</text><text fill="#000000" font-family="sans-serif" font-size="13" lengthAdjust="spacing" textLength="45" x="828" y="412.0796">devices</text><polygon fill="#181818" points="205,441.7832,195,445.7832,205,449.7832,201,445.7832" style="stroke:#181818;stroke-width:1.0;"/><line style="stroke:#181818;stroke-width:1.0;stroke-dasharray:2.0,2.0;" x1="199" x2="794" y1="445.7832" y2="445.7832"/><text fill="#000000" font-family="sans-serif" font-size="13" font-weight="bold" lengthAdjust="spacing" textLength="14" x="211" y="441.0283">10</text><text fill="#000000" font-family="sans-serif" font-size="13" lengthAdjust="spacing" textLength="45" x="229" y="441.0283">devices</text><polygon fill="#181818" points="39,477.7319,29,481.7319,39,485.7319,35,481.7319" style="stroke:#181818;stroke-width:1.0;"/><line style="stroke:#181818;stroke-width:1.0;stroke-dasharray:2.0,2.0;" x1="33" x2="188" y1="481.7319" y2="481.7319"/><text fill="#000000" font-family="sans-serif" font-size="13" font-weight="bold" lengthAdjust="spacing" textLength="14" x="45" y="476.9771">11</text><text fill="#000000" font-family="sans-serif" font-size="13" lengthAdjust="spacing" textLength="42" x="63" y="476.9771">200 Ok</text><!--SRC=[TLBRQkCm47tNLmn-sQIGkkoZe8LDKhQ1NGfnym6gF6b5RKcLne7y_UfYkQd3-iMIpcL6P_JZdSXwNjUs4vg6lhkLfgyzVWwe9QvQ9TwSw1aZHHt27-K9jdXI4ZqSdUb1WBSerL59yCEhbqvPKaP3Cph0jZY8WOoGf4w248nEUptqh-W29iaug0uUNGN2GrmmAnmfgMpe2ogUgswC9cUwRkHjo7KptXDsTaJpSeOxj8P7_trOU1NgdXDv68- -q-CfdzeQ_CpjyieDkjWXRwxFahWvoV-BO-LlobbtWNlTN9iYITBjjBmG1VnQr0iRGXa5VzEcaFEEfN7aCQKvC1P_i7f8SNFu_VXI2wlgNDxNCICMeKZ9cNDuGuggzVd5VA1UkFWSF2rPnc4rkKNrhftqPGmSZagtw_EkNMJ6aXLe9hwGkfkRLFdNGE_6ALBe5qicEW9rJ3QtuUqWt4FL7DRDPhzRF-wh9OFm5PCmfLmw11JdCLMFf016pfXhQV6G68lBSHR1o4mT9-Snio-twIe5GLt2252qvl3pxWwUFnZx1m00]--></g></svg>