<?xml version="1.0" encoding="us-ascii" standalone="no"?><svg xmlns="http://www.w3.org/2000/svg" xmlns:xlink="http://www.w3.org/1999/xlink" contentStyleType="text/css" height="735.6px" preserveAspectRatio="none" style="width:1020px;height:735px;background:#FFFFFF;" version="1.1" viewBox="0 0 1020 735" width="1020px" zoomAndPan="magnify"><defs/><g><text fill="#000000" font-family="sans-serif" font-size="8.4" font-weight="bold" lengthAdjust="spacing" textLength="194.4" x="413.7" y="18.0645">Update plan&#180;s price details Sequence Diagram</text><rect fill="#FFFFFF" height="600.5848" style="stroke:#181818;stroke-width:0.6;" width="6" x="10.5" y="79.9453"/><rect fill="#FFFFFF" height="475.7391" style="stroke:#181818;stroke-width:0.6;" width="6" x="137.7" y="93.9199"/><rect fill="#FFFFFF" height="18.7746" style="stroke:#181818;stroke-width:0.6;" width="6" x="249.9" y="112.6945"/><rect fill="#FFFFFF" height="18.7746" style="stroke:#181818;stroke-width:0.6;" width="6" x="316.8" y="150.2438"/><rect fill="#FFFFFF" height="422.4152" style="stroke:#181818;stroke-width:0.6;" width="6" x="467.1" y="229.7402"/><rect fill="#FFFFFF" height="18.7746" style="stroke:#181818;stroke-width:0.6;" width="6" x="683.7" y="248.5148"/><rect fill="#FFFFFF" height="18.7746" style="stroke:#181818;stroke-width:0.6;" width="6" x="683.7" y="614.6062"/><rect fill="#FFFFFF" height="18" style="stroke:#181818;stroke-width:0.6;" width="6" x="870.6" y="532.8844"/><rect fill="#FFFFFF" height="18" style="stroke:#181818;stroke-width:0.6;" width="6" x="981" y="312.2367"/><rect fill="#FFFFFF" height="18" style="stroke:#181818;stroke-width:0.6;" width="6" x="981" y="349.0113"/><rect fill="#FFFFFF" height="18" style="stroke:#181818;stroke-width:0.6;" width="6" x="981" y="385.7859"/><rect fill="#FFFFFF" height="18" style="stroke:#181818;stroke-width:0.6;" width="6" x="981" y="422.5605"/><rect fill="#FFFFFF" height="18" style="stroke:#181818;stroke-width:0.6;" width="6" x="981" y="459.3352"/><rect fill="#FFFFFF" height="18" style="stroke:#181818;stroke-width:0.6;" width="6" x="981" y="496.1098"/><rect fill="none" height="452.7645" style="stroke:#000000;stroke-width:0.8999999999999999;" width="914.1" x="102.3" y="204.191"/><line style="stroke:#181818;stroke-width:0.3;stroke-dasharray:5.0,5.0;" x1="13.2" x2="13.2" y1="73.9453" y2="685.9301"/><line style="stroke:#181818;stroke-width:0.3;stroke-dasharray:5.0,5.0;" x1="140.7" x2="140.7" y1="73.9453" y2="685.9301"/><line style="stroke:#181818;stroke-width:0.3;stroke-dasharray:5.0,5.0;" x1="252.6" x2="252.6" y1="73.9453" y2="685.9301"/><line style="stroke:#181818;stroke-width:0.3;stroke-dasharray:5.0,5.0;" x1="319.8" x2="319.8" y1="73.9453" y2="685.9301"/><line style="stroke:#181818;stroke-width:0.3;stroke-dasharray:5.0,5.0;" x1="391.2" x2="391.2" y1="192.9047" y2="685.9301"/><line style="stroke:#181818;stroke-width:0.3;stroke-dasharray:5.0,5.0;" x1="469.8" x2="469.8" y1="73.9453" y2="685.9301"/><line style="stroke:#181818;stroke-width:0.3;stroke-dasharray:5.0,5.0;" x1="576.6" x2="576.6" y1="73.9453" y2="685.9301"/><line style="stroke:#181818;stroke-width:0.3;stroke-dasharray:5.0,5.0;" x1="686.4" x2="686.4" y1="73.9453" y2="685.9301"/><line style="stroke:#181818;stroke-width:0.3;stroke-dasharray:5.0,5.0;" x1="767.4" x2="767.4" y1="593.5453" y2="685.9301"/><line style="stroke:#181818;stroke-width:0.3;stroke-dasharray:5.0,5.0;" x1="873.6" x2="873.6" y1="73.9453" y2="685.9301"/><line style="stroke:#181818;stroke-width:0.3;stroke-dasharray:5.0,5.0;" x1="984" x2="984" y1="291.1758" y2="685.9301"/><text fill="#000000" font-family="sans-serif" font-size="8.4" lengthAdjust="spacing" textLength="17.4" x="3" y="71.8371">User</text><ellipse cx="13.5" cy="31.8727" fill="#E2E2F0" rx="4.8" ry="4.8" style="stroke:#181818;stroke-width:0.3;"/><path d="M13.5,36.6727 L13.5,52.8727 M5.7,41.4727 L21.3,41.4727 M13.5,52.8727 L5.7,61.8727 M13.5,52.8727 L21.3,61.8727 " fill="none" style="stroke:#181818;stroke-width:0.3;"/><text fill="#000000" font-family="sans-serif" font-size="8.4" lengthAdjust="spacing" textLength="17.4" x="3" y="694.3945">User</text><ellipse cx="13.5" cy="701.6027" fill="#E2E2F0" rx="4.8" ry="4.8" style="stroke:#181818;stroke-width:0.3;"/><path d="M13.5,706.4027 L13.5,722.6027 M5.7,711.2027 L21.3,711.2027 M13.5,722.6027 L5.7,731.6027 M13.5,722.6027 L21.3,731.6027 " fill="none" style="stroke:#181818;stroke-width:0.3;"/><rect fill="#E2E2F0" height="19.5727" rx="1.5" ry="1.5" style="stroke:#181818;stroke-width:0.3;" width="64.8" x="108.3" y="53.7727"/><text fill="#000000" font-family="sans-serif" font-size="8.4" lengthAdjust="spacing" textLength="56.4" x="112.5" y="67.0371">:PlanController</text><rect fill="#E2E2F0" height="19.5727" rx="1.5" ry="1.5" style="stroke:#181818;stroke-width:0.3;" width="64.8" x="108.3" y="685.3301"/><text fill="#000000" font-family="sans-serif" font-size="8.4" lengthAdjust="spacing" textLength="56.4" x="112.5" y="698.5945">:PlanController</text><rect fill="#E2E2F0" height="19.5727" rx="1.5" ry="1.5" style="stroke:#181818;stroke-width:0.3;" width="35.4" x="235.2" y="53.7727"/><text fill="#000000" font-family="sans-serif" font-size="8.4" lengthAdjust="spacing" textLength="27" x="239.4" y="67.0371">:Helper</text><rect fill="#E2E2F0" height="19.5727" rx="1.5" ry="1.5" style="stroke:#181818;stroke-width:0.3;" width="35.4" x="235.2" y="685.3301"/><text fill="#000000" font-family="sans-serif" font-size="8.4" lengthAdjust="spacing" textLength="27" x="239.4" y="698.5945">:Helper</text><rect fill="#E2E2F0" height="19.5727" rx="1.5" ry="1.5" style="stroke:#181818;stroke-width:0.3;" width="86.4" x="276.6" y="53.7727"/><text fill="#000000" font-family="sans-serif" font-size="8.4" lengthAdjust="spacing" textLength="78" x="280.8" y="67.0371">repo:UserRepository</text><rect fill="#E2E2F0" height="19.5727" rx="1.5" ry="1.5" style="stroke:#181818;stroke-width:0.3;" width="86.4" x="276.6" y="685.3301"/><text fill="#000000" font-family="sans-serif" font-size="8.4" lengthAdjust="spacing" textLength="78" x="280.8" y="698.5945">repo:UserRepository</text><rect fill="#E2E2F0" height="19.5727" rx="1.5" ry="1.5" style="stroke:#181818;stroke-width:0.3;" width="45" x="369" y="685.3301"/><text fill="#000000" font-family="sans-serif" font-size="8.4" lengthAdjust="spacing" textLength="36.6" x="373.2" y="698.5945">user:User</text><rect fill="#E2E2F0" height="19.5727" rx="1.5" ry="1.5" style="stroke:#181818;stroke-width:0.3;" width="100.2" x="420" y="53.7727"/><text fill="#000000" font-family="sans-serif" font-size="8.4" lengthAdjust="spacing" textLength="91.8" x="424.2" y="67.0371">planService:PlanService</text><rect fill="#E2E2F0" height="19.5727" rx="1.5" ry="1.5" style="stroke:#181818;stroke-width:0.3;" width="100.2" x="420" y="685.3301"/><text fill="#000000" font-family="sans-serif" font-size="8.4" lengthAdjust="spacing" textLength="91.8" x="424.2" y="698.5945">planService:PlanService</text><rect fill="#E2E2F0" height="19.5727" rx="1.5" ry="1.5" style="stroke:#181818;stroke-width:0.3;" width="101.4" x="526.2" y="53.7727"/><text fill="#000000" font-family="sans-serif" font-size="8.4" lengthAdjust="spacing" textLength="93" x="530.4" y="67.0371">planMapper:PlanMapper</text><rect fill="#E2E2F0" height="19.5727" rx="1.5" ry="1.5" style="stroke:#181818;stroke-width:0.3;" width="101.4" x="526.2" y="685.3301"/><text fill="#000000" font-family="sans-serif" font-size="8.4" lengthAdjust="spacing" textLength="93" x="530.4" y="698.5945">planMapper:PlanMapper</text><rect fill="#E2E2F0" height="19.5727" rx="1.5" ry="1.5" style="stroke:#181818;stroke-width:0.3;" width="106.2" x="633.6" y="53.7727"/><text fill="#000000" font-family="sans-serif" font-size="8.4" lengthAdjust="spacing" textLength="97.8" x="637.8" y="67.0371">repository:PlanRepository</text><rect fill="#E2E2F0" height="19.5727" rx="1.5" ry="1.5" style="stroke:#181818;stroke-width:0.3;" width="106.2" x="633.6" y="685.3301"/><text fill="#000000" font-family="sans-serif" font-size="8.4" lengthAdjust="spacing" textLength="97.8" x="637.8" y="698.5945">repository:PlanRepository</text><rect fill="#E2E2F0" height="19.5727" rx="1.5" ry="1.5" style="stroke:#181818;stroke-width:0.3;" width="43.8" x="745.8" y="685.3301"/><text fill="#000000" font-family="sans-serif" font-size="8.4" lengthAdjust="spacing" textLength="35.4" x="750" y="698.5945">plan:Plan</text><rect fill="#E2E2F0" height="19.5727" rx="1.5" ry="1.5" style="stroke:#181818;stroke-width:0.3;" width="156" x="795.6" y="53.7727"/><text fill="#000000" font-family="sans-serif" font-size="8.4" lengthAdjust="spacing" textLength="147.6" x="799.8" y="67.0371">priceRepository:PriceHistoryRepository</text><rect fill="#E2E2F0" height="19.5727" rx="1.5" ry="1.5" style="stroke:#181818;stroke-width:0.3;" width="156" x="795.6" y="685.3301"/><text fill="#000000" font-family="sans-serif" font-size="8.4" lengthAdjust="spacing" textLength="147.6" x="799.8" y="698.5945">priceRepository:PriceHistoryRepository</text><rect fill="#E2E2F0" height="19.5727" rx="1.5" ry="1.5" style="stroke:#181818;stroke-width:0.3;" width="52.8" x="957.6" y="685.3301"/><text fill="#000000" font-family="sans-serif" font-size="8.4" lengthAdjust="spacing" textLength="44.4" x="961.8" y="698.5945">priceHistory</text><rect fill="#FFFFFF" height="600.5848" style="stroke:#181818;stroke-width:0.6;" width="6" x="10.5" y="79.9453"/><rect fill="#FFFFFF" height="475.7391" style="stroke:#181818;stroke-width:0.6;" width="6" x="137.7" y="93.9199"/><rect fill="#FFFFFF" height="18.7746" style="stroke:#181818;stroke-width:0.6;" width="6" x="249.9" y="112.6945"/><rect fill="#FFFFFF" height="18.7746" style="stroke:#181818;stroke-width:0.6;" width="6" x="316.8" y="150.2438"/><rect fill="#FFFFFF" height="422.4152" style="stroke:#181818;stroke-width:0.6;" width="6" x="467.1" y="229.7402"/><rect fill="#FFFFFF" height="18.7746" style="stroke:#181818;stroke-width:0.6;" width="6" x="683.7" y="248.5148"/><rect fill="#FFFFFF" height="18.7746" style="stroke:#181818;stroke-width:0.6;" width="6" x="683.7" y="614.6062"/><rect fill="#FFFFFF" height="18" style="stroke:#181818;stroke-width:0.6;" width="6" x="870.6" y="532.8844"/><rect fill="#FFFFFF" height="18" style="stroke:#181818;stroke-width:0.6;" width="6" x="981" y="312.2367"/><rect fill="#FFFFFF" height="18" style="stroke:#181818;stroke-width:0.6;" width="6" x="981" y="349.0113"/><rect fill="#FFFFFF" height="18" style="stroke:#181818;stroke-width:0.6;" width="6" x="981" y="385.7859"/><rect fill="#FFFFFF" height="18" style="stroke:#181818;stroke-width:0.6;" width="6" x="981" y="422.5605"/><rect fill="#FFFFFF" height="18" style="stroke:#181818;stroke-width:0.6;" width="6" x="981" y="459.3352"/><rect fill="#FFFFFF" height="18" style="stroke:#181818;stroke-width:0.6;" width="6" x="981" y="496.1098"/><polygon fill="#181818" points="130.5,91.5199,136.5,93.9199,130.5,96.3199,132.9,93.9199" style="stroke:#181818;stroke-width:0.6;"/><line style="stroke:#181818;stroke-width:0.6;" x1="16.5" x2="134.1" y1="93.9199" y2="93.9199"/><text fill="#000000" font-family="sans-serif" font-size="7.8" font-weight="bold" lengthAdjust="spacing" textLength="4.2" x="20.7" y="90.7623">1</text><text fill="#000000" font-family="sans-serif" font-size="7.8" lengthAdjust="spacing" textLength="103.2" x="27.3" y="90.7623">PATCH/api/plans/updatePrice</text><polygon fill="#181818" points="242.7,110.2945,248.7,112.6945,242.7,115.0945,245.1,112.6945" style="stroke:#181818;stroke-width:0.6;"/><line style="stroke:#181818;stroke-width:0.6;" x1="143.7" x2="246.3" y1="112.6945" y2="112.6945"/><text fill="#000000" font-family="sans-serif" font-size="7.8" font-weight="bold" lengthAdjust="spacing" textLength="4.2" x="147.9" y="109.5369">2</text><text fill="#000000" font-family="sans-serif" font-size="7.8" lengthAdjust="spacing" textLength="88.2" x="154.5" y="109.5369">getUserByToken(request)</text><polygon fill="#181818" points="150.3,129.0691,144.3,131.4691,150.3,133.8691,147.9,131.4691" style="stroke:#181818;stroke-width:0.6;"/><line style="stroke:#181818;stroke-width:0.6;stroke-dasharray:2.0,2.0;" x1="146.7" x2="252.3" y1="131.4691" y2="131.4691"/><text fill="#000000" font-family="sans-serif" font-size="7.8" font-weight="bold" lengthAdjust="spacing" textLength="4.2" x="153.9" y="128.3115">3</text><text fill="#000000" font-family="sans-serif" font-size="7.8" lengthAdjust="spacing" textLength="21" x="160.5" y="128.3115">userId</text><polygon fill="#181818" points="309.6,147.8438,315.6,150.2438,309.6,152.6437,312,150.2438" style="stroke:#181818;stroke-width:0.6;"/><line style="stroke:#181818;stroke-width:0.6;" x1="143.7" x2="313.2" y1="150.2438" y2="150.2438"/><text fill="#000000" font-family="sans-serif" font-size="7.8" font-weight="bold" lengthAdjust="spacing" textLength="4.2" x="147.9" y="147.0861">4</text><text fill="#000000" font-family="sans-serif" font-size="7.8" lengthAdjust="spacing" textLength="53.4" x="154.5" y="147.0861">findById(userId)</text><polygon fill="#181818" points="150.3,166.6184,144.3,169.0184,150.3,171.4184,147.9,169.0184" style="stroke:#181818;stroke-width:0.6;"/><line style="stroke:#181818;stroke-width:0.6;stroke-dasharray:2.0,2.0;" x1="146.7" x2="319.2" y1="169.0184" y2="169.0184"/><text fill="#000000" font-family="sans-serif" font-size="7.8" font-weight="bold" lengthAdjust="spacing" textLength="4.2" x="153.9" y="165.8607">5</text><text fill="#000000" font-family="sans-serif" font-size="7.8" lengthAdjust="spacing" textLength="15" x="160.5" y="165.8607">user</text><polygon fill="#181818" points="361.8,185.393,367.8,187.793,361.8,190.193,364.2,187.793" style="stroke:#181818;stroke-width:0.6;"/><line style="stroke:#181818;stroke-width:0.6;" x1="143.7" x2="365.4" y1="187.793" y2="187.793"/><text fill="#000000" font-family="sans-serif" font-size="7.8" font-weight="bold" lengthAdjust="spacing" textLength="4.2" x="147.9" y="184.6354">6</text><text fill="#000000" font-family="sans-serif" font-size="7.8" lengthAdjust="spacing" textLength="52.8" x="154.5" y="184.6354">getAuthorities()</text><rect fill="#E2E2F0" height="19.5727" rx="1.5" ry="1.5" style="stroke:#181818;stroke-width:0.3;" width="45" x="369" y="173.8184"/><text fill="#000000" font-family="sans-serif" font-size="8.4" lengthAdjust="spacing" textLength="36.6" x="373.2" y="187.0828">user:User</text><path d="M102.3,204.191 L138.9,204.191 L138.9,209.7656 L132.9,215.7656 L102.3,215.7656 L102.3,204.191 " fill="#EEEEEE" style="stroke:#000000;stroke-width:0.8999999999999999;"/><rect fill="none" height="452.7645" style="stroke:#000000;stroke-width:0.8999999999999999;" width="914.1" x="102.3" y="204.191"/><text fill="#000000" font-family="sans-serif" font-size="7.8" font-weight="bold" lengthAdjust="spacing" textLength="9.6" x="111.3" y="213.208">alt</text><text fill="#000000" font-family="sans-serif" font-size="6.6" font-weight="bold" lengthAdjust="spacing" textLength="130.8" x="147.9" y="212.5131">[if(user.role = "MARKETING_DIRECTOR")]</text><polygon fill="#181818" points="459.9,227.3402,465.9,229.7402,459.9,232.1402,462.3,229.7402" style="stroke:#181818;stroke-width:0.6;"/><line style="stroke:#181818;stroke-width:0.6;" x1="143.7" x2="463.5" y1="229.7402" y2="229.7402"/><text fill="#000000" font-family="sans-serif" font-size="7.8" font-weight="bold" lengthAdjust="spacing" textLength="4.2" x="147.9" y="226.5826">7</text><text fill="#000000" font-family="sans-serif" font-size="7.8" lengthAdjust="spacing" textLength="156" x="154.5" y="226.5826">updatePrice(planName, resource, userName)</text><polygon fill="#181818" points="676.5,246.1148,682.5,248.5148,676.5,250.9148,678.9,248.5148" style="stroke:#181818;stroke-width:0.6;"/><line style="stroke:#181818;stroke-width:0.6;" x1="473.1" x2="680.1" y1="248.5148" y2="248.5148"/><text fill="#000000" font-family="sans-serif" font-size="7.8" font-weight="bold" lengthAdjust="spacing" textLength="4.2" x="477.3" y="245.3572">8</text><text fill="#000000" font-family="sans-serif" font-size="7.8" lengthAdjust="spacing" textLength="97.2" x="483.9" y="245.3572">findByPlanName(planName)</text><polygon fill="#181818" points="479.7,264.8895,473.7,267.2895,479.7,269.6895,477.3,267.2895" style="stroke:#181818;stroke-width:0.6;"/><line style="stroke:#181818;stroke-width:0.6;stroke-dasharray:2.0,2.0;" x1="476.1" x2="686.1" y1="267.2895" y2="267.2895"/><text fill="#000000" font-family="sans-serif" font-size="7.8" font-weight="bold" lengthAdjust="spacing" textLength="4.2" x="483.3" y="264.1318">9</text><text fill="#000000" font-family="sans-serif" font-size="7.8" lengthAdjust="spacing" textLength="14.4" x="489.9" y="264.1318">plan</text><polygon fill="#181818" points="950.4,283.6641,956.4,286.0641,950.4,288.4641,952.8,286.0641" style="stroke:#181818;stroke-width:0.6;"/><line style="stroke:#181818;stroke-width:0.6;" x1="473.1" x2="954" y1="286.0641" y2="286.0641"/><text fill="#000000" font-family="sans-serif" font-size="7.8" font-weight="bold" lengthAdjust="spacing" textLength="8.4" x="477.3" y="282.9064">10</text><text fill="#000000" font-family="sans-serif" font-size="7.8" lengthAdjust="spacing" textLength="149.4" x="488.1" y="282.9064">setPreviousAnnualFee(plan.getAnnualFee()</text><rect fill="#E2E2F0" height="19.5727" rx="1.5" ry="1.5" style="stroke:#181818;stroke-width:0.3;" width="52.8" x="957.6" y="272.0895"/><text fill="#000000" font-family="sans-serif" font-size="8.4" lengthAdjust="spacing" textLength="44.4" x="961.8" y="285.3539">priceHistory</text><polygon fill="#181818" points="973.8,309.8367,979.8,312.2367,973.8,314.6367,976.2,312.2367" style="stroke:#181818;stroke-width:0.6;"/><line style="stroke:#181818;stroke-width:0.6;" x1="473.1" x2="977.4" y1="312.2367" y2="312.2367"/><text fill="#000000" font-family="sans-serif" font-size="7.8" font-weight="bold" lengthAdjust="spacing" textLength="8.4" x="477.3" y="309.0791">11</text><text fill="#000000" font-family="sans-serif" font-size="7.8" lengthAdjust="spacing" textLength="159" x="488.1" y="309.0791">setPreviousMonthlyFee(plan.getMonthlyFee())</text><polygon fill="#181818" points="973.8,346.6113,979.8,349.0113,973.8,351.4113,976.2,349.0113" style="stroke:#181818;stroke-width:0.6;"/><line style="stroke:#181818;stroke-width:0.6;" x1="473.1" x2="977.4" y1="349.0113" y2="349.0113"/><text fill="#000000" font-family="sans-serif" font-size="7.8" font-weight="bold" lengthAdjust="spacing" textLength="8.4" x="477.3" y="345.8537">12</text><text fill="#000000" font-family="sans-serif" font-size="7.8" lengthAdjust="spacing" textLength="170.4" x="488.1" y="345.8537">setCurrentMonthlyFee(resource.getMonthlyFee())</text><polygon fill="#181818" points="973.8,383.3859,979.8,385.7859,973.8,388.1859,976.2,385.7859" style="stroke:#181818;stroke-width:0.6;"/><line style="stroke:#181818;stroke-width:0.6;" x1="473.1" x2="977.4" y1="385.7859" y2="385.7859"/><text fill="#000000" font-family="sans-serif" font-size="7.8" font-weight="bold" lengthAdjust="spacing" textLength="8.4" x="477.3" y="382.6283">13</text><text fill="#000000" font-family="sans-serif" font-size="7.8" lengthAdjust="spacing" textLength="163.2" x="488.1" y="382.6283">setCurrentAnnualFee(resource.getAnnualFee())</text><polygon fill="#181818" points="973.8,420.1605,979.8,422.5605,973.8,424.9605,976.2,422.5605" style="stroke:#181818;stroke-width:0.6;"/><line style="stroke:#181818;stroke-width:0.6;" x1="473.1" x2="977.4" y1="422.5605" y2="422.5605"/><text fill="#000000" font-family="sans-serif" font-size="7.8" font-weight="bold" lengthAdjust="spacing" textLength="8.4" x="477.3" y="419.4029">14</text><text fill="#000000" font-family="sans-serif" font-size="7.8" lengthAdjust="spacing" textLength="147" x="488.1" y="419.4029">setLastPriceChangeDate(LocalDate.now())</text><polygon fill="#181818" points="973.8,456.9352,979.8,459.3352,973.8,461.7352,976.2,459.3352" style="stroke:#181818;stroke-width:0.6;"/><line style="stroke:#181818;stroke-width:0.6;" x1="473.1" x2="977.4" y1="459.3352" y2="459.3352"/><text fill="#000000" font-family="sans-serif" font-size="7.8" font-weight="bold" lengthAdjust="spacing" textLength="8.4" x="477.3" y="456.1775">15</text><text fill="#000000" font-family="sans-serif" font-size="7.8" lengthAdjust="spacing" textLength="86.4" x="488.1" y="456.1775">setUsername(userName)</text><polygon fill="#181818" points="973.8,493.7098,979.8,496.1098,973.8,498.5098,976.2,496.1098" style="stroke:#181818;stroke-width:0.6;"/><line style="stroke:#181818;stroke-width:0.6;" x1="473.1" x2="977.4" y1="496.1098" y2="496.1098"/><text fill="#000000" font-family="sans-serif" font-size="7.8" font-weight="bold" lengthAdjust="spacing" textLength="8.4" x="477.3" y="492.9521">16</text><text fill="#000000" font-family="sans-serif" font-size="7.8" lengthAdjust="spacing" textLength="120" x="488.1" y="492.9521">setPlanName(plan.getPlanName())</text><polygon fill="#181818" points="863.4,530.4844,869.4,532.8844,863.4,535.2844,865.8,532.8844" style="stroke:#181818;stroke-width:0.6;"/><line style="stroke:#181818;stroke-width:0.6;" x1="473.1" x2="867" y1="532.8844" y2="532.8844"/><text fill="#000000" font-family="sans-serif" font-size="7.8" font-weight="bold" lengthAdjust="spacing" textLength="8.4" x="477.3" y="529.7268">17</text><text fill="#000000" font-family="sans-serif" font-size="7.8" lengthAdjust="spacing" textLength="61.8" x="488.1" y="529.7268">save(priceHistory)</text><polygon fill="#181818" points="479.7,567.259,473.7,569.659,479.7,572.059,477.3,569.659" style="stroke:#181818;stroke-width:0.6;"/><line style="stroke:#181818;stroke-width:0.6;stroke-dasharray:2.0,2.0;" x1="476.1" x2="873" y1="569.659" y2="569.659"/><text fill="#000000" font-family="sans-serif" font-size="7.8" font-weight="bold" lengthAdjust="spacing" textLength="8.4" x="483.3" y="566.5014">18</text><text fill="#000000" font-family="sans-serif" font-size="7.8" lengthAdjust="spacing" textLength="8.4" x="494.1" y="566.5014">ok</text><polygon fill="#181818" points="738.6,586.0336,744.6,588.4336,738.6,590.8336,741,588.4336" style="stroke:#181818;stroke-width:0.6;"/><line style="stroke:#181818;stroke-width:0.6;" x1="473.1" x2="742.2" y1="588.4336" y2="588.4336"/><text fill="#000000" font-family="sans-serif" font-size="7.8" font-weight="bold" lengthAdjust="spacing" textLength="8.4" x="477.3" y="585.276">19</text><text fill="#000000" font-family="sans-serif" font-size="7.8" lengthAdjust="spacing" textLength="120.6" x="488.1" y="585.276">applyPrice(monthlyFee,annualFee)</text><rect fill="#E2E2F0" height="19.5727" rx="1.5" ry="1.5" style="stroke:#181818;stroke-width:0.3;" width="43.8" x="745.8" y="574.459"/><text fill="#000000" font-family="sans-serif" font-size="8.4" lengthAdjust="spacing" textLength="35.4" x="750" y="587.7234">plan:Plan</text><polygon fill="#181818" points="676.5,612.2063,682.5,614.6062,676.5,617.0063,678.9,614.6062" style="stroke:#181818;stroke-width:0.6;"/><line style="stroke:#181818;stroke-width:0.6;" x1="473.1" x2="680.1" y1="614.6062" y2="614.6062"/><text fill="#000000" font-family="sans-serif" font-size="7.8" font-weight="bold" lengthAdjust="spacing" textLength="8.4" x="477.3" y="611.4486">20</text><text fill="#000000" font-family="sans-serif" font-size="7.8" lengthAdjust="spacing" textLength="34.8" x="488.1" y="611.4486">save(plan)</text><polygon fill="#181818" points="479.7,630.9809,473.7,633.3809,479.7,635.7809,477.3,633.3809" style="stroke:#181818;stroke-width:0.6;"/><line style="stroke:#181818;stroke-width:0.6;stroke-dasharray:2.0,2.0;" x1="476.1" x2="686.1" y1="633.3809" y2="633.3809"/><text fill="#000000" font-family="sans-serif" font-size="7.8" font-weight="bold" lengthAdjust="spacing" textLength="8.4" x="483.3" y="630.2232">21</text><text fill="#000000" font-family="sans-serif" font-size="7.8" lengthAdjust="spacing" textLength="8.4" x="494.1" y="630.2232">ok</text><polygon fill="#181818" points="147.3,649.7555,141.3,652.1555,147.3,654.5555,144.9,652.1555" style="stroke:#181818;stroke-width:0.6;"/><line style="stroke:#181818;stroke-width:0.6;stroke-dasharray:2.0,2.0;" x1="143.7" x2="469.5" y1="652.1555" y2="652.1555"/><text fill="#000000" font-family="sans-serif" font-size="7.8" font-weight="bold" lengthAdjust="spacing" textLength="8.4" x="150.9" y="648.9979">22</text><text fill="#000000" font-family="sans-serif" font-size="7.8" lengthAdjust="spacing" textLength="8.4" x="161.7" y="648.9979">ok</text><polygon fill="#181818" points="23.1,672.7301,17.1,675.1301,23.1,677.5301,20.7,675.1301" style="stroke:#181818;stroke-width:0.6;"/><line style="stroke:#181818;stroke-width:0.6;stroke-dasharray:2.0,2.0;" x1="19.5" x2="140.1" y1="675.1301" y2="675.1301"/><text fill="#000000" font-family="sans-serif" font-size="7.8" font-weight="bold" lengthAdjust="spacing" textLength="8.4" x="26.7" y="671.9725">23</text><text fill="#000000" font-family="sans-serif" font-size="7.8" lengthAdjust="spacing" textLength="26.4" x="37.5" y="671.9725">200 OK</text><!--SRC=[fLJ1RXen4BtxAomkPQC0KOyhDHA1jA24104vH-xk1AmOUsjxgVYlVa6_h1vxlImBLAcQGpGUl_TcPkUPJnjh2vCE1eLWqfPRqS_KTc3WHmaoWrxEsLgpBI6MMm7qfSYP1OhOtxyCBJJFWEPW6HU6BYiI7KSIAwrYcUKx92dfpxBSVWTDN5ffsdane3kK6Oe1APYsFEE5wuHsqhchCbBIQYL4XHfPBLge2OYYkWtXyRs6GgKeld21uQxetcFBAdMCncnQzrIQbXZElGIzSrFxxghOWvUxx1GyOuNho6D3wA4XF4Lxd4VWwNIEqBv7jQOfgbHB4zSpuIQm6eSBDJn-qIZKeBGBHYWXzOBz2Wd-fxrRlwgKpeUhqMJ02kxzPGQbDv0N9eX0P5XRIjTWaNotNwbta5sDTZ8s8U6UzcfHtD8qh_bnbIbzupA_sq_pRa0a95wro0sglhhobOUbtIZDBGVJJGWJbl8tBzDtzWFwXNPcmyN3_MhwzErrF5tSZrRFYqv2gFkBOiu1JlumO1T7Vc9RkAOQZ2frvYAKn5oWEWeou_hY1FEAM2i4T8JvQNmrlyDAg7VRt3UEPS3EDUouAirGofA9hn0a-pXmdKdEAwGD-imzmutOD_cDL18KSeXMk2muAhK6sIJ7J_FVceU1cfADCJ-k-CYCzIiSRPXSmzY1kuygOmAZlbG__qKCFIrncSUh_mZro0SuJPsuMD_RAJvEPm6sS-o6x5bUJJWuIxt_hO1h0mtcViV4FdXzMw_kciLFdf3p9WzDkUCbMrV5FR5-k2u9ChvwbyNlcjBFDpVq-O7y0G00]--></g></svg>