<?xml version="1.0" encoding="us-ascii" standalone="no"?><svg xmlns="http://www.w3.org/2000/svg" xmlns:xlink="http://www.w3.org/1999/xlink" contentStyleType="text/css" height="572.6px" preserveAspectRatio="none" style="width:1088px;height:572px;background:#FFFFFF;" version="1.1" viewBox="0 0 1088 572" width="1088.5px" zoomAndPan="magnify"><defs/><g><text fill="#000000" font-family="sans-serif" font-size="9.8" font-weight="bold" lengthAdjust="spacing" textLength="158.2" x="466.375" y="21.0752">Cease a plan Sequence Diagram</text><rect fill="#FFFFFF" height="415.0289" style="stroke:#181818;stroke-width:0.6999999999999998;" width="7" x="12.25" y="93.2695"/><rect fill="#FFFFFF" height="392.4252" style="stroke:#181818;stroke-width:0.6999999999999998;" width="7" x="181.65" y="109.5732"/><rect fill="#FFFFFF" height="21.9037" style="stroke:#181818;stroke-width:0.6999999999999998;" width="7" x="312.55" y="131.477"/><rect fill="#FFFFFF" height="21.9037" style="stroke:#181818;stroke-width:0.6999999999999998;" width="7" x="392" y="175.2844"/><rect fill="#FFFFFF" height="207.1645" style="stroke:#181818;stroke-width:0.6999999999999998;" width="7" x="568.75" y="268.0303"/><rect fill="#FFFFFF" height="21.9037" style="stroke:#181818;stroke-width:0.6999999999999998;" width="7" x="789.6" y="289.934"/><rect fill="#FFFFFF" height="21.9037" style="stroke:#181818;stroke-width:0.6999999999999998;" width="7" x="789.6" y="431.3873"/><rect fill="#FFFFFF" height="21.9037" style="stroke:#181818;stroke-width:0.6999999999999998;" width="7" x="966.35" y="333.7414"/><rect fill="none" height="242.5719" style="stroke:#000000;stroke-width:1.0499999999999998;" width="944.3" x="140.35" y="238.2229"/><rect fill="none" height="44.0385" style="stroke:#000000;stroke-width:1.0499999999999998;" width="224.35" x="506.8" y="366.1451"/><line style="stroke:#181818;stroke-width:0.3499999999999999;stroke-dasharray:5.0,5.0;" x1="15.4" x2="15.4" y1="86.2695" y2="514.5984"/><line style="stroke:#181818;stroke-width:0.3499999999999999;stroke-dasharray:5.0,5.0;" x1="185.15" x2="185.15" y1="86.2695" y2="514.5984"/><line style="stroke:#181818;stroke-width:0.3499999999999999;stroke-dasharray:5.0,5.0;" x1="315.7" x2="315.7" y1="86.2695" y2="514.5984"/><line style="stroke:#181818;stroke-width:0.3499999999999999;stroke-dasharray:5.0,5.0;" x1="395.5" x2="395.5" y1="86.2695" y2="514.5984"/><line style="stroke:#181818;stroke-width:0.3499999999999999;stroke-dasharray:5.0,5.0;" x1="480.2" x2="480.2" y1="225.0555" y2="514.5984"/><line style="stroke:#181818;stroke-width:0.3499999999999999;stroke-dasharray:5.0,5.0;" x1="571.9" x2="571.9" y1="86.2695" y2="514.5984"/><line style="stroke:#181818;stroke-width:0.3499999999999999;stroke-dasharray:5.0,5.0;" x1="698.25" x2="698.25" y1="401.9162" y2="514.5984"/><line style="stroke:#181818;stroke-width:0.3499999999999999;stroke-dasharray:5.0,5.0;" x1="792.75" x2="792.75" y1="86.2695" y2="514.5984"/><line style="stroke:#181818;stroke-width:0.3499999999999999;stroke-dasharray:5.0,5.0;" x1="969.85" x2="969.85" y1="86.2695" y2="514.5984"/><text fill="#000000" font-family="sans-serif" font-size="9.8" lengthAdjust="spacing" textLength="20.3" x="3.5" y="83.81">User</text><ellipse cx="15.75" cy="37.1848" fill="#E2E2F0" rx="5.6" ry="5.6" style="stroke:#181818;stroke-width:0.3499999999999999;"/><path d="M15.75,42.7848 L15.75,61.6848 M6.65,48.3848 L24.85,48.3848 M15.75,61.6848 L6.65,72.1848 M15.75,61.6848 L24.85,72.1848 " fill="none" style="stroke:#181818;stroke-width:0.3499999999999999;"/><text fill="#000000" font-family="sans-serif" font-size="9.8" lengthAdjust="spacing" textLength="20.3" x="3.5" y="524.4736">User</text><ellipse cx="15.75" cy="532.8832" fill="#E2E2F0" rx="5.6" ry="5.6" style="stroke:#181818;stroke-width:0.3499999999999999;"/><path d="M15.75,538.4832 L15.75,557.3832 M6.65,544.0832 L24.85,544.0832 M15.75,557.3832 L6.65,567.8832 M15.75,557.3832 L24.85,567.8832 " fill="none" style="stroke:#181818;stroke-width:0.3499999999999999;"/><rect fill="#E2E2F0" height="22.8348" rx="1.75" ry="1.75" style="stroke:#181818;stroke-width:0.3499999999999999;" width="75.6" x="147.35" y="62.7348"/><text fill="#000000" font-family="sans-serif" font-size="9.8" lengthAdjust="spacing" textLength="65.8" x="152.25" y="78.21">:PlanController</text><rect fill="#E2E2F0" height="22.8348" rx="1.75" ry="1.75" style="stroke:#181818;stroke-width:0.3499999999999999;" width="75.6" x="147.35" y="513.8984"/><text fill="#000000" font-family="sans-serif" font-size="9.8" lengthAdjust="spacing" textLength="65.8" x="152.25" y="529.3736">:PlanController</text><rect fill="#E2E2F0" height="22.8348" rx="1.75" ry="1.75" style="stroke:#181818;stroke-width:0.3499999999999999;" width="41.3" x="295.4" y="62.7348"/><text fill="#000000" font-family="sans-serif" font-size="9.8" lengthAdjust="spacing" textLength="31.5" x="300.3" y="78.21">:Helper</text><rect fill="#E2E2F0" height="22.8348" rx="1.75" ry="1.75" style="stroke:#181818;stroke-width:0.3499999999999999;" width="41.3" x="295.4" y="513.8984"/><text fill="#000000" font-family="sans-serif" font-size="9.8" lengthAdjust="spacing" textLength="31.5" x="300.3" y="529.3736">:Helper</text><rect fill="#E2E2F0" height="22.8348" rx="1.75" ry="1.75" style="stroke:#181818;stroke-width:0.3499999999999999;" width="103.6" x="343.7" y="62.7348"/><text fill="#000000" font-family="sans-serif" font-size="9.8" lengthAdjust="spacing" textLength="93.8" x="348.6" y="78.21">:repo:UserRepository</text><rect fill="#E2E2F0" height="22.8348" rx="1.75" ry="1.75" style="stroke:#181818;stroke-width:0.3499999999999999;" width="103.6" x="343.7" y="513.8984"/><text fill="#000000" font-family="sans-serif" font-size="9.8" lengthAdjust="spacing" textLength="93.8" x="348.6" y="529.3736">:repo:UserRepository</text><rect fill="#E2E2F0" height="22.8348" rx="1.75" ry="1.75" style="stroke:#181818;stroke-width:0.3499999999999999;" width="52.5" x="454.3" y="513.8984"/><text fill="#000000" font-family="sans-serif" font-size="9.8" lengthAdjust="spacing" textLength="42.7" x="459.2" y="529.3736">user:User</text><rect fill="#E2E2F0" height="22.8348" rx="1.75" ry="1.75" style="stroke:#181818;stroke-width:0.3499999999999999;" width="116.9" x="513.8" y="62.7348"/><text fill="#000000" font-family="sans-serif" font-size="9.8" lengthAdjust="spacing" textLength="107.1" x="518.7" y="78.21">planService:PlanService</text><rect fill="#E2E2F0" height="22.8348" rx="1.75" ry="1.75" style="stroke:#181818;stroke-width:0.3499999999999999;" width="116.9" x="513.8" y="513.8984"/><text fill="#000000" font-family="sans-serif" font-size="9.8" lengthAdjust="spacing" textLength="107.1" x="518.7" y="529.3736">planService:PlanService</text><rect fill="#E2E2F0" height="22.8348" rx="1.75" ry="1.75" style="stroke:#181818;stroke-width:0.3499999999999999;" width="51.1" x="673.05" y="513.8984"/><text fill="#000000" font-family="sans-serif" font-size="9.8" lengthAdjust="spacing" textLength="41.3" x="677.95" y="529.3736">plan:Plan</text><rect fill="#E2E2F0" height="22.8348" rx="1.75" ry="1.75" style="stroke:#181818;stroke-width:0.3499999999999999;" width="123.9" x="731.15" y="62.7348"/><text fill="#000000" font-family="sans-serif" font-size="9.8" lengthAdjust="spacing" textLength="114.1" x="736.05" y="78.21">repository:PlanRepository</text><rect fill="#E2E2F0" height="22.8348" rx="1.75" ry="1.75" style="stroke:#181818;stroke-width:0.3499999999999999;" width="123.9" x="731.15" y="513.8984"/><text fill="#000000" font-family="sans-serif" font-size="9.8" lengthAdjust="spacing" textLength="114.1" x="736.05" y="529.3736">repository:PlanRepository</text><rect fill="#E2E2F0" height="22.8348" rx="1.75" ry="1.75" style="stroke:#181818;stroke-width:0.3499999999999999;" width="215.6" x="862.05" y="62.7348"/><text fill="#000000" font-family="sans-serif" font-size="9.8" lengthAdjust="spacing" textLength="205.8" x="866.95" y="78.21">subscriptionRepository:SubscriptionRepository</text><rect fill="#E2E2F0" height="22.8348" rx="1.75" ry="1.75" style="stroke:#181818;stroke-width:0.3499999999999999;" width="215.6" x="862.05" y="513.8984"/><text fill="#000000" font-family="sans-serif" font-size="9.8" lengthAdjust="spacing" textLength="205.8" x="866.95" y="529.3736">subscriptionRepository:SubscriptionRepository</text><rect fill="#FFFFFF" height="415.0289" style="stroke:#181818;stroke-width:0.6999999999999998;" width="7" x="12.25" y="93.2695"/><rect fill="#FFFFFF" height="392.4252" style="stroke:#181818;stroke-width:0.6999999999999998;" width="7" x="181.65" y="109.5732"/><rect fill="#FFFFFF" height="21.9037" style="stroke:#181818;stroke-width:0.6999999999999998;" width="7" x="312.55" y="131.477"/><rect fill="#FFFFFF" height="21.9037" style="stroke:#181818;stroke-width:0.6999999999999998;" width="7" x="392" y="175.2844"/><rect fill="#FFFFFF" height="207.1645" style="stroke:#181818;stroke-width:0.6999999999999998;" width="7" x="568.75" y="268.0303"/><rect fill="#FFFFFF" height="21.9037" style="stroke:#181818;stroke-width:0.6999999999999998;" width="7" x="789.6" y="289.934"/><rect fill="#FFFFFF" height="21.9037" style="stroke:#181818;stroke-width:0.6999999999999998;" width="7" x="789.6" y="431.3873"/><rect fill="#FFFFFF" height="21.9037" style="stroke:#181818;stroke-width:0.6999999999999998;" width="7" x="966.35" y="333.7414"/><polygon fill="#181818" points="173.25,106.7732,180.25,109.5732,173.25,112.3732,176.05,109.5732" style="stroke:#181818;stroke-width:0.6999999999999998;"/><line style="stroke:#181818;stroke-width:0.6999999999999998;" x1="19.25" x2="177.45" y1="109.5732" y2="109.5732"/><text fill="#000000" font-family="sans-serif" font-size="9.1" font-weight="bold" lengthAdjust="spacing" textLength="4.9" x="24.15" y="105.8894">1</text><text fill="#000000" font-family="sans-serif" font-size="9.1" lengthAdjust="spacing" textLength="141.4" x="31.85" y="105.8894">PATCH/api/plan/:planName/archive</text><polygon fill="#181818" points="304.15,128.677,311.15,131.477,304.15,134.277,306.95,131.477" style="stroke:#181818;stroke-width:0.6999999999999998;"/><line style="stroke:#181818;stroke-width:0.6999999999999998;" x1="188.65" x2="308.35" y1="131.477" y2="131.477"/><text fill="#000000" font-family="sans-serif" font-size="9.1" font-weight="bold" lengthAdjust="spacing" textLength="4.9" x="193.55" y="127.7931">2</text><text fill="#000000" font-family="sans-serif" font-size="9.1" lengthAdjust="spacing" textLength="102.9" x="201.25" y="127.7931">getUserByToken(request)</text><polygon fill="#181818" points="196.35,150.5807,189.35,153.3807,196.35,156.1807,193.55,153.3807" style="stroke:#181818;stroke-width:0.6999999999999998;"/><line style="stroke:#181818;stroke-width:0.6999999999999998;stroke-dasharray:2.0,2.0;" x1="192.15" x2="315.35" y1="153.3807" y2="153.3807"/><text fill="#000000" font-family="sans-serif" font-size="9.1" font-weight="bold" lengthAdjust="spacing" textLength="4.9" x="200.55" y="149.6968">3</text><text fill="#000000" font-family="sans-serif" font-size="9.1" lengthAdjust="spacing" textLength="24.5" x="208.25" y="149.6968">userId</text><polygon fill="#181818" points="383.6,172.4844,390.6,175.2844,383.6,178.0844,386.4,175.2844" style="stroke:#181818;stroke-width:0.6999999999999998;"/><line style="stroke:#181818;stroke-width:0.6999999999999998;" x1="188.65" x2="387.8" y1="175.2844" y2="175.2844"/><text fill="#000000" font-family="sans-serif" font-size="9.1" font-weight="bold" lengthAdjust="spacing" textLength="4.9" x="193.55" y="171.6005">4</text><text fill="#000000" font-family="sans-serif" font-size="9.1" lengthAdjust="spacing" textLength="62.3" x="201.25" y="171.6005">findById(userId)</text><polygon fill="#181818" points="196.35,194.3881,189.35,197.1881,196.35,199.9881,193.55,197.1881" style="stroke:#181818;stroke-width:0.6999999999999998;"/><line style="stroke:#181818;stroke-width:0.6999999999999998;stroke-dasharray:2.0,2.0;" x1="192.15" x2="394.8" y1="197.1881" y2="197.1881"/><text fill="#000000" font-family="sans-serif" font-size="9.1" font-weight="bold" lengthAdjust="spacing" textLength="4.9" x="200.55" y="193.5042">5</text><text fill="#000000" font-family="sans-serif" font-size="9.1" lengthAdjust="spacing" textLength="17.5" x="208.25" y="193.5042">user</text><polygon fill="#181818" points="445.9,216.2918,452.9,219.0918,445.9,221.8918,448.7,219.0918" style="stroke:#181818;stroke-width:0.6999999999999998;"/><line style="stroke:#181818;stroke-width:0.6999999999999998;" x1="188.65" x2="450.1" y1="219.0918" y2="219.0918"/><text fill="#000000" font-family="sans-serif" font-size="9.1" font-weight="bold" lengthAdjust="spacing" textLength="4.9" x="193.55" y="215.4079">6</text><text fill="#000000" font-family="sans-serif" font-size="9.1" lengthAdjust="spacing" textLength="61.6" x="201.25" y="215.4079">getAuthorities()</text><rect fill="#E2E2F0" height="22.8348" rx="1.75" ry="1.75" style="stroke:#181818;stroke-width:0.3499999999999999;" width="52.5" x="454.3" y="202.7881"/><text fill="#000000" font-family="sans-serif" font-size="9.8" lengthAdjust="spacing" textLength="42.7" x="459.2" y="218.2633">user:User</text><path d="M140.35,238.2229 L183.05,238.2229 L183.05,244.7266 L176.05,251.7266 L140.35,251.7266 L140.35,238.2229 " fill="#EEEEEE" style="stroke:#000000;stroke-width:1.0499999999999998;"/><rect fill="none" height="242.5719" style="stroke:#000000;stroke-width:1.0499999999999998;" width="944.3" x="140.35" y="238.2229"/><text fill="#000000" font-family="sans-serif" font-size="9.1" font-weight="bold" lengthAdjust="spacing" textLength="11.2" x="150.85" y="248.7427">alt</text><text fill="#000000" font-family="sans-serif" font-size="7.7" font-weight="bold" lengthAdjust="spacing" textLength="152.6" x="193.55" y="247.9319">[if(user.role = "MARKETING_DIRECTOR")]</text><polygon fill="#181818" points="560.35,265.2303,567.35,268.0303,560.35,270.8303,563.15,268.0303" style="stroke:#181818;stroke-width:0.6999999999999998;"/><line style="stroke:#181818;stroke-width:0.6999999999999998;" x1="188.65" x2="564.55" y1="268.0303" y2="268.0303"/><text fill="#000000" font-family="sans-serif" font-size="9.1" font-weight="bold" lengthAdjust="spacing" textLength="4.9" x="193.55" y="264.3464">7</text><text fill="#000000" font-family="sans-serif" font-size="9.1" lengthAdjust="spacing" textLength="70.7" x="201.25" y="264.3464">cease(planName)</text><polygon fill="#181818" points="781.2,287.134,788.2,289.934,781.2,292.734,784,289.934" style="stroke:#181818;stroke-width:0.6999999999999998;"/><line style="stroke:#181818;stroke-width:0.6999999999999998;" x1="575.75" x2="785.4" y1="289.934" y2="289.934"/><text fill="#000000" font-family="sans-serif" font-size="9.1" font-weight="bold" lengthAdjust="spacing" textLength="4.9" x="580.65" y="286.2501">8</text><text fill="#000000" font-family="sans-serif" font-size="9.1" lengthAdjust="spacing" textLength="113.4" x="588.35" y="286.2501">findByPlanName(planName)</text><polygon fill="#181818" points="583.45,309.0377,576.45,311.8377,583.45,314.6377,580.65,311.8377" style="stroke:#181818;stroke-width:0.6999999999999998;"/><line style="stroke:#181818;stroke-width:0.6999999999999998;stroke-dasharray:2.0,2.0;" x1="579.25" x2="792.4" y1="311.8377" y2="311.8377"/><text fill="#000000" font-family="sans-serif" font-size="9.1" font-weight="bold" lengthAdjust="spacing" textLength="4.9" x="587.65" y="308.1538">9</text><text fill="#000000" font-family="sans-serif" font-size="9.1" lengthAdjust="spacing" textLength="16.8" x="595.35" y="308.1538">plan</text><polygon fill="#181818" points="957.95,330.9414,964.95,333.7414,957.95,336.5414,960.75,333.7414" style="stroke:#181818;stroke-width:0.6999999999999998;"/><line style="stroke:#181818;stroke-width:0.6999999999999998;" x1="575.75" x2="962.15" y1="333.7414" y2="333.7414"/><text fill="#000000" font-family="sans-serif" font-size="9.1" font-weight="bold" lengthAdjust="spacing" textLength="9.8" x="580.65" y="330.0575">10</text><text fill="#000000" font-family="sans-serif" font-size="9.1" lengthAdjust="spacing" textLength="113.4" x="593.25" y="330.0575">findByPlanName(planName)</text><polygon fill="#181818" points="583.45,352.8451,576.45,355.6451,583.45,358.4451,580.65,355.6451" style="stroke:#181818;stroke-width:0.6999999999999998;"/><line style="stroke:#181818;stroke-width:0.6999999999999998;stroke-dasharray:2.0,2.0;" x1="579.25" x2="969.15" y1="355.6451" y2="355.6451"/><text fill="#000000" font-family="sans-serif" font-size="9.1" font-weight="bold" lengthAdjust="spacing" textLength="9.8" x="587.65" y="351.9612">11</text><text fill="#000000" font-family="sans-serif" font-size="9.1" lengthAdjust="spacing" textLength="16.8" x="600.25" y="351.9612">plan</text><path d="M506.8,366.1451 L549.5,366.1451 L549.5,372.6488 L542.5,379.6488 L506.8,379.6488 L506.8,366.1451 " fill="#EEEEEE" style="stroke:#000000;stroke-width:1.0499999999999998;"/><rect fill="none" height="44.0385" style="stroke:#000000;stroke-width:1.0499999999999998;" width="224.35" x="506.8" y="366.1451"/><text fill="#000000" font-family="sans-serif" font-size="9.1" font-weight="bold" lengthAdjust="spacing" textLength="11.2" x="517.3" y="376.6649">alt</text><text fill="#000000" font-family="sans-serif" font-size="7.7" font-weight="bold" lengthAdjust="spacing" textLength="131.6" x="560" y="375.8542">[if (!plan.isActive() &amp;&amp; sub == null)]</text><polygon fill="#181818" points="664.65,393.1525,671.65,395.9525,664.65,398.7525,667.45,395.9525" style="stroke:#181818;stroke-width:0.6999999999999998;"/><line style="stroke:#181818;stroke-width:0.6999999999999998;" x1="575.75" x2="668.85" y1="395.9525" y2="395.9525"/><text fill="#000000" font-family="sans-serif" font-size="9.1" font-weight="bold" lengthAdjust="spacing" textLength="9.8" x="580.65" y="392.2687">12</text><text fill="#000000" font-family="sans-serif" font-size="9.1" lengthAdjust="spacing" textLength="67.9" x="593.25" y="392.2687">setArchived(true)</text><rect fill="#E2E2F0" height="22.8348" rx="1.75" ry="1.75" style="stroke:#181818;stroke-width:0.3499999999999999;" width="51.1" x="673.05" y="379.6488"/><text fill="#000000" font-family="sans-serif" font-size="9.8" lengthAdjust="spacing" textLength="41.3" x="677.95" y="395.124">plan:Plan</text><polygon fill="#181818" points="781.2,428.5873,788.2,431.3873,781.2,434.1873,784,431.3873" style="stroke:#181818;stroke-width:0.6999999999999998;"/><line style="stroke:#181818;stroke-width:0.6999999999999998;" x1="575.75" x2="785.4" y1="431.3873" y2="431.3873"/><text fill="#000000" font-family="sans-serif" font-size="9.1" font-weight="bold" lengthAdjust="spacing" textLength="9.8" x="580.65" y="427.7034">13</text><text fill="#000000" font-family="sans-serif" font-size="9.1" lengthAdjust="spacing" textLength="40.6" x="593.25" y="427.7034">save(plan)</text><polygon fill="#181818" points="583.45,450.491,576.45,453.291,583.45,456.091,580.65,453.291" style="stroke:#181818;stroke-width:0.6999999999999998;"/><line style="stroke:#181818;stroke-width:0.6999999999999998;stroke-dasharray:2.0,2.0;" x1="579.25" x2="792.4" y1="453.291" y2="453.291"/><text fill="#000000" font-family="sans-serif" font-size="9.1" font-weight="bold" lengthAdjust="spacing" textLength="9.8" x="587.65" y="449.6071">14</text><text fill="#000000" font-family="sans-serif" font-size="9.1" lengthAdjust="spacing" textLength="9.8" x="600.25" y="449.6071">ok</text><polygon fill="#181818" points="196.35,472.3947,189.35,475.1947,196.35,477.9947,193.55,475.1947" style="stroke:#181818;stroke-width:0.6999999999999998;"/><line style="stroke:#181818;stroke-width:0.6999999999999998;stroke-dasharray:2.0,2.0;" x1="192.15" x2="571.55" y1="475.1947" y2="475.1947"/><text fill="#000000" font-family="sans-serif" font-size="9.1" font-weight="bold" lengthAdjust="spacing" textLength="9.8" x="200.55" y="471.5108">15</text><text fill="#000000" font-family="sans-serif" font-size="9.1" lengthAdjust="spacing" textLength="9.8" x="213.15" y="471.5108">ok</text><polygon fill="#181818" points="26.95,499.1984,19.95,501.9984,26.95,504.7984,24.15,501.9984" style="stroke:#181818;stroke-width:0.6999999999999998;"/><line style="stroke:#181818;stroke-width:0.6999999999999998;stroke-dasharray:2.0,2.0;" x1="22.75" x2="184.45" y1="501.9984" y2="501.9984"/><text fill="#000000" font-family="sans-serif" font-size="9.1" font-weight="bold" lengthAdjust="spacing" textLength="9.8" x="31.15" y="498.3146">16</text><text fill="#000000" font-family="sans-serif" font-size="9.1" lengthAdjust="spacing" textLength="30.8" x="43.75" y="498.3146">200 OK</text><!--SRC=[XPB1Rjim38RlVWhEXyukaBZOKK06f6wn1iNQ8CdEWogpZL3PyYGvGDv-eYoxYPjXFXWI-V4NzLDVzywrbXL5gtZZkbhDXQuBYtywR0JEAidV3A-Jn4cd44ha5e43mR2D4DmD4E-SviB90tS8kWdxfgjVqFYSSDf0-ikYIO5Re4NISkEaaAq_6bAszggbRfpHIaMgT4PDg0TKRSpsoqdUOAiPgM_ymaf_wZ70NGoTunHbOrETdQZHHRTe3b9WQ2-k0xmzYCzme4AQTkTvCpOKg4b_RGoTrzZknGeZMoVrIG7RNWm77LyHP8Bb_IY2rmdzOVOzUCfWlToL3mLlPPXymUZ_n6iik15xUS24CC9xancyeIE5s-DElsEJ6Pg-TNdIvs4sAfEbgsgi7tndy2gRwlQughAUo9CXDIa-AJNNr-7aPUVssaWdqMPvmfK3-Hfavlwn82mW_RdSFDxlLay_Vj-jDlVbxdcJvWduRn3pus8Ww05dmrrxm2SeF_W_zBcEq8GUiD1pq0o3FX6A0_YFJgGkoFItW-mBHURIBccCcELmTKLLi5X0qodrgNcoodgh-lbLcJDTF0kRwl9DBJ_qVVthRlhzet2SaG-IOc-iZzApOF3jvWQU7vE_]--></g></svg>