<?xml version="1.0" encoding="us-ascii" standalone="no"?><svg xmlns="http://www.w3.org/2000/svg" xmlns:xlink="http://www.w3.org/1999/xlink" contentStyleType="text/css" height="1307px" preserveAspectRatio="none" style="width:1689px;height:1307px;background:#FFFFFF;" version="1.1" viewBox="0 0 1689 1307" width="1689px" zoomAndPan="magnify"><defs/><g><text fill="#000000" font-family="sans-serif" font-size="14" font-weight="bold" lengthAdjust="spacing" textLength="430" x="631.25" y="30.1074">Augment subscription's profile with a joke Sequence Diagram</text><rect fill="#FFFFFF" height="1081.6445" style="stroke:#181818;stroke-width:1.0;" width="10" x="17.5" y="133.2422"/><rect fill="#FFFFFF" height="1049.3535" style="stroke:#181818;stroke-width:1.0;" width="10" x="220.5" y="156.5332"/><rect fill="#FFFFFF" height="31.291" style="stroke:#181818;stroke-width:1.0;" width="10" x="407.5" y="187.8242"/><rect fill="#FFFFFF" height="31.291" style="stroke:#181818;stroke-width:1.0;" width="10" x="521" y="250.4063"/><rect fill="#FFFFFF" height="784.6953" style="stroke:#181818;stroke-width:1.0;" width="10" x="784" y="382.9004"/><rect fill="#FFFFFF" height="31.291" style="stroke:#181818;stroke-width:1.0;" width="10" x="984.5" y="414.1914"/><rect fill="#FFFFFF" height="78.582" style="stroke:#181818;stroke-width:1.0;" width="10" x="984.5" y="1136.3047"/><rect fill="#FFFFFF" height="577.6191" style="stroke:#181818;stroke-width:1.0;" width="10" x="1125.5" y="476.7734"/><rect fill="#FFFFFF" height="28" style="stroke:#181818;stroke-width:1.0;" width="10" x="1130.5" y="516.0645"/><rect fill="#FFFFFF" height="28" style="stroke:#181818;stroke-width:1.0;" width="10" x="1130.5" y="590.3555"/><rect fill="#FFFFFF" height="28" style="stroke:#181818;stroke-width:1.0;" width="10" x="1130.5" y="664.6465"/><rect fill="#FFFFFF" height="28" style="stroke:#181818;stroke-width:1.0;" width="10" x="1130.5" y="738.9375"/><rect fill="#FFFFFF" height="28" style="stroke:#181818;stroke-width:1.0;" width="10" x="1130.5" y="813.2285"/><rect fill="#FFFFFF" height="28" style="stroke:#181818;stroke-width:1.0;" width="10" x="1130.5" y="913.8105"/><rect fill="#FFFFFF" height="28" style="stroke:#181818;stroke-width:1.0;" width="10" x="1130.5" y="988.1016"/><rect fill="none" height="835.2773" style="stroke:#000000;stroke-width:1.5;" width="1547" x="136.5" y="340.3184"/><rect fill="none" height="199.1641" style="stroke:#000000;stroke-width:1.5;" width="651.5" x="685" y="863.2285"/><line style="stroke:#181818;stroke-width:0.5;stroke-dasharray:5.0,5.0;" x1="22" x2="22" y1="123.2422" y2="1223.8867"/><line style="stroke:#181818;stroke-width:0.5;stroke-dasharray:5.0,5.0;" x1="225.5" x2="225.5" y1="123.2422" y2="1223.8867"/><line style="stroke:#181818;stroke-width:0.5;stroke-dasharray:5.0,5.0;" x1="412" x2="412" y1="123.2422" y2="1223.8867"/><line style="stroke:#181818;stroke-width:0.5;stroke-dasharray:5.0,5.0;" x1="526" x2="526" y1="123.2422" y2="1223.8867"/><line style="stroke:#181818;stroke-width:0.5;stroke-dasharray:5.0,5.0;" x1="647" x2="647" y1="321.5078" y2="1223.8867"/><line style="stroke:#181818;stroke-width:0.5;stroke-dasharray:5.0,5.0;" x1="789" x2="789" y1="123.2422" y2="1223.8867"/><line style="stroke:#181818;stroke-width:0.5;stroke-dasharray:5.0,5.0;" x1="989" x2="989" y1="123.2422" y2="1223.8867"/><line style="stroke:#181818;stroke-width:0.5;stroke-dasharray:5.0,5.0;" x1="1130" x2="1130" y1="123.2422" y2="1223.8867"/><line style="stroke:#181818;stroke-width:0.5;stroke-dasharray:5.0,5.0;" x1="1487.5" x2="1487.5" y1="123.2422" y2="1223.8867"/><line style="stroke:#181818;stroke-width:0.5;stroke-dasharray:5.0,5.0;" x1="1628.5" x2="1628.5" y1="1101.2031" y2="1223.8867"/><text fill="#000000" font-family="sans-serif" font-size="14" lengthAdjust="spacing" textLength="29" x="5" y="119.7285">User</text><ellipse cx="22.5" cy="53.1211" fill="#E2E2F0" rx="8" ry="8" style="stroke:#181818;stroke-width:0.5;"/><path d="M22.5,61.1211 L22.5,88.1211 M9.5,69.1211 L35.5,69.1211 M22.5,88.1211 L9.5,103.1211 M22.5,88.1211 L35.5,103.1211 " fill="none" style="stroke:#181818;stroke-width:0.5;"/><text fill="#000000" font-family="sans-serif" font-size="14" lengthAdjust="spacing" textLength="29" x="5" y="1237.9941">User</text><ellipse cx="22.5" cy="1250.0078" fill="#E2E2F0" rx="8" ry="8" style="stroke:#181818;stroke-width:0.5;"/><path d="M22.5,1258.0078 L22.5,1285.0078 M9.5,1266.0078 L35.5,1266.0078 M22.5,1285.0078 L9.5,1300.0078 M22.5,1285.0078 L35.5,1300.0078 " fill="none" style="stroke:#181818;stroke-width:0.5;"/><rect fill="#E2E2F0" height="32.6211" rx="2.5" ry="2.5" style="stroke:#181818;stroke-width:0.5;" width="158" x="146.5" y="89.6211"/><text fill="#000000" font-family="sans-serif" font-size="14" lengthAdjust="spacing" textLength="144" x="153.5" y="111.7285">:SubscriptionController</text><rect fill="#E2E2F0" height="32.6211" rx="2.5" ry="2.5" style="stroke:#181818;stroke-width:0.5;" width="158" x="146.5" y="1222.8867"/><text fill="#000000" font-family="sans-serif" font-size="14" lengthAdjust="spacing" textLength="144" x="153.5" y="1244.9941">:SubscriptionController</text><rect fill="#E2E2F0" height="32.6211" rx="2.5" ry="2.5" style="stroke:#181818;stroke-width:0.5;" width="59" x="383" y="89.6211"/><text fill="#000000" font-family="sans-serif" font-size="14" lengthAdjust="spacing" textLength="45" x="390" y="111.7285">:Helper</text><rect fill="#E2E2F0" height="32.6211" rx="2.5" ry="2.5" style="stroke:#181818;stroke-width:0.5;" width="59" x="383" y="1222.8867"/><text fill="#000000" font-family="sans-serif" font-size="14" lengthAdjust="spacing" textLength="45" x="390" y="1244.9941">:Helper</text><rect fill="#E2E2F0" height="32.6211" rx="2.5" ry="2.5" style="stroke:#181818;stroke-width:0.5;" width="148" x="452" y="89.6211"/><text fill="#000000" font-family="sans-serif" font-size="14" lengthAdjust="spacing" textLength="134" x="459" y="111.7285">:repo:UserRepository</text><rect fill="#E2E2F0" height="32.6211" rx="2.5" ry="2.5" style="stroke:#181818;stroke-width:0.5;" width="148" x="452" y="1222.8867"/><text fill="#000000" font-family="sans-serif" font-size="14" lengthAdjust="spacing" textLength="134" x="459" y="1244.9941">:repo:UserRepository</text><rect fill="#E2E2F0" height="32.6211" rx="2.5" ry="2.5" style="stroke:#181818;stroke-width:0.5;" width="75" x="610" y="1222.8867"/><text fill="#000000" font-family="sans-serif" font-size="14" lengthAdjust="spacing" textLength="61" x="617" y="1244.9941">user:User</text><rect fill="#E2E2F0" height="32.6211" rx="2.5" ry="2.5" style="stroke:#181818;stroke-width:0.5;" width="188" x="695" y="89.6211"/><text fill="#000000" font-family="sans-serif" font-size="14" lengthAdjust="spacing" textLength="174" x="702" y="111.7285">service:SubscriptionService</text><rect fill="#E2E2F0" height="32.6211" rx="2.5" ry="2.5" style="stroke:#181818;stroke-width:0.5;" width="188" x="695" y="1222.8867"/><text fill="#000000" font-family="sans-serif" font-size="14" lengthAdjust="spacing" textLength="174" x="702" y="1244.9941">service:SubscriptionService</text><rect fill="#E2E2F0" height="32.6211" rx="2.5" ry="2.5" style="stroke:#181818;stroke-width:0.5;" width="193" x="893" y="89.6211"/><text fill="#000000" font-family="sans-serif" font-size="14" lengthAdjust="spacing" textLength="179" x="900" y="111.7285">repo:SubscriptionRepository</text><rect fill="#E2E2F0" height="32.6211" rx="2.5" ry="2.5" style="stroke:#181818;stroke-width:0.5;" width="193" x="893" y="1222.8867"/><text fill="#000000" font-family="sans-serif" font-size="14" lengthAdjust="spacing" textLength="179" x="900" y="1244.9941">repo:SubscriptionRepository</text><rect fill="#E2E2F0" height="32.6211" rx="2.5" ry="2.5" style="stroke:#181818;stroke-width:0.5;" width="69" x="1096" y="89.6211"/><text fill="#000000" font-family="sans-serif" font-size="14" lengthAdjust="spacing" textLength="55" x="1103" y="111.7285">utils:Utils</text><rect fill="#E2E2F0" height="32.6211" rx="2.5" ry="2.5" style="stroke:#181818;stroke-width:0.5;" width="69" x="1096" y="1222.8867"/><text fill="#000000" font-family="sans-serif" font-size="14" lengthAdjust="spacing" textLength="55" x="1103" y="1244.9941">utils:Utils</text><rect fill="#E2E2F0" height="32.6211" rx="2.5" ry="2.5" style="stroke:#181818;stroke-width:0.5;" width="172" x="1401.5" y="89.6211"/><text fill="#000000" font-family="sans-serif" font-size="14" lengthAdjust="spacing" textLength="158" x="1408.5" y="111.7285">subscription:Subscription</text><rect fill="#E2E2F0" height="32.6211" rx="2.5" ry="2.5" style="stroke:#181818;stroke-width:0.5;" width="172" x="1401.5" y="1222.8867"/><text fill="#000000" font-family="sans-serif" font-size="14" lengthAdjust="spacing" textLength="158" x="1408.5" y="1244.9941">subscription:Subscription</text><rect fill="#E2E2F0" height="32.6211" rx="2.5" ry="2.5" style="stroke:#181818;stroke-width:0.5;" width="90" x="1583.5" y="1222.8867"/><text fill="#000000" font-family="sans-serif" font-size="14" lengthAdjust="spacing" textLength="76" x="1590.5" y="1244.9941">subscription</text><rect fill="#FFFFFF" height="1081.6445" style="stroke:#181818;stroke-width:1.0;" width="10" x="17.5" y="133.2422"/><rect fill="#FFFFFF" height="1049.3535" style="stroke:#181818;stroke-width:1.0;" width="10" x="220.5" y="156.5332"/><rect fill="#FFFFFF" height="31.291" style="stroke:#181818;stroke-width:1.0;" width="10" x="407.5" y="187.8242"/><rect fill="#FFFFFF" height="31.291" style="stroke:#181818;stroke-width:1.0;" width="10" x="521" y="250.4063"/><rect fill="#FFFFFF" height="784.6953" style="stroke:#181818;stroke-width:1.0;" width="10" x="784" y="382.9004"/><rect fill="#FFFFFF" height="31.291" style="stroke:#181818;stroke-width:1.0;" width="10" x="984.5" y="414.1914"/><rect fill="#FFFFFF" height="78.582" style="stroke:#181818;stroke-width:1.0;" width="10" x="984.5" y="1136.3047"/><rect fill="#FFFFFF" height="577.6191" style="stroke:#181818;stroke-width:1.0;" width="10" x="1125.5" y="476.7734"/><rect fill="#FFFFFF" height="28" style="stroke:#181818;stroke-width:1.0;" width="10" x="1130.5" y="516.0645"/><rect fill="#FFFFFF" height="28" style="stroke:#181818;stroke-width:1.0;" width="10" x="1130.5" y="590.3555"/><rect fill="#FFFFFF" height="28" style="stroke:#181818;stroke-width:1.0;" width="10" x="1130.5" y="664.6465"/><rect fill="#FFFFFF" height="28" style="stroke:#181818;stroke-width:1.0;" width="10" x="1130.5" y="738.9375"/><rect fill="#FFFFFF" height="28" style="stroke:#181818;stroke-width:1.0;" width="10" x="1130.5" y="813.2285"/><rect fill="#FFFFFF" height="28" style="stroke:#181818;stroke-width:1.0;" width="10" x="1130.5" y="913.8105"/><rect fill="#FFFFFF" height="28" style="stroke:#181818;stroke-width:1.0;" width="10" x="1130.5" y="988.1016"/><polygon fill="#181818" points="208.5,152.5332,218.5,156.5332,208.5,160.5332,212.5,156.5332" style="stroke:#181818;stroke-width:1.0;"/><line style="stroke:#181818;stroke-width:1.0;" x1="27.5" x2="214.5" y1="156.5332" y2="156.5332"/><text fill="#000000" font-family="sans-serif" font-size="13" font-weight="bold" lengthAdjust="spacing" textLength="7" x="34.5" y="151.2705">1</text><text fill="#000000" font-family="sans-serif" font-size="13" lengthAdjust="spacing" textLength="163" x="45.5" y="151.2705">GET/api/subscriptions/jokes</text><polygon fill="#181818" points="395.5,183.8242,405.5,187.8242,395.5,191.8242,399.5,187.8242" style="stroke:#181818;stroke-width:1.0;"/><line style="stroke:#181818;stroke-width:1.0;" x1="230.5" x2="401.5" y1="187.8242" y2="187.8242"/><text fill="#000000" font-family="sans-serif" font-size="13" font-weight="bold" lengthAdjust="spacing" textLength="7" x="237.5" y="182.5615">2</text><text fill="#000000" font-family="sans-serif" font-size="13" lengthAdjust="spacing" textLength="147" x="248.5" y="182.5615">getUserByToken(request)</text><polygon fill="#181818" points="241.5,215.1152,231.5,219.1152,241.5,223.1152,237.5,219.1152" style="stroke:#181818;stroke-width:1.0;"/><line style="stroke:#181818;stroke-width:1.0;stroke-dasharray:2.0,2.0;" x1="235.5" x2="411.5" y1="219.1152" y2="219.1152"/><text fill="#000000" font-family="sans-serif" font-size="13" font-weight="bold" lengthAdjust="spacing" textLength="7" x="247.5" y="213.8525">3</text><text fill="#000000" font-family="sans-serif" font-size="13" lengthAdjust="spacing" textLength="35" x="258.5" y="213.8525">userId</text><polygon fill="#181818" points="509,246.4063,519,250.4063,509,254.4063,513,250.4063" style="stroke:#181818;stroke-width:1.0;"/><line style="stroke:#181818;stroke-width:1.0;" x1="230.5" x2="515" y1="250.4063" y2="250.4063"/><text fill="#000000" font-family="sans-serif" font-size="13" font-weight="bold" lengthAdjust="spacing" textLength="7" x="237.5" y="245.1436">4</text><text fill="#000000" font-family="sans-serif" font-size="13" lengthAdjust="spacing" textLength="89" x="248.5" y="245.1436">findById(userId)</text><polygon fill="#181818" points="241.5,277.6973,231.5,281.6973,241.5,285.6973,237.5,281.6973" style="stroke:#181818;stroke-width:1.0;"/><line style="stroke:#181818;stroke-width:1.0;stroke-dasharray:2.0,2.0;" x1="235.5" x2="525" y1="281.6973" y2="281.6973"/><text fill="#000000" font-family="sans-serif" font-size="13" font-weight="bold" lengthAdjust="spacing" textLength="7" x="247.5" y="276.4346">5</text><text fill="#000000" font-family="sans-serif" font-size="13" lengthAdjust="spacing" textLength="25" x="258.5" y="276.4346">user</text><polygon fill="#181818" points="598,308.9883,608,312.9883,598,316.9883,602,312.9883" style="stroke:#181818;stroke-width:1.0;"/><line style="stroke:#181818;stroke-width:1.0;" x1="230.5" x2="604" y1="312.9883" y2="312.9883"/><text fill="#000000" font-family="sans-serif" font-size="13" font-weight="bold" lengthAdjust="spacing" textLength="7" x="237.5" y="307.7256">6</text><text fill="#000000" font-family="sans-serif" font-size="13" lengthAdjust="spacing" textLength="88" x="248.5" y="307.7256">getAuthorities()</text><rect fill="#E2E2F0" height="32.6211" rx="2.5" ry="2.5" style="stroke:#181818;stroke-width:0.5;" width="75" x="610" y="289.6973"/><text fill="#000000" font-family="sans-serif" font-size="14" lengthAdjust="spacing" textLength="61" x="617" y="311.8047">user:User</text><path d="M136.5,340.3184 L197.5,340.3184 L197.5,349.6094 L187.5,359.6094 L136.5,359.6094 L136.5,340.3184 " fill="#EEEEEE" style="stroke:#000000;stroke-width:1.5;"/><rect fill="none" height="835.2773" style="stroke:#000000;stroke-width:1.5;" width="1547" x="136.5" y="340.3184"/><text fill="#000000" font-family="sans-serif" font-size="13" font-weight="bold" lengthAdjust="spacing" textLength="16" x="151.5" y="355.3467">alt</text><text fill="#000000" font-family="sans-serif" font-size="11" font-weight="bold" lengthAdjust="spacing" textLength="162" x="212.5" y="354.1885">[if(user.role = "SUBSCRIBER")]</text><polygon fill="#181818" points="772,378.9004,782,382.9004,772,386.9004,776,382.9004" style="stroke:#181818;stroke-width:1.0;"/><line style="stroke:#181818;stroke-width:1.0;" x1="230.5" x2="778" y1="382.9004" y2="382.9004"/><text fill="#000000" font-family="sans-serif" font-size="13" font-weight="bold" lengthAdjust="spacing" textLength="7" x="237.5" y="377.6377">7</text><text fill="#000000" font-family="sans-serif" font-size="13" lengthAdjust="spacing" textLength="88" x="248.5" y="377.6377">getJoke(userId)</text><polygon fill="#181818" points="972.5,410.1914,982.5,414.1914,972.5,418.1914,976.5,414.1914" style="stroke:#181818;stroke-width:1.0;"/><line style="stroke:#181818;stroke-width:1.0;" x1="794" x2="978.5" y1="414.1914" y2="414.1914"/><text fill="#000000" font-family="sans-serif" font-size="13" font-weight="bold" lengthAdjust="spacing" textLength="7" x="801" y="408.9287">8</text><text fill="#000000" font-family="sans-serif" font-size="13" lengthAdjust="spacing" textLength="116" x="812" y="408.9287">findByUserId(userId)</text><polygon fill="#181818" points="805,441.4824,795,445.4824,805,449.4824,801,445.4824" style="stroke:#181818;stroke-width:1.0;"/><line style="stroke:#181818;stroke-width:1.0;stroke-dasharray:2.0,2.0;" x1="799" x2="988.5" y1="445.4824" y2="445.4824"/><text fill="#000000" font-family="sans-serif" font-size="13" font-weight="bold" lengthAdjust="spacing" textLength="7" x="811" y="440.2197">9</text><text fill="#000000" font-family="sans-serif" font-size="13" lengthAdjust="spacing" textLength="70" x="822" y="440.2197">subscription</text><polygon fill="#181818" points="1113.5,472.7734,1123.5,476.7734,1113.5,480.7734,1117.5,476.7734" style="stroke:#181818;stroke-width:1.0;"/><line style="stroke:#181818;stroke-width:1.0;" x1="794" x2="1119.5" y1="476.7734" y2="476.7734"/><text fill="#000000" font-family="sans-serif" font-size="13" font-weight="bold" lengthAdjust="spacing" textLength="14" x="801" y="471.5107">10</text><text fill="#000000" font-family="sans-serif" font-size="13" lengthAdjust="spacing" textLength="89" x="819" y="471.5107">sendGETJoke()</text><line style="stroke:#181818;stroke-width:1.0;" x1="1140.5" x2="1182.5" y1="508.0645" y2="508.0645"/><line style="stroke:#181818;stroke-width:1.0;" x1="1182.5" x2="1182.5" y1="508.0645" y2="521.0645"/><line style="stroke:#181818;stroke-width:1.0;" x1="1141.5" x2="1182.5" y1="521.0645" y2="521.0645"/><polygon fill="#181818" points="1151.5,517.0645,1141.5,521.0645,1151.5,525.0645,1147.5,521.0645" style="stroke:#181818;stroke-width:1.0;"/><text fill="#000000" font-family="sans-serif" font-size="13" font-weight="bold" lengthAdjust="spacing" textLength="14" x="1147.5" y="502.8018">11</text><text fill="#000000" font-family="sans-serif" font-size="13" lengthAdjust="spacing" textLength="122" x="1165.5" y="502.8018">obj.openConnection()</text><line style="stroke:#181818;stroke-width:1.0;" x1="1140.5" x2="1182.5" y1="582.3555" y2="582.3555"/><line style="stroke:#181818;stroke-width:1.0;" x1="1182.5" x2="1182.5" y1="582.3555" y2="595.3555"/><line style="stroke:#181818;stroke-width:1.0;" x1="1141.5" x2="1182.5" y1="595.3555" y2="595.3555"/><polygon fill="#181818" points="1151.5,591.3555,1141.5,595.3555,1151.5,599.3555,1147.5,595.3555" style="stroke:#181818;stroke-width:1.0;"/><text fill="#000000" font-family="sans-serif" font-size="13" font-weight="bold" lengthAdjust="spacing" textLength="14" x="1147.5" y="577.0928">12</text><text fill="#000000" font-family="sans-serif" font-size="13" lengthAdjust="spacing" textLength="178" x="1165.5" y="577.0928">con.setRequestMethod("GET")</text><line style="stroke:#181818;stroke-width:1.0;" x1="1140.5" x2="1182.5" y1="656.6465" y2="656.6465"/><line style="stroke:#181818;stroke-width:1.0;" x1="1182.5" x2="1182.5" y1="656.6465" y2="669.6465"/><line style="stroke:#181818;stroke-width:1.0;" x1="1141.5" x2="1182.5" y1="669.6465" y2="669.6465"/><polygon fill="#181818" points="1151.5,665.6465,1141.5,669.6465,1151.5,673.6465,1147.5,669.6465" style="stroke:#181818;stroke-width:1.0;"/><text fill="#000000" font-family="sans-serif" font-size="13" font-weight="bold" lengthAdjust="spacing" textLength="14" x="1147.5" y="651.3838">13</text><text fill="#000000" font-family="sans-serif" font-size="13" lengthAdjust="spacing" textLength="310" x="1165.5" y="651.3838">con.setRequestProperty("X-RapidAPI-Key", key_joke)</text><line style="stroke:#181818;stroke-width:1.0;" x1="1140.5" x2="1182.5" y1="730.9375" y2="730.9375"/><line style="stroke:#181818;stroke-width:1.0;" x1="1182.5" x2="1182.5" y1="730.9375" y2="743.9375"/><line style="stroke:#181818;stroke-width:1.0;" x1="1141.5" x2="1182.5" y1="743.9375" y2="743.9375"/><polygon fill="#181818" points="1151.5,739.9375,1141.5,743.9375,1151.5,747.9375,1147.5,743.9375" style="stroke:#181818;stroke-width:1.0;"/><text fill="#000000" font-family="sans-serif" font-size="13" font-weight="bold" lengthAdjust="spacing" textLength="14" x="1147.5" y="725.6748">14</text><text fill="#000000" font-family="sans-serif" font-size="13" lengthAdjust="spacing" textLength="315" x="1165.5" y="725.6748">con.setRequestProperty("X-RapidAPI-Host", key_host)</text><line style="stroke:#181818;stroke-width:1.0;" x1="1140.5" x2="1182.5" y1="805.2285" y2="805.2285"/><line style="stroke:#181818;stroke-width:1.0;" x1="1182.5" x2="1182.5" y1="805.2285" y2="818.2285"/><line style="stroke:#181818;stroke-width:1.0;" x1="1141.5" x2="1182.5" y1="818.2285" y2="818.2285"/><polygon fill="#181818" points="1151.5,814.2285,1141.5,818.2285,1151.5,822.2285,1147.5,818.2285" style="stroke:#181818;stroke-width:1.0;"/><text fill="#000000" font-family="sans-serif" font-size="13" font-weight="bold" lengthAdjust="spacing" textLength="14" x="1147.5" y="799.9658">15</text><text fill="#000000" font-family="sans-serif" font-size="13" lengthAdjust="spacing" textLength="139" x="1165.5" y="799.9658">con.getResponseCode()</text><path d="M685,863.2285 L746,863.2285 L746,872.5195 L736,882.5195 L685,882.5195 L685,863.2285 " fill="#EEEEEE" style="stroke:#000000;stroke-width:1.5;"/><rect fill="none" height="199.1641" style="stroke:#000000;stroke-width:1.5;" width="651.5" x="685" y="863.2285"/><text fill="#000000" font-family="sans-serif" font-size="13" font-weight="bold" lengthAdjust="spacing" textLength="16" x="700" y="878.2568">alt</text><text fill="#000000" font-family="sans-serif" font-size="11" font-weight="bold" lengthAdjust="spacing" textLength="282" x="761" y="877.0986">[if(responseCode == HttpURLConnection.HTTP_OK)]</text><line style="stroke:#181818;stroke-width:1.0;" x1="1140.5" x2="1182.5" y1="905.8105" y2="905.8105"/><line style="stroke:#181818;stroke-width:1.0;" x1="1182.5" x2="1182.5" y1="905.8105" y2="918.8105"/><line style="stroke:#181818;stroke-width:1.0;" x1="1141.5" x2="1182.5" y1="918.8105" y2="918.8105"/><polygon fill="#181818" points="1151.5,914.8105,1141.5,918.8105,1151.5,922.8105,1147.5,918.8105" style="stroke:#181818;stroke-width:1.0;"/><text fill="#000000" font-family="sans-serif" font-size="13" font-weight="bold" lengthAdjust="spacing" textLength="14" x="1147.5" y="900.5479">16</text><text fill="#000000" font-family="sans-serif" font-size="13" lengthAdjust="spacing" textLength="121" x="1165.5" y="900.5479">con.getInputStream()</text><line style="stroke:#181818;stroke-width:1.0;" x1="1140.5" x2="1182.5" y1="980.1016" y2="980.1016"/><line style="stroke:#181818;stroke-width:1.0;" x1="1182.5" x2="1182.5" y1="980.1016" y2="993.1016"/><line style="stroke:#181818;stroke-width:1.0;" x1="1141.5" x2="1182.5" y1="993.1016" y2="993.1016"/><polygon fill="#181818" points="1151.5,989.1016,1141.5,993.1016,1151.5,997.1016,1147.5,993.1016" style="stroke:#181818;stroke-width:1.0;"/><text fill="#000000" font-family="sans-serif" font-size="13" font-weight="bold" lengthAdjust="spacing" textLength="14" x="1147.5" y="974.8389">17</text><text fill="#000000" font-family="sans-serif" font-size="13" lengthAdjust="spacing" textLength="159" x="1165.5" y="974.8389">response.append(inputLine)</text><polygon fill="#181818" points="805,1050.3926,795,1054.3926,805,1058.3926,801,1054.3926" style="stroke:#181818;stroke-width:1.0;"/><line style="stroke:#181818;stroke-width:1.0;stroke-dasharray:2.0,2.0;" x1="799" x2="1129.5" y1="1054.3926" y2="1054.3926"/><text fill="#000000" font-family="sans-serif" font-size="13" font-weight="bold" lengthAdjust="spacing" textLength="14" x="811" y="1049.1299">18</text><text fill="#000000" font-family="sans-serif" font-size="13" lengthAdjust="spacing" textLength="81" x="829" y="1049.1299">json.toString()</text><polygon fill="#181818" points="1571.5,1088.6836,1581.5,1092.6836,1571.5,1096.6836,1575.5,1092.6836" style="stroke:#181818;stroke-width:1.0;"/><line style="stroke:#181818;stroke-width:1.0;" x1="794" x2="1577.5" y1="1092.6836" y2="1092.6836"/><text fill="#000000" font-family="sans-serif" font-size="13" font-weight="bold" lengthAdjust="spacing" textLength="14" x="801" y="1087.4209">19</text><text fill="#000000" font-family="sans-serif" font-size="13" lengthAdjust="spacing" textLength="208" x="819" y="1087.4209">subscription.setJoke(json.toString())</text><rect fill="#E2E2F0" height="32.6211" rx="2.5" ry="2.5" style="stroke:#181818;stroke-width:0.5;" width="90" x="1583.5" y="1069.3926"/><text fill="#000000" font-family="sans-serif" font-size="14" lengthAdjust="spacing" textLength="76" x="1590.5" y="1091.5">subscription</text><polygon fill="#181818" points="972.5,1132.3047,982.5,1136.3047,972.5,1140.3047,976.5,1136.3047" style="stroke:#181818;stroke-width:1.0;"/><line style="stroke:#181818;stroke-width:1.0;" x1="794" x2="978.5" y1="1136.3047" y2="1136.3047"/><text fill="#000000" font-family="sans-serif" font-size="13" font-weight="bold" lengthAdjust="spacing" textLength="14" x="801" y="1131.042">20</text><text fill="#000000" font-family="sans-serif" font-size="13" lengthAdjust="spacing" textLength="104" x="819" y="1131.042">save(subscription)</text><polygon fill="#181818" points="241.5,1163.5957,231.5,1167.5957,241.5,1171.5957,237.5,1167.5957" style="stroke:#181818;stroke-width:1.0;"/><line style="stroke:#181818;stroke-width:1.0;stroke-dasharray:2.0,2.0;" x1="235.5" x2="788" y1="1167.5957" y2="1167.5957"/><text fill="#000000" font-family="sans-serif" font-size="13" font-weight="bold" lengthAdjust="spacing" textLength="14" x="247.5" y="1162.333">21</text><text fill="#000000" font-family="sans-serif" font-size="13" lengthAdjust="spacing" textLength="81" x="265.5" y="1162.333">json.toString()</text><polygon fill="#181818" points="38.5,1201.8867,28.5,1205.8867,38.5,1209.8867,34.5,1205.8867" style="stroke:#181818;stroke-width:1.0;"/><line style="stroke:#181818;stroke-width:1.0;stroke-dasharray:2.0,2.0;" x1="32.5" x2="224.5" y1="1205.8867" y2="1205.8867"/><text fill="#000000" font-family="sans-serif" font-size="13" font-weight="bold" lengthAdjust="spacing" textLength="14" x="44.5" y="1200.624">22</text><text fill="#000000" font-family="sans-serif" font-size="13" lengthAdjust="spacing" textLength="42" x="62.5" y="1200.624">200 Ok</text><!--SRC=[hLHDZzem4BtdLunosR0giEenqbO2kYfqjrh4XzJRoYG368BjsXCg_drj9u4GfGXLpI5oFE-zUPaP-s5Bf4pSxwkC2SeFMI-HXxx1NpcA1BifPnlD3a50d3A4GRuve20m-SeacYlYKZmOK5gkkGt_vhG51ZkvHvYN4l2rac0vIPOGFp92aC9_Y_omGcrZ2KaDuTAW3e4PS8j0CKqyuSeQWp2UrtAEf20jiwn4ZqXd3VGOCrL6YsKZhb79s6MPsONXDll9W_DownhkTkEpkTmqr6pWo1EyiZWlzZoXNDV3rmBUJJtSS6L3BQQ8PoPUkdTHCxTg6Aj9NkbNgXS_mRarllQ1UqFtYwzj3DzU5dscUBykQFgkqIPm28SiwXp31icHXwU53Oj8kq4mr0cAE7JFegwga_JChqeVmvgBT7YQf561w0HLg46kKVNZeyyyo6ahDIUE9ke4B2FWQo_Ji_E2y0pXV3cSZsQJuSiix0HWdqgafKjUyhlzZRCJHsW1UdxHfCh-qZEkYGN2_qLhjdfvRwNohRPm5AdjZ3TOPF216aAkTZsfq1qOWOcZby0KgtwtyX8fUWPfLlJk1zgYfb5eSuN_G9zgQq7JAGf_TcTsYjB1TD9znLFu2VPu-d1JzBzKnz9GARkLRkZkbDquMQFiKED8fjXUf7AQT0q8pyymjZVeSlPsAN5ll5XCFzvV2v4RAIT2vJGdZUmGNS2Dh6tyoaAFATlSDE9Ew8qBl4VbRyEtCzOLIUk7YqtfnuhVciFwlBe3MFzshVAJsT2zxmmPTiIeBdU3ThuJcd_Wt1UdsvNEtU7m-Ua9tlV17m00]--></g></svg>