<?xml version="1.0" encoding="us-ascii" standalone="no"?><svg xmlns="http://www.w3.org/2000/svg" xmlns:xlink="http://www.w3.org/1999/xlink" contentStyleType="text/css" height="780px" preserveAspectRatio="none" style="width:1299px;height:780px;background:#FFFFFF;" version="1.1" viewBox="0 0 1299 780" width="1299px" zoomAndPan="magnify"><defs/><g><text fill="#000000" font-family="sans-serif" font-size="14" font-weight="bold" lengthAdjust="spacing" textLength="548" x="377.25" y="28.1318">Get new subscriptions and cancellations in a specific month Sequence Diagram</text><rect fill="#FFFFFF" height="562.5325" style="stroke:#181818;stroke-width:1.0;" width="10" x="18" y="128.1973"/><rect fill="#FFFFFF" height="541.5658" style="stroke:#181818;stroke-width:1.0;" width="10" x="287" y="149.164"/><rect fill="#FFFFFF" height="207.8002" style="stroke:#181818;stroke-width:1.0;" width="10" x="292" y="482.9296"/><rect fill="#FFFFFF" height="40.9667" style="stroke:#181818;stroke-width:1.0;" width="10" x="297" y="640.7631"/><rect fill="#FFFFFF" height="28.9667" style="stroke:#181818;stroke-width:1.0;" width="10" x="492" y="178.1307"/><rect fill="#FFFFFF" height="28.9667" style="stroke:#181818;stroke-width:1.0;" width="10" x="606.5" y="236.0641"/><rect fill="#FFFFFF" height="86.9001" style="stroke:#181818;stroke-width:1.0;" width="10" x="871" y="359.0628"/><rect fill="#FFFFFF" height="86.9001" style="stroke:#181818;stroke-width:1.0;" width="10" x="871" y="516.8963"/><rect fill="#FFFFFF" height="28.9667" style="stroke:#181818;stroke-width:1.0;" width="10" x="1182" y="388.0295"/><rect fill="#FFFFFF" height="28.9667" style="stroke:#181818;stroke-width:1.0;" width="10" x="1182" y="545.863"/><rect fill="none" height="332.6337" style="stroke:#000000;stroke-width:1.5;" width="1090.5" x="203" y="321.1294"/><line style="stroke:#181818;stroke-width:0.5;stroke-dasharray:5.0,5.0;" x1="23" x2="23" y1="118.1973" y2="699.7298"/><line style="stroke:#181818;stroke-width:0.5;stroke-dasharray:5.0,5.0;" x1="292" x2="292" y1="118.1973" y2="699.7298"/><line style="stroke:#181818;stroke-width:0.5;stroke-dasharray:5.0,5.0;" x1="497" x2="497" y1="118.1973" y2="699.7298"/><line style="stroke:#181818;stroke-width:0.5;stroke-dasharray:5.0,5.0;" x1="611" x2="611" y1="118.1973" y2="699.7298"/><line style="stroke:#181818;stroke-width:0.5;stroke-dasharray:5.0,5.0;" x1="734" x2="734" y1="303.5801" y2="699.7298"/><line style="stroke:#181818;stroke-width:0.5;stroke-dasharray:5.0,5.0;" x1="876" x2="876" y1="118.1973" y2="699.7298"/><line style="stroke:#181818;stroke-width:0.5;stroke-dasharray:5.0,5.0;" x1="1186.5" x2="1186.5" y1="118.1973" y2="699.7298"/><text fill="#000000" font-family="sans-serif" font-size="14" lengthAdjust="spacing" textLength="30" x="5" y="115.2305">User</text><ellipse cx="23" cy="50.5986" fill="#E2E2F0" rx="8" ry="8" style="stroke:#181818;stroke-width:0.5;"/><path d="M23,58.5986 L23,85.5986 M10,66.5986 L36,66.5986 M23,85.5986 L10,100.5986 M23,85.5986 L36,100.5986 " fill="none" style="stroke:#181818;stroke-width:0.5;"/><text fill="#000000" font-family="sans-serif" font-size="14" lengthAdjust="spacing" textLength="30" x="5" y="711.8616">User</text><ellipse cx="23" cy="723.3284" fill="#E2E2F0" rx="8" ry="8" style="stroke:#181818;stroke-width:0.5;"/><path d="M23,731.3284 L23,758.3284 M10,739.3284 L36,739.3284 M23,758.3284 L10,773.3284 M23,758.3284 L36,773.3284 " fill="none" style="stroke:#181818;stroke-width:0.5;"/><rect fill="#E2E2F0" height="30.0986" rx="2.5" ry="2.5" style="stroke:#181818;stroke-width:0.5;" width="158" x="213" y="87.0986"/><text fill="#000000" font-family="sans-serif" font-size="14" lengthAdjust="spacing" textLength="144" x="220" y="107.2305">:SubscriptionController</text><rect fill="#E2E2F0" height="30.0986" rx="2.5" ry="2.5" style="stroke:#181818;stroke-width:0.5;" width="158" x="213" y="698.7298"/><text fill="#000000" font-family="sans-serif" font-size="14" lengthAdjust="spacing" textLength="144" x="220" y="718.8616">:SubscriptionController</text><rect fill="#E2E2F0" height="30.0986" rx="2.5" ry="2.5" style="stroke:#181818;stroke-width:0.5;" width="60" x="467" y="87.0986"/><text fill="#000000" font-family="sans-serif" font-size="14" lengthAdjust="spacing" textLength="46" x="474" y="107.2305">:Helper</text><rect fill="#E2E2F0" height="30.0986" rx="2.5" ry="2.5" style="stroke:#181818;stroke-width:0.5;" width="60" x="467" y="698.7298"/><text fill="#000000" font-family="sans-serif" font-size="14" lengthAdjust="spacing" textLength="46" x="474" y="718.8616">:Helper</text><rect fill="#E2E2F0" height="30.0986" rx="2.5" ry="2.5" style="stroke:#181818;stroke-width:0.5;" width="149" x="537" y="87.0986"/><text fill="#000000" font-family="sans-serif" font-size="14" lengthAdjust="spacing" textLength="135" x="544" y="107.2305">:repo:UserRepository</text><rect fill="#E2E2F0" height="30.0986" rx="2.5" ry="2.5" style="stroke:#181818;stroke-width:0.5;" width="149" x="537" y="698.7298"/><text fill="#000000" font-family="sans-serif" font-size="14" lengthAdjust="spacing" textLength="135" x="544" y="718.8616">:repo:UserRepository</text><rect fill="#E2E2F0" height="30.0986" rx="2.5" ry="2.5" style="stroke:#181818;stroke-width:0.5;" width="76" x="696" y="698.7298"/><text fill="#000000" font-family="sans-serif" font-size="14" lengthAdjust="spacing" textLength="62" x="703" y="718.8616">user:User</text><rect fill="#E2E2F0" height="30.0986" rx="2.5" ry="2.5" style="stroke:#181818;stroke-width:0.5;" width="188" x="782" y="87.0986"/><text fill="#000000" font-family="sans-serif" font-size="14" lengthAdjust="spacing" textLength="174" x="789" y="107.2305">service:SubscriptionService</text><rect fill="#E2E2F0" height="30.0986" rx="2.5" ry="2.5" style="stroke:#181818;stroke-width:0.5;" width="188" x="782" y="698.7298"/><text fill="#000000" font-family="sans-serif" font-size="14" lengthAdjust="spacing" textLength="174" x="789" y="718.8616">service:SubscriptionService</text><rect fill="#E2E2F0" height="30.0986" rx="2.5" ry="2.5" style="stroke:#181818;stroke-width:0.5;" width="193" x="1090.5" y="87.0986"/><text fill="#000000" font-family="sans-serif" font-size="14" lengthAdjust="spacing" textLength="179" x="1097.5" y="107.2305">repo:SubscriptionRepository</text><rect fill="#E2E2F0" height="30.0986" rx="2.5" ry="2.5" style="stroke:#181818;stroke-width:0.5;" width="193" x="1090.5" y="698.7298"/><text fill="#000000" font-family="sans-serif" font-size="14" lengthAdjust="spacing" textLength="179" x="1097.5" y="718.8616">repo:SubscriptionRepository</text><rect fill="#FFFFFF" height="562.5325" style="stroke:#181818;stroke-width:1.0;" width="10" x="18" y="128.1973"/><rect fill="#FFFFFF" height="541.5658" style="stroke:#181818;stroke-width:1.0;" width="10" x="287" y="149.164"/><rect fill="#FFFFFF" height="207.8002" style="stroke:#181818;stroke-width:1.0;" width="10" x="292" y="482.9296"/><rect fill="#FFFFFF" height="40.9667" style="stroke:#181818;stroke-width:1.0;" width="10" x="297" y="640.7631"/><rect fill="#FFFFFF" height="28.9667" style="stroke:#181818;stroke-width:1.0;" width="10" x="492" y="178.1307"/><rect fill="#FFFFFF" height="28.9667" style="stroke:#181818;stroke-width:1.0;" width="10" x="606.5" y="236.0641"/><rect fill="#FFFFFF" height="86.9001" style="stroke:#181818;stroke-width:1.0;" width="10" x="871" y="359.0628"/><rect fill="#FFFFFF" height="86.9001" style="stroke:#181818;stroke-width:1.0;" width="10" x="871" y="516.8963"/><rect fill="#FFFFFF" height="28.9667" style="stroke:#181818;stroke-width:1.0;" width="10" x="1182" y="388.0295"/><rect fill="#FFFFFF" height="28.9667" style="stroke:#181818;stroke-width:1.0;" width="10" x="1182" y="545.863"/><polygon fill="#181818" points="275,145.164,285,149.164,275,153.164,279,149.164" style="stroke:#181818;stroke-width:1.0;"/><line style="stroke:#181818;stroke-width:1.0;" x1="28" x2="281" y1="149.164" y2="149.164"/><text fill="#000000" font-family="sans-serif" font-size="13" font-weight="bold" lengthAdjust="spacing" textLength="7" x="35" y="144.4058">1</text><text fill="#000000" font-family="sans-serif" font-size="13" lengthAdjust="spacing" textLength="229" x="46" y="144.4058">POST/dashboard/subsandcancellations</text><polygon fill="#181818" points="480,174.1307,490,178.1307,480,182.1307,484,178.1307" style="stroke:#181818;stroke-width:1.0;"/><line style="stroke:#181818;stroke-width:1.0;" x1="297" x2="486" y1="178.1307" y2="178.1307"/><text fill="#000000" font-family="sans-serif" font-size="13" font-weight="bold" lengthAdjust="spacing" textLength="7" x="304" y="173.3725">2</text><text fill="#000000" font-family="sans-serif" font-size="13" lengthAdjust="spacing" textLength="148" x="315" y="173.3725">getUserByToken(request)</text><polygon fill="#181818" points="308,203.0974,298,207.0974,308,211.0974,304,207.0974" style="stroke:#181818;stroke-width:1.0;"/><line style="stroke:#181818;stroke-width:1.0;stroke-dasharray:2.0,2.0;" x1="302" x2="496" y1="207.0974" y2="207.0974"/><text fill="#000000" font-family="sans-serif" font-size="13" font-weight="bold" lengthAdjust="spacing" textLength="7" x="314" y="202.3392">3</text><text fill="#000000" font-family="sans-serif" font-size="13" lengthAdjust="spacing" textLength="36" x="325" y="202.3392">userId</text><polygon fill="#181818" points="594.5,232.0641,604.5,236.0641,594.5,240.0641,598.5,236.0641" style="stroke:#181818;stroke-width:1.0;"/><line style="stroke:#181818;stroke-width:1.0;" x1="297" x2="600.5" y1="236.0641" y2="236.0641"/><text fill="#000000" font-family="sans-serif" font-size="13" font-weight="bold" lengthAdjust="spacing" textLength="7" x="304" y="231.3059">4</text><text fill="#000000" font-family="sans-serif" font-size="13" lengthAdjust="spacing" textLength="92" x="315" y="231.3059">findById(userId)</text><polygon fill="#181818" points="308,261.0308,298,265.0308,308,269.0308,304,265.0308" style="stroke:#181818;stroke-width:1.0;"/><line style="stroke:#181818;stroke-width:1.0;stroke-dasharray:2.0,2.0;" x1="302" x2="610.5" y1="265.0308" y2="265.0308"/><text fill="#000000" font-family="sans-serif" font-size="13" font-weight="bold" lengthAdjust="spacing" textLength="7" x="314" y="260.2726">5</text><text fill="#000000" font-family="sans-serif" font-size="13" lengthAdjust="spacing" textLength="25" x="325" y="260.2726">user</text><polygon fill="#181818" points="684,289.9975,694,293.9975,684,297.9975,688,293.9975" style="stroke:#181818;stroke-width:1.0;"/><line style="stroke:#181818;stroke-width:1.0;" x1="297" x2="690" y1="293.9975" y2="293.9975"/><text fill="#000000" font-family="sans-serif" font-size="13" font-weight="bold" lengthAdjust="spacing" textLength="7" x="304" y="289.2393">6</text><text fill="#000000" font-family="sans-serif" font-size="13" lengthAdjust="spacing" textLength="88" x="315" y="289.2393">getAuthorities()</text><rect fill="#E2E2F0" height="30.0986" rx="2.5" ry="2.5" style="stroke:#181818;stroke-width:0.5;" width="76" x="696" y="273.0308"/><text fill="#000000" font-family="sans-serif" font-size="14" lengthAdjust="spacing" textLength="62" x="703" y="293.1626">user:User</text><path d="M203,321.1294 L263,321.1294 L263,328.0961 L253,338.0961 L203,338.0961 L203,321.1294 " fill="#EEEEEE" style="stroke:#000000;stroke-width:1.5;"/><rect fill="none" height="332.6337" style="stroke:#000000;stroke-width:1.5;" width="1090.5" x="203" y="321.1294"/><text fill="#000000" font-family="sans-serif" font-size="13" font-weight="bold" lengthAdjust="spacing" textLength="15" x="218" y="334.3379">alt</text><text fill="#000000" font-family="sans-serif" font-size="11" font-weight="bold" lengthAdjust="spacing" textLength="209" x="278" y="333.4619">[if(user.role = "PRODUCT_MANAGER")]</text><polygon fill="#181818" points="859,355.0628,869,359.0628,859,363.0628,863,359.0628" style="stroke:#181818;stroke-width:1.0;"/><line style="stroke:#181818;stroke-width:1.0;" x1="297" x2="865" y1="359.0628" y2="359.0628"/><text fill="#000000" font-family="sans-serif" font-size="13" font-weight="bold" lengthAdjust="spacing" textLength="7" x="304" y="354.3046">7</text><text fill="#000000" font-family="sans-serif" font-size="13" lengthAdjust="spacing" textLength="312" x="315" y="354.3046">countNewSubscriptionsByMonth(resource.getMonth())</text><polygon fill="#181818" points="1170,384.0295,1180,388.0295,1170,392.0295,1174,388.0295" style="stroke:#181818;stroke-width:1.0;"/><line style="stroke:#181818;stroke-width:1.0;" x1="881" x2="1176" y1="388.0295" y2="388.0295"/><text fill="#000000" font-family="sans-serif" font-size="13" font-weight="bold" lengthAdjust="spacing" textLength="7" x="888" y="383.2713">8</text><text fill="#000000" font-family="sans-serif" font-size="13" lengthAdjust="spacing" textLength="232" x="899" y="383.2713">countNewSubscriptionsByMonth(month)</text><polygon fill="#181818" points="892,412.9962,882,416.9962,892,420.9962,888,416.9962" style="stroke:#181818;stroke-width:1.0;"/><line style="stroke:#181818;stroke-width:1.0;stroke-dasharray:2.0,2.0;" x1="886" x2="1186" y1="416.9962" y2="416.9962"/><text fill="#000000" font-family="sans-serif" font-size="13" font-weight="bold" lengthAdjust="spacing" textLength="7" x="898" y="412.238">9</text><text fill="#000000" font-family="sans-serif" font-size="13" lengthAdjust="spacing" textLength="57" x="909" y="412.238">newCount</text><polygon fill="#181818" points="308,441.9629,298,445.9629,308,449.9629,304,445.9629" style="stroke:#181818;stroke-width:1.0;"/><line style="stroke:#181818;stroke-width:1.0;stroke-dasharray:2.0,2.0;" x1="302" x2="875" y1="445.9629" y2="445.9629"/><text fill="#000000" font-family="sans-serif" font-size="13" font-weight="bold" lengthAdjust="spacing" textLength="14" x="314" y="441.2047">10</text><text fill="#000000" font-family="sans-serif" font-size="13" lengthAdjust="spacing" textLength="57" x="332" y="441.2047">newCount</text><line style="stroke:#181818;stroke-width:1.0;" x1="297" x2="344" y1="469.9296" y2="469.9296"/><line style="stroke:#181818;stroke-width:1.0;" x1="344" x2="344" y1="469.9296" y2="482.9296"/><line style="stroke:#181818;stroke-width:1.0;" x1="303" x2="344" y1="482.9296" y2="482.9296"/><polygon fill="#181818" points="313,478.9296,303,482.9296,313,486.9296,309,482.9296" style="stroke:#181818;stroke-width:1.0;"/><text fill="#000000" font-family="sans-serif" font-size="13" font-weight="bold" lengthAdjust="spacing" textLength="14" x="309" y="465.1714">11</text><text fill="#000000" font-family="sans-serif" font-size="13" lengthAdjust="spacing" textLength="126" x="327" y="465.1714">counts.put(newCount)</text><polygon fill="#181818" points="859,512.8963,869,516.8963,859,520.8963,863,516.8963" style="stroke:#181818;stroke-width:1.0;"/><line style="stroke:#181818;stroke-width:1.0;" x1="302" x2="865" y1="516.8963" y2="516.8963"/><text fill="#000000" font-family="sans-serif" font-size="13" font-weight="bold" lengthAdjust="spacing" textLength="14" x="309" y="512.1381">12</text><text fill="#000000" font-family="sans-serif" font-size="13" lengthAdjust="spacing" textLength="344" x="327" y="512.1381">countCancelledSubscriptionsByMonth(resource.getMonth())</text><polygon fill="#181818" points="1170,541.863,1180,545.863,1170,549.863,1174,545.863" style="stroke:#181818;stroke-width:1.0;"/><line style="stroke:#181818;stroke-width:1.0;" x1="881" x2="1176" y1="545.863" y2="545.863"/><text fill="#000000" font-family="sans-serif" font-size="13" font-weight="bold" lengthAdjust="spacing" textLength="14" x="888" y="541.1048">13</text><text fill="#000000" font-family="sans-serif" font-size="13" lengthAdjust="spacing" textLength="264" x="906" y="541.1048">countCancelledSubscriptionsByMonth(month)</text><polygon fill="#181818" points="892,570.8297,882,574.8297,892,578.8297,888,574.8297" style="stroke:#181818;stroke-width:1.0;"/><line style="stroke:#181818;stroke-width:1.0;stroke-dasharray:2.0,2.0;" x1="886" x2="1186" y1="574.8297" y2="574.8297"/><text fill="#000000" font-family="sans-serif" font-size="13" font-weight="bold" lengthAdjust="spacing" textLength="14" x="898" y="570.0715">14</text><text fill="#000000" font-family="sans-serif" font-size="13" lengthAdjust="spacing" textLength="89" x="916" y="570.0715">cancelledCount</text><polygon fill="#181818" points="313,599.7964,303,603.7964,313,607.7964,309,603.7964" style="stroke:#181818;stroke-width:1.0;"/><line style="stroke:#181818;stroke-width:1.0;stroke-dasharray:2.0,2.0;" x1="307" x2="875" y1="603.7964" y2="603.7964"/><text fill="#000000" font-family="sans-serif" font-size="13" font-weight="bold" lengthAdjust="spacing" textLength="14" x="319" y="599.0382">15</text><text fill="#000000" font-family="sans-serif" font-size="13" lengthAdjust="spacing" textLength="89" x="337" y="599.0382">cancelledCount</text><line style="stroke:#181818;stroke-width:1.0;" x1="302" x2="349" y1="627.7631" y2="627.7631"/><line style="stroke:#181818;stroke-width:1.0;" x1="349" x2="349" y1="627.7631" y2="640.7631"/><line style="stroke:#181818;stroke-width:1.0;" x1="308" x2="349" y1="640.7631" y2="640.7631"/><polygon fill="#181818" points="318,636.7631,308,640.7631,318,644.7631,314,640.7631" style="stroke:#181818;stroke-width:1.0;"/><text fill="#000000" font-family="sans-serif" font-size="13" font-weight="bold" lengthAdjust="spacing" textLength="14" x="314" y="623.0049">16</text><text fill="#000000" font-family="sans-serif" font-size="13" lengthAdjust="spacing" textLength="158" x="332" y="623.0049">counts.put(cancelledCount)</text><polygon fill="#181818" points="39,677.7298,29,681.7298,39,685.7298,35,681.7298" style="stroke:#181818;stroke-width:1.0;"/><line style="stroke:#181818;stroke-width:1.0;stroke-dasharray:2.0,2.0;" x1="33" x2="291" y1="681.7298" y2="681.7298"/><text fill="#000000" font-family="sans-serif" font-size="13" font-weight="bold" lengthAdjust="spacing" textLength="14" x="45" y="676.9716">17</text><text fill="#000000" font-family="sans-serif" font-size="13" lengthAdjust="spacing" textLength="87" x="63" y="676.9716">201 CREATED</text><!--SRC=[jLDDRnen4BtxLups4ZOIqFQuKYl1Wj8SyY4WvyXuXs1riRVsE17_llxOHUoAj56bS41ctfitZpVsrPweiSLqsjHSaJlK4w4FKuk_7Ig1uqho5yCFZ96a6k462HI-WNLRAuniI6fbWQiA1FVqkkQf8XLmi0qAkPC23bhH7jQj9YmwJUv8Sq7obHE2Ll6tSeSj6ey9qWQo9uic0suX75Z33KaX6-yKic9zPgBq8uokwvPTaga7x9zODosQZWFSOAEBC6Nb3rRwwST8TcsfJm_LucJEsO6Q1rwbm9x5TQh5XlPy3lS5efjpUE1g2CN0Kf0nAHQ-OVmZ9b70uyDwCwsutMyrDzKqhCylhRSp5fYX8wLJm0jI49aVD_eNgf49wxEKiuJ3-2GUihYjJlrTO0NifAhcnzjgb1Wvww11yrchkRwEasUEzjf8acX7EUCrWTn5cOdVCi9to1vN3ukdSlDyDxkVtInNMSx0Vpgb2m4N8BHJT8zlvrKxFzw5w-d_dzNE29puwQcI9yaBKd72O0F_a8zle1KSTCOqBXhsJwqCek_xEENOetOf92ZwifF6qQXZVJIiCjqGh3upihyF-Q_WH2VvqVWkDBmROf-RCrJTvVViy6GA-FRbAvIhvMopNB0_]--></g></svg>