<?xml version="1.0" encoding="us-ascii" standalone="no"?><svg xmlns="http://www.w3.org/2000/svg" xmlns:xlink="http://www.w3.org/1999/xlink" contentStyleType="text/css" height="489.6px" preserveAspectRatio="none" style="width:900px;height:489px;background:#FFFFFF;" version="1.1" viewBox="0 0 900 489" width="900px" zoomAndPan="magnify"><defs/><g><text fill="#000000" font-family="sans-serif" font-size="8.4" font-weight="bold" lengthAdjust="spacing" textLength="173.4" x="364.2" y="18.0645">Cancel a Subscription Sequence Diagram</text><rect fill="#FFFFFF" height="354.5391" style="stroke:#181818;stroke-width:0.6;" width="6" x="10.5" y="79.9453"/><rect fill="#FFFFFF" height="335.1645" style="stroke:#181818;stroke-width:0.6;" width="6" x="135.9" y="93.9199"/><rect fill="#FFFFFF" height="18.7746" style="stroke:#181818;stroke-width:0.6;" width="6" x="248.1" y="112.6945"/><rect fill="#FFFFFF" height="18.7746" style="stroke:#181818;stroke-width:0.6;" width="6" x="316.2" y="150.2438"/><rect fill="#FFFFFF" height="138.8203" style="stroke:#181818;stroke-width:0.6;" width="6" x="474" y="229.7402"/><rect fill="#FFFFFF" height="18.7746" style="stroke:#181818;stroke-width:0.6;" width="6" x="594.3" y="248.5148"/><rect fill="#FFFFFF" height="18.7746" style="stroke:#181818;stroke-width:0.6;" width="6" x="594.3" y="331.0113"/><rect fill="#FFFFFF" height="122.2477" style="stroke:#181818;stroke-width:0.6;" width="6" x="709.8" y="312.2367"/><rect fill="#FFFFFF" height="18.7746" style="stroke:#181818;stroke-width:0.6;" width="6" x="827.4" y="387.3352"/><rect fill="none" height="206.7188" style="stroke:#000000;stroke-width:0.8999999999999999;" width="810.9" x="85.5" y="204.191"/><line style="stroke:#181818;stroke-width:0.3;stroke-dasharray:5.0,5.0;" x1="13.2" x2="13.2" y1="73.9453" y2="439.8844"/><line style="stroke:#181818;stroke-width:0.3;stroke-dasharray:5.0,5.0;" x1="138.9" x2="138.9" y1="73.9453" y2="439.8844"/><line style="stroke:#181818;stroke-width:0.3;stroke-dasharray:5.0,5.0;" x1="250.8" x2="250.8" y1="73.9453" y2="439.8844"/><line style="stroke:#181818;stroke-width:0.3;stroke-dasharray:5.0,5.0;" x1="319.2" x2="319.2" y1="73.9453" y2="439.8844"/><line style="stroke:#181818;stroke-width:0.3;stroke-dasharray:5.0,5.0;" x1="391.8" x2="391.8" y1="192.9047" y2="439.8844"/><line style="stroke:#181818;stroke-width:0.3;stroke-dasharray:5.0,5.0;" x1="477" x2="477" y1="73.9453" y2="439.8844"/><line style="stroke:#181818;stroke-width:0.3;stroke-dasharray:5.0,5.0;" x1="597" x2="597" y1="73.9453" y2="439.8844"/><line style="stroke:#181818;stroke-width:0.3;stroke-dasharray:5.0,5.0;" x1="712.8" x2="712.8" y1="291.1758" y2="439.8844"/><line style="stroke:#181818;stroke-width:0.3;stroke-dasharray:5.0,5.0;" x1="830.4" x2="830.4" y1="73.9453" y2="439.8844"/><text fill="#000000" font-family="sans-serif" font-size="8.4" lengthAdjust="spacing" textLength="17.4" x="3" y="71.8371">User</text><ellipse cx="13.5" cy="31.8727" fill="#E2E2F0" rx="4.8" ry="4.8" style="stroke:#181818;stroke-width:0.3;"/><path d="M13.5,36.6727 L13.5,52.8727 M5.7,41.4727 L21.3,41.4727 M13.5,52.8727 L5.7,61.8727 M13.5,52.8727 L21.3,61.8727 " fill="none" style="stroke:#181818;stroke-width:0.3;"/><text fill="#000000" font-family="sans-serif" font-size="8.4" lengthAdjust="spacing" textLength="17.4" x="3" y="448.3488">User</text><ellipse cx="13.5" cy="455.557" fill="#E2E2F0" rx="4.8" ry="4.8" style="stroke:#181818;stroke-width:0.3;"/><path d="M13.5,460.357 L13.5,476.557 M5.7,465.157 L21.3,465.157 M13.5,476.557 L5.7,485.557 M13.5,476.557 L21.3,485.557 " fill="none" style="stroke:#181818;stroke-width:0.3;"/><rect fill="#E2E2F0" height="19.5727" rx="1.5" ry="1.5" style="stroke:#181818;stroke-width:0.3;" width="94.8" x="91.5" y="53.7727"/><text fill="#000000" font-family="sans-serif" font-size="8.4" lengthAdjust="spacing" textLength="86.4" x="95.7" y="67.0371">:SubscriptionController</text><rect fill="#E2E2F0" height="19.5727" rx="1.5" ry="1.5" style="stroke:#181818;stroke-width:0.3;" width="94.8" x="91.5" y="439.2844"/><text fill="#000000" font-family="sans-serif" font-size="8.4" lengthAdjust="spacing" textLength="86.4" x="95.7" y="452.5488">:SubscriptionController</text><rect fill="#E2E2F0" height="19.5727" rx="1.5" ry="1.5" style="stroke:#181818;stroke-width:0.3;" width="35.4" x="233.4" y="53.7727"/><text fill="#000000" font-family="sans-serif" font-size="8.4" lengthAdjust="spacing" textLength="27" x="237.6" y="67.0371">:Helper</text><rect fill="#E2E2F0" height="19.5727" rx="1.5" ry="1.5" style="stroke:#181818;stroke-width:0.3;" width="35.4" x="233.4" y="439.2844"/><text fill="#000000" font-family="sans-serif" font-size="8.4" lengthAdjust="spacing" textLength="27" x="237.6" y="452.5488">:Helper</text><rect fill="#E2E2F0" height="19.5727" rx="1.5" ry="1.5" style="stroke:#181818;stroke-width:0.3;" width="88.8" x="274.8" y="53.7727"/><text fill="#000000" font-family="sans-serif" font-size="8.4" lengthAdjust="spacing" textLength="80.4" x="279" y="67.0371">:repo:UserRepository</text><rect fill="#E2E2F0" height="19.5727" rx="1.5" ry="1.5" style="stroke:#181818;stroke-width:0.3;" width="88.8" x="274.8" y="439.2844"/><text fill="#000000" font-family="sans-serif" font-size="8.4" lengthAdjust="spacing" textLength="80.4" x="279" y="452.5488">:repo:UserRepository</text><rect fill="#E2E2F0" height="19.5727" rx="1.5" ry="1.5" style="stroke:#181818;stroke-width:0.3;" width="45" x="369.6" y="439.2844"/><text fill="#000000" font-family="sans-serif" font-size="8.4" lengthAdjust="spacing" textLength="36.6" x="373.8" y="452.5488">user:User</text><rect fill="#E2E2F0" height="19.5727" rx="1.5" ry="1.5" style="stroke:#181818;stroke-width:0.3;" width="112.8" x="420.6" y="53.7727"/><text fill="#000000" font-family="sans-serif" font-size="8.4" lengthAdjust="spacing" textLength="104.4" x="424.8" y="67.0371">service:SubscriptionService</text><rect fill="#E2E2F0" height="19.5727" rx="1.5" ry="1.5" style="stroke:#181818;stroke-width:0.3;" width="112.8" x="420.6" y="439.2844"/><text fill="#000000" font-family="sans-serif" font-size="8.4" lengthAdjust="spacing" textLength="104.4" x="424.8" y="452.5488">service:SubscriptionService</text><rect fill="#E2E2F0" height="19.5727" rx="1.5" ry="1.5" style="stroke:#181818;stroke-width:0.3;" width="115.8" x="539.4" y="53.7727"/><text fill="#000000" font-family="sans-serif" font-size="8.4" lengthAdjust="spacing" textLength="107.4" x="543.6" y="67.0371">repo:SubscriptionRepository</text><rect fill="#E2E2F0" height="19.5727" rx="1.5" ry="1.5" style="stroke:#181818;stroke-width:0.3;" width="115.8" x="539.4" y="439.2844"/><text fill="#000000" font-family="sans-serif" font-size="8.4" lengthAdjust="spacing" textLength="107.4" x="543.6" y="452.5488">repo:SubscriptionRepository</text><rect fill="#E2E2F0" height="19.5727" rx="1.5" ry="1.5" style="stroke:#181818;stroke-width:0.3;" width="103.2" x="661.2" y="439.2844"/><text fill="#000000" font-family="sans-serif" font-size="8.4" lengthAdjust="spacing" textLength="94.8" x="665.4" y="452.5488">subscription:Subscription</text><rect fill="#E2E2F0" height="19.5727" rx="1.5" ry="1.5" style="stroke:#181818;stroke-width:0.3;" width="120" x="770.4" y="53.7727"/><text fill="#000000" font-family="sans-serif" font-size="8.4" lengthAdjust="spacing" textLength="111.6" x="774.6" y="67.0371">:mapper: SubscriptionMapper</text><rect fill="#E2E2F0" height="19.5727" rx="1.5" ry="1.5" style="stroke:#181818;stroke-width:0.3;" width="120" x="770.4" y="439.2844"/><text fill="#000000" font-family="sans-serif" font-size="8.4" lengthAdjust="spacing" textLength="111.6" x="774.6" y="452.5488">:mapper: SubscriptionMapper</text><rect fill="#FFFFFF" height="354.5391" style="stroke:#181818;stroke-width:0.6;" width="6" x="10.5" y="79.9453"/><rect fill="#FFFFFF" height="335.1645" style="stroke:#181818;stroke-width:0.6;" width="6" x="135.9" y="93.9199"/><rect fill="#FFFFFF" height="18.7746" style="stroke:#181818;stroke-width:0.6;" width="6" x="248.1" y="112.6945"/><rect fill="#FFFFFF" height="18.7746" style="stroke:#181818;stroke-width:0.6;" width="6" x="316.2" y="150.2438"/><rect fill="#FFFFFF" height="138.8203" style="stroke:#181818;stroke-width:0.6;" width="6" x="474" y="229.7402"/><rect fill="#FFFFFF" height="18.7746" style="stroke:#181818;stroke-width:0.6;" width="6" x="594.3" y="248.5148"/><rect fill="#FFFFFF" height="18.7746" style="stroke:#181818;stroke-width:0.6;" width="6" x="594.3" y="331.0113"/><rect fill="#FFFFFF" height="122.2477" style="stroke:#181818;stroke-width:0.6;" width="6" x="709.8" y="312.2367"/><rect fill="#FFFFFF" height="18.7746" style="stroke:#181818;stroke-width:0.6;" width="6" x="827.4" y="387.3352"/><polygon fill="#181818" points="128.7,91.5199,134.7,93.9199,128.7,96.3199,131.1,93.9199" style="stroke:#181818;stroke-width:0.6;"/><line style="stroke:#181818;stroke-width:0.6;" x1="16.5" x2="132.3" y1="93.9199" y2="93.9199"/><text fill="#000000" font-family="sans-serif" font-size="7.8" font-weight="bold" lengthAdjust="spacing" textLength="4.2" x="20.7" y="90.7623">1</text><text fill="#000000" font-family="sans-serif" font-size="7.8" lengthAdjust="spacing" textLength="101.4" x="27.3" y="90.7623">PUT/api/subscriptions/cancel</text><polygon fill="#181818" points="240.9,110.2945,246.9,112.6945,240.9,115.0945,243.3,112.6945" style="stroke:#181818;stroke-width:0.6;"/><line style="stroke:#181818;stroke-width:0.6;" x1="141.9" x2="244.5" y1="112.6945" y2="112.6945"/><text fill="#000000" font-family="sans-serif" font-size="7.8" font-weight="bold" lengthAdjust="spacing" textLength="4.2" x="146.1" y="109.5369">2</text><text fill="#000000" font-family="sans-serif" font-size="7.8" lengthAdjust="spacing" textLength="88.2" x="152.7" y="109.5369">getUserByToken(request)</text><polygon fill="#181818" points="148.5,129.0691,142.5,131.4691,148.5,133.8691,146.1,131.4691" style="stroke:#181818;stroke-width:0.6;"/><line style="stroke:#181818;stroke-width:0.6;stroke-dasharray:2.0,2.0;" x1="144.9" x2="250.5" y1="131.4691" y2="131.4691"/><text fill="#000000" font-family="sans-serif" font-size="7.8" font-weight="bold" lengthAdjust="spacing" textLength="4.2" x="152.1" y="128.3115">3</text><text fill="#000000" font-family="sans-serif" font-size="7.8" lengthAdjust="spacing" textLength="21" x="158.7" y="128.3115">userId</text><polygon fill="#181818" points="309,147.8438,315,150.2438,309,152.6437,311.4,150.2438" style="stroke:#181818;stroke-width:0.6;"/><line style="stroke:#181818;stroke-width:0.6;" x1="141.9" x2="312.6" y1="150.2438" y2="150.2438"/><text fill="#000000" font-family="sans-serif" font-size="7.8" font-weight="bold" lengthAdjust="spacing" textLength="4.2" x="146.1" y="147.0861">4</text><text fill="#000000" font-family="sans-serif" font-size="7.8" lengthAdjust="spacing" textLength="53.4" x="152.7" y="147.0861">findById(userId)</text><polygon fill="#181818" points="148.5,166.6184,142.5,169.0184,148.5,171.4184,146.1,169.0184" style="stroke:#181818;stroke-width:0.6;"/><line style="stroke:#181818;stroke-width:0.6;stroke-dasharray:2.0,2.0;" x1="144.9" x2="318.6" y1="169.0184" y2="169.0184"/><text fill="#000000" font-family="sans-serif" font-size="7.8" font-weight="bold" lengthAdjust="spacing" textLength="4.2" x="152.1" y="165.8607">5</text><text fill="#000000" font-family="sans-serif" font-size="7.8" lengthAdjust="spacing" textLength="15" x="158.7" y="165.8607">user</text><polygon fill="#181818" points="362.4,185.393,368.4,187.793,362.4,190.193,364.8,187.793" style="stroke:#181818;stroke-width:0.6;"/><line style="stroke:#181818;stroke-width:0.6;" x1="141.9" x2="366" y1="187.793" y2="187.793"/><text fill="#000000" font-family="sans-serif" font-size="7.8" font-weight="bold" lengthAdjust="spacing" textLength="4.2" x="146.1" y="184.6354">6</text><text fill="#000000" font-family="sans-serif" font-size="7.8" lengthAdjust="spacing" textLength="52.8" x="152.7" y="184.6354">getAuthorities()</text><rect fill="#E2E2F0" height="19.5727" rx="1.5" ry="1.5" style="stroke:#181818;stroke-width:0.3;" width="45" x="369.6" y="173.8184"/><text fill="#000000" font-family="sans-serif" font-size="8.4" lengthAdjust="spacing" textLength="36.6" x="373.8" y="187.0828">user:User</text><path d="M85.5,204.191 L122.1,204.191 L122.1,209.7656 L116.1,215.7656 L85.5,215.7656 L85.5,204.191 " fill="#EEEEEE" style="stroke:#000000;stroke-width:0.8999999999999999;"/><rect fill="none" height="206.7188" style="stroke:#000000;stroke-width:0.8999999999999999;" width="810.9" x="85.5" y="204.191"/><text fill="#000000" font-family="sans-serif" font-size="7.8" font-weight="bold" lengthAdjust="spacing" textLength="9.6" x="94.5" y="213.208">alt</text><text fill="#000000" font-family="sans-serif" font-size="6.6" font-weight="bold" lengthAdjust="spacing" textLength="97.2" x="131.1" y="212.5131">[if(user.role = "SUBSCRIBER")]</text><polygon fill="#181818" points="466.8,227.3402,472.8,229.7402,466.8,232.1402,469.2,229.7402" style="stroke:#181818;stroke-width:0.6;"/><line style="stroke:#181818;stroke-width:0.6;" x1="141.9" x2="470.4" y1="229.7402" y2="229.7402"/><text fill="#000000" font-family="sans-serif" font-size="7.8" font-weight="bold" lengthAdjust="spacing" textLength="4.2" x="146.1" y="226.5826">7</text><text fill="#000000" font-family="sans-serif" font-size="7.8" lengthAdjust="spacing" textLength="48.6" x="152.7" y="226.5826">cancel(userId)</text><polygon fill="#181818" points="587.1,246.1148,593.1,248.5148,587.1,250.9148,589.5,248.5148" style="stroke:#181818;stroke-width:0.6;"/><line style="stroke:#181818;stroke-width:0.6;" x1="480" x2="590.7" y1="248.5148" y2="248.5148"/><text fill="#000000" font-family="sans-serif" font-size="7.8" font-weight="bold" lengthAdjust="spacing" textLength="4.2" x="484.2" y="245.3572">8</text><text fill="#000000" font-family="sans-serif" font-size="7.8" lengthAdjust="spacing" textLength="69.6" x="490.8" y="245.3572">findByUserId(userId)</text><polygon fill="#181818" points="486.6,264.8895,480.6,267.2895,486.6,269.6895,484.2,267.2895" style="stroke:#181818;stroke-width:0.6;"/><line style="stroke:#181818;stroke-width:0.6;stroke-dasharray:2.0,2.0;" x1="483" x2="596.7" y1="267.2895" y2="267.2895"/><text fill="#000000" font-family="sans-serif" font-size="7.8" font-weight="bold" lengthAdjust="spacing" textLength="4.2" x="490.2" y="264.1318">9</text><text fill="#000000" font-family="sans-serif" font-size="7.8" lengthAdjust="spacing" textLength="42" x="496.8" y="264.1318">subscription</text><polygon fill="#181818" points="654,283.6641,660,286.0641,654,288.4641,656.4,286.0641" style="stroke:#181818;stroke-width:0.6;"/><line style="stroke:#181818;stroke-width:0.6;" x1="480" x2="657.6" y1="286.0641" y2="286.0641"/><text fill="#000000" font-family="sans-serif" font-size="7.8" font-weight="bold" lengthAdjust="spacing" textLength="8.4" x="484.2" y="282.9064">10</text><text fill="#000000" font-family="sans-serif" font-size="7.8" lengthAdjust="spacing" textLength="74.4" x="495" y="282.9064">setCancellationDate()</text><rect fill="#E2E2F0" height="19.5727" rx="1.5" ry="1.5" style="stroke:#181818;stroke-width:0.3;" width="103.2" x="661.2" y="272.0895"/><text fill="#000000" font-family="sans-serif" font-size="8.4" lengthAdjust="spacing" textLength="94.8" x="665.4" y="285.3539">subscription:Subscription</text><polygon fill="#181818" points="702.6,309.8367,708.6,312.2367,702.6,314.6367,705,312.2367" style="stroke:#181818;stroke-width:0.6;"/><line style="stroke:#181818;stroke-width:0.6;" x1="480" x2="706.2" y1="312.2367" y2="312.2367"/><text fill="#000000" font-family="sans-serif" font-size="7.8" font-weight="bold" lengthAdjust="spacing" textLength="8.4" x="484.2" y="309.0791">11</text><text fill="#000000" font-family="sans-serif" font-size="7.8" lengthAdjust="spacing" textLength="52.8" x="495" y="309.0791">setActive(false)</text><polygon fill="#181818" points="587.1,328.6113,593.1,331.0113,587.1,333.4113,589.5,331.0113" style="stroke:#181818;stroke-width:0.6;"/><line style="stroke:#181818;stroke-width:0.6;" x1="480" x2="590.7" y1="331.0113" y2="331.0113"/><text fill="#000000" font-family="sans-serif" font-size="7.8" font-weight="bold" lengthAdjust="spacing" textLength="8.4" x="484.2" y="327.8537">12</text><text fill="#000000" font-family="sans-serif" font-size="7.8" lengthAdjust="spacing" textLength="62.4" x="495" y="327.8537">save(subscription)</text><polygon fill="#181818" points="486.6,347.3859,480.6,349.7859,486.6,352.1859,484.2,349.7859" style="stroke:#181818;stroke-width:0.6;"/><line style="stroke:#181818;stroke-width:0.6;stroke-dasharray:2.0,2.0;" x1="483" x2="596.7" y1="349.7859" y2="349.7859"/><text fill="#000000" font-family="sans-serif" font-size="7.8" font-weight="bold" lengthAdjust="spacing" textLength="8.4" x="490.2" y="346.6283">13</text><text fill="#000000" font-family="sans-serif" font-size="7.8" lengthAdjust="spacing" textLength="42" x="501" y="346.6283">subscription</text><polygon fill="#181818" points="148.5,366.1605,142.5,368.5605,148.5,370.9605,146.1,368.5605" style="stroke:#181818;stroke-width:0.6;"/><line style="stroke:#181818;stroke-width:0.6;stroke-dasharray:2.0,2.0;" x1="144.9" x2="476.4" y1="368.5605" y2="368.5605"/><text fill="#000000" font-family="sans-serif" font-size="7.8" font-weight="bold" lengthAdjust="spacing" textLength="8.4" x="152.1" y="365.4029">14</text><text fill="#000000" font-family="sans-serif" font-size="7.8" lengthAdjust="spacing" textLength="42" x="162.9" y="365.4029">subscription</text><polygon fill="#181818" points="820.2,384.9352,826.2,387.3352,820.2,389.7352,822.6,387.3352" style="stroke:#181818;stroke-width:0.6;"/><line style="stroke:#181818;stroke-width:0.6;" x1="141.9" x2="823.8" y1="387.3352" y2="387.3352"/><text fill="#000000" font-family="sans-serif" font-size="7.8" font-weight="bold" lengthAdjust="spacing" textLength="8.4" x="146.1" y="384.1775">15</text><text fill="#000000" font-family="sans-serif" font-size="7.8" lengthAdjust="spacing" textLength="112.2" x="156.9" y="384.1775">toSubscriptionDTO(subscription)</text><polygon fill="#181818" points="148.5,403.7098,142.5,406.1098,148.5,408.5098,146.1,406.1098" style="stroke:#181818;stroke-width:0.6;"/><line style="stroke:#181818;stroke-width:0.6;stroke-dasharray:2.0,2.0;" x1="144.9" x2="829.8" y1="406.1098" y2="406.1098"/><text fill="#000000" font-family="sans-serif" font-size="7.8" font-weight="bold" lengthAdjust="spacing" textLength="8.4" x="152.1" y="402.9521">16</text><text fill="#000000" font-family="sans-serif" font-size="7.8" lengthAdjust="spacing" textLength="57.6" x="162.9" y="402.9521">subscriptionDTO</text><polygon fill="#181818" points="23.1,426.6844,17.1,429.0844,23.1,431.4844,20.7,429.0844" style="stroke:#181818;stroke-width:0.6;"/><line style="stroke:#181818;stroke-width:0.6;stroke-dasharray:2.0,2.0;" x1="19.5" x2="138.3" y1="429.0844" y2="429.0844"/><text fill="#000000" font-family="sans-serif" font-size="7.8" font-weight="bold" lengthAdjust="spacing" textLength="8.4" x="26.7" y="425.9268">17</text><text fill="#000000" font-family="sans-serif" font-size="7.8" lengthAdjust="spacing" textLength="25.2" x="37.5" y="425.9268">200 Ok</text><!--SRC=[hLFBRjim4BppAnQwH0hWAEYHG0l4Te3wKAImx0zWP3eXGf4ikGhWloyVaa0fJjj3TH2edPbz3NNpYcWShMiZcSA-atUjxch7V_LSjNnr4kp5ieuG52WvR9WFIc3GzC-kjSAWq0gQWGtRaSrwrAn5ySwGWrRnM_NTCxSUQr5RA8wEsmAOWt0WXbaKhJ2-1oXeddsZ5LejvS3Ue9KBzdSkpO2cumAtt6WQgkpzmGbV_HB9_H2QqqEKJitrRf7D0- -YvRCMcnIBWk6Sm_C4iPiSNdJbeOzDkOm_4qU9HnSZTypuFT2PJJzYR1Iah-X6SYdQGC8RLj_YcYdyF1vgPaITbtTr6oy12PH0JJkdyC8ngDUNWtxZghJXKZYiIC9XDMKD6zwT9lre0uMpKAVrPNSg4wCY8xGGPr9xUnihF_Juggr0mLrP4IOHn3cckVDtXyDNA9hZkjdiT-l7VL4HyC-Ov8fZ5DACKoE1VuKNvScliVjZLCo5YH67k5eiN- -VIdbU6DTnJF-XP07PUlVAwY-wg7e8NlFopAJZ_pQJOvwVj_TV9vfC_K0VlPakAWNKkNXxUBhIrqJ_9BTN4Qx6g-SfmIqAN-xluUcD_0O0]--></g></svg>