<?xml version="1.0" encoding="us-ascii" standalone="no"?><svg xmlns="http://www.w3.org/2000/svg" xmlns:xlink="http://www.w3.org/1999/xlink" contentStyleType="text/css" height="666.9px" preserveAspectRatio="none" style="width:1299px;height:666px;background:#FFFFFF;" version="1.1" viewBox="0 0 1299 666" width="1299.6px" zoomAndPan="magnify"><defs/><g><text fill="#000000" font-family="sans-serif" font-size="12.6" font-weight="bold" lengthAdjust="spacing" textLength="231.3" x="535.5" y="27.0967">Get plan's details Sequence Diagram</text><rect fill="#FFFFFF" height="464.3877" style="stroke:#181818;stroke-width:0.9;" width="9" x="15.75" y="119.918"/><rect fill="#FFFFFF" height="435.3258" style="stroke:#181818;stroke-width:0.9;" width="9" x="228.15" y="140.8799"/><rect fill="#FFFFFF" height="28.1619" style="stroke:#181818;stroke-width:0.9;" width="9" x="396.45" y="169.0418"/><rect fill="#FFFFFF" height="28.1619" style="stroke:#181818;stroke-width:0.9;" width="9" x="498.6" y="225.3656"/><rect fill="#FFFFFF" height="140.8096" style="stroke:#181818;stroke-width:0.9;" width="9" x="735.3" y="344.6104"/><rect fill="#FFFFFF" height="28.1619" style="stroke:#181818;stroke-width:0.9;" width="9" x="915.75" y="372.7723"/><rect fill="#FFFFFF" height="28.1619" style="stroke:#181818;stroke-width:0.9;" width="9" x="1075.95" y="429.0961"/><rect fill="#FFFFFF" height="28.1619" style="stroke:#181818;stroke-width:0.9;" width="9" x="1215" y="513.5818"/><rect fill="none" height="242.6572" style="stroke:#000000;stroke-width:1.35;" width="1141.65" x="152.55" y="306.2865"/><line style="stroke:#181818;stroke-width:0.45;stroke-dasharray:5.0,5.0;" x1="19.8" x2="19.8" y1="110.918" y2="592.4057"/><line style="stroke:#181818;stroke-width:0.45;stroke-dasharray:5.0,5.0;" x1="232.65" x2="232.65" y1="110.918" y2="592.4057"/><line style="stroke:#181818;stroke-width:0.45;stroke-dasharray:5.0,5.0;" x1="400.5" x2="400.5" y1="110.918" y2="592.4057"/><line style="stroke:#181818;stroke-width:0.45;stroke-dasharray:5.0,5.0;" x1="503.1" x2="503.1" y1="110.918" y2="592.4057"/><line style="stroke:#181818;stroke-width:0.45;stroke-dasharray:5.0,5.0;" x1="612" x2="612" y1="289.357" y2="592.4057"/><line style="stroke:#181818;stroke-width:0.45;stroke-dasharray:5.0,5.0;" x1="739.8" x2="739.8" y1="110.918" y2="592.4057"/><line style="stroke:#181818;stroke-width:0.45;stroke-dasharray:5.0,5.0;" x1="919.8" x2="919.8" y1="110.918" y2="592.4057"/><line style="stroke:#181818;stroke-width:0.45;stroke-dasharray:5.0,5.0;" x1="1080" x2="1080" y1="110.918" y2="592.4057"/><line style="stroke:#181818;stroke-width:0.45;stroke-dasharray:5.0,5.0;" x1="1219.5" x2="1219.5" y1="110.918" y2="592.4057"/><text fill="#000000" font-family="sans-serif" font-size="12.6" lengthAdjust="spacing" textLength="26.1" x="4.5" y="107.7557">User</text><ellipse cx="20.25" cy="47.809" fill="#E2E2F0" rx="7.2" ry="7.2" style="stroke:#181818;stroke-width:0.45;"/><path d="M20.25,55.009 L20.25,79.309 M8.55,62.209 L31.95,62.209 M20.25,79.309 L8.55,92.809 M20.25,79.309 L31.95,92.809 " fill="none" style="stroke:#181818;stroke-width:0.45;"/><text fill="#000000" font-family="sans-serif" font-size="12.6" lengthAdjust="spacing" textLength="26.1" x="4.5" y="605.1023">User</text><ellipse cx="20.25" cy="615.9146" fill="#E2E2F0" rx="7.2" ry="7.2" style="stroke:#181818;stroke-width:0.45;"/><path d="M20.25,623.1146 L20.25,647.4146 M8.55,630.3146 L31.95,630.3146 M20.25,647.4146 L8.55,660.9146 M20.25,647.4146 L31.95,660.9146 " fill="none" style="stroke:#181818;stroke-width:0.45;"/><rect fill="#E2E2F0" height="29.359" rx="2.25" ry="2.25" style="stroke:#181818;stroke-width:0.45;" width="142.2" x="161.55" y="80.659"/><text fill="#000000" font-family="sans-serif" font-size="12.6" lengthAdjust="spacing" textLength="129.6" x="167.85" y="100.5557">:SubscriptionController</text><rect fill="#E2E2F0" height="29.359" rx="2.25" ry="2.25" style="stroke:#181818;stroke-width:0.45;" width="142.2" x="161.55" y="591.5057"/><text fill="#000000" font-family="sans-serif" font-size="12.6" lengthAdjust="spacing" textLength="129.6" x="167.85" y="611.4023">:SubscriptionController</text><rect fill="#E2E2F0" height="29.359" rx="2.25" ry="2.25" style="stroke:#181818;stroke-width:0.45;" width="53.1" x="374.4" y="80.659"/><text fill="#000000" font-family="sans-serif" font-size="12.6" lengthAdjust="spacing" textLength="40.5" x="380.7" y="100.5557">:Helper</text><rect fill="#E2E2F0" height="29.359" rx="2.25" ry="2.25" style="stroke:#181818;stroke-width:0.45;" width="53.1" x="374.4" y="591.5057"/><text fill="#000000" font-family="sans-serif" font-size="12.6" lengthAdjust="spacing" textLength="40.5" x="380.7" y="611.4023">:Helper</text><rect fill="#E2E2F0" height="29.359" rx="2.25" ry="2.25" style="stroke:#181818;stroke-width:0.45;" width="133.2" x="436.5" y="80.659"/><text fill="#000000" font-family="sans-serif" font-size="12.6" lengthAdjust="spacing" textLength="120.6" x="442.8" y="100.5557">:repo:UserRepository</text><rect fill="#E2E2F0" height="29.359" rx="2.25" ry="2.25" style="stroke:#181818;stroke-width:0.45;" width="133.2" x="436.5" y="591.5057"/><text fill="#000000" font-family="sans-serif" font-size="12.6" lengthAdjust="spacing" textLength="120.6" x="442.8" y="611.4023">:repo:UserRepository</text><rect fill="#E2E2F0" height="29.359" rx="2.25" ry="2.25" style="stroke:#181818;stroke-width:0.45;" width="67.5" x="578.7" y="591.5057"/><text fill="#000000" font-family="sans-serif" font-size="12.6" lengthAdjust="spacing" textLength="54.9" x="585" y="611.4023">user:User</text><rect fill="#E2E2F0" height="29.359" rx="2.25" ry="2.25" style="stroke:#181818;stroke-width:0.45;" width="169.2" x="655.2" y="80.659"/><text fill="#000000" font-family="sans-serif" font-size="12.6" lengthAdjust="spacing" textLength="156.6" x="661.5" y="100.5557">service:SubscriptionService</text><rect fill="#E2E2F0" height="29.359" rx="2.25" ry="2.25" style="stroke:#181818;stroke-width:0.45;" width="169.2" x="655.2" y="591.5057"/><text fill="#000000" font-family="sans-serif" font-size="12.6" lengthAdjust="spacing" textLength="156.6" x="661.5" y="611.4023">service:SubscriptionService</text><rect fill="#E2E2F0" height="29.359" rx="2.25" ry="2.25" style="stroke:#181818;stroke-width:0.45;" width="173.7" x="833.4" y="80.659"/><text fill="#000000" font-family="sans-serif" font-size="12.6" lengthAdjust="spacing" textLength="161.1" x="839.7" y="100.5557">repo:SubscriptionRepository</text><rect fill="#E2E2F0" height="29.359" rx="2.25" ry="2.25" style="stroke:#181818;stroke-width:0.45;" width="173.7" x="833.4" y="591.5057"/><text fill="#000000" font-family="sans-serif" font-size="12.6" lengthAdjust="spacing" textLength="161.1" x="839.7" y="611.4023">repo:SubscriptionRepository</text><rect fill="#E2E2F0" height="29.359" rx="2.25" ry="2.25" style="stroke:#181818;stroke-width:0.45;" width="128.7" x="1016.1" y="80.659"/><text fill="#000000" font-family="sans-serif" font-size="12.6" lengthAdjust="spacing" textLength="116.1" x="1022.4" y="100.5557">repo:PlanRepository</text><rect fill="#E2E2F0" height="29.359" rx="2.25" ry="2.25" style="stroke:#181818;stroke-width:0.45;" width="128.7" x="1016.1" y="591.5057"/><text fill="#000000" font-family="sans-serif" font-size="12.6" lengthAdjust="spacing" textLength="116.1" x="1022.4" y="611.4023">repo:PlanRepository</text><rect fill="#E2E2F0" height="29.359" rx="2.25" ry="2.25" style="stroke:#181818;stroke-width:0.45;" width="131.4" x="1153.8" y="80.659"/><text fill="#000000" font-family="sans-serif" font-size="12.6" lengthAdjust="spacing" textLength="118.8" x="1160.1" y="100.5557">:mapper:PlanMapper</text><rect fill="#E2E2F0" height="29.359" rx="2.25" ry="2.25" style="stroke:#181818;stroke-width:0.45;" width="131.4" x="1153.8" y="591.5057"/><text fill="#000000" font-family="sans-serif" font-size="12.6" lengthAdjust="spacing" textLength="118.8" x="1160.1" y="611.4023">:mapper:PlanMapper</text><rect fill="#FFFFFF" height="464.3877" style="stroke:#181818;stroke-width:0.9;" width="9" x="15.75" y="119.918"/><rect fill="#FFFFFF" height="435.3258" style="stroke:#181818;stroke-width:0.9;" width="9" x="228.15" y="140.8799"/><rect fill="#FFFFFF" height="28.1619" style="stroke:#181818;stroke-width:0.9;" width="9" x="396.45" y="169.0418"/><rect fill="#FFFFFF" height="28.1619" style="stroke:#181818;stroke-width:0.9;" width="9" x="498.6" y="225.3656"/><rect fill="#FFFFFF" height="140.8096" style="stroke:#181818;stroke-width:0.9;" width="9" x="735.3" y="344.6104"/><rect fill="#FFFFFF" height="28.1619" style="stroke:#181818;stroke-width:0.9;" width="9" x="915.75" y="372.7723"/><rect fill="#FFFFFF" height="28.1619" style="stroke:#181818;stroke-width:0.9;" width="9" x="1075.95" y="429.0961"/><rect fill="#FFFFFF" height="28.1619" style="stroke:#181818;stroke-width:0.9;" width="9" x="1215" y="513.5818"/><polygon fill="#181818" points="217.35,137.2799,226.35,140.8799,217.35,144.4799,220.95,140.8799" style="stroke:#181818;stroke-width:0.9;"/><line style="stroke:#181818;stroke-width:0.9;" x1="24.75" x2="222.75" y1="140.8799" y2="140.8799"/><text fill="#000000" font-family="sans-serif" font-size="11.7" font-weight="bold" lengthAdjust="spacing" textLength="6.3" x="31.05" y="136.1435">1</text><text fill="#000000" font-family="sans-serif" font-size="11.7" lengthAdjust="spacing" textLength="176.4" x="40.95" y="136.1435">GET/api/subscriptions/planDetails</text><polygon fill="#181818" points="385.65,165.4418,394.65,169.0418,385.65,172.6418,389.25,169.0418" style="stroke:#181818;stroke-width:0.9;"/><line style="stroke:#181818;stroke-width:0.9;" x1="237.15" x2="391.05" y1="169.0418" y2="169.0418"/><text fill="#000000" font-family="sans-serif" font-size="11.7" font-weight="bold" lengthAdjust="spacing" textLength="6.3" x="243.45" y="164.3054">2</text><text fill="#000000" font-family="sans-serif" font-size="11.7" lengthAdjust="spacing" textLength="132.3" x="253.35" y="164.3054">getUserByToken(request)</text><polygon fill="#181818" points="247.05,193.6037,238.05,197.2037,247.05,200.8037,243.45,197.2037" style="stroke:#181818;stroke-width:0.9;"/><line style="stroke:#181818;stroke-width:0.9;stroke-dasharray:2.0,2.0;" x1="241.65" x2="400.05" y1="197.2037" y2="197.2037"/><text fill="#000000" font-family="sans-serif" font-size="11.7" font-weight="bold" lengthAdjust="spacing" textLength="6.3" x="252.45" y="192.4673">3</text><text fill="#000000" font-family="sans-serif" font-size="11.7" lengthAdjust="spacing" textLength="31.5" x="262.35" y="192.4673">userId</text><polygon fill="#181818" points="487.8,221.7656,496.8,225.3656,487.8,228.9656,491.4,225.3656" style="stroke:#181818;stroke-width:0.9;"/><line style="stroke:#181818;stroke-width:0.9;" x1="237.15" x2="493.2" y1="225.3656" y2="225.3656"/><text fill="#000000" font-family="sans-serif" font-size="11.7" font-weight="bold" lengthAdjust="spacing" textLength="6.3" x="243.45" y="220.6292">4</text><text fill="#000000" font-family="sans-serif" font-size="11.7" lengthAdjust="spacing" textLength="80.1" x="253.35" y="220.6292">findById(userId)</text><polygon fill="#181818" points="247.05,249.9275,238.05,253.5275,247.05,257.1275,243.45,253.5275" style="stroke:#181818;stroke-width:0.9;"/><line style="stroke:#181818;stroke-width:0.9;stroke-dasharray:2.0,2.0;" x1="241.65" x2="502.2" y1="253.5275" y2="253.5275"/><text fill="#000000" font-family="sans-serif" font-size="11.7" font-weight="bold" lengthAdjust="spacing" textLength="6.3" x="252.45" y="248.7911">5</text><text fill="#000000" font-family="sans-serif" font-size="11.7" lengthAdjust="spacing" textLength="22.5" x="262.35" y="248.7911">user</text><polygon fill="#181818" points="567.9,278.0895,576.9,281.6895,567.9,285.2895,571.5,281.6895" style="stroke:#181818;stroke-width:0.9;"/><line style="stroke:#181818;stroke-width:0.9;" x1="237.15" x2="573.3" y1="281.6895" y2="281.6895"/><text fill="#000000" font-family="sans-serif" font-size="11.7" font-weight="bold" lengthAdjust="spacing" textLength="6.3" x="243.45" y="276.953">6</text><text fill="#000000" font-family="sans-serif" font-size="11.7" lengthAdjust="spacing" textLength="79.2" x="253.35" y="276.953">getAuthorities()</text><rect fill="#E2E2F0" height="29.359" rx="2.25" ry="2.25" style="stroke:#181818;stroke-width:0.45;" width="67.5" x="578.7" y="260.7275"/><text fill="#000000" font-family="sans-serif" font-size="12.6" lengthAdjust="spacing" textLength="54.9" x="585" y="280.6242">user:User</text><path d="M152.55,306.2865 L207.45,306.2865 L207.45,314.6484 L198.45,323.6484 L152.55,323.6484 L152.55,306.2865 " fill="#EEEEEE" style="stroke:#000000;stroke-width:1.35;"/><rect fill="none" height="242.6572" style="stroke:#000000;stroke-width:1.35;" width="1141.65" x="152.55" y="306.2865"/><text fill="#000000" font-family="sans-serif" font-size="11.7" font-weight="bold" lengthAdjust="spacing" textLength="14.4" x="166.05" y="319.812">alt</text><text fill="#000000" font-family="sans-serif" font-size="9.9" font-weight="bold" lengthAdjust="spacing" textLength="145.8" x="220.95" y="318.7696">[if(user.role = "SUBSCRIBER")]</text><polygon fill="#181818" points="724.5,341.0104,733.5,344.6104,724.5,348.2104,728.1,344.6104" style="stroke:#181818;stroke-width:0.9;"/><line style="stroke:#181818;stroke-width:0.9;" x1="237.15" x2="729.9" y1="344.6104" y2="344.6104"/><text fill="#000000" font-family="sans-serif" font-size="11.7" font-weight="bold" lengthAdjust="spacing" textLength="6.3" x="243.45" y="339.8739">7</text><text fill="#000000" font-family="sans-serif" font-size="11.7" lengthAdjust="spacing" textLength="114.3" x="253.35" y="339.8739">getPlanDetails(userId)</text><polygon fill="#181818" points="904.95,369.1723,913.95,372.7723,904.95,376.3723,908.55,372.7723" style="stroke:#181818;stroke-width:0.9;"/><line style="stroke:#181818;stroke-width:0.9;" x1="744.3" x2="910.35" y1="372.7723" y2="372.7723"/><text fill="#000000" font-family="sans-serif" font-size="11.7" font-weight="bold" lengthAdjust="spacing" textLength="6.3" x="750.6" y="368.0358">8</text><text fill="#000000" font-family="sans-serif" font-size="11.7" lengthAdjust="spacing" textLength="104.4" x="760.5" y="368.0358">findByUserId(userId)</text><polygon fill="#181818" points="754.2,397.3342,745.2,400.9342,754.2,404.5342,750.6,400.9342" style="stroke:#181818;stroke-width:0.9;"/><line style="stroke:#181818;stroke-width:0.9;stroke-dasharray:2.0,2.0;" x1="748.8" x2="919.35" y1="400.9342" y2="400.9342"/><text fill="#000000" font-family="sans-serif" font-size="11.7" font-weight="bold" lengthAdjust="spacing" textLength="6.3" x="759.6" y="396.1978">9</text><text fill="#000000" font-family="sans-serif" font-size="11.7" lengthAdjust="spacing" textLength="63" x="769.5" y="396.1978">subscription</text><polygon fill="#181818" points="1065.15,425.4961,1074.15,429.0961,1065.15,432.6961,1068.75,429.0961" style="stroke:#181818;stroke-width:0.9;"/><line style="stroke:#181818;stroke-width:0.9;" x1="744.3" x2="1070.55" y1="429.0961" y2="429.0961"/><text fill="#000000" font-family="sans-serif" font-size="11.7" font-weight="bold" lengthAdjust="spacing" textLength="12.6" x="750.6" y="424.3597">10</text><text fill="#000000" font-family="sans-serif" font-size="11.7" lengthAdjust="spacing" textLength="237.6" x="766.8" y="424.3597">findByPlanName(subscription.getPlanName())</text><polygon fill="#181818" points="754.2,453.658,745.2,457.258,754.2,460.858,750.6,457.258" style="stroke:#181818;stroke-width:0.9;"/><line style="stroke:#181818;stroke-width:0.9;stroke-dasharray:2.0,2.0;" x1="748.8" x2="1079.55" y1="457.258" y2="457.258"/><text fill="#000000" font-family="sans-serif" font-size="11.7" font-weight="bold" lengthAdjust="spacing" textLength="12.6" x="759.6" y="452.5216">11</text><text fill="#000000" font-family="sans-serif" font-size="11.7" lengthAdjust="spacing" textLength="21.6" x="775.8" y="452.5216">plan</text><polygon fill="#181818" points="247.05,481.8199,238.05,485.4199,247.05,489.0199,243.45,485.4199" style="stroke:#181818;stroke-width:0.9;"/><line style="stroke:#181818;stroke-width:0.9;stroke-dasharray:2.0,2.0;" x1="241.65" x2="738.9" y1="485.4199" y2="485.4199"/><text fill="#000000" font-family="sans-serif" font-size="11.7" font-weight="bold" lengthAdjust="spacing" textLength="12.6" x="252.45" y="480.6835">12</text><text fill="#000000" font-family="sans-serif" font-size="11.7" lengthAdjust="spacing" textLength="21.6" x="268.65" y="480.6835">plan</text><polygon fill="#181818" points="1204.2,509.9818,1213.2,513.5818,1204.2,517.1818,1207.8,513.5818" style="stroke:#181818;stroke-width:0.9;"/><line style="stroke:#181818;stroke-width:0.9;" x1="237.15" x2="1209.6" y1="513.5818" y2="513.5818"/><text fill="#000000" font-family="sans-serif" font-size="11.7" font-weight="bold" lengthAdjust="spacing" textLength="12.6" x="243.45" y="508.8454">13</text><text fill="#000000" font-family="sans-serif" font-size="11.7" lengthAdjust="spacing" textLength="85.5" x="259.65" y="508.8454">toPlanDTO(plan)</text><polygon fill="#181818" points="247.05,538.1438,238.05,541.7438,247.05,545.3438,243.45,541.7438" style="stroke:#181818;stroke-width:0.9;"/><line style="stroke:#181818;stroke-width:0.9;stroke-dasharray:2.0,2.0;" x1="241.65" x2="1218.6" y1="541.7438" y2="541.7438"/><text fill="#000000" font-family="sans-serif" font-size="11.7" font-weight="bold" lengthAdjust="spacing" textLength="12.6" x="252.45" y="537.0073">14</text><text fill="#000000" font-family="sans-serif" font-size="11.7" lengthAdjust="spacing" textLength="45" x="268.65" y="537.0073">planDTO</text><polygon fill="#181818" points="34.65,572.6057,25.65,576.2057,34.65,579.8057,31.05,576.2057" style="stroke:#181818;stroke-width:0.9;"/><line style="stroke:#181818;stroke-width:0.9;stroke-dasharray:2.0,2.0;" x1="29.25" x2="231.75" y1="576.2057" y2="576.2057"/><text fill="#000000" font-family="sans-serif" font-size="11.7" font-weight="bold" lengthAdjust="spacing" textLength="12.6" x="40.05" y="571.4692">15</text><text fill="#000000" font-family="sans-serif" font-size="11.7" lengthAdjust="spacing" textLength="35.1" x="56.25" y="571.4692">200 ok</text><!--SRC=[VLBBRjim4BppAnQwH0fWA-XHG0lKJf3wq3Qmx0zW92OXGeaikGhWlo-v56LPTQg3iDoPsVVD6w9nLLaQnNiSEhLkT5SwyMSGVIDMhUIlbdUCeKGbu54W1EADWrOWbyf1FLBXFb7vW9etA3yu2j0zlVkXUnRMOmrg2zdH2Pi1Tn0CPhX5sKZZ2u2igeTdrrXfKEf-gtkqMgcHlKMh5kmVGfaHZUO2jyBeAcJPUyD9d_r4v65qNTA3jvgA6zmYcWS-P2CkIgoZZmIZFOSl0r0rStXHbOV-BOf4Jtxg2t9oBJhkkF5Z8C5FCebifYSj8Iw7fi_27rRVQBeLF3uSIcvawMPLEhgE-xXn5dY17-TTmQl0469pEkXtqUSs78J3WaKSLbFeCDrTE-dJ2YfuaNsxEUtQF38Abg25U2QrjxUK-Vk0RzfAbCBb1UCAGRvGcBM_6m5V8QkFctgxtsqUzbd1m7yfo9LjKSYdSwzJGK5tXKzXuivI5qTIN0eZWvgvcdG-w_-bIXjFkSBx5-z4FW-m7biWe8WL9E7d9OG5Vvvwsi94IqCytrK5g6bqXzzvyCRCPtmHnTEOwDCrU2WChe8lTtUWtzbV]--></g></svg>