<?xml version="1.0" encoding="us-ascii" standalone="no"?><svg xmlns="http://www.w3.org/2000/svg" xmlns:xlink="http://www.w3.org/1999/xlink" contentStyleType="text/css" height="974px" preserveAspectRatio="none" style="width:1854px;height:974px;background:#FFFFFF;" version="1.1" viewBox="0 0 1854 974" width="1854px" zoomAndPan="magnify"><defs/><g><text fill="#000000" font-family="sans-serif" font-size="14" font-weight="bold" lengthAdjust="spacing" textLength="456" x="700.75" y="30.1074">Migrate subscribers from one plan to another Sequence Diagram</text><rect fill="#FFFFFF" height="749.3535" style="stroke:#181818;stroke-width:1.0;" width="10" x="17.5" y="133.2422"/><rect fill="#FFFFFF" height="717.0625" style="stroke:#181818;stroke-width:1.0;" width="10" x="319.5" y="156.5332"/><rect fill="#FFFFFF" height="31.291" style="stroke:#181818;stroke-width:1.0;" width="10" x="506.5" y="187.8242"/><rect fill="#FFFFFF" height="31.291" style="stroke:#181818;stroke-width:1.0;" width="10" x="620" y="250.4063"/><rect fill="#FFFFFF" height="452.4043" style="stroke:#181818;stroke-width:1.0;" width="10" x="883" y="382.9004"/><rect fill="#FFFFFF" height="31.291" style="stroke:#181818;stroke-width:1.0;" width="10" x="1199" y="414.1914"/><rect fill="#FFFFFF" height="31.291" style="stroke:#181818;stroke-width:1.0;" width="10" x="1199" y="476.7734"/><rect fill="#FFFFFF" height="31.291" style="stroke:#181818;stroke-width:1.0;" width="10" x="1377" y="539.3555"/><rect fill="#FFFFFF" height="85.582" style="stroke:#181818;stroke-width:1.0;" width="10" x="1377" y="797.0137"/><rect fill="#FFFFFF" height="31.291" style="stroke:#181818;stroke-width:1.0;" width="10" x="1562.5" y="628.2285"/><rect fill="#FFFFFF" height="191.7852" style="stroke:#181818;stroke-width:1.0;" width="10" x="1562.5" y="690.8105"/><rect fill="#FFFFFF" height="116.873" style="stroke:#181818;stroke-width:1.0;" width="10" x="1737.5" y="765.7227"/><rect fill="none" height="502.9863" style="stroke:#000000;stroke-width:1.5;" width="1613" x="235.5" y="340.3184"/><rect fill="none" height="219.3672" style="stroke:#000000;stroke-width:1.5;" width="1054.5" x="784" y="585.6465"/><line style="stroke:#181818;stroke-width:0.5;stroke-dasharray:5.0,5.0;" x1="22" x2="22" y1="123.2422" y2="891.5957"/><line style="stroke:#181818;stroke-width:0.5;stroke-dasharray:5.0,5.0;" x1="324.5" x2="324.5" y1="123.2422" y2="891.5957"/><line style="stroke:#181818;stroke-width:0.5;stroke-dasharray:5.0,5.0;" x1="511" x2="511" y1="123.2422" y2="891.5957"/><line style="stroke:#181818;stroke-width:0.5;stroke-dasharray:5.0,5.0;" x1="625" x2="625" y1="123.2422" y2="891.5957"/><line style="stroke:#181818;stroke-width:0.5;stroke-dasharray:5.0,5.0;" x1="746" x2="746" y1="321.5078" y2="891.5957"/><line style="stroke:#181818;stroke-width:0.5;stroke-dasharray:5.0,5.0;" x1="888" x2="888" y1="123.2422" y2="891.5957"/><line style="stroke:#181818;stroke-width:0.5;stroke-dasharray:5.0,5.0;" x1="1203.5" x2="1203.5" y1="123.2422" y2="891.5957"/><line style="stroke:#181818;stroke-width:0.5;stroke-dasharray:5.0,5.0;" x1="1381.5" x2="1381.5" y1="123.2422" y2="891.5957"/><line style="stroke:#181818;stroke-width:0.5;stroke-dasharray:5.0,5.0;" x1="1567.5" x2="1567.5" y1="123.2422" y2="891.5957"/><line style="stroke:#181818;stroke-width:0.5;stroke-dasharray:5.0,5.0;" x1="1742.5" x2="1742.5" y1="730.6211" y2="891.5957"/><text fill="#000000" font-family="sans-serif" font-size="14" lengthAdjust="spacing" textLength="29" x="5" y="119.7285">User</text><ellipse cx="22.5" cy="53.1211" fill="#E2E2F0" rx="8" ry="8" style="stroke:#181818;stroke-width:0.5;"/><path d="M22.5,61.1211 L22.5,88.1211 M9.5,69.1211 L35.5,69.1211 M22.5,88.1211 L9.5,103.1211 M22.5,88.1211 L35.5,103.1211 " fill="none" style="stroke:#181818;stroke-width:0.5;"/><text fill="#000000" font-family="sans-serif" font-size="14" lengthAdjust="spacing" textLength="29" x="5" y="905.7031">User</text><ellipse cx="22.5" cy="917.7168" fill="#E2E2F0" rx="8" ry="8" style="stroke:#181818;stroke-width:0.5;"/><path d="M22.5,925.7168 L22.5,952.7168 M9.5,933.7168 L35.5,933.7168 M22.5,952.7168 L9.5,967.7168 M22.5,952.7168 L35.5,967.7168 " fill="none" style="stroke:#181818;stroke-width:0.5;"/><rect fill="#E2E2F0" height="32.6211" rx="2.5" ry="2.5" style="stroke:#181818;stroke-width:0.5;" width="158" x="245.5" y="89.6211"/><text fill="#000000" font-family="sans-serif" font-size="14" lengthAdjust="spacing" textLength="144" x="252.5" y="111.7285">:SubscriptionController</text><rect fill="#E2E2F0" height="32.6211" rx="2.5" ry="2.5" style="stroke:#181818;stroke-width:0.5;" width="158" x="245.5" y="890.5957"/><text fill="#000000" font-family="sans-serif" font-size="14" lengthAdjust="spacing" textLength="144" x="252.5" y="912.7031">:SubscriptionController</text><rect fill="#E2E2F0" height="32.6211" rx="2.5" ry="2.5" style="stroke:#181818;stroke-width:0.5;" width="59" x="482" y="89.6211"/><text fill="#000000" font-family="sans-serif" font-size="14" lengthAdjust="spacing" textLength="45" x="489" y="111.7285">:Helper</text><rect fill="#E2E2F0" height="32.6211" rx="2.5" ry="2.5" style="stroke:#181818;stroke-width:0.5;" width="59" x="482" y="890.5957"/><text fill="#000000" font-family="sans-serif" font-size="14" lengthAdjust="spacing" textLength="45" x="489" y="912.7031">:Helper</text><rect fill="#E2E2F0" height="32.6211" rx="2.5" ry="2.5" style="stroke:#181818;stroke-width:0.5;" width="148" x="551" y="89.6211"/><text fill="#000000" font-family="sans-serif" font-size="14" lengthAdjust="spacing" textLength="134" x="558" y="111.7285">:repo:UserRepository</text><rect fill="#E2E2F0" height="32.6211" rx="2.5" ry="2.5" style="stroke:#181818;stroke-width:0.5;" width="148" x="551" y="890.5957"/><text fill="#000000" font-family="sans-serif" font-size="14" lengthAdjust="spacing" textLength="134" x="558" y="912.7031">:repo:UserRepository</text><rect fill="#E2E2F0" height="32.6211" rx="2.5" ry="2.5" style="stroke:#181818;stroke-width:0.5;" width="75" x="709" y="890.5957"/><text fill="#000000" font-family="sans-serif" font-size="14" lengthAdjust="spacing" textLength="61" x="716" y="912.7031">user:User</text><rect fill="#E2E2F0" height="32.6211" rx="2.5" ry="2.5" style="stroke:#181818;stroke-width:0.5;" width="188" x="794" y="89.6211"/><text fill="#000000" font-family="sans-serif" font-size="14" lengthAdjust="spacing" textLength="174" x="801" y="111.7285">service:SubscriptionService</text><rect fill="#E2E2F0" height="32.6211" rx="2.5" ry="2.5" style="stroke:#181818;stroke-width:0.5;" width="188" x="794" y="890.5957"/><text fill="#000000" font-family="sans-serif" font-size="14" lengthAdjust="spacing" textLength="174" x="801" y="912.7031">service:SubscriptionService</text><rect fill="#E2E2F0" height="32.6211" rx="2.5" ry="2.5" style="stroke:#181818;stroke-width:0.5;" width="143" x="1132.5" y="89.6211"/><text fill="#000000" font-family="sans-serif" font-size="14" lengthAdjust="spacing" textLength="129" x="1139.5" y="111.7285">repo:PlanRepository</text><rect fill="#E2E2F0" height="32.6211" rx="2.5" ry="2.5" style="stroke:#181818;stroke-width:0.5;" width="143" x="1132.5" y="890.5957"/><text fill="#000000" font-family="sans-serif" font-size="14" lengthAdjust="spacing" textLength="129" x="1139.5" y="912.7031">repo:PlanRepository</text><rect fill="#E2E2F0" height="32.6211" rx="2.5" ry="2.5" style="stroke:#181818;stroke-width:0.5;" width="193" x="1285.5" y="89.6211"/><text fill="#000000" font-family="sans-serif" font-size="14" lengthAdjust="spacing" textLength="179" x="1292.5" y="111.7285">repo:SubscriptionRepository</text><rect fill="#E2E2F0" height="32.6211" rx="2.5" ry="2.5" style="stroke:#181818;stroke-width:0.5;" width="193" x="1285.5" y="890.5957"/><text fill="#000000" font-family="sans-serif" font-size="14" lengthAdjust="spacing" textLength="179" x="1292.5" y="912.7031">repo:SubscriptionRepository</text><rect fill="#E2E2F0" height="32.6211" rx="2.5" ry="2.5" style="stroke:#181818;stroke-width:0.5;" width="158" x="1488.5" y="89.6211"/><text fill="#000000" font-family="sans-serif" font-size="14" lengthAdjust="spacing" textLength="144" x="1495.5" y="111.7285">repo:DeviceRepository</text><rect fill="#E2E2F0" height="32.6211" rx="2.5" ry="2.5" style="stroke:#181818;stroke-width:0.5;" width="158" x="1488.5" y="890.5957"/><text fill="#000000" font-family="sans-serif" font-size="14" lengthAdjust="spacing" textLength="144" x="1495.5" y="912.7031">repo:DeviceRepository</text><rect fill="#E2E2F0" height="32.6211" rx="2.5" ry="2.5" style="stroke:#181818;stroke-width:0.5;" width="172" x="1656.5" y="890.5957"/><text fill="#000000" font-family="sans-serif" font-size="14" lengthAdjust="spacing" textLength="158" x="1663.5" y="912.7031">subscription:Subscription</text><rect fill="#FFFFFF" height="749.3535" style="stroke:#181818;stroke-width:1.0;" width="10" x="17.5" y="133.2422"/><rect fill="#FFFFFF" height="717.0625" style="stroke:#181818;stroke-width:1.0;" width="10" x="319.5" y="156.5332"/><rect fill="#FFFFFF" height="31.291" style="stroke:#181818;stroke-width:1.0;" width="10" x="506.5" y="187.8242"/><rect fill="#FFFFFF" height="31.291" style="stroke:#181818;stroke-width:1.0;" width="10" x="620" y="250.4063"/><rect fill="#FFFFFF" height="452.4043" style="stroke:#181818;stroke-width:1.0;" width="10" x="883" y="382.9004"/><rect fill="#FFFFFF" height="31.291" style="stroke:#181818;stroke-width:1.0;" width="10" x="1199" y="414.1914"/><rect fill="#FFFFFF" height="31.291" style="stroke:#181818;stroke-width:1.0;" width="10" x="1199" y="476.7734"/><rect fill="#FFFFFF" height="31.291" style="stroke:#181818;stroke-width:1.0;" width="10" x="1377" y="539.3555"/><rect fill="#FFFFFF" height="85.582" style="stroke:#181818;stroke-width:1.0;" width="10" x="1377" y="797.0137"/><rect fill="#FFFFFF" height="31.291" style="stroke:#181818;stroke-width:1.0;" width="10" x="1562.5" y="628.2285"/><rect fill="#FFFFFF" height="191.7852" style="stroke:#181818;stroke-width:1.0;" width="10" x="1562.5" y="690.8105"/><rect fill="#FFFFFF" height="116.873" style="stroke:#181818;stroke-width:1.0;" width="10" x="1737.5" y="765.7227"/><polygon fill="#181818" points="307.5,152.5332,317.5,156.5332,307.5,160.5332,311.5,156.5332" style="stroke:#181818;stroke-width:1.0;"/><line style="stroke:#181818;stroke-width:1.0;" x1="27.5" x2="313.5" y1="156.5332" y2="156.5332"/><text fill="#000000" font-family="sans-serif" font-size="13" font-weight="bold" lengthAdjust="spacing" textLength="7" x="34.5" y="151.2705">1</text><text fill="#000000" font-family="sans-serif" font-size="13" lengthAdjust="spacing" textLength="262" x="45.5" y="151.2705">PATCH/api/subscriptions/migrate/{planName}</text><polygon fill="#181818" points="494.5,183.8242,504.5,187.8242,494.5,191.8242,498.5,187.8242" style="stroke:#181818;stroke-width:1.0;"/><line style="stroke:#181818;stroke-width:1.0;" x1="329.5" x2="500.5" y1="187.8242" y2="187.8242"/><text fill="#000000" font-family="sans-serif" font-size="13" font-weight="bold" lengthAdjust="spacing" textLength="7" x="336.5" y="182.5615">2</text><text fill="#000000" font-family="sans-serif" font-size="13" lengthAdjust="spacing" textLength="147" x="347.5" y="182.5615">getUserByToken(request)</text><polygon fill="#181818" points="340.5,215.1152,330.5,219.1152,340.5,223.1152,336.5,219.1152" style="stroke:#181818;stroke-width:1.0;"/><line style="stroke:#181818;stroke-width:1.0;stroke-dasharray:2.0,2.0;" x1="334.5" x2="510.5" y1="219.1152" y2="219.1152"/><text fill="#000000" font-family="sans-serif" font-size="13" font-weight="bold" lengthAdjust="spacing" textLength="7" x="346.5" y="213.8525">3</text><text fill="#000000" font-family="sans-serif" font-size="13" lengthAdjust="spacing" textLength="35" x="357.5" y="213.8525">userId</text><polygon fill="#181818" points="608,246.4063,618,250.4063,608,254.4063,612,250.4063" style="stroke:#181818;stroke-width:1.0;"/><line style="stroke:#181818;stroke-width:1.0;" x1="329.5" x2="614" y1="250.4063" y2="250.4063"/><text fill="#000000" font-family="sans-serif" font-size="13" font-weight="bold" lengthAdjust="spacing" textLength="7" x="336.5" y="245.1436">4</text><text fill="#000000" font-family="sans-serif" font-size="13" lengthAdjust="spacing" textLength="89" x="347.5" y="245.1436">findById(userId)</text><polygon fill="#181818" points="340.5,277.6973,330.5,281.6973,340.5,285.6973,336.5,281.6973" style="stroke:#181818;stroke-width:1.0;"/><line style="stroke:#181818;stroke-width:1.0;stroke-dasharray:2.0,2.0;" x1="334.5" x2="624" y1="281.6973" y2="281.6973"/><text fill="#000000" font-family="sans-serif" font-size="13" font-weight="bold" lengthAdjust="spacing" textLength="7" x="346.5" y="276.4346">5</text><text fill="#000000" font-family="sans-serif" font-size="13" lengthAdjust="spacing" textLength="25" x="357.5" y="276.4346">user</text><polygon fill="#181818" points="697,308.9883,707,312.9883,697,316.9883,701,312.9883" style="stroke:#181818;stroke-width:1.0;"/><line style="stroke:#181818;stroke-width:1.0;" x1="329.5" x2="703" y1="312.9883" y2="312.9883"/><text fill="#000000" font-family="sans-serif" font-size="13" font-weight="bold" lengthAdjust="spacing" textLength="7" x="336.5" y="307.7256">6</text><text fill="#000000" font-family="sans-serif" font-size="13" lengthAdjust="spacing" textLength="88" x="347.5" y="307.7256">getAuthorities()</text><rect fill="#E2E2F0" height="32.6211" rx="2.5" ry="2.5" style="stroke:#181818;stroke-width:0.5;" width="75" x="709" y="289.6973"/><text fill="#000000" font-family="sans-serif" font-size="14" lengthAdjust="spacing" textLength="61" x="716" y="311.8047">user:User</text><path d="M235.5,340.3184 L296.5,340.3184 L296.5,349.6094 L286.5,359.6094 L235.5,359.6094 L235.5,340.3184 " fill="#EEEEEE" style="stroke:#000000;stroke-width:1.5;"/><rect fill="none" height="502.9863" style="stroke:#000000;stroke-width:1.5;" width="1613" x="235.5" y="340.3184"/><text fill="#000000" font-family="sans-serif" font-size="13" font-weight="bold" lengthAdjust="spacing" textLength="16" x="250.5" y="355.3467">alt</text><text fill="#000000" font-family="sans-serif" font-size="11" font-weight="bold" lengthAdjust="spacing" textLength="218" x="311.5" y="354.1885">[if(user.role = "MARKETING_DIRECTOR")]</text><polygon fill="#181818" points="871,378.9004,881,382.9004,871,386.9004,875,382.9004" style="stroke:#181818;stroke-width:1.0;"/><line style="stroke:#181818;stroke-width:1.0;" x1="329.5" x2="877" y1="382.9004" y2="382.9004"/><text fill="#000000" font-family="sans-serif" font-size="13" font-weight="bold" lengthAdjust="spacing" textLength="7" x="336.5" y="377.6377">7</text><text fill="#000000" font-family="sans-serif" font-size="13" lengthAdjust="spacing" textLength="167" x="347.5" y="377.6377">migrate(planName, resource)</text><polygon fill="#181818" points="1187,410.1914,1197,414.1914,1187,418.1914,1191,414.1914" style="stroke:#181818;stroke-width:1.0;"/><line style="stroke:#181818;stroke-width:1.0;" x1="893" x2="1193" y1="414.1914" y2="414.1914"/><text fill="#000000" font-family="sans-serif" font-size="13" font-weight="bold" lengthAdjust="spacing" textLength="7" x="900" y="408.9287">8</text><text fill="#000000" font-family="sans-serif" font-size="13" lengthAdjust="spacing" textLength="112" x="911" y="408.9287">findById(planName)</text><polygon fill="#181818" points="904,441.4824,894,445.4824,904,449.4824,900,445.4824" style="stroke:#181818;stroke-width:1.0;"/><line style="stroke:#181818;stroke-width:1.0;stroke-dasharray:2.0,2.0;" x1="898" x2="1203" y1="445.4824" y2="445.4824"/><text fill="#000000" font-family="sans-serif" font-size="13" font-weight="bold" lengthAdjust="spacing" textLength="7" x="910" y="440.2197">9</text><text fill="#000000" font-family="sans-serif" font-size="13" lengthAdjust="spacing" textLength="24" x="921" y="440.2197">plan</text><polygon fill="#181818" points="1187,472.7734,1197,476.7734,1187,480.7734,1191,476.7734" style="stroke:#181818;stroke-width:1.0;"/><line style="stroke:#181818;stroke-width:1.0;" x1="893" x2="1193" y1="476.7734" y2="476.7734"/><text fill="#000000" font-family="sans-serif" font-size="13" font-weight="bold" lengthAdjust="spacing" textLength="14" x="900" y="471.5107">10</text><text fill="#000000" font-family="sans-serif" font-size="13" lengthAdjust="spacing" textLength="269" x="918" y="471.5107">findByPlanName(resource.getNewPlanName())</text><polygon fill="#181818" points="904,504.0645,894,508.0645,904,512.0645,900,508.0645" style="stroke:#181818;stroke-width:1.0;"/><line style="stroke:#181818;stroke-width:1.0;stroke-dasharray:2.0,2.0;" x1="898" x2="1203" y1="508.0645" y2="508.0645"/><text fill="#000000" font-family="sans-serif" font-size="13" font-weight="bold" lengthAdjust="spacing" textLength="14" x="910" y="502.8018">11</text><text fill="#000000" font-family="sans-serif" font-size="13" lengthAdjust="spacing" textLength="65" x="928" y="502.8018">maybePlan</text><polygon fill="#181818" points="1365,535.3555,1375,539.3555,1365,543.3555,1369,539.3555" style="stroke:#181818;stroke-width:1.0;"/><line style="stroke:#181818;stroke-width:1.0;" x1="893" x2="1371" y1="539.3555" y2="539.3555"/><text fill="#000000" font-family="sans-serif" font-size="13" font-weight="bold" lengthAdjust="spacing" textLength="14" x="900" y="534.0928">12</text><text fill="#000000" font-family="sans-serif" font-size="13" lengthAdjust="spacing" textLength="162" x="918" y="534.0928">findByPlanName(planName)</text><polygon fill="#181818" points="904,566.6465,894,570.6465,904,574.6465,900,570.6465" style="stroke:#181818;stroke-width:1.0;"/><line style="stroke:#181818;stroke-width:1.0;stroke-dasharray:2.0,2.0;" x1="898" x2="1381" y1="570.6465" y2="570.6465"/><text fill="#000000" font-family="sans-serif" font-size="13" font-weight="bold" lengthAdjust="spacing" textLength="14" x="910" y="565.3838">13</text><text fill="#000000" font-family="sans-serif" font-size="13" lengthAdjust="spacing" textLength="77" x="928" y="565.3838">subscriptions</text><path d="M784,585.6465 L845,585.6465 L845,594.9375 L835,604.9375 L784,604.9375 L784,585.6465 " fill="#EEEEEE" style="stroke:#000000;stroke-width:1.5;"/><rect fill="none" height="219.3672" style="stroke:#000000;stroke-width:1.5;" width="1054.5" x="784" y="585.6465"/><text fill="#000000" font-family="sans-serif" font-size="13" font-weight="bold" lengthAdjust="spacing" textLength="16" x="799" y="600.6748">alt</text><text fill="#000000" font-family="sans-serif" font-size="11" font-weight="bold" lengthAdjust="spacing" textLength="261" x="860" y="599.5166">[for(Subscription subscription : subscriptions)]</text><polygon fill="#181818" points="1550.5,624.2285,1560.5,628.2285,1550.5,632.2285,1554.5,628.2285" style="stroke:#181818;stroke-width:1.0;"/><line style="stroke:#181818;stroke-width:1.0;" x1="893" x2="1556.5" y1="628.2285" y2="628.2285"/><text fill="#000000" font-family="sans-serif" font-size="13" font-weight="bold" lengthAdjust="spacing" textLength="14" x="900" y="622.9658">14</text><text fill="#000000" font-family="sans-serif" font-size="13" lengthAdjust="spacing" textLength="218" x="918" y="622.9658">findByUserId(subscription.getUserId())</text><polygon fill="#181818" points="904,655.5195,894,659.5195,904,663.5195,900,659.5195" style="stroke:#181818;stroke-width:1.0;"/><line style="stroke:#181818;stroke-width:1.0;stroke-dasharray:2.0,2.0;" x1="898" x2="1566.5" y1="659.5195" y2="659.5195"/><text fill="#000000" font-family="sans-serif" font-size="13" font-weight="bold" lengthAdjust="spacing" textLength="14" x="910" y="654.2568">15</text><text fill="#000000" font-family="sans-serif" font-size="13" lengthAdjust="spacing" textLength="43" x="928" y="654.2568">devices</text><polygon fill="#181818" points="1550.5,686.8105,1560.5,690.8105,1550.5,694.8105,1554.5,690.8105" style="stroke:#181818;stroke-width:1.0;"/><line style="stroke:#181818;stroke-width:1.0;" x1="893" x2="1556.5" y1="690.8105" y2="690.8105"/><text fill="#000000" font-family="sans-serif" font-size="13" font-weight="bold" lengthAdjust="spacing" textLength="14" x="900" y="685.5479">16</text><text fill="#000000" font-family="sans-serif" font-size="13" lengthAdjust="spacing" textLength="101" x="918" y="685.5479">deleteAll(devices)</text><polygon fill="#181818" points="1644.5,718.1016,1654.5,722.1016,1644.5,726.1016,1648.5,722.1016" style="stroke:#181818;stroke-width:1.0;"/><line style="stroke:#181818;stroke-width:1.0;" x1="893" x2="1650.5" y1="722.1016" y2="722.1016"/><text fill="#000000" font-family="sans-serif" font-size="13" font-weight="bold" lengthAdjust="spacing" textLength="14" x="900" y="716.8389">17</text><text fill="#000000" font-family="sans-serif" font-size="13" lengthAdjust="spacing" textLength="325" x="918" y="716.8389">subscription.setPlanName(resource.getNewPlanName())</text><rect fill="#E2E2F0" height="32.6211" rx="2.5" ry="2.5" style="stroke:#181818;stroke-width:0.5;" width="172" x="1656.5" y="698.8105"/><text fill="#000000" font-family="sans-serif" font-size="14" lengthAdjust="spacing" textLength="158" x="1663.5" y="720.918">subscription:Subscription</text><polygon fill="#181818" points="1725.5,761.7227,1735.5,765.7227,1725.5,769.7227,1729.5,765.7227" style="stroke:#181818;stroke-width:1.0;"/><line style="stroke:#181818;stroke-width:1.0;" x1="893" x2="1731.5" y1="765.7227" y2="765.7227"/><text fill="#000000" font-family="sans-serif" font-size="13" font-weight="bold" lengthAdjust="spacing" textLength="14" x="900" y="760.46">18</text><text fill="#000000" font-family="sans-serif" font-size="13" lengthAdjust="spacing" textLength="194" x="918" y="760.46">subscription.setCurrentDevices(0)</text><polygon fill="#181818" points="1365,793.0137,1375,797.0137,1365,801.0137,1369,797.0137" style="stroke:#181818;stroke-width:1.0;"/><line style="stroke:#181818;stroke-width:1.0;" x1="893" x2="1371" y1="797.0137" y2="797.0137"/><text fill="#000000" font-family="sans-serif" font-size="13" font-weight="bold" lengthAdjust="spacing" textLength="14" x="900" y="791.751">19</text><text fill="#000000" font-family="sans-serif" font-size="13" lengthAdjust="spacing" textLength="104" x="918" y="791.751">save(subscription)</text><polygon fill="#181818" points="340.5,831.3047,330.5,835.3047,340.5,839.3047,336.5,835.3047" style="stroke:#181818;stroke-width:1.0;"/><line style="stroke:#181818;stroke-width:1.0;stroke-dasharray:2.0,2.0;" x1="334.5" x2="887" y1="835.3047" y2="835.3047"/><text fill="#000000" font-family="sans-serif" font-size="13" font-weight="bold" lengthAdjust="spacing" textLength="14" x="346.5" y="830.042">20</text><text fill="#000000" font-family="sans-serif" font-size="13" lengthAdjust="spacing" textLength="77" x="364.5" y="830.042">subscriptions</text><polygon fill="#181818" points="38.5,869.5957,28.5,873.5957,38.5,877.5957,34.5,873.5957" style="stroke:#181818;stroke-width:1.0;"/><line style="stroke:#181818;stroke-width:1.0;stroke-dasharray:2.0,2.0;" x1="32.5" x2="323.5" y1="873.5957" y2="873.5957"/><text fill="#000000" font-family="sans-serif" font-size="13" font-weight="bold" lengthAdjust="spacing" textLength="14" x="44.5" y="868.333">21</text><text fill="#000000" font-family="sans-serif" font-size="13" lengthAdjust="spacing" textLength="42" x="62.5" y="868.333">200 Ok</text><!--SRC=[bLFTRzem47_FNt7YfKar2DfZf4sYKBLeAaL0doUJ7CLgOcUsmuIc_U_pHnoI55RA0xBlVXztkVFDNgbI9d5SveIfgiX7AIzYYRygP2aECqfU1Ic2G56L8pnHVLC8ijhALD0j2WaxmGlW3C4eWE9065Tx5B2kHM3cHKYbE4aLFHWDpkoTLOMMqRbKSG635ubY04I2EGGb4OgcjDIbmI1PEzTIKSwcd2d1yxn6JvN8U-X7pCiwwuwzlC2I9yPbfG-IQlUZ1LTrg0itqQGfhf8zDPquq1Gx9QvTp1BgSplT5R3LBFKNx5NZGsVGRR4UIwSka6PewkZ1Jy5ULos7ZfqtEJKJD7ErWmlCFmo_sy4ai9nifeynAMdSbfHnuVOf_cDsPq4A_1iOWY6wcINmYifetHqt_0rPACnIIHK5BW_3niDCQ9urV3_617QKPNV7UHOwH1JuL8_SeehRM-iygTIU2weeoZ0AIAw0xgpCIEyUmZSOF4rMF-utyyN3pzbyTJ_TFAy6KG3wvyNEJ3w1kk_Gj_q514fUYHGT-Gp9QFbbQFNa5HpF0sndPvqD_ZCMore_z0MEz6TPuEyc7bthN93Z5fSVsDUB-ywzssQDkkpLsJ9BCRFRSH5s3DimwB6SqtzAFJqQN-sBtQ-mBJEgrrU7evFYYNgvXSnYv6Ugo317XPCy3sloXpsqxsRbEwLBLDTE_qgBzmRJIWXaodKXm_4rSgvPIGxO-TIEYYoxl5_DS-_kX-6uvwe1Pbe9V1sFuVaj-0S0]--></g></svg>