<?xml version="1.0" encoding="us-ascii" standalone="no"?><svg xmlns="http://www.w3.org/2000/svg" xmlns:xlink="http://www.w3.org/1999/xlink" contentStyleType="text/css" height="996px" preserveAspectRatio="none" style="width:1705px;height:996px;background:#FFFFFF;" version="1.1" viewBox="0 0 1705 996" width="1705px" zoomAndPan="magnify"><defs/><g><text fill="#000000" font-family="sans-serif" font-size="14" font-weight="bold" lengthAdjust="spacing" textLength="226" x="741" y="28.1318">Create Device Sequence Diagram</text><rect fill="#FFFFFF" height="779.0693" style="stroke:#181818;stroke-width:1.0;" width="10" x="18" y="128.1973"/><rect fill="#FFFFFF" height="749.1206" style="stroke:#181818;stroke-width:1.0;" width="10" x="224" y="149.146"/><rect fill="#FFFFFF" height="28.9487" style="stroke:#181818;stroke-width:1.0;" width="10" x="401" y="178.0947"/><rect fill="#FFFFFF" height="28.9487" style="stroke:#181818;stroke-width:1.0;" width="10" x="515.5" y="235.9922"/><rect fill="#FFFFFF" height="472.4321" style="stroke:#181818;stroke-width:1.0;" width="10" x="784" y="382.8857"/><rect fill="#FFFFFF" height="28.9487" style="stroke:#181818;stroke-width:1.0;" width="10" x="1029" y="411.8345"/><rect fill="#FFFFFF" height="28.9487" style="stroke:#181818;stroke-width:1.0;" width="10" x="1029" y="739.5229"/><rect fill="#FFFFFF" height="28.9487" style="stroke:#181818;stroke-width:1.0;" width="10" x="1374" y="510.8306"/><rect fill="#FFFFFF" height="14" style="stroke:#181818;stroke-width:1.0;" width="10" x="1374" y="568.728"/><rect fill="#FFFFFF" height="14" style="stroke:#181818;stroke-width:1.0;" width="10" x="1374" y="611.6768"/><rect fill="#FFFFFF" height="55.9487" style="stroke:#181818;stroke-width:1.0;" width="10" x="1374" y="654.6255"/><rect fill="#FFFFFF" height="19" style="stroke:#181818;stroke-width:1.0;" width="10" x="1379" y="691.5742"/><rect fill="#FFFFFF" height="28.9487" style="stroke:#181818;stroke-width:1.0;" width="10" x="1572" y="797.4204"/><rect fill="none" height="549.2783" style="stroke:#000000;stroke-width:1.5;" width="1551.5" x="147.5" y="321.0396"/><rect fill="none" height="518.3296" style="stroke:#000000;stroke-width:1.5;" width="1531.5" x="157.5" y="344.9883"/><line style="stroke:#181818;stroke-width:0.5;stroke-dasharray:5.0,5.0;" x1="23" x2="23" y1="118.1973" y2="916.2666"/><line style="stroke:#181818;stroke-width:0.5;stroke-dasharray:5.0,5.0;" x1="228.5" x2="228.5" y1="118.1973" y2="916.2666"/><line style="stroke:#181818;stroke-width:0.5;stroke-dasharray:5.0,5.0;" x1="406" x2="406" y1="118.1973" y2="916.2666"/><line style="stroke:#181818;stroke-width:0.5;stroke-dasharray:5.0,5.0;" x1="520" x2="520" y1="118.1973" y2="916.2666"/><line style="stroke:#181818;stroke-width:0.5;stroke-dasharray:5.0,5.0;" x1="643" x2="643" y1="303.4902" y2="916.2666"/><line style="stroke:#181818;stroke-width:0.5;stroke-dasharray:5.0,5.0;" x1="789" x2="789" y1="118.1973" y2="916.2666"/><line style="stroke:#181818;stroke-width:0.5;stroke-dasharray:5.0,5.0;" x1="1034" x2="1034" y1="118.1973" y2="916.2666"/><line style="stroke:#181818;stroke-width:0.5;stroke-dasharray:5.0,5.0;" x1="1232" x2="1232" y1="479.3325" y2="916.2666"/><line style="stroke:#181818;stroke-width:0.5;stroke-dasharray:5.0,5.0;" x1="1379" x2="1379" y1="118.1973" y2="916.2666"/><line style="stroke:#181818;stroke-width:0.5;stroke-dasharray:5.0,5.0;" x1="1577" x2="1577" y1="118.1973" y2="916.2666"/><text fill="#000000" font-family="sans-serif" font-size="14" lengthAdjust="spacing" textLength="30" x="5" y="115.2305">User</text><ellipse cx="23" cy="50.5986" fill="#E2E2F0" rx="8" ry="8" style="stroke:#181818;stroke-width:0.5;"/><path d="M23,58.5986 L23,85.5986 M10,66.5986 L36,66.5986 M23,85.5986 L10,100.5986 M23,85.5986 L36,100.5986 " fill="none" style="stroke:#181818;stroke-width:0.5;"/><text fill="#000000" font-family="sans-serif" font-size="14" lengthAdjust="spacing" textLength="30" x="5" y="928.3984">User</text><ellipse cx="23" cy="939.8652" fill="#E2E2F0" rx="8" ry="8" style="stroke:#181818;stroke-width:0.5;"/><path d="M23,947.8652 L23,974.8652 M10,955.8652 L36,955.8652 M23,974.8652 L10,989.8652 M23,974.8652 L36,989.8652 " fill="none" style="stroke:#181818;stroke-width:0.5;"/><rect fill="#E2E2F0" height="30.0986" rx="2.5" ry="2.5" style="stroke:#181818;stroke-width:0.5;" width="123" x="167.5" y="87.0986"/><text fill="#000000" font-family="sans-serif" font-size="14" lengthAdjust="spacing" textLength="109" x="174.5" y="107.2305">:DeviceController</text><rect fill="#E2E2F0" height="30.0986" rx="2.5" ry="2.5" style="stroke:#181818;stroke-width:0.5;" width="123" x="167.5" y="915.2666"/><text fill="#000000" font-family="sans-serif" font-size="14" lengthAdjust="spacing" textLength="109" x="174.5" y="935.3984">:DeviceController</text><rect fill="#E2E2F0" height="30.0986" rx="2.5" ry="2.5" style="stroke:#181818;stroke-width:0.5;" width="60" x="376" y="87.0986"/><text fill="#000000" font-family="sans-serif" font-size="14" lengthAdjust="spacing" textLength="46" x="383" y="107.2305">:Helper</text><rect fill="#E2E2F0" height="30.0986" rx="2.5" ry="2.5" style="stroke:#181818;stroke-width:0.5;" width="60" x="376" y="915.2666"/><text fill="#000000" font-family="sans-serif" font-size="14" lengthAdjust="spacing" textLength="46" x="383" y="935.3984">:Helper</text><rect fill="#E2E2F0" height="30.0986" rx="2.5" ry="2.5" style="stroke:#181818;stroke-width:0.5;" width="149" x="446" y="87.0986"/><text fill="#000000" font-family="sans-serif" font-size="14" lengthAdjust="spacing" textLength="135" x="453" y="107.2305">:repo:UserRepository</text><rect fill="#E2E2F0" height="30.0986" rx="2.5" ry="2.5" style="stroke:#181818;stroke-width:0.5;" width="149" x="446" y="915.2666"/><text fill="#000000" font-family="sans-serif" font-size="14" lengthAdjust="spacing" textLength="135" x="453" y="935.3984">:repo:UserRepository</text><rect fill="#E2E2F0" height="30.0986" rx="2.5" ry="2.5" style="stroke:#181818;stroke-width:0.5;" width="76" x="605" y="915.2666"/><text fill="#000000" font-family="sans-serif" font-size="14" lengthAdjust="spacing" textLength="62" x="612" y="935.3984">user:User</text><rect fill="#E2E2F0" height="30.0986" rx="2.5" ry="2.5" style="stroke:#181818;stroke-width:0.5;" width="196" x="691" y="87.0986"/><text fill="#000000" font-family="sans-serif" font-size="14" lengthAdjust="spacing" textLength="182" x="698" y="107.2305">deviceService:DeviceService</text><rect fill="#E2E2F0" height="30.0986" rx="2.5" ry="2.5" style="stroke:#181818;stroke-width:0.5;" width="196" x="691" y="915.2666"/><text fill="#000000" font-family="sans-serif" font-size="14" lengthAdjust="spacing" textLength="182" x="698" y="935.3984">deviceService:DeviceService</text><rect fill="#E2E2F0" height="30.0986" rx="2.5" ry="2.5" style="stroke:#181818;stroke-width:0.5;" width="274" x="897" y="87.0986"/><text fill="#000000" font-family="sans-serif" font-size="14" lengthAdjust="spacing" textLength="260" x="904" y="107.2305">subscriptionRepo:SubscriptionRepository</text><rect fill="#E2E2F0" height="30.0986" rx="2.5" ry="2.5" style="stroke:#181818;stroke-width:0.5;" width="274" x="897" y="915.2666"/><text fill="#000000" font-family="sans-serif" font-size="14" lengthAdjust="spacing" textLength="260" x="904" y="935.3984">subscriptionRepo:SubscriptionRepository</text><rect fill="#E2E2F0" height="30.0986" rx="2.5" ry="2.5" style="stroke:#181818;stroke-width:0.5;" width="102" x="1181" y="915.2666"/><text fill="#000000" font-family="sans-serif" font-size="14" lengthAdjust="spacing" textLength="88" x="1188" y="935.3984">device:Device</text><rect fill="#E2E2F0" height="30.0986" rx="2.5" ry="2.5" style="stroke:#181818;stroke-width:0.5;" width="172" x="1293" y="87.0986"/><text fill="#000000" font-family="sans-serif" font-size="14" lengthAdjust="spacing" textLength="158" x="1300" y="107.2305">subscription:Subscription</text><rect fill="#E2E2F0" height="30.0986" rx="2.5" ry="2.5" style="stroke:#181818;stroke-width:0.5;" width="172" x="1293" y="915.2666"/><text fill="#000000" font-family="sans-serif" font-size="14" lengthAdjust="spacing" textLength="158" x="1300" y="935.3984">subscription:Subscription</text><rect fill="#E2E2F0" height="30.0986" rx="2.5" ry="2.5" style="stroke:#181818;stroke-width:0.5;" width="204" x="1475" y="87.0986"/><text fill="#000000" font-family="sans-serif" font-size="14" lengthAdjust="spacing" textLength="190" x="1482" y="107.2305">deviceRepo:DeviceRepository</text><rect fill="#E2E2F0" height="30.0986" rx="2.5" ry="2.5" style="stroke:#181818;stroke-width:0.5;" width="204" x="1475" y="915.2666"/><text fill="#000000" font-family="sans-serif" font-size="14" lengthAdjust="spacing" textLength="190" x="1482" y="935.3984">deviceRepo:DeviceRepository</text><rect fill="#FFFFFF" height="779.0693" style="stroke:#181818;stroke-width:1.0;" width="10" x="18" y="128.1973"/><rect fill="#FFFFFF" height="749.1206" style="stroke:#181818;stroke-width:1.0;" width="10" x="224" y="149.146"/><rect fill="#FFFFFF" height="28.9487" style="stroke:#181818;stroke-width:1.0;" width="10" x="401" y="178.0947"/><rect fill="#FFFFFF" height="28.9487" style="stroke:#181818;stroke-width:1.0;" width="10" x="515.5" y="235.9922"/><rect fill="#FFFFFF" height="472.4321" style="stroke:#181818;stroke-width:1.0;" width="10" x="784" y="382.8857"/><rect fill="#FFFFFF" height="28.9487" style="stroke:#181818;stroke-width:1.0;" width="10" x="1029" y="411.8345"/><rect fill="#FFFFFF" height="28.9487" style="stroke:#181818;stroke-width:1.0;" width="10" x="1029" y="739.5229"/><rect fill="#FFFFFF" height="28.9487" style="stroke:#181818;stroke-width:1.0;" width="10" x="1374" y="510.8306"/><rect fill="#FFFFFF" height="14" style="stroke:#181818;stroke-width:1.0;" width="10" x="1374" y="568.728"/><rect fill="#FFFFFF" height="14" style="stroke:#181818;stroke-width:1.0;" width="10" x="1374" y="611.6768"/><rect fill="#FFFFFF" height="55.9487" style="stroke:#181818;stroke-width:1.0;" width="10" x="1374" y="654.6255"/><rect fill="#FFFFFF" height="19" style="stroke:#181818;stroke-width:1.0;" width="10" x="1379" y="691.5742"/><rect fill="#FFFFFF" height="28.9487" style="stroke:#181818;stroke-width:1.0;" width="10" x="1572" y="797.4204"/><polygon fill="#181818" points="212,145.146,222,149.146,212,153.146,216,149.146" style="stroke:#181818;stroke-width:1.0;"/><line style="stroke:#181818;stroke-width:1.0;" x1="28" x2="218" y1="149.146" y2="149.146"/><text fill="#000000" font-family="sans-serif" font-size="13" lengthAdjust="spacing" textLength="177" x="35" y="144.3911">PUT/api/devices/:macAddress</text><polygon fill="#181818" points="389,174.0947,399,178.0947,389,182.0947,393,178.0947" style="stroke:#181818;stroke-width:1.0;"/><line style="stroke:#181818;stroke-width:1.0;" x1="234" x2="395" y1="178.0947" y2="178.0947"/><text fill="#000000" font-family="sans-serif" font-size="13" lengthAdjust="spacing" textLength="148" x="241" y="173.3398">getUserByToken(request)</text><polygon fill="#181818" points="245,203.0435,235,207.0435,245,211.0435,241,207.0435" style="stroke:#181818;stroke-width:1.0;"/><line style="stroke:#181818;stroke-width:1.0;stroke-dasharray:2.0,2.0;" x1="239" x2="405" y1="207.0435" y2="207.0435"/><text fill="#000000" font-family="sans-serif" font-size="13" lengthAdjust="spacing" textLength="36" x="251" y="202.2886">userId</text><polygon fill="#181818" points="503.5,231.9922,513.5,235.9922,503.5,239.9922,507.5,235.9922" style="stroke:#181818;stroke-width:1.0;"/><line style="stroke:#181818;stroke-width:1.0;" x1="234" x2="509.5" y1="235.9922" y2="235.9922"/><text fill="#000000" font-family="sans-serif" font-size="13" lengthAdjust="spacing" textLength="92" x="241" y="231.2373">findById(userId)</text><polygon fill="#181818" points="245,260.9409,235,264.9409,245,268.9409,241,264.9409" style="stroke:#181818;stroke-width:1.0;"/><line style="stroke:#181818;stroke-width:1.0;stroke-dasharray:2.0,2.0;" x1="239" x2="519.5" y1="264.9409" y2="264.9409"/><text fill="#000000" font-family="sans-serif" font-size="13" lengthAdjust="spacing" textLength="25" x="251" y="260.186">user</text><polygon fill="#181818" points="593,289.8896,603,293.8896,593,297.8896,597,293.8896" style="stroke:#181818;stroke-width:1.0;"/><line style="stroke:#181818;stroke-width:1.0;" x1="234" x2="599" y1="293.8896" y2="293.8896"/><text fill="#000000" font-family="sans-serif" font-size="13" lengthAdjust="spacing" textLength="88" x="241" y="289.1348">getAuthorities()</text><rect fill="#E2E2F0" height="30.0986" rx="2.5" ry="2.5" style="stroke:#181818;stroke-width:0.5;" width="76" x="605" y="272.9409"/><text fill="#000000" font-family="sans-serif" font-size="14" lengthAdjust="spacing" textLength="62" x="612" y="293.0728">user:User</text><path d="M147.5,321.0396 L407.5,321.0396 L407.5,327.9883 L397.5,337.9883 L147.5,337.9883 L147.5,321.0396 " fill="#EEEEEE" style="stroke:#000000;stroke-width:1.5;"/><rect fill="none" height="549.2783" style="stroke:#000000;stroke-width:1.5;" width="1551.5" x="147.5" y="321.0396"/><text fill="#000000" font-family="sans-serif" font-size="13" font-weight="bold" lengthAdjust="spacing" textLength="215" x="162.5" y="334.2334">alt if (user.role == "SUBSCRIBER")</text><path d="M157.5,344.9883 L528.5,344.9883 L528.5,351.937 L518.5,361.937 L157.5,361.937 L157.5,344.9883 " fill="#EEEEEE" style="stroke:#000000;stroke-width:1.5;"/><rect fill="none" height="518.3296" style="stroke:#000000;stroke-width:1.5;" width="1531.5" x="157.5" y="344.9883"/><text fill="#000000" font-family="sans-serif" font-size="13" font-weight="bold" lengthAdjust="spacing" textLength="326" x="172.5" y="358.1821">alt if (ifMatchValue == null || ifMatchValue.isEmpty())</text><polygon fill="#181818" points="772,378.8857,782,382.8857,772,386.8857,776,382.8857" style="stroke:#181818;stroke-width:1.0;"/><line style="stroke:#181818;stroke-width:1.0;" x1="234" x2="778" y1="382.8857" y2="382.8857"/><text fill="#000000" font-family="sans-serif" font-size="13" lengthAdjust="spacing" textLength="215" x="241" y="378.1309">createDevice(macAddress, resource)</text><polygon fill="#181818" points="1017,407.8345,1027,411.8345,1017,415.8345,1021,411.8345" style="stroke:#181818;stroke-width:1.0;"/><line style="stroke:#181818;stroke-width:1.0;" x1="794" x2="1023" y1="411.8345" y2="411.8345"/><text fill="#000000" font-family="sans-serif" font-size="13" lengthAdjust="spacing" textLength="92" x="801" y="407.0796">findById(userId)</text><polygon fill="#181818" points="805,436.7832,795,440.7832,805,444.7832,801,440.7832" style="stroke:#181818;stroke-width:1.0;"/><line style="stroke:#181818;stroke-width:1.0;stroke-dasharray:2.0,2.0;" x1="799" x2="1033" y1="440.7832" y2="440.7832"/><text fill="#000000" font-family="sans-serif" font-size="13" lengthAdjust="spacing" textLength="70" x="811" y="436.0283">subscription</text><polygon fill="#181818" points="1169,465.7319,1179,469.7319,1169,473.7319,1173,469.7319" style="stroke:#181818;stroke-width:1.0;"/><line style="stroke:#181818;stroke-width:1.0;" x1="794" x2="1175" y1="469.7319" y2="469.7319"/><text fill="#000000" font-family="sans-serif" font-size="13" lengthAdjust="spacing" textLength="219" x="801" y="464.9771">create(macAddress, userId, resource)</text><rect fill="#E2E2F0" height="30.0986" rx="2.5" ry="2.5" style="stroke:#181818;stroke-width:0.5;" width="102" x="1181" y="448.7832"/><text fill="#000000" font-family="sans-serif" font-size="14" lengthAdjust="spacing" textLength="88" x="1188" y="468.915">device:Device</text><polygon fill="#181818" points="1362,506.8306,1372,510.8306,1362,514.8306,1366,510.8306" style="stroke:#181818;stroke-width:1.0;"/><line style="stroke:#181818;stroke-width:1.0;" x1="794" x2="1368" y1="510.8306" y2="510.8306"/><text fill="#000000" font-family="sans-serif" font-size="13" lengthAdjust="spacing" textLength="73" x="801" y="506.0757">getDevices()</text><polygon fill="#181818" points="805,535.7793,795,539.7793,805,543.7793,801,539.7793" style="stroke:#181818;stroke-width:1.0;"/><line style="stroke:#181818;stroke-width:1.0;stroke-dasharray:2.0,2.0;" x1="799" x2="1378" y1="539.7793" y2="539.7793"/><text fill="#000000" font-family="sans-serif" font-size="13" lengthAdjust="spacing" textLength="45" x="811" y="535.0244">devices</text><polygon fill="#181818" points="1362,564.728,1372,568.728,1362,572.728,1366,568.728" style="stroke:#181818;stroke-width:1.0;"/><line style="stroke:#181818;stroke-width:1.0;" x1="794" x2="1368" y1="568.728" y2="568.728"/><text fill="#000000" font-family="sans-serif" font-size="13" lengthAdjust="spacing" textLength="116" x="801" y="563.9731">devices.add(device)</text><polygon fill="#181818" points="805,578.728,795,582.728,805,586.728,801,582.728" style="stroke:#181818;stroke-width:1.0;"/><line style="stroke:#181818;stroke-width:1.0;stroke-dasharray:2.0,2.0;" x1="799" x2="1378" y1="582.728" y2="582.728"/><polygon fill="#181818" points="1362,607.6768,1372,611.6768,1362,615.6768,1366,611.6768" style="stroke:#181818;stroke-width:1.0;"/><line style="stroke:#181818;stroke-width:1.0;" x1="794" x2="1368" y1="611.6768" y2="611.6768"/><text fill="#000000" font-family="sans-serif" font-size="13" lengthAdjust="spacing" textLength="118" x="801" y="606.9219">setDevices(devices)</text><polygon fill="#181818" points="805,621.6768,795,625.6768,805,629.6768,801,625.6768" style="stroke:#181818;stroke-width:1.0;"/><line style="stroke:#181818;stroke-width:1.0;stroke-dasharray:2.0,2.0;" x1="799" x2="1378" y1="625.6768" y2="625.6768"/><polygon fill="#181818" points="1362,650.6255,1372,654.6255,1362,658.6255,1366,654.6255" style="stroke:#181818;stroke-width:1.0;"/><line style="stroke:#181818;stroke-width:1.0;" x1="794" x2="1368" y1="654.6255" y2="654.6255"/><text fill="#000000" font-family="sans-serif" font-size="13" lengthAdjust="spacing" textLength="115" x="801" y="649.8706">setCurrentDevices()</text><line style="stroke:#181818;stroke-width:1.0;" x1="1384" x2="1431" y1="678.5742" y2="678.5742"/><line style="stroke:#181818;stroke-width:1.0;" x1="1431" x2="1431" y1="678.5742" y2="691.5742"/><line style="stroke:#181818;stroke-width:1.0;" x1="1390" x2="1431" y1="691.5742" y2="691.5742"/><polygon fill="#181818" points="1400,687.5742,1390,691.5742,1400,695.5742,1396,691.5742" style="stroke:#181818;stroke-width:1.0;"/><text fill="#000000" font-family="sans-serif" font-size="13" lengthAdjust="spacing" textLength="107" x="1396" y="673.8193">currrentDevices++</text><polygon fill="#181818" points="805,706.5742,795,710.5742,805,714.5742,801,710.5742" style="stroke:#181818;stroke-width:1.0;"/><line style="stroke:#181818;stroke-width:1.0;stroke-dasharray:2.0,2.0;" x1="799" x2="1378" y1="710.5742" y2="710.5742"/><polygon fill="#181818" points="1017,735.5229,1027,739.5229,1017,743.5229,1021,739.5229" style="stroke:#181818;stroke-width:1.0;"/><line style="stroke:#181818;stroke-width:1.0;" x1="794" x2="1023" y1="739.5229" y2="739.5229"/><text fill="#000000" font-family="sans-serif" font-size="13" lengthAdjust="spacing" textLength="106" x="801" y="734.7681">save(subscription)</text><polygon fill="#181818" points="805,764.4717,795,768.4717,805,772.4717,801,768.4717" style="stroke:#181818;stroke-width:1.0;"/><line style="stroke:#181818;stroke-width:1.0;stroke-dasharray:2.0,2.0;" x1="799" x2="1033" y1="768.4717" y2="768.4717"/><text fill="#000000" font-family="sans-serif" font-size="13" lengthAdjust="spacing" textLength="14" x="811" y="763.7168">ok</text><polygon fill="#181818" points="1560,793.4204,1570,797.4204,1560,801.4204,1564,797.4204" style="stroke:#181818;stroke-width:1.0;"/><line style="stroke:#181818;stroke-width:1.0;" x1="794" x2="1566" y1="797.4204" y2="797.4204"/><text fill="#000000" font-family="sans-serif" font-size="13" lengthAdjust="spacing" textLength="74" x="801" y="792.6655">save(device)</text><polygon fill="#181818" points="805,822.3691,795,826.3691,805,830.3691,801,826.3691" style="stroke:#181818;stroke-width:1.0;"/><line style="stroke:#181818;stroke-width:1.0;stroke-dasharray:2.0,2.0;" x1="799" x2="1576" y1="826.3691" y2="826.3691"/><text fill="#000000" font-family="sans-serif" font-size="13" lengthAdjust="spacing" textLength="14" x="811" y="821.6143">ok</text><polygon fill="#181818" points="245,851.3179,235,855.3179,245,859.3179,241,855.3179" style="stroke:#181818;stroke-width:1.0;"/><line style="stroke:#181818;stroke-width:1.0;stroke-dasharray:2.0,2.0;" x1="239" x2="788" y1="855.3179" y2="855.3179"/><text fill="#000000" font-family="sans-serif" font-size="13" lengthAdjust="spacing" textLength="38" x="251" y="850.563">device</text><polygon fill="#181818" points="39,894.2666,29,898.2666,39,902.2666,35,898.2666" style="stroke:#181818;stroke-width:1.0;"/><line style="stroke:#181818;stroke-width:1.0;stroke-dasharray:2.0,2.0;" x1="33" x2="228" y1="898.2666" y2="898.2666"/><text fill="#000000" font-family="sans-serif" font-size="13" lengthAdjust="spacing" textLength="70" x="45" y="893.5117">201 Created</text><!--SRC=[fLLDRzim3BthLn0vsUsQR3iQw836AR0S1WnnixicCQbGn_Bq4I10V_pqPSVsacp0VB0Pyl7ncQGS8qoDK2ga1c65Hy4GAlnbiN76Ij2zeWT2g3MICYEE7YKRvs16AfXjDQePK0tU82rLHZ3HqiR0h8XafMoCadMTSALHzGJt5UisHQCvYIjiPU7vDyxGmjKz1R1DhZ7SUujUbjKJDXv4LQZy8qbClq92TMJZ16r_QgP4QuHiVBMYcZW6YXpsJq6nOYeLOD5plSoeH4VSEown1s6htXn8Sl4WYVJJ2vCY_WuFNy8y2lY-VLdGLYmYcruK1ygUE5UeDV48ZuopAM2FnYSlJo_o3PjC-LtH9YSn3WyzgP_4clVvtRWAs8c6BqzhdaL4JhhG97cGgkxkGkKdQrwb4aQWpdAoLzAsG6i3OWU1RUvM3U7n4MRLTbcLc_NoUJFB2RXh31QxRzImrn-qjW7VsBg6ztSO-kT2FnzQSyhooE2lJfBRam9OE3MnxzcvPH_0tQLL3Czv3k_JqePSw447J8ZGYb1aDFifNnoORqxKCb8HgM-hEI-TRszy5T_QWPmUSjQKzkGsNmBDAUTPj6_JtcRJPtM9-3_PIgiKDdzzvMacSsc3lFlxVrF1iJ-0eu5UsmzDZvWDaJSsHBvTM8i1pRJvANgTe3-5wKlL1R7Xf7l6W-2G_cDGmEUFdzAV22U_0G00]--></g></svg>