<?xml version="1.0" encoding="us-ascii" standalone="no"?><svg xmlns="http://www.w3.org/2000/svg" xmlns:xlink="http://www.w3.org/1999/xlink" contentStyleType="text/css" height="818px" preserveAspectRatio="none" style="width:1496px;height:818px;background:#FFFFFF;" version="1.1" viewBox="0 0 1496 818" width="1496px" zoomAndPan="magnify"><defs/><g><text fill="#000000" font-family="sans-serif" font-size="14" font-weight="bold" lengthAdjust="spacing" textLength="216" x="641.5" y="30.1074">Switch plan Sequence Diagram</text><rect fill="#FFFFFF" height="592.8984" style="stroke:#181818;stroke-width:1.0;" width="10" x="17.5" y="133.2422"/><rect fill="#FFFFFF" height="560.6074" style="stroke:#181818;stroke-width:1.0;" width="10" x="269.5" y="156.5332"/><rect fill="#FFFFFF" height="31.291" style="stroke:#181818;stroke-width:1.0;" width="10" x="456.5" y="187.8242"/><rect fill="#FFFFFF" height="31.291" style="stroke:#181818;stroke-width:1.0;" width="10" x="570" y="250.4063"/><rect fill="#FFFFFF" height="295.9492" style="stroke:#181818;stroke-width:1.0;" width="10" x="833" y="382.9004"/><rect fill="#FFFFFF" height="31.291" style="stroke:#181818;stroke-width:1.0;" width="10" x="1033.5" y="414.1914"/><rect fill="#FFFFFF" height="31.291" style="stroke:#181818;stroke-width:1.0;" width="10" x="1033.5" y="609.2676"/><rect fill="#FFFFFF" height="31.291" style="stroke:#181818;stroke-width:1.0;" width="10" x="1211.5" y="476.7734"/><rect fill="none" height="346.5313" style="stroke:#000000;stroke-width:1.5;" width="1304.5" x="185.5" y="340.3184"/><rect fill="none" height="125.4941" style="stroke:#000000;stroke-width:1.5;" width="746" x="734" y="523.0645"/><line style="stroke:#181818;stroke-width:0.5;stroke-dasharray:5.0,5.0;" x1="22" x2="22" y1="123.2422" y2="735.1406"/><line style="stroke:#181818;stroke-width:0.5;stroke-dasharray:5.0,5.0;" x1="274.5" x2="274.5" y1="123.2422" y2="735.1406"/><line style="stroke:#181818;stroke-width:0.5;stroke-dasharray:5.0,5.0;" x1="461" x2="461" y1="123.2422" y2="735.1406"/><line style="stroke:#181818;stroke-width:0.5;stroke-dasharray:5.0,5.0;" x1="575" x2="575" y1="123.2422" y2="735.1406"/><line style="stroke:#181818;stroke-width:0.5;stroke-dasharray:5.0,5.0;" x1="696" x2="696" y1="321.5078" y2="735.1406"/><line style="stroke:#181818;stroke-width:0.5;stroke-dasharray:5.0,5.0;" x1="838" x2="838" y1="123.2422" y2="735.1406"/><line style="stroke:#181818;stroke-width:0.5;stroke-dasharray:5.0,5.0;" x1="1038" x2="1038" y1="123.2422" y2="735.1406"/><line style="stroke:#181818;stroke-width:0.5;stroke-dasharray:5.0,5.0;" x1="1216" x2="1216" y1="123.2422" y2="735.1406"/><line style="stroke:#181818;stroke-width:0.5;stroke-dasharray:5.0,5.0;" x1="1384" x2="1384" y1="574.166" y2="735.1406"/><text fill="#000000" font-family="sans-serif" font-size="14" lengthAdjust="spacing" textLength="29" x="5" y="119.7285">User</text><ellipse cx="22.5" cy="53.1211" fill="#E2E2F0" rx="8" ry="8" style="stroke:#181818;stroke-width:0.5;"/><path d="M22.5,61.1211 L22.5,88.1211 M9.5,69.1211 L35.5,69.1211 M22.5,88.1211 L9.5,103.1211 M22.5,88.1211 L35.5,103.1211 " fill="none" style="stroke:#181818;stroke-width:0.5;"/><text fill="#000000" font-family="sans-serif" font-size="14" lengthAdjust="spacing" textLength="29" x="5" y="749.248">User</text><ellipse cx="22.5" cy="761.2617" fill="#E2E2F0" rx="8" ry="8" style="stroke:#181818;stroke-width:0.5;"/><path d="M22.5,769.2617 L22.5,796.2617 M9.5,777.2617 L35.5,777.2617 M22.5,796.2617 L9.5,811.2617 M22.5,796.2617 L35.5,811.2617 " fill="none" style="stroke:#181818;stroke-width:0.5;"/><rect fill="#E2E2F0" height="32.6211" rx="2.5" ry="2.5" style="stroke:#181818;stroke-width:0.5;" width="158" x="195.5" y="89.6211"/><text fill="#000000" font-family="sans-serif" font-size="14" lengthAdjust="spacing" textLength="144" x="202.5" y="111.7285">:SubscriptionController</text><rect fill="#E2E2F0" height="32.6211" rx="2.5" ry="2.5" style="stroke:#181818;stroke-width:0.5;" width="158" x="195.5" y="734.1406"/><text fill="#000000" font-family="sans-serif" font-size="14" lengthAdjust="spacing" textLength="144" x="202.5" y="756.248">:SubscriptionController</text><rect fill="#E2E2F0" height="32.6211" rx="2.5" ry="2.5" style="stroke:#181818;stroke-width:0.5;" width="59" x="432" y="89.6211"/><text fill="#000000" font-family="sans-serif" font-size="14" lengthAdjust="spacing" textLength="45" x="439" y="111.7285">:Helper</text><rect fill="#E2E2F0" height="32.6211" rx="2.5" ry="2.5" style="stroke:#181818;stroke-width:0.5;" width="59" x="432" y="734.1406"/><text fill="#000000" font-family="sans-serif" font-size="14" lengthAdjust="spacing" textLength="45" x="439" y="756.248">:Helper</text><rect fill="#E2E2F0" height="32.6211" rx="2.5" ry="2.5" style="stroke:#181818;stroke-width:0.5;" width="148" x="501" y="89.6211"/><text fill="#000000" font-family="sans-serif" font-size="14" lengthAdjust="spacing" textLength="134" x="508" y="111.7285">:repo:UserRepository</text><rect fill="#E2E2F0" height="32.6211" rx="2.5" ry="2.5" style="stroke:#181818;stroke-width:0.5;" width="148" x="501" y="734.1406"/><text fill="#000000" font-family="sans-serif" font-size="14" lengthAdjust="spacing" textLength="134" x="508" y="756.248">:repo:UserRepository</text><rect fill="#E2E2F0" height="32.6211" rx="2.5" ry="2.5" style="stroke:#181818;stroke-width:0.5;" width="75" x="659" y="734.1406"/><text fill="#000000" font-family="sans-serif" font-size="14" lengthAdjust="spacing" textLength="61" x="666" y="756.248">user:User</text><rect fill="#E2E2F0" height="32.6211" rx="2.5" ry="2.5" style="stroke:#181818;stroke-width:0.5;" width="188" x="744" y="89.6211"/><text fill="#000000" font-family="sans-serif" font-size="14" lengthAdjust="spacing" textLength="174" x="751" y="111.7285">service:SubscriptionService</text><rect fill="#E2E2F0" height="32.6211" rx="2.5" ry="2.5" style="stroke:#181818;stroke-width:0.5;" width="188" x="744" y="734.1406"/><text fill="#000000" font-family="sans-serif" font-size="14" lengthAdjust="spacing" textLength="174" x="751" y="756.248">service:SubscriptionService</text><rect fill="#E2E2F0" height="32.6211" rx="2.5" ry="2.5" style="stroke:#181818;stroke-width:0.5;" width="193" x="942" y="89.6211"/><text fill="#000000" font-family="sans-serif" font-size="14" lengthAdjust="spacing" textLength="179" x="949" y="111.7285">repo:SubscriptionRepository</text><rect fill="#E2E2F0" height="32.6211" rx="2.5" ry="2.5" style="stroke:#181818;stroke-width:0.5;" width="193" x="942" y="734.1406"/><text fill="#000000" font-family="sans-serif" font-size="14" lengthAdjust="spacing" textLength="179" x="949" y="756.248">repo:SubscriptionRepository</text><rect fill="#E2E2F0" height="32.6211" rx="2.5" ry="2.5" style="stroke:#181818;stroke-width:0.5;" width="143" x="1145" y="89.6211"/><text fill="#000000" font-family="sans-serif" font-size="14" lengthAdjust="spacing" textLength="129" x="1152" y="111.7285">repo:PlanRepository</text><rect fill="#E2E2F0" height="32.6211" rx="2.5" ry="2.5" style="stroke:#181818;stroke-width:0.5;" width="143" x="1145" y="734.1406"/><text fill="#000000" font-family="sans-serif" font-size="14" lengthAdjust="spacing" textLength="129" x="1152" y="756.248">repo:PlanRepository</text><rect fill="#E2E2F0" height="32.6211" rx="2.5" ry="2.5" style="stroke:#181818;stroke-width:0.5;" width="172" x="1298" y="734.1406"/><text fill="#000000" font-family="sans-serif" font-size="14" lengthAdjust="spacing" textLength="158" x="1305" y="756.248">subscription:Subscription</text><rect fill="#FFFFFF" height="592.8984" style="stroke:#181818;stroke-width:1.0;" width="10" x="17.5" y="133.2422"/><rect fill="#FFFFFF" height="560.6074" style="stroke:#181818;stroke-width:1.0;" width="10" x="269.5" y="156.5332"/><rect fill="#FFFFFF" height="31.291" style="stroke:#181818;stroke-width:1.0;" width="10" x="456.5" y="187.8242"/><rect fill="#FFFFFF" height="31.291" style="stroke:#181818;stroke-width:1.0;" width="10" x="570" y="250.4063"/><rect fill="#FFFFFF" height="295.9492" style="stroke:#181818;stroke-width:1.0;" width="10" x="833" y="382.9004"/><rect fill="#FFFFFF" height="31.291" style="stroke:#181818;stroke-width:1.0;" width="10" x="1033.5" y="414.1914"/><rect fill="#FFFFFF" height="31.291" style="stroke:#181818;stroke-width:1.0;" width="10" x="1033.5" y="609.2676"/><rect fill="#FFFFFF" height="31.291" style="stroke:#181818;stroke-width:1.0;" width="10" x="1211.5" y="476.7734"/><polygon fill="#181818" points="257.5,152.5332,267.5,156.5332,257.5,160.5332,261.5,156.5332" style="stroke:#181818;stroke-width:1.0;"/><line style="stroke:#181818;stroke-width:1.0;" x1="27.5" x2="263.5" y1="156.5332" y2="156.5332"/><text fill="#000000" font-family="sans-serif" font-size="13" font-weight="bold" lengthAdjust="spacing" textLength="7" x="34.5" y="151.2705">1</text><text fill="#000000" font-family="sans-serif" font-size="13" lengthAdjust="spacing" textLength="212" x="45.5" y="151.2705">PATCH/api/subscriptions/switchPlan</text><polygon fill="#181818" points="444.5,183.8242,454.5,187.8242,444.5,191.8242,448.5,187.8242" style="stroke:#181818;stroke-width:1.0;"/><line style="stroke:#181818;stroke-width:1.0;" x1="279.5" x2="450.5" y1="187.8242" y2="187.8242"/><text fill="#000000" font-family="sans-serif" font-size="13" font-weight="bold" lengthAdjust="spacing" textLength="7" x="286.5" y="182.5615">2</text><text fill="#000000" font-family="sans-serif" font-size="13" lengthAdjust="spacing" textLength="147" x="297.5" y="182.5615">getUserByToken(request)</text><polygon fill="#181818" points="290.5,215.1152,280.5,219.1152,290.5,223.1152,286.5,219.1152" style="stroke:#181818;stroke-width:1.0;"/><line style="stroke:#181818;stroke-width:1.0;stroke-dasharray:2.0,2.0;" x1="284.5" x2="460.5" y1="219.1152" y2="219.1152"/><text fill="#000000" font-family="sans-serif" font-size="13" font-weight="bold" lengthAdjust="spacing" textLength="7" x="296.5" y="213.8525">3</text><text fill="#000000" font-family="sans-serif" font-size="13" lengthAdjust="spacing" textLength="35" x="307.5" y="213.8525">userId</text><polygon fill="#181818" points="558,246.4063,568,250.4063,558,254.4063,562,250.4063" style="stroke:#181818;stroke-width:1.0;"/><line style="stroke:#181818;stroke-width:1.0;" x1="279.5" x2="564" y1="250.4063" y2="250.4063"/><text fill="#000000" font-family="sans-serif" font-size="13" font-weight="bold" lengthAdjust="spacing" textLength="7" x="286.5" y="245.1436">4</text><text fill="#000000" font-family="sans-serif" font-size="13" lengthAdjust="spacing" textLength="89" x="297.5" y="245.1436">findById(userId)</text><polygon fill="#181818" points="290.5,277.6973,280.5,281.6973,290.5,285.6973,286.5,281.6973" style="stroke:#181818;stroke-width:1.0;"/><line style="stroke:#181818;stroke-width:1.0;stroke-dasharray:2.0,2.0;" x1="284.5" x2="574" y1="281.6973" y2="281.6973"/><text fill="#000000" font-family="sans-serif" font-size="13" font-weight="bold" lengthAdjust="spacing" textLength="7" x="296.5" y="276.4346">5</text><text fill="#000000" font-family="sans-serif" font-size="13" lengthAdjust="spacing" textLength="25" x="307.5" y="276.4346">user</text><polygon fill="#181818" points="647,308.9883,657,312.9883,647,316.9883,651,312.9883" style="stroke:#181818;stroke-width:1.0;"/><line style="stroke:#181818;stroke-width:1.0;" x1="279.5" x2="653" y1="312.9883" y2="312.9883"/><text fill="#000000" font-family="sans-serif" font-size="13" font-weight="bold" lengthAdjust="spacing" textLength="7" x="286.5" y="307.7256">6</text><text fill="#000000" font-family="sans-serif" font-size="13" lengthAdjust="spacing" textLength="88" x="297.5" y="307.7256">getAuthorities()</text><rect fill="#E2E2F0" height="32.6211" rx="2.5" ry="2.5" style="stroke:#181818;stroke-width:0.5;" width="75" x="659" y="289.6973"/><text fill="#000000" font-family="sans-serif" font-size="14" lengthAdjust="spacing" textLength="61" x="666" y="311.8047">user:User</text><path d="M185.5,340.3184 L246.5,340.3184 L246.5,349.6094 L236.5,359.6094 L185.5,359.6094 L185.5,340.3184 " fill="#EEEEEE" style="stroke:#000000;stroke-width:1.5;"/><rect fill="none" height="346.5313" style="stroke:#000000;stroke-width:1.5;" width="1304.5" x="185.5" y="340.3184"/><text fill="#000000" font-family="sans-serif" font-size="13" font-weight="bold" lengthAdjust="spacing" textLength="16" x="200.5" y="355.3467">alt</text><text fill="#000000" font-family="sans-serif" font-size="11" font-weight="bold" lengthAdjust="spacing" textLength="162" x="261.5" y="354.1885">[if(user.role = "SUBSCRIBER")]</text><polygon fill="#181818" points="821,378.9004,831,382.9004,821,386.9004,825,382.9004" style="stroke:#181818;stroke-width:1.0;"/><line style="stroke:#181818;stroke-width:1.0;" x1="279.5" x2="827" y1="382.9004" y2="382.9004"/><text fill="#000000" font-family="sans-serif" font-size="13" font-weight="bold" lengthAdjust="spacing" textLength="7" x="286.5" y="377.6377">7</text><text fill="#000000" font-family="sans-serif" font-size="13" lengthAdjust="spacing" textLength="164" x="297.5" y="377.6377">switchPlan(resource, userId)</text><polygon fill="#181818" points="1021.5,410.1914,1031.5,414.1914,1021.5,418.1914,1025.5,414.1914" style="stroke:#181818;stroke-width:1.0;"/><line style="stroke:#181818;stroke-width:1.0;" x1="843" x2="1027.5" y1="414.1914" y2="414.1914"/><text fill="#000000" font-family="sans-serif" font-size="13" font-weight="bold" lengthAdjust="spacing" textLength="7" x="850" y="408.9287">8</text><text fill="#000000" font-family="sans-serif" font-size="13" lengthAdjust="spacing" textLength="116" x="861" y="408.9287">findByUserId(userId)</text><polygon fill="#181818" points="854,441.4824,844,445.4824,854,449.4824,850,445.4824" style="stroke:#181818;stroke-width:1.0;"/><line style="stroke:#181818;stroke-width:1.0;stroke-dasharray:2.0,2.0;" x1="848" x2="1037.5" y1="445.4824" y2="445.4824"/><text fill="#000000" font-family="sans-serif" font-size="13" font-weight="bold" lengthAdjust="spacing" textLength="7" x="860" y="440.2197">9</text><text fill="#000000" font-family="sans-serif" font-size="13" lengthAdjust="spacing" textLength="70" x="871" y="440.2197">subscription</text><polygon fill="#181818" points="1199.5,472.7734,1209.5,476.7734,1199.5,480.7734,1203.5,476.7734" style="stroke:#181818;stroke-width:1.0;"/><line style="stroke:#181818;stroke-width:1.0;" x1="843" x2="1205.5" y1="476.7734" y2="476.7734"/><text fill="#000000" font-family="sans-serif" font-size="13" font-weight="bold" lengthAdjust="spacing" textLength="14" x="850" y="471.5107">10</text><text fill="#000000" font-family="sans-serif" font-size="13" lengthAdjust="spacing" textLength="162" x="868" y="471.5107">findByPlanName(planName)</text><polygon fill="#181818" points="854,504.0645,844,508.0645,854,512.0645,850,508.0645" style="stroke:#181818;stroke-width:1.0;"/><line style="stroke:#181818;stroke-width:1.0;stroke-dasharray:2.0,2.0;" x1="848" x2="1215.5" y1="508.0645" y2="508.0645"/><text fill="#000000" font-family="sans-serif" font-size="13" font-weight="bold" lengthAdjust="spacing" textLength="14" x="860" y="502.8018">11</text><text fill="#000000" font-family="sans-serif" font-size="13" lengthAdjust="spacing" textLength="24" x="878" y="502.8018">plan</text><path d="M734,523.0645 L795,523.0645 L795,532.3555 L785,542.3555 L734,542.3555 L734,523.0645 " fill="#EEEEEE" style="stroke:#000000;stroke-width:1.5;"/><rect fill="none" height="125.4941" style="stroke:#000000;stroke-width:1.5;" width="746" x="734" y="523.0645"/><text fill="#000000" font-family="sans-serif" font-size="13" font-weight="bold" lengthAdjust="spacing" textLength="16" x="749" y="538.0928">alt</text><text fill="#000000" font-family="sans-serif" font-size="11" font-weight="bold" lengthAdjust="spacing" textLength="327" x="810" y="536.9346">[if(subscription.getCurrentDevices() &lt; plan.getMaxUsers())]</text><polygon fill="#181818" points="1286,561.6465,1296,565.6465,1286,569.6465,1290,565.6465" style="stroke:#181818;stroke-width:1.0;"/><line style="stroke:#181818;stroke-width:1.0;" x1="843" x2="1292" y1="565.6465" y2="565.6465"/><text fill="#000000" font-family="sans-serif" font-size="13" font-weight="bold" lengthAdjust="spacing" textLength="14" x="850" y="560.3838">12</text><text fill="#000000" font-family="sans-serif" font-size="13" lengthAdjust="spacing" textLength="291" x="868" y="560.3838">subscription.setPlanName(resource.getNewPlan())</text><rect fill="#E2E2F0" height="32.6211" rx="2.5" ry="2.5" style="stroke:#181818;stroke-width:0.5;" width="172" x="1298" y="542.3555"/><text fill="#000000" font-family="sans-serif" font-size="14" lengthAdjust="spacing" textLength="158" x="1305" y="564.4629">subscription:Subscription</text><polygon fill="#181818" points="1021.5,605.2676,1031.5,609.2676,1021.5,613.2676,1025.5,609.2676" style="stroke:#181818;stroke-width:1.0;"/><line style="stroke:#181818;stroke-width:1.0;" x1="843" x2="1027.5" y1="609.2676" y2="609.2676"/><text fill="#000000" font-family="sans-serif" font-size="13" font-weight="bold" lengthAdjust="spacing" textLength="14" x="850" y="604.0049">13</text><text fill="#000000" font-family="sans-serif" font-size="13" lengthAdjust="spacing" textLength="104" x="868" y="604.0049">save(subscription)</text><polygon fill="#181818" points="854,636.5586,844,640.5586,854,644.5586,850,640.5586" style="stroke:#181818;stroke-width:1.0;"/><line style="stroke:#181818;stroke-width:1.0;stroke-dasharray:2.0,2.0;" x1="848" x2="1037.5" y1="640.5586" y2="640.5586"/><text fill="#000000" font-family="sans-serif" font-size="13" font-weight="bold" lengthAdjust="spacing" textLength="14" x="860" y="635.2959">14</text><text fill="#000000" font-family="sans-serif" font-size="13" lengthAdjust="spacing" textLength="70" x="878" y="635.2959">subscription</text><polygon fill="#181818" points="290.5,674.8496,280.5,678.8496,290.5,682.8496,286.5,678.8496" style="stroke:#181818;stroke-width:1.0;"/><line style="stroke:#181818;stroke-width:1.0;stroke-dasharray:2.0,2.0;" x1="284.5" x2="837" y1="678.8496" y2="678.8496"/><text fill="#000000" font-family="sans-serif" font-size="13" font-weight="bold" lengthAdjust="spacing" textLength="14" x="296.5" y="673.5869">15</text><text fill="#000000" font-family="sans-serif" font-size="13" lengthAdjust="spacing" textLength="70" x="314.5" y="673.5869">subscription</text><polygon fill="#181818" points="38.5,713.1406,28.5,717.1406,38.5,721.1406,34.5,717.1406" style="stroke:#181818;stroke-width:1.0;"/><line style="stroke:#181818;stroke-width:1.0;stroke-dasharray:2.0,2.0;" x1="32.5" x2="273.5" y1="717.1406" y2="717.1406"/><text fill="#000000" font-family="sans-serif" font-size="13" font-weight="bold" lengthAdjust="spacing" textLength="14" x="44.5" y="711.8779">16</text><text fill="#000000" font-family="sans-serif" font-size="13" lengthAdjust="spacing" textLength="42" x="62.5" y="711.8779">200 Ok</text><!--SRC=[dLBDRjim3BxhAOXSvXHBNEneh0EQT41pM5V4pGEeDji8TInFejFbxITAbcjxQJ4iXq0Mln_oepxjYHgRfMbJoPhQGxKiz26r-Al5ki15gUIpaGSXI565aBygAlR0MCWx3Dn4Z6n9ouBKKHA2hlrttHuUqRXQGTh0R6VHp41Qu8Def25LgCOvmopBsqTR6DMGqlLQrsHqLNNeDPbgWhx5gkcguJYf6snqnYvRTx3AkPyykEsknd2-pVhcMZjHSuMZAd3KOXxkFA4x3yjZ0T_Di3pfofN-RigJxbtM4t2yclGuK1zPHOEtraI_9Ry6mV-m-EPZpk3- -c5zcyf6fKD9crg_V3ON36H2I3w3PoJMM9qUz0lMYU6dOMakGXqMlJRdl2bxVbn61a-gBbUdJPa4n5p4qeGye9gB2-zytT9U6qKARJ8NiY9GJrvcwLuGmXNCyjqgNsytg-_RsLo0-qMHCtlBu6rEDuZLhIdmCyIsc7s6vSN23kCiEyz8HiI0y2ETjnvkwGEh-0AY5t_VoGCcJNS8VX7slY7ZFRIBRTZ0qcMxRet1ccwGgIvU-EefNFeXV_E8xZAOVPnC_yrB6xbOfBxzc3Vht-6hty4_oOSmh3pYQ8J_ZHthyltu-_SueZ4bF2jNvs0o-79v2JzVn1y0]--></g></svg>