<?xml version="1.0" encoding="us-ascii" standalone="no"?><svg xmlns="http://www.w3.org/2000/svg" xmlns:xlink="http://www.w3.org/1999/xlink" contentStyleType="text/css" height="594.3px" preserveAspectRatio="none" style="width:1061px;height:594px;background:#FFFFFF;" version="1.1" viewBox="0 0 1061 594" width="1061.9px" zoomAndPan="magnify"><defs/><g><text fill="#000000" font-family="sans-serif" font-size="9.8" font-weight="bold" lengthAdjust="spacing" textLength="220.5" x="421.75" y="21.0752">Reactivate a subscription Sequence Diagram</text><rect fill="#FFFFFF" height="436.9326" style="stroke:#181818;stroke-width:0.6999999999999998;" width="7" x="12.25" y="93.2695"/><rect fill="#FFFFFF" height="414.3289" style="stroke:#181818;stroke-width:0.6999999999999998;" width="7" x="170.45" y="109.5732"/><rect fill="#FFFFFF" height="21.9037" style="stroke:#181818;stroke-width:0.6999999999999998;" width="7" x="301.35" y="131.477"/><rect fill="#FFFFFF" height="21.9037" style="stroke:#181818;stroke-width:0.6999999999999998;" width="7" x="380.8" y="175.2844"/><rect fill="#FFFFFF" height="185.2607" style="stroke:#181818;stroke-width:0.6999999999999998;" width="7" x="564.9" y="268.0303"/><rect fill="#FFFFFF" height="21.9037" style="stroke:#181818;stroke-width:0.6999999999999998;" width="7" x="705.25" y="289.934"/><rect fill="#FFFFFF" height="26.8037" style="stroke:#181818;stroke-width:0.6999999999999998;" width="7" x="705.25" y="404.5836"/><rect fill="#FFFFFF" height="147.5223" style="stroke:#181818;stroke-width:0.6999999999999998;" width="7" x="840" y="382.6799"/><rect fill="#FFFFFF" height="21.9037" style="stroke:#181818;stroke-width:0.6999999999999998;" width="7" x="977.2" y="475.1947"/><rect fill="none" height="264.4756" style="stroke:#000000;stroke-width:1.0499999999999998;" width="946.05" x="111.65" y="238.2229"/><rect fill="none" height="87.8459" style="stroke:#000000;stroke-width:1.0499999999999998;" width="428.4" x="495.6" y="322.3377"/><line style="stroke:#181818;stroke-width:0.3499999999999999;stroke-dasharray:5.0,5.0;" x1="15.4" x2="15.4" y1="86.2695" y2="536.5021"/><line style="stroke:#181818;stroke-width:0.3499999999999999;stroke-dasharray:5.0,5.0;" x1="173.95" x2="173.95" y1="86.2695" y2="536.5021"/><line style="stroke:#181818;stroke-width:0.3499999999999999;stroke-dasharray:5.0,5.0;" x1="304.5" x2="304.5" y1="86.2695" y2="536.5021"/><line style="stroke:#181818;stroke-width:0.3499999999999999;stroke-dasharray:5.0,5.0;" x1="384.3" x2="384.3" y1="86.2695" y2="536.5021"/><line style="stroke:#181818;stroke-width:0.3499999999999999;stroke-dasharray:5.0,5.0;" x1="469" x2="469" y1="225.0555" y2="536.5021"/><line style="stroke:#181818;stroke-width:0.3499999999999999;stroke-dasharray:5.0,5.0;" x1="568.4" x2="568.4" y1="86.2695" y2="536.5021"/><line style="stroke:#181818;stroke-width:0.3499999999999999;stroke-dasharray:5.0,5.0;" x1="708.4" x2="708.4" y1="86.2695" y2="536.5021"/><line style="stroke:#181818;stroke-width:0.3499999999999999;stroke-dasharray:5.0,5.0;" x1="843.5" x2="843.5" y1="358.1088" y2="536.5021"/><line style="stroke:#181818;stroke-width:0.3499999999999999;stroke-dasharray:5.0,5.0;" x1="980.7" x2="980.7" y1="86.2695" y2="536.5021"/><text fill="#000000" font-family="sans-serif" font-size="9.8" lengthAdjust="spacing" textLength="20.3" x="3.5" y="83.81">User</text><ellipse cx="15.75" cy="37.1848" fill="#E2E2F0" rx="5.6" ry="5.6" style="stroke:#181818;stroke-width:0.3499999999999999;"/><path d="M15.75,42.7848 L15.75,61.6848 M6.65,48.3848 L24.85,48.3848 M15.75,61.6848 L6.65,72.1848 M15.75,61.6848 L24.85,72.1848 " fill="none" style="stroke:#181818;stroke-width:0.3499999999999999;"/><text fill="#000000" font-family="sans-serif" font-size="9.8" lengthAdjust="spacing" textLength="20.3" x="3.5" y="546.3773">User</text><ellipse cx="15.75" cy="554.7869" fill="#E2E2F0" rx="5.6" ry="5.6" style="stroke:#181818;stroke-width:0.3499999999999999;"/><path d="M15.75,560.3869 L15.75,579.2869 M6.65,565.9869 L24.85,565.9869 M15.75,579.2869 L6.65,589.7869 M15.75,579.2869 L24.85,589.7869 " fill="none" style="stroke:#181818;stroke-width:0.3499999999999999;"/><rect fill="#E2E2F0" height="22.8348" rx="1.75" ry="1.75" style="stroke:#181818;stroke-width:0.3499999999999999;" width="110.6" x="118.65" y="62.7348"/><text fill="#000000" font-family="sans-serif" font-size="9.8" lengthAdjust="spacing" textLength="100.8" x="123.55" y="78.21">:SubscriptionController</text><rect fill="#E2E2F0" height="22.8348" rx="1.75" ry="1.75" style="stroke:#181818;stroke-width:0.3499999999999999;" width="110.6" x="118.65" y="535.8021"/><text fill="#000000" font-family="sans-serif" font-size="9.8" lengthAdjust="spacing" textLength="100.8" x="123.55" y="551.2773">:SubscriptionController</text><rect fill="#E2E2F0" height="22.8348" rx="1.75" ry="1.75" style="stroke:#181818;stroke-width:0.3499999999999999;" width="41.3" x="284.2" y="62.7348"/><text fill="#000000" font-family="sans-serif" font-size="9.8" lengthAdjust="spacing" textLength="31.5" x="289.1" y="78.21">:Helper</text><rect fill="#E2E2F0" height="22.8348" rx="1.75" ry="1.75" style="stroke:#181818;stroke-width:0.3499999999999999;" width="41.3" x="284.2" y="535.8021"/><text fill="#000000" font-family="sans-serif" font-size="9.8" lengthAdjust="spacing" textLength="31.5" x="289.1" y="551.2773">:Helper</text><rect fill="#E2E2F0" height="22.8348" rx="1.75" ry="1.75" style="stroke:#181818;stroke-width:0.3499999999999999;" width="103.6" x="332.5" y="62.7348"/><text fill="#000000" font-family="sans-serif" font-size="9.8" lengthAdjust="spacing" textLength="93.8" x="337.4" y="78.21">:repo:UserRepository</text><rect fill="#E2E2F0" height="22.8348" rx="1.75" ry="1.75" style="stroke:#181818;stroke-width:0.3499999999999999;" width="103.6" x="332.5" y="535.8021"/><text fill="#000000" font-family="sans-serif" font-size="9.8" lengthAdjust="spacing" textLength="93.8" x="337.4" y="551.2773">:repo:UserRepository</text><rect fill="#E2E2F0" height="22.8348" rx="1.75" ry="1.75" style="stroke:#181818;stroke-width:0.3499999999999999;" width="52.5" x="443.1" y="535.8021"/><text fill="#000000" font-family="sans-serif" font-size="9.8" lengthAdjust="spacing" textLength="42.7" x="448" y="551.2773">user:User</text><rect fill="#E2E2F0" height="22.8348" rx="1.75" ry="1.75" style="stroke:#181818;stroke-width:0.3499999999999999;" width="131.6" x="502.6" y="62.7348"/><text fill="#000000" font-family="sans-serif" font-size="9.8" lengthAdjust="spacing" textLength="121.8" x="507.5" y="78.21">service:SubscriptionService</text><rect fill="#E2E2F0" height="22.8348" rx="1.75" ry="1.75" style="stroke:#181818;stroke-width:0.3499999999999999;" width="131.6" x="502.6" y="535.8021"/><text fill="#000000" font-family="sans-serif" font-size="9.8" lengthAdjust="spacing" textLength="121.8" x="507.5" y="551.2773">service:SubscriptionService</text><rect fill="#E2E2F0" height="22.8348" rx="1.75" ry="1.75" style="stroke:#181818;stroke-width:0.3499999999999999;" width="135.1" x="641.2" y="62.7348"/><text fill="#000000" font-family="sans-serif" font-size="9.8" lengthAdjust="spacing" textLength="125.3" x="646.1" y="78.21">repo:SubscriptionRepository</text><rect fill="#E2E2F0" height="22.8348" rx="1.75" ry="1.75" style="stroke:#181818;stroke-width:0.3499999999999999;" width="135.1" x="641.2" y="535.8021"/><text fill="#000000" font-family="sans-serif" font-size="9.8" lengthAdjust="spacing" textLength="125.3" x="646.1" y="551.2773">repo:SubscriptionRepository</text><rect fill="#E2E2F0" height="22.8348" rx="1.75" ry="1.75" style="stroke:#181818;stroke-width:0.3499999999999999;" width="120.4" x="783.3" y="535.8021"/><text fill="#000000" font-family="sans-serif" font-size="9.8" lengthAdjust="spacing" textLength="110.6" x="788.2" y="551.2773">subscription:Subscription</text><rect fill="#E2E2F0" height="22.8348" rx="1.75" ry="1.75" style="stroke:#181818;stroke-width:0.3499999999999999;" width="140" x="910.7" y="62.7348"/><text fill="#000000" font-family="sans-serif" font-size="9.8" lengthAdjust="spacing" textLength="130.2" x="915.6" y="78.21">:mapper: SubscriptionMapper</text><rect fill="#E2E2F0" height="22.8348" rx="1.75" ry="1.75" style="stroke:#181818;stroke-width:0.3499999999999999;" width="140" x="910.7" y="535.8021"/><text fill="#000000" font-family="sans-serif" font-size="9.8" lengthAdjust="spacing" textLength="130.2" x="915.6" y="551.2773">:mapper: SubscriptionMapper</text><rect fill="#FFFFFF" height="436.9326" style="stroke:#181818;stroke-width:0.6999999999999998;" width="7" x="12.25" y="93.2695"/><rect fill="#FFFFFF" height="414.3289" style="stroke:#181818;stroke-width:0.6999999999999998;" width="7" x="170.45" y="109.5732"/><rect fill="#FFFFFF" height="21.9037" style="stroke:#181818;stroke-width:0.6999999999999998;" width="7" x="301.35" y="131.477"/><rect fill="#FFFFFF" height="21.9037" style="stroke:#181818;stroke-width:0.6999999999999998;" width="7" x="380.8" y="175.2844"/><rect fill="#FFFFFF" height="185.2607" style="stroke:#181818;stroke-width:0.6999999999999998;" width="7" x="564.9" y="268.0303"/><rect fill="#FFFFFF" height="21.9037" style="stroke:#181818;stroke-width:0.6999999999999998;" width="7" x="705.25" y="289.934"/><rect fill="#FFFFFF" height="26.8037" style="stroke:#181818;stroke-width:0.6999999999999998;" width="7" x="705.25" y="404.5836"/><rect fill="#FFFFFF" height="147.5223" style="stroke:#181818;stroke-width:0.6999999999999998;" width="7" x="840" y="382.6799"/><rect fill="#FFFFFF" height="21.9037" style="stroke:#181818;stroke-width:0.6999999999999998;" width="7" x="977.2" y="475.1947"/><polygon fill="#181818" points="162.05,106.7732,169.05,109.5732,162.05,112.3732,164.85,109.5732" style="stroke:#181818;stroke-width:0.6999999999999998;"/><line style="stroke:#181818;stroke-width:0.6999999999999998;" x1="19.25" x2="166.25" y1="109.5732" y2="109.5732"/><text fill="#000000" font-family="sans-serif" font-size="9.1" font-weight="bold" lengthAdjust="spacing" textLength="4.9" x="24.15" y="105.8894">1</text><text fill="#000000" font-family="sans-serif" font-size="9.1" lengthAdjust="spacing" textLength="130.2" x="31.85" y="105.8894">PUT/api/subscriptions/reactivate</text><polygon fill="#181818" points="292.95,128.677,299.95,131.477,292.95,134.277,295.75,131.477" style="stroke:#181818;stroke-width:0.6999999999999998;"/><line style="stroke:#181818;stroke-width:0.6999999999999998;" x1="177.45" x2="297.15" y1="131.477" y2="131.477"/><text fill="#000000" font-family="sans-serif" font-size="9.1" font-weight="bold" lengthAdjust="spacing" textLength="4.9" x="182.35" y="127.7931">2</text><text fill="#000000" font-family="sans-serif" font-size="9.1" lengthAdjust="spacing" textLength="102.9" x="190.05" y="127.7931">getUserByToken(request)</text><polygon fill="#181818" points="185.15,150.5807,178.15,153.3807,185.15,156.1807,182.35,153.3807" style="stroke:#181818;stroke-width:0.6999999999999998;"/><line style="stroke:#181818;stroke-width:0.6999999999999998;stroke-dasharray:2.0,2.0;" x1="180.95" x2="304.15" y1="153.3807" y2="153.3807"/><text fill="#000000" font-family="sans-serif" font-size="9.1" font-weight="bold" lengthAdjust="spacing" textLength="4.9" x="189.35" y="149.6968">3</text><text fill="#000000" font-family="sans-serif" font-size="9.1" lengthAdjust="spacing" textLength="24.5" x="197.05" y="149.6968">userId</text><polygon fill="#181818" points="372.4,172.4844,379.4,175.2844,372.4,178.0844,375.2,175.2844" style="stroke:#181818;stroke-width:0.6999999999999998;"/><line style="stroke:#181818;stroke-width:0.6999999999999998;" x1="177.45" x2="376.6" y1="175.2844" y2="175.2844"/><text fill="#000000" font-family="sans-serif" font-size="9.1" font-weight="bold" lengthAdjust="spacing" textLength="4.9" x="182.35" y="171.6005">4</text><text fill="#000000" font-family="sans-serif" font-size="9.1" lengthAdjust="spacing" textLength="62.3" x="190.05" y="171.6005">findById(userId)</text><polygon fill="#181818" points="185.15,194.3881,178.15,197.1881,185.15,199.9881,182.35,197.1881" style="stroke:#181818;stroke-width:0.6999999999999998;"/><line style="stroke:#181818;stroke-width:0.6999999999999998;stroke-dasharray:2.0,2.0;" x1="180.95" x2="383.6" y1="197.1881" y2="197.1881"/><text fill="#000000" font-family="sans-serif" font-size="9.1" font-weight="bold" lengthAdjust="spacing" textLength="4.9" x="189.35" y="193.5042">5</text><text fill="#000000" font-family="sans-serif" font-size="9.1" lengthAdjust="spacing" textLength="17.5" x="197.05" y="193.5042">user</text><polygon fill="#181818" points="434.7,216.2918,441.7,219.0918,434.7,221.8918,437.5,219.0918" style="stroke:#181818;stroke-width:0.6999999999999998;"/><line style="stroke:#181818;stroke-width:0.6999999999999998;" x1="177.45" x2="438.9" y1="219.0918" y2="219.0918"/><text fill="#000000" font-family="sans-serif" font-size="9.1" font-weight="bold" lengthAdjust="spacing" textLength="4.9" x="182.35" y="215.4079">6</text><text fill="#000000" font-family="sans-serif" font-size="9.1" lengthAdjust="spacing" textLength="61.6" x="190.05" y="215.4079">getAuthorities()</text><rect fill="#E2E2F0" height="22.8348" rx="1.75" ry="1.75" style="stroke:#181818;stroke-width:0.3499999999999999;" width="52.5" x="443.1" y="202.7881"/><text fill="#000000" font-family="sans-serif" font-size="9.8" lengthAdjust="spacing" textLength="42.7" x="448" y="218.2633">user:User</text><path d="M111.65,238.2229 L154.35,238.2229 L154.35,244.7266 L147.35,251.7266 L111.65,251.7266 L111.65,238.2229 " fill="#EEEEEE" style="stroke:#000000;stroke-width:1.0499999999999998;"/><rect fill="none" height="264.4756" style="stroke:#000000;stroke-width:1.0499999999999998;" width="946.05" x="111.65" y="238.2229"/><text fill="#000000" font-family="sans-serif" font-size="9.1" font-weight="bold" lengthAdjust="spacing" textLength="11.2" x="122.15" y="248.7427">alt</text><text fill="#000000" font-family="sans-serif" font-size="7.7" font-weight="bold" lengthAdjust="spacing" textLength="113.4" x="164.85" y="247.9319">[if(user.role = "SUBSCRIBER")]</text><polygon fill="#181818" points="556.5,265.2303,563.5,268.0303,556.5,270.8303,559.3,268.0303" style="stroke:#181818;stroke-width:0.6999999999999998;"/><line style="stroke:#181818;stroke-width:0.6999999999999998;" x1="177.45" x2="560.7" y1="268.0303" y2="268.0303"/><text fill="#000000" font-family="sans-serif" font-size="9.1" font-weight="bold" lengthAdjust="spacing" textLength="4.9" x="182.35" y="264.3464">7</text><text fill="#000000" font-family="sans-serif" font-size="9.1" lengthAdjust="spacing" textLength="70" x="190.05" y="264.3464">reActivate(userId)</text><polygon fill="#181818" points="696.85,287.134,703.85,289.934,696.85,292.734,699.65,289.934" style="stroke:#181818;stroke-width:0.6999999999999998;"/><line style="stroke:#181818;stroke-width:0.6999999999999998;" x1="571.9" x2="701.05" y1="289.934" y2="289.934"/><text fill="#000000" font-family="sans-serif" font-size="9.1" font-weight="bold" lengthAdjust="spacing" textLength="4.9" x="576.8" y="286.2501">8</text><text fill="#000000" font-family="sans-serif" font-size="9.1" lengthAdjust="spacing" textLength="81.2" x="584.5" y="286.2501">findByUserId(userId)</text><polygon fill="#181818" points="579.6,309.0377,572.6,311.8377,579.6,314.6377,576.8,311.8377" style="stroke:#181818;stroke-width:0.6999999999999998;"/><line style="stroke:#181818;stroke-width:0.6999999999999998;stroke-dasharray:2.0,2.0;" x1="575.4" x2="708.05" y1="311.8377" y2="311.8377"/><text fill="#000000" font-family="sans-serif" font-size="9.1" font-weight="bold" lengthAdjust="spacing" textLength="4.9" x="583.8" y="308.1538">9</text><text fill="#000000" font-family="sans-serif" font-size="9.1" lengthAdjust="spacing" textLength="49" x="591.5" y="308.1538">subscription</text><path d="M495.6,322.3377 L538.3,322.3377 L538.3,328.8414 L531.3,335.8414 L495.6,335.8414 L495.6,322.3377 " fill="#EEEEEE" style="stroke:#000000;stroke-width:1.0499999999999998;"/><rect fill="none" height="87.8459" style="stroke:#000000;stroke-width:1.0499999999999998;" width="428.4" x="495.6" y="322.3377"/><text fill="#000000" font-family="sans-serif" font-size="9.1" font-weight="bold" lengthAdjust="spacing" textLength="11.2" x="506.1" y="332.8575">alt</text><text fill="#000000" font-family="sans-serif" font-size="7.7" font-weight="bold" lengthAdjust="spacing" textLength="371.7" x="548.8" y="332.0468">[subscription.calculateDate(sub.getSubscriptionDate(), subscription.getCancellationDate()) &lt;= 30]</text><polygon fill="#181818" points="774.9,349.3451,781.9,352.1451,774.9,354.9451,777.7,352.1451" style="stroke:#181818;stroke-width:0.6999999999999998;"/><line style="stroke:#181818;stroke-width:0.6999999999999998;" x1="571.9" x2="779.1" y1="352.1451" y2="352.1451"/><text fill="#000000" font-family="sans-serif" font-size="9.1" font-weight="bold" lengthAdjust="spacing" textLength="9.8" x="576.8" y="348.4612">10</text><text fill="#000000" font-family="sans-serif" font-size="9.1" lengthAdjust="spacing" textLength="58.1" x="589.4" y="348.4612">setActive(true)</text><rect fill="#E2E2F0" height="22.8348" rx="1.75" ry="1.75" style="stroke:#181818;stroke-width:0.3499999999999999;" width="120.4" x="783.3" y="335.8414"/><text fill="#000000" font-family="sans-serif" font-size="9.8" lengthAdjust="spacing" textLength="110.6" x="788.2" y="351.3166">subscription:Subscription</text><polygon fill="#181818" points="831.6,379.8799,838.6,382.6799,831.6,385.4799,834.4,382.6799" style="stroke:#181818;stroke-width:0.6999999999999998;"/><line style="stroke:#181818;stroke-width:0.6999999999999998;" x1="571.9" x2="835.8" y1="382.6799" y2="382.6799"/><text fill="#000000" font-family="sans-serif" font-size="9.1" font-weight="bold" lengthAdjust="spacing" textLength="9.8" x="576.8" y="378.996">11</text><text fill="#000000" font-family="sans-serif" font-size="9.1" lengthAdjust="spacing" textLength="102.9" x="589.4" y="378.996">removeCancellationDate()</text><polygon fill="#181818" points="696.85,401.7836,703.85,404.5836,696.85,407.3836,699.65,404.5836" style="stroke:#181818;stroke-width:0.6999999999999998;"/><line style="stroke:#181818;stroke-width:0.6999999999999998;" x1="571.9" x2="701.05" y1="404.5836" y2="404.5836"/><text fill="#000000" font-family="sans-serif" font-size="9.1" font-weight="bold" lengthAdjust="spacing" textLength="9.8" x="576.8" y="400.8997">12</text><text fill="#000000" font-family="sans-serif" font-size="9.1" lengthAdjust="spacing" textLength="72.8" x="589.4" y="400.8997">save(subscription)</text><polygon fill="#181818" points="579.6,428.5873,572.6,431.3873,579.6,434.1873,576.8,431.3873" style="stroke:#181818;stroke-width:0.6999999999999998;"/><line style="stroke:#181818;stroke-width:0.6999999999999998;stroke-dasharray:2.0,2.0;" x1="575.4" x2="708.05" y1="431.3873" y2="431.3873"/><text fill="#000000" font-family="sans-serif" font-size="9.1" font-weight="bold" lengthAdjust="spacing" textLength="9.8" x="583.8" y="427.7034">13</text><text fill="#000000" font-family="sans-serif" font-size="9.1" lengthAdjust="spacing" textLength="49" x="596.4" y="427.7034">subscription</text><polygon fill="#181818" points="185.15,450.491,178.15,453.291,185.15,456.091,182.35,453.291" style="stroke:#181818;stroke-width:0.6999999999999998;"/><line style="stroke:#181818;stroke-width:0.6999999999999998;stroke-dasharray:2.0,2.0;" x1="180.95" x2="567.7" y1="453.291" y2="453.291"/><text fill="#000000" font-family="sans-serif" font-size="9.1" font-weight="bold" lengthAdjust="spacing" textLength="9.8" x="189.35" y="449.6071">14</text><text fill="#000000" font-family="sans-serif" font-size="9.1" lengthAdjust="spacing" textLength="49" x="201.95" y="449.6071">subscription</text><polygon fill="#181818" points="968.8,472.3947,975.8,475.1947,968.8,477.9947,971.6,475.1947" style="stroke:#181818;stroke-width:0.6999999999999998;"/><line style="stroke:#181818;stroke-width:0.6999999999999998;" x1="177.45" x2="973" y1="475.1947" y2="475.1947"/><text fill="#000000" font-family="sans-serif" font-size="9.1" font-weight="bold" lengthAdjust="spacing" textLength="9.8" x="182.35" y="471.5108">15</text><text fill="#000000" font-family="sans-serif" font-size="9.1" lengthAdjust="spacing" textLength="130.9" x="194.95" y="471.5108">toSubscriptionDTO(subscription)</text><polygon fill="#181818" points="185.15,494.2984,178.15,497.0984,185.15,499.8984,182.35,497.0984" style="stroke:#181818;stroke-width:0.6999999999999998;"/><line style="stroke:#181818;stroke-width:0.6999999999999998;stroke-dasharray:2.0,2.0;" x1="180.95" x2="980" y1="497.0984" y2="497.0984"/><text fill="#000000" font-family="sans-serif" font-size="9.1" font-weight="bold" lengthAdjust="spacing" textLength="9.8" x="189.35" y="493.4146">16</text><text fill="#000000" font-family="sans-serif" font-size="9.1" lengthAdjust="spacing" textLength="67.2" x="201.95" y="493.4146">subscriptionDTO</text><polygon fill="#181818" points="26.95,521.1021,19.95,523.9021,26.95,526.7021,24.15,523.9021" style="stroke:#181818;stroke-width:0.6999999999999998;"/><line style="stroke:#181818;stroke-width:0.6999999999999998;stroke-dasharray:2.0,2.0;" x1="22.75" x2="173.25" y1="523.9021" y2="523.9021"/><text fill="#000000" font-family="sans-serif" font-size="9.1" font-weight="bold" lengthAdjust="spacing" textLength="9.8" x="31.15" y="520.2183">17</text><text fill="#000000" font-family="sans-serif" font-size="9.1" lengthAdjust="spacing" textLength="27.3" x="43.75" y="520.2183">200 ok</text><!--SRC=[dLFRZfim47ttLunuQLWr8MhVh6wbJRPIyr2r2ia7UC6xQwt1r9T8-VkERR20q8lA0p8pvvoPEHxUlLhR6LeKdMIjTOtSLAef3F_fU5lnTItOYsOD8LPOoU78MMN5XLaE38nxCfKMdHMgXR9dmEF0OCwgX5Pj-6vTyyGrvYghD6HdmtK6p80_a8vfAohHOH-GqNAalbUjrKhA7hstMixGNxdi-cmyplAQTuhwAaSy687Lhm7i-j0KxgCqDUVCJ0qJ5r7nIOjbZ0L2VnwdfmAXct5wrXMcRfiQspqX1mfcPoCth4CVA8oXtq9i8CIlS1lnbi8r4F-6zUTWCuKVvrF1Eb6Covj2fqKW7kRXqNSABznwXTtrfDvukz9-COpDISp3EYbxbmzruWzNGU5PjFNkUgXN4P6J8JKZZwZwxYvKVd3sLMbX1JUhd31fGJm7cGtk3uTxoChphjmV3xilnomdWCyWid1h53H_wETCpNZE0ZP8n7iR9ZW7nfGO4M6GnO9ZcmF3pp0ERYecAoUneqVV5QOsEFTO9CJpzrCMOlOC_q-9p8J9uTCzVDo6EdyO2uMylGRjzMRmbTMEv__0ylurwi9lA_-Dd9mqx1A6JDb8vMtzdtuk5anhTGCVjYFzBXIichXz-hxGNuB_HXjPnCyGvH7YTuN2X-qMr1lv1G00]--></g></svg>