<?xml version="1.0" encoding="us-ascii" standalone="no"?><svg xmlns="http://www.w3.org/2000/svg" xmlns:xlink="http://www.w3.org/1999/xlink" contentStyleType="text/css" height="2831px" preserveAspectRatio="none" style="width:2590px;height:2831px;background:#FFFFFF;" version="1.1" viewBox="0 0 2590 2831" width="2590px" zoomAndPan="magnify"><defs/><g><text fill="#000000" font-family="sans-serif" font-size="14" font-weight="bold" lengthAdjust="spacing" textLength="220" x="1186.5" y="28.1318">Get Revenue Sequence Diagram</text><rect fill="#FFFFFF" height="2613.626" style="stroke:#181818;stroke-width:1.0;" width="10" x="18" y="128.1973"/><rect fill="#FFFFFF" height="2583.6772" style="stroke:#181818;stroke-width:1.0;" width="10" x="244" y="149.146"/><rect fill="#FFFFFF" height="28.9487" style="stroke:#181818;stroke-width:1.0;" width="10" x="421" y="178.0947"/><rect fill="#FFFFFF" height="28.9487" style="stroke:#181818;stroke-width:1.0;" width="10" x="519" y="235.9922"/><rect fill="#FFFFFF" height="2337.9375" style="stroke:#181818;stroke-width:1.0;" width="10" x="740.5" y="358.937"/><rect fill="#FFFFFF" height="28" style="stroke:#181818;stroke-width:1.0;" width="10" x="745.5" y="751.6216"/><rect fill="#FFFFFF" height="28" style="stroke:#181818;stroke-width:1.0;" width="10" x="745.5" y="871.4678"/><rect fill="#FFFFFF" height="28" style="stroke:#181818;stroke-width:1.0;" width="10" x="745.5" y="957.4165"/><rect fill="#FFFFFF" height="28" style="stroke:#181818;stroke-width:1.0;" width="10" x="745.5" y="1077.2627"/><rect fill="#FFFFFF" height="28" style="stroke:#181818;stroke-width:1.0;" width="10" x="745.5" y="1163.2114"/><rect fill="#FFFFFF" height="28" style="stroke:#181818;stroke-width:1.0;" width="10" x="745.5" y="1283.0576"/><rect fill="#FFFFFF" height="28" style="stroke:#181818;stroke-width:1.0;" width="10" x="745.5" y="1369.0063"/><rect fill="#FFFFFF" height="28" style="stroke:#181818;stroke-width:1.0;" width="10" x="745.5" y="1440.9551"/><rect fill="#FFFFFF" height="28" style="stroke:#181818;stroke-width:1.0;" width="10" x="745.5" y="1560.8013"/><rect fill="#FFFFFF" height="28" style="stroke:#181818;stroke-width:1.0;" width="10" x="745.5" y="1795.6948"/><rect fill="#FFFFFF" height="28" style="stroke:#181818;stroke-width:1.0;" width="10" x="745.5" y="1867.6436"/><rect fill="#FFFFFF" height="28" style="stroke:#181818;stroke-width:1.0;" width="10" x="745.5" y="1939.5923"/><rect fill="#FFFFFF" height="28" style="stroke:#181818;stroke-width:1.0;" width="10" x="745.5" y="2011.541"/><rect fill="#FFFFFF" height="28" style="stroke:#181818;stroke-width:1.0;" width="10" x="745.5" y="2083.4897"/><rect fill="#FFFFFF" height="28" style="stroke:#181818;stroke-width:1.0;" width="10" x="745.5" y="2179.3872"/><rect fill="#FFFFFF" height="28" style="stroke:#181818;stroke-width:1.0;" width="10" x="745.5" y="2251.3359"/><rect fill="#FFFFFF" height="28" style="stroke:#181818;stroke-width:1.0;" width="10" x="745.5" y="2323.2847"/><rect fill="#FFFFFF" height="28" style="stroke:#181818;stroke-width:1.0;" width="10" x="745.5" y="2395.2334"/><rect fill="#FFFFFF" height="28" style="stroke:#181818;stroke-width:1.0;" width="10" x="745.5" y="2467.1821"/><rect fill="#FFFFFF" height="28.9487" style="stroke:#181818;stroke-width:1.0;" width="10" x="1161.5" y="411.8345"/><rect fill="#FFFFFF" height="28.9487" style="stroke:#181818;stroke-width:1.0;" width="10" x="1161.5" y="471.7319"/><rect fill="#FFFFFF" height="28.9487" style="stroke:#181818;stroke-width:1.0;" width="10" x="1310.5" y="685.7241"/><rect fill="#FFFFFF" height="28.9487" style="stroke:#181818;stroke-width:1.0;" width="10" x="1464.5" y="2638.9771"/><rect fill="#FFFFFF" height="14" style="stroke:#181818;stroke-width:1.0;" width="10" x="1792" y="618.8267"/><rect fill="#FFFFFF" height="14" style="stroke:#181818;stroke-width:1.0;" width="10" x="1857.5" y="1737.7461"/><rect fill="#FFFFFF" height="14" style="stroke:#181818;stroke-width:1.0;" width="10" x="1857.5" y="2596.0283"/><rect fill="#FFFFFF" height="28.9487" style="stroke:#181818;stroke-width:1.0;" width="10" x="1919.5" y="1679.8486"/><rect fill="#FFFFFF" height="28.9487" style="stroke:#181818;stroke-width:1.0;" width="10" x="1919.5" y="2538.1309"/><rect fill="none" height="2383.835" style="stroke:#000000;stroke-width:1.5;" width="2420" x="164" y="321.0396"/><rect fill="none" height="134.7437" style="stroke:#000000;stroke-width:1.5;" width="565.5" x="668" y="373.937"/><rect fill="none" height="1111.9194" style="stroke:#000000;stroke-width:1.5;" width="1926" x="648" y="647.8267"/><rect fill="none" height="119.8462" style="stroke:#000000;stroke-width:1.5;" width="256.5" x="658" y="801.6216"/><rect fill="none" height="88.8975" style="stroke:#000000;stroke-width:1.5;" width="236.5" x="668" y="825.5703"/><rect fill="none" height="119.8462" style="stroke:#000000;stroke-width:1.5;" width="554" x="658" y="1007.4165"/><rect fill="none" height="88.8975" style="stroke:#000000;stroke-width:1.5;" width="534" x="668" y="1031.3652"/><rect fill="none" height="119.8462" style="stroke:#000000;stroke-width:1.5;" width="555" x="658" y="1213.2114"/><rect fill="none" height="88.8975" style="stroke:#000000;stroke-width:1.5;" width="535" x="668" y="1237.1602"/><rect fill="none" height="119.8462" style="stroke:#000000;stroke-width:1.5;" width="367" x="658" y="1490.9551"/><rect fill="none" height="88.8975" style="stroke:#000000;stroke-width:1.5;" width="347" x="668" y="1514.9038"/><rect fill="none" height="376.6924" style="stroke:#000000;stroke-width:1.5;" width="503.5" x="668" y="2133.4897"/><line style="stroke:#181818;stroke-width:0.5;stroke-dasharray:5.0,5.0;" x1="23" x2="23" y1="118.1973" y2="2750.8232"/><line style="stroke:#181818;stroke-width:0.5;stroke-dasharray:5.0,5.0;" x1="249" x2="249" y1="118.1973" y2="2750.8232"/><line style="stroke:#181818;stroke-width:0.5;stroke-dasharray:5.0,5.0;" x1="426" x2="426" y1="118.1973" y2="2750.8232"/><line style="stroke:#181818;stroke-width:0.5;stroke-dasharray:5.0,5.0;" x1="524" x2="524" y1="118.1973" y2="2750.8232"/><line style="stroke:#181818;stroke-width:0.5;stroke-dasharray:5.0,5.0;" x1="630" x2="630" y1="303.4902" y2="2750.8232"/><line style="stroke:#181818;stroke-width:0.5;stroke-dasharray:5.0,5.0;" x1="745" x2="745" y1="118.1973" y2="2750.8232"/><line style="stroke:#181818;stroke-width:0.5;stroke-dasharray:5.0,5.0;" x1="1166.5" x2="1166.5" y1="118.1973" y2="2750.8232"/><line style="stroke:#181818;stroke-width:0.5;stroke-dasharray:5.0,5.0;" x1="1315.5" x2="1315.5" y1="118.1973" y2="2750.8232"/><line style="stroke:#181818;stroke-width:0.5;stroke-dasharray:5.0,5.0;" x1="1469.5" x2="1469.5" y1="118.1973" y2="2750.8232"/><line style="stroke:#181818;stroke-width:0.5;stroke-dasharray:5.0,5.0;" x1="1593.5" x2="1593.5" y1="118.1973" y2="2750.8232"/><line style="stroke:#181818;stroke-width:0.5;stroke-dasharray:5.0,5.0;" x1="1704.5" x2="1704.5" y1="118.1973" y2="2750.8232"/><line style="stroke:#181818;stroke-width:0.5;stroke-dasharray:5.0,5.0;" x1="1796.5" x2="1796.5" y1="546.23" y2="2750.8232"/><line style="stroke:#181818;stroke-width:0.5;stroke-dasharray:5.0,5.0;" x1="1862.5" x2="1862.5" y1="587.3286" y2="2750.8232"/><line style="stroke:#181818;stroke-width:0.5;stroke-dasharray:5.0,5.0;" x1="1924.5" x2="1924.5" y1="1648.3506" y2="2750.8232"/><line style="stroke:#181818;stroke-width:0.5;stroke-dasharray:5.0,5.0;" x1="2544" x2="2544" y1="118.1973" y2="2750.8232"/><text fill="#000000" font-family="sans-serif" font-size="14" lengthAdjust="spacing" textLength="30" x="5" y="115.2305">User</text><ellipse cx="23" cy="50.5986" fill="#E2E2F0" rx="8" ry="8" style="stroke:#181818;stroke-width:0.5;"/><path d="M23,58.5986 L23,85.5986 M10,66.5986 L36,66.5986 M23,85.5986 L10,100.5986 M23,85.5986 L36,100.5986 " fill="none" style="stroke:#181818;stroke-width:0.5;"/><text fill="#000000" font-family="sans-serif" font-size="14" lengthAdjust="spacing" textLength="30" x="5" y="2762.9551">User</text><ellipse cx="23" cy="2774.4219" fill="#E2E2F0" rx="8" ry="8" style="stroke:#181818;stroke-width:0.5;"/><path d="M23,2782.4219 L23,2809.4219 M10,2790.4219 L36,2790.4219 M23,2809.4219 L10,2824.4219 M23,2809.4219 L36,2824.4219 " fill="none" style="stroke:#181818;stroke-width:0.5;"/><rect fill="#E2E2F0" height="30.0986" rx="2.5" ry="2.5" style="stroke:#181818;stroke-width:0.5;" width="150" x="174" y="87.0986"/><text fill="#000000" font-family="sans-serif" font-size="14" lengthAdjust="spacing" textLength="136" x="181" y="107.2305">:DashboardController</text><rect fill="#E2E2F0" height="30.0986" rx="2.5" ry="2.5" style="stroke:#181818;stroke-width:0.5;" width="150" x="174" y="2749.8232"/><text fill="#000000" font-family="sans-serif" font-size="14" lengthAdjust="spacing" textLength="136" x="181" y="2769.9551">:DashboardController</text><rect fill="#E2E2F0" height="30.0986" rx="2.5" ry="2.5" style="stroke:#181818;stroke-width:0.5;" width="60" x="396" y="87.0986"/><text fill="#000000" font-family="sans-serif" font-size="14" lengthAdjust="spacing" textLength="46" x="403" y="107.2305">:Helper</text><rect fill="#E2E2F0" height="30.0986" rx="2.5" ry="2.5" style="stroke:#181818;stroke-width:0.5;" width="60" x="396" y="2749.8232"/><text fill="#000000" font-family="sans-serif" font-size="14" lengthAdjust="spacing" textLength="46" x="403" y="2769.9551">:Helper</text><rect fill="#E2E2F0" height="30.0986" rx="2.5" ry="2.5" style="stroke:#181818;stroke-width:0.5;" width="116" x="466" y="87.0986"/><text fill="#000000" font-family="sans-serif" font-size="14" lengthAdjust="spacing" textLength="102" x="473" y="107.2305">:UserRepository</text><rect fill="#E2E2F0" height="30.0986" rx="2.5" ry="2.5" style="stroke:#181818;stroke-width:0.5;" width="116" x="466" y="2749.8232"/><text fill="#000000" font-family="sans-serif" font-size="14" lengthAdjust="spacing" textLength="102" x="473" y="2769.9551">:UserRepository</text><rect fill="#E2E2F0" height="30.0986" rx="2.5" ry="2.5" style="stroke:#181818;stroke-width:0.5;" width="76" x="592" y="2749.8232"/><text fill="#000000" font-family="sans-serif" font-size="14" lengthAdjust="spacing" textLength="62" x="599" y="2769.9551">user:User</text><rect fill="#E2E2F0" height="30.0986" rx="2.5" ry="2.5" style="stroke:#181818;stroke-width:0.5;" width="135" x="678" y="87.0986"/><text fill="#000000" font-family="sans-serif" font-size="14" lengthAdjust="spacing" textLength="121" x="685" y="107.2305">:DashboardService</text><rect fill="#E2E2F0" height="30.0986" rx="2.5" ry="2.5" style="stroke:#181818;stroke-width:0.5;" width="135" x="678" y="2749.8232"/><text fill="#000000" font-family="sans-serif" font-size="14" lengthAdjust="spacing" textLength="121" x="685" y="2769.9551">:DashboardService</text><rect fill="#E2E2F0" height="30.0986" rx="2.5" ry="2.5" style="stroke:#181818;stroke-width:0.5;" width="114" x="1109.5" y="87.0986"/><text fill="#000000" font-family="sans-serif" font-size="14" lengthAdjust="spacing" textLength="100" x="1116.5" y="107.2305">:PlanRepository</text><rect fill="#E2E2F0" height="30.0986" rx="2.5" ry="2.5" style="stroke:#181818;stroke-width:0.5;" width="114" x="1109.5" y="2749.8232"/><text fill="#000000" font-family="sans-serif" font-size="14" lengthAdjust="spacing" textLength="100" x="1116.5" y="2769.9551">:PlanRepository</text><rect fill="#E2E2F0" height="30.0986" rx="2.5" ry="2.5" style="stroke:#181818;stroke-width:0.5;" width="164" x="1233.5" y="87.0986"/><text fill="#000000" font-family="sans-serif" font-size="14" lengthAdjust="spacing" textLength="150" x="1240.5" y="107.2305">:SubscriptionRepository</text><rect fill="#E2E2F0" height="30.0986" rx="2.5" ry="2.5" style="stroke:#181818;stroke-width:0.5;" width="164" x="1233.5" y="2749.8232"/><text fill="#000000" font-family="sans-serif" font-size="14" lengthAdjust="spacing" textLength="150" x="1240.5" y="2769.9551">:SubscriptionRepository</text><rect fill="#E2E2F0" height="30.0986" rx="2.5" ry="2.5" style="stroke:#181818;stroke-width:0.5;" width="124" x="1407.5" y="87.0986"/><text fill="#000000" font-family="sans-serif" font-size="14" lengthAdjust="spacing" textLength="110" x="1414.5" y="107.2305">:RevenueMapper</text><rect fill="#E2E2F0" height="30.0986" rx="2.5" ry="2.5" style="stroke:#181818;stroke-width:0.5;" width="124" x="1407.5" y="2749.8232"/><text fill="#000000" font-family="sans-serif" font-size="14" lengthAdjust="spacing" textLength="110" x="1414.5" y="2769.9551">:RevenueMapper</text><rect fill="#E2E2F0" height="30.0986" rx="2.5" ry="2.5" style="stroke:#181818;stroke-width:0.5;" width="105" x="1541.5" y="87.0986"/><text fill="#000000" font-family="sans-serif" font-size="14" lengthAdjust="spacing" textLength="91" x="1548.5" y="107.2305">:RevenueDTO</text><rect fill="#E2E2F0" height="30.0986" rx="2.5" ry="2.5" style="stroke:#181818;stroke-width:0.5;" width="105" x="1541.5" y="2749.8232"/><text fill="#000000" font-family="sans-serif" font-size="14" lengthAdjust="spacing" textLength="91" x="1548.5" y="2769.9551">:RevenueDTO</text><rect fill="#E2E2F0" height="30.0986" rx="2.5" ry="2.5" style="stroke:#181818;stroke-width:0.5;" width="97" x="1656.5" y="87.0986"/><text fill="#000000" font-family="sans-serif" font-size="14" lengthAdjust="spacing" textLength="83" x="1663.5" y="107.2305">:RevenueObj</text><rect fill="#E2E2F0" height="30.0986" rx="2.5" ry="2.5" style="stroke:#181818;stroke-width:0.5;" width="97" x="1656.5" y="2749.8232"/><text fill="#000000" font-family="sans-serif" font-size="14" lengthAdjust="spacing" textLength="83" x="1663.5" y="2769.9551">:RevenueObj</text><rect fill="#E2E2F0" height="30.0986" rx="2.5" ry="2.5" style="stroke:#181818;stroke-width:0.5;" width="67" x="1763.5" y="2749.8232"/><text fill="#000000" font-family="sans-serif" font-size="14" lengthAdjust="spacing" textLength="53" x="1770.5" y="2769.9551">columns</text><rect fill="#E2E2F0" height="30.0986" rx="2.5" ry="2.5" style="stroke:#181818;stroke-width:0.5;" width="44" x="1840.5" y="2749.8232"/><text fill="#000000" font-family="sans-serif" font-size="14" lengthAdjust="spacing" textLength="30" x="1847.5" y="2769.9551">rows</text><rect fill="#E2E2F0" height="30.0986" rx="2.5" ry="2.5" style="stroke:#181818;stroke-width:0.5;" width="60" x="1894.5" y="2749.8232"/><text fill="#000000" font-family="sans-serif" font-size="14" lengthAdjust="spacing" textLength="46" x="1901.5" y="2769.9551">Metrics</text><rect fill="#E2E2F0" height="30.0986" rx="2.5" ry="2.5" style="stroke:#181818;stroke-width:0.5;" width="39" x="2525" y="87.0986"/><text fill="#000000" font-family="sans-serif" font-size="14" lengthAdjust="spacing" textLength="25" x="2532" y="107.2305">SVc</text><rect fill="#E2E2F0" height="30.0986" rx="2.5" ry="2.5" style="stroke:#181818;stroke-width:0.5;" width="39" x="2525" y="2749.8232"/><text fill="#000000" font-family="sans-serif" font-size="14" lengthAdjust="spacing" textLength="25" x="2532" y="2769.9551">SVc</text><rect fill="#FFFFFF" height="2613.626" style="stroke:#181818;stroke-width:1.0;" width="10" x="18" y="128.1973"/><rect fill="#FFFFFF" height="2583.6772" style="stroke:#181818;stroke-width:1.0;" width="10" x="244" y="149.146"/><rect fill="#FFFFFF" height="28.9487" style="stroke:#181818;stroke-width:1.0;" width="10" x="421" y="178.0947"/><rect fill="#FFFFFF" height="28.9487" style="stroke:#181818;stroke-width:1.0;" width="10" x="519" y="235.9922"/><rect fill="#FFFFFF" height="2337.9375" style="stroke:#181818;stroke-width:1.0;" width="10" x="740.5" y="358.937"/><rect fill="#FFFFFF" height="28" style="stroke:#181818;stroke-width:1.0;" width="10" x="745.5" y="751.6216"/><rect fill="#FFFFFF" height="28" style="stroke:#181818;stroke-width:1.0;" width="10" x="745.5" y="871.4678"/><rect fill="#FFFFFF" height="28" style="stroke:#181818;stroke-width:1.0;" width="10" x="745.5" y="957.4165"/><rect fill="#FFFFFF" height="28" style="stroke:#181818;stroke-width:1.0;" width="10" x="745.5" y="1077.2627"/><rect fill="#FFFFFF" height="28" style="stroke:#181818;stroke-width:1.0;" width="10" x="745.5" y="1163.2114"/><rect fill="#FFFFFF" height="28" style="stroke:#181818;stroke-width:1.0;" width="10" x="745.5" y="1283.0576"/><rect fill="#FFFFFF" height="28" style="stroke:#181818;stroke-width:1.0;" width="10" x="745.5" y="1369.0063"/><rect fill="#FFFFFF" height="28" style="stroke:#181818;stroke-width:1.0;" width="10" x="745.5" y="1440.9551"/><rect fill="#FFFFFF" height="28" style="stroke:#181818;stroke-width:1.0;" width="10" x="745.5" y="1560.8013"/><rect fill="#FFFFFF" height="28" style="stroke:#181818;stroke-width:1.0;" width="10" x="745.5" y="1795.6948"/><rect fill="#FFFFFF" height="28" style="stroke:#181818;stroke-width:1.0;" width="10" x="745.5" y="1867.6436"/><rect fill="#FFFFFF" height="28" style="stroke:#181818;stroke-width:1.0;" width="10" x="745.5" y="1939.5923"/><rect fill="#FFFFFF" height="28" style="stroke:#181818;stroke-width:1.0;" width="10" x="745.5" y="2011.541"/><rect fill="#FFFFFF" height="28" style="stroke:#181818;stroke-width:1.0;" width="10" x="745.5" y="2083.4897"/><rect fill="#FFFFFF" height="28" style="stroke:#181818;stroke-width:1.0;" width="10" x="745.5" y="2179.3872"/><rect fill="#FFFFFF" height="28" style="stroke:#181818;stroke-width:1.0;" width="10" x="745.5" y="2251.3359"/><rect fill="#FFFFFF" height="28" style="stroke:#181818;stroke-width:1.0;" width="10" x="745.5" y="2323.2847"/><rect fill="#FFFFFF" height="28" style="stroke:#181818;stroke-width:1.0;" width="10" x="745.5" y="2395.2334"/><rect fill="#FFFFFF" height="28" style="stroke:#181818;stroke-width:1.0;" width="10" x="745.5" y="2467.1821"/><rect fill="#FFFFFF" height="28.9487" style="stroke:#181818;stroke-width:1.0;" width="10" x="1161.5" y="411.8345"/><rect fill="#FFFFFF" height="28.9487" style="stroke:#181818;stroke-width:1.0;" width="10" x="1161.5" y="471.7319"/><rect fill="#FFFFFF" height="28.9487" style="stroke:#181818;stroke-width:1.0;" width="10" x="1310.5" y="685.7241"/><rect fill="#FFFFFF" height="28.9487" style="stroke:#181818;stroke-width:1.0;" width="10" x="1464.5" y="2638.9771"/><rect fill="#FFFFFF" height="14" style="stroke:#181818;stroke-width:1.0;" width="10" x="1792" y="618.8267"/><rect fill="#FFFFFF" height="14" style="stroke:#181818;stroke-width:1.0;" width="10" x="1857.5" y="1737.7461"/><rect fill="#FFFFFF" height="14" style="stroke:#181818;stroke-width:1.0;" width="10" x="1857.5" y="2596.0283"/><rect fill="#FFFFFF" height="28.9487" style="stroke:#181818;stroke-width:1.0;" width="10" x="1919.5" y="1679.8486"/><rect fill="#FFFFFF" height="28.9487" style="stroke:#181818;stroke-width:1.0;" width="10" x="1919.5" y="2538.1309"/><polygon fill="#181818" points="232,145.146,242,149.146,232,153.146,236,149.146" style="stroke:#181818;stroke-width:1.0;"/><line style="stroke:#181818;stroke-width:1.0;" x1="28" x2="238" y1="149.146" y2="149.146"/><text fill="#000000" font-family="sans-serif" font-size="13" lengthAdjust="spacing" textLength="197" x="35" y="144.3911">GET /api/dashboard/revenue?plan</text><polygon fill="#181818" points="409,174.0947,419,178.0947,409,182.0947,413,178.0947" style="stroke:#181818;stroke-width:1.0;"/><line style="stroke:#181818;stroke-width:1.0;" x1="254" x2="415" y1="178.0947" y2="178.0947"/><text fill="#000000" font-family="sans-serif" font-size="13" lengthAdjust="spacing" textLength="148" x="261" y="173.3398">getUserByToken(request)</text><polygon fill="#181818" points="265,203.0435,255,207.0435,265,211.0435,261,207.0435" style="stroke:#181818;stroke-width:1.0;"/><line style="stroke:#181818;stroke-width:1.0;stroke-dasharray:2.0,2.0;" x1="259" x2="425" y1="207.0435" y2="207.0435"/><text fill="#000000" font-family="sans-serif" font-size="13" lengthAdjust="spacing" textLength="36" x="271" y="202.2886">userId</text><polygon fill="#181818" points="507,231.9922,517,235.9922,507,239.9922,511,235.9922" style="stroke:#181818;stroke-width:1.0;"/><line style="stroke:#181818;stroke-width:1.0;" x1="254" x2="513" y1="235.9922" y2="235.9922"/><text fill="#000000" font-family="sans-serif" font-size="13" lengthAdjust="spacing" textLength="92" x="261" y="231.2373">findById(userId)</text><polygon fill="#181818" points="265,260.9409,255,264.9409,265,268.9409,261,264.9409" style="stroke:#181818;stroke-width:1.0;"/><line style="stroke:#181818;stroke-width:1.0;stroke-dasharray:2.0,2.0;" x1="259" x2="523" y1="264.9409" y2="264.9409"/><text fill="#000000" font-family="sans-serif" font-size="13" lengthAdjust="spacing" textLength="25" x="271" y="260.186">user</text><polygon fill="#181818" points="580,289.8896,590,293.8896,580,297.8896,584,293.8896" style="stroke:#181818;stroke-width:1.0;"/><line style="stroke:#181818;stroke-width:1.0;" x1="254" x2="586" y1="293.8896" y2="293.8896"/><text fill="#000000" font-family="sans-serif" font-size="13" lengthAdjust="spacing" textLength="88" x="261" y="289.1348">getAuthorities()</text><rect fill="#E2E2F0" height="30.0986" rx="2.5" ry="2.5" style="stroke:#181818;stroke-width:0.5;" width="76" x="592" y="272.9409"/><text fill="#000000" font-family="sans-serif" font-size="14" lengthAdjust="spacing" textLength="62" x="599" y="293.0728">user:User</text><path d="M164,321.0396 L224,321.0396 L224,327.9883 L214,337.9883 L164,337.9883 L164,321.0396 " fill="#EEEEEE" style="stroke:#000000;stroke-width:1.5;"/><rect fill="none" height="2383.835" style="stroke:#000000;stroke-width:1.5;" width="2420" x="164" y="321.0396"/><text fill="#000000" font-family="sans-serif" font-size="13" font-weight="bold" lengthAdjust="spacing" textLength="15" x="179" y="334.2334">alt</text><text fill="#000000" font-family="sans-serif" font-size="11" font-weight="bold" lengthAdjust="spacing" textLength="360" x="239" y="333.3574">[if(user.role = "PRODUCT_MANAGER" or "FINANCIAL_DIRECTOR")]</text><polygon fill="#181818" points="728.5,354.937,738.5,358.937,728.5,362.937,732.5,358.937" style="stroke:#181818;stroke-width:1.0;"/><line style="stroke:#181818;stroke-width:1.0;" x1="254" x2="734.5" y1="358.937" y2="358.937"/><text fill="#000000" font-family="sans-serif" font-size="13" lengthAdjust="spacing" textLength="164" x="261" y="354.1821">calculateRevenue(planFilter)</text><path d="M668,373.937 L728,373.937 L728,380.8857 L718,390.8857 L668,390.8857 L668,373.937 " fill="#EEEEEE" style="stroke:#000000;stroke-width:1.5;"/><rect fill="none" height="134.7437" style="stroke:#000000;stroke-width:1.5;" width="565.5" x="668" y="373.937"/><text fill="#000000" font-family="sans-serif" font-size="13" font-weight="bold" lengthAdjust="spacing" textLength="15" x="683" y="387.1309">alt</text><text fill="#000000" font-family="sans-serif" font-size="11" font-weight="bold" lengthAdjust="spacing" textLength="102" x="743" y="386.2549">[if planFilter exists]</text><polygon fill="#181818" points="1149.5,407.8345,1159.5,411.8345,1149.5,415.8345,1153.5,411.8345" style="stroke:#181818;stroke-width:1.0;"/><line style="stroke:#181818;stroke-width:1.0;" x1="750.5" x2="1155.5" y1="411.8345" y2="411.8345"/><text fill="#000000" font-family="sans-serif" font-size="13" lengthAdjust="spacing" textLength="53" x="757.5" y="407.0796">find(plan)</text><polygon fill="#181818" points="761.5,436.7832,751.5,440.7832,761.5,444.7832,757.5,440.7832" style="stroke:#181818;stroke-width:1.0;"/><line style="stroke:#181818;stroke-width:1.0;stroke-dasharray:2.0,2.0;" x1="755.5" x2="1165.5" y1="440.7832" y2="440.7832"/><text fill="#000000" font-family="sans-serif" font-size="13" lengthAdjust="spacing" textLength="65" x="767.5" y="436.0283">filteredPlan</text><line style="stroke:#000000;stroke-width:1.0;stroke-dasharray:2.0,2.0;" x1="668" x2="1233.5" y1="449.7832" y2="449.7832"/><polygon fill="#181818" points="1149.5,467.7319,1159.5,471.7319,1149.5,475.7319,1153.5,471.7319" style="stroke:#181818;stroke-width:1.0;"/><line style="stroke:#181818;stroke-width:1.0;" x1="750.5" x2="1155.5" y1="471.7319" y2="471.7319"/><text fill="#000000" font-family="sans-serif" font-size="13" lengthAdjust="spacing" textLength="44" x="757.5" y="466.9771">findAll()</text><polygon fill="#181818" points="761.5,496.6807,751.5,500.6807,761.5,504.6807,757.5,500.6807" style="stroke:#181818;stroke-width:1.0;"/><line style="stroke:#181818;stroke-width:1.0;stroke-dasharray:2.0,2.0;" x1="755.5" x2="1165.5" y1="500.6807" y2="500.6807"/><text fill="#000000" font-family="sans-serif" font-size="13" lengthAdjust="spacing" textLength="31" x="767.5" y="495.9258">plans</text><polygon fill="#181818" points="1751.5,517.6807,1761.5,521.6807,1751.5,525.6807,1755.5,521.6807" style="stroke:#181818;stroke-width:1.0;"/><line style="stroke:#181818;stroke-width:1.0;" x1="750.5" x2="1757.5" y1="521.6807" y2="521.6807"/><rect fill="#E2E2F0" height="30.0986" rx="2.5" ry="2.5" style="stroke:#181818;stroke-width:0.5;" width="67" x="1763.5" y="515.6807"/><text fill="#000000" font-family="sans-serif" font-size="14" lengthAdjust="spacing" textLength="53" x="1770.5" y="535.8125">columns</text><polygon fill="#181818" points="1828.5,558.7793,1838.5,562.7793,1828.5,566.7793,1832.5,562.7793" style="stroke:#181818;stroke-width:1.0;"/><line style="stroke:#181818;stroke-width:1.0;" x1="750.5" x2="1834.5" y1="562.7793" y2="562.7793"/><rect fill="#E2E2F0" height="30.0986" rx="2.5" ry="2.5" style="stroke:#181818;stroke-width:0.5;" width="44" x="1840.5" y="556.7793"/><text fill="#000000" font-family="sans-serif" font-size="14" lengthAdjust="spacing" textLength="30" x="1847.5" y="576.9111">rows</text><polygon fill="#181818" points="1780,614.8267,1790,618.8267,1780,622.8267,1784,618.8267" style="stroke:#181818;stroke-width:1.0;"/><line style="stroke:#181818;stroke-width:1.0;" x1="750.5" x2="1786" y1="618.8267" y2="618.8267"/><text fill="#000000" font-family="sans-serif" font-size="13" lengthAdjust="spacing" textLength="166" x="757.5" y="614.0718">add("Plan", "Metric", "Total")</text><polygon fill="#181818" points="761.5,628.8267,751.5,632.8267,761.5,636.8267,757.5,632.8267" style="stroke:#181818;stroke-width:1.0;"/><line style="stroke:#181818;stroke-width:1.0;stroke-dasharray:2.0,2.0;" x1="755.5" x2="1796" y1="632.8267" y2="632.8267"/><path d="M648,647.8267 L770,647.8267 L770,654.7754 L760,664.7754 L648,664.7754 L648,647.8267 " fill="#EEEEEE" style="stroke:#000000;stroke-width:1.5;"/><rect fill="none" height="1111.9194" style="stroke:#000000;stroke-width:1.5;" width="1926" x="648" y="647.8267"/><text fill="#000000" font-family="sans-serif" font-size="13" font-weight="bold" lengthAdjust="spacing" textLength="77" x="663" y="661.0205">foreach plan</text><polygon fill="#181818" points="1298.5,681.7241,1308.5,685.7241,1298.5,689.7241,1302.5,685.7241" style="stroke:#181818;stroke-width:1.0;"/><line style="stroke:#181818;stroke-width:1.0;" x1="750.5" x2="1304.5" y1="685.7241" y2="685.7241"/><text fill="#000000" font-family="sans-serif" font-size="13" lengthAdjust="spacing" textLength="211" x="757.5" y="680.9692">findByPlanName(plan.getPlanName)</text><polygon fill="#181818" points="761.5,710.6729,751.5,714.6729,761.5,718.6729,757.5,714.6729" style="stroke:#181818;stroke-width:1.0;"/><line style="stroke:#181818;stroke-width:1.0;stroke-dasharray:2.0,2.0;" x1="755.5" x2="1314.5" y1="714.6729" y2="714.6729"/><text fill="#000000" font-family="sans-serif" font-size="13" lengthAdjust="spacing" textLength="77" x="767.5" y="709.918">subscriptions</text><line style="stroke:#181818;stroke-width:1.0;" x1="755.5" x2="797.5" y1="743.6216" y2="743.6216"/><line style="stroke:#181818;stroke-width:1.0;" x1="797.5" x2="797.5" y1="743.6216" y2="756.6216"/><line style="stroke:#181818;stroke-width:1.0;" x1="756.5" x2="797.5" y1="756.6216" y2="756.6216"/><polygon fill="#181818" points="766.5,752.6216,756.5,756.6216,766.5,760.6216,762.5,756.6216" style="stroke:#181818;stroke-width:1.0;"/><text fill="#000000" font-family="sans-serif" font-size="13" lengthAdjust="spacing" textLength="137" x="762.5" y="738.8667">activeSubscriptions = 0</text><path d="M658,801.6216 L831,801.6216 L831,808.5703 L821,818.5703 L658,818.5703 L658,801.6216 " fill="#EEEEEE" style="stroke:#000000;stroke-width:1.5;"/><rect fill="none" height="119.8462" style="stroke:#000000;stroke-width:1.5;" width="256.5" x="658" y="801.6216"/><text fill="#000000" font-family="sans-serif" font-size="13" font-weight="bold" lengthAdjust="spacing" textLength="128" x="673" y="814.8154">foreach subscription</text><path d="M668,825.5703 L728,825.5703 L728,832.519 L718,842.519 L668,842.519 L668,825.5703 " fill="#EEEEEE" style="stroke:#000000;stroke-width:1.5;"/><rect fill="none" height="88.8975" style="stroke:#000000;stroke-width:1.5;" width="236.5" x="668" y="825.5703"/><text fill="#000000" font-family="sans-serif" font-size="13" font-weight="bold" lengthAdjust="spacing" textLength="15" x="683" y="838.7642">alt</text><text fill="#000000" font-family="sans-serif" font-size="11" font-weight="bold" lengthAdjust="spacing" textLength="138" x="743" y="837.8882">[if subscription.isActive()]</text><line style="stroke:#181818;stroke-width:1.0;" x1="755.5" x2="797.5" y1="863.4678" y2="863.4678"/><line style="stroke:#181818;stroke-width:1.0;" x1="797.5" x2="797.5" y1="863.4678" y2="876.4678"/><line style="stroke:#181818;stroke-width:1.0;" x1="756.5" x2="797.5" y1="876.4678" y2="876.4678"/><polygon fill="#181818" points="766.5,872.4678,756.5,876.4678,766.5,880.4678,762.5,876.4678" style="stroke:#181818;stroke-width:1.0;"/><text fill="#000000" font-family="sans-serif" font-size="13" lengthAdjust="spacing" textLength="130" x="762.5" y="858.7129">activeSubscriptions++</text><line style="stroke:#181818;stroke-width:1.0;" x1="755.5" x2="797.5" y1="949.4165" y2="949.4165"/><line style="stroke:#181818;stroke-width:1.0;" x1="797.5" x2="797.5" y1="949.4165" y2="962.4165"/><line style="stroke:#181818;stroke-width:1.0;" x1="756.5" x2="797.5" y1="962.4165" y2="962.4165"/><polygon fill="#181818" points="766.5,958.4165,756.5,962.4165,766.5,966.4165,762.5,962.4165" style="stroke:#181818;stroke-width:1.0;"/><text fill="#000000" font-family="sans-serif" font-size="13" lengthAdjust="spacing" textLength="125" x="762.5" y="944.6616">newSubscriptions = 0</text><path d="M658,1007.4165 L831,1007.4165 L831,1014.3652 L821,1024.3652 L658,1024.3652 L658,1007.4165 " fill="#EEEEEE" style="stroke:#000000;stroke-width:1.5;"/><rect fill="none" height="119.8462" style="stroke:#000000;stroke-width:1.5;" width="554" x="658" y="1007.4165"/><text fill="#000000" font-family="sans-serif" font-size="13" font-weight="bold" lengthAdjust="spacing" textLength="128" x="673" y="1020.6104">foreach subscription</text><path d="M668,1031.3652 L728,1031.3652 L728,1038.314 L718,1048.314 L668,1048.314 L668,1031.3652 " fill="#EEEEEE" style="stroke:#000000;stroke-width:1.5;"/><rect fill="none" height="88.8975" style="stroke:#000000;stroke-width:1.5;" width="534" x="668" y="1031.3652"/><text fill="#000000" font-family="sans-serif" font-size="13" font-weight="bold" lengthAdjust="spacing" textLength="15" x="683" y="1044.5591">alt</text><text fill="#000000" font-family="sans-serif" font-size="11" font-weight="bold" lengthAdjust="spacing" textLength="454" x="743" y="1043.6831">[if subscription.isActive() AND subscription.subscriptionDate is from the last 30 days]</text><line style="stroke:#181818;stroke-width:1.0;" x1="755.5" x2="797.5" y1="1069.2627" y2="1069.2627"/><line style="stroke:#181818;stroke-width:1.0;" x1="797.5" x2="797.5" y1="1069.2627" y2="1082.2627"/><line style="stroke:#181818;stroke-width:1.0;" x1="756.5" x2="797.5" y1="1082.2627" y2="1082.2627"/><polygon fill="#181818" points="766.5,1078.2627,756.5,1082.2627,766.5,1086.2627,762.5,1082.2627" style="stroke:#181818;stroke-width:1.0;"/><text fill="#000000" font-family="sans-serif" font-size="13" lengthAdjust="spacing" textLength="118" x="762.5" y="1064.5078">newSubscriptions++</text><line style="stroke:#181818;stroke-width:1.0;" x1="755.5" x2="797.5" y1="1155.2114" y2="1155.2114"/><line style="stroke:#181818;stroke-width:1.0;" x1="797.5" x2="797.5" y1="1155.2114" y2="1168.2114"/><line style="stroke:#181818;stroke-width:1.0;" x1="756.5" x2="797.5" y1="1168.2114" y2="1168.2114"/><polygon fill="#181818" points="766.5,1164.2114,756.5,1168.2114,766.5,1172.2114,762.5,1168.2114" style="stroke:#181818;stroke-width:1.0;"/><text fill="#000000" font-family="sans-serif" font-size="13" lengthAdjust="spacing" textLength="99" x="762.5" y="1150.4565">cancellations = 0</text><path d="M658,1213.2114 L831,1213.2114 L831,1220.1602 L821,1230.1602 L658,1230.1602 L658,1213.2114 " fill="#EEEEEE" style="stroke:#000000;stroke-width:1.5;"/><rect fill="none" height="119.8462" style="stroke:#000000;stroke-width:1.5;" width="555" x="658" y="1213.2114"/><text fill="#000000" font-family="sans-serif" font-size="13" font-weight="bold" lengthAdjust="spacing" textLength="128" x="673" y="1226.4053">foreach subscription</text><path d="M668,1237.1602 L728,1237.1602 L728,1244.1089 L718,1254.1089 L668,1254.1089 L668,1237.1602 " fill="#EEEEEE" style="stroke:#000000;stroke-width:1.5;"/><rect fill="none" height="88.8975" style="stroke:#000000;stroke-width:1.5;" width="535" x="668" y="1237.1602"/><text fill="#000000" font-family="sans-serif" font-size="13" font-weight="bold" lengthAdjust="spacing" textLength="15" x="683" y="1250.354">alt</text><text fill="#000000" font-family="sans-serif" font-size="11" font-weight="bold" lengthAdjust="spacing" textLength="455" x="743" y="1249.478">[if !subscription.isActive() AND subscription.cancellationDate is from the last 30 days]</text><line style="stroke:#181818;stroke-width:1.0;" x1="755.5" x2="797.5" y1="1275.0576" y2="1275.0576"/><line style="stroke:#181818;stroke-width:1.0;" x1="797.5" x2="797.5" y1="1275.0576" y2="1288.0576"/><line style="stroke:#181818;stroke-width:1.0;" x1="756.5" x2="797.5" y1="1288.0576" y2="1288.0576"/><polygon fill="#181818" points="766.5,1284.0576,756.5,1288.0576,766.5,1292.0576,762.5,1288.0576" style="stroke:#181818;stroke-width:1.0;"/><text fill="#000000" font-family="sans-serif" font-size="13" lengthAdjust="spacing" textLength="92" x="762.5" y="1270.3027">cancellations++</text><line style="stroke:#181818;stroke-width:1.0;" x1="755.5" x2="797.5" y1="1361.0063" y2="1361.0063"/><line style="stroke:#181818;stroke-width:1.0;" x1="797.5" x2="797.5" y1="1361.0063" y2="1374.0063"/><line style="stroke:#181818;stroke-width:1.0;" x1="756.5" x2="797.5" y1="1374.0063" y2="1374.0063"/><polygon fill="#181818" points="766.5,1370.0063,756.5,1374.0063,766.5,1378.0063,762.5,1374.0063" style="stroke:#181818;stroke-width:1.0;"/><text fill="#000000" font-family="sans-serif" font-size="13" lengthAdjust="spacing" textLength="311" x="762.5" y="1356.2515">churnRate = cancellations / activeSubscriptions * 100</text><line style="stroke:#181818;stroke-width:1.0;" x1="755.5" x2="797.5" y1="1432.9551" y2="1432.9551"/><line style="stroke:#181818;stroke-width:1.0;" x1="797.5" x2="797.5" y1="1432.9551" y2="1445.9551"/><line style="stroke:#181818;stroke-width:1.0;" x1="756.5" x2="797.5" y1="1445.9551" y2="1445.9551"/><polygon fill="#181818" points="766.5,1441.9551,756.5,1445.9551,766.5,1449.9551,762.5,1445.9551" style="stroke:#181818;stroke-width:1.0;"/><text fill="#000000" font-family="sans-serif" font-size="13" lengthAdjust="spacing" textLength="69" x="762.5" y="1428.2002">revenue = 0</text><path d="M658,1490.9551 L831,1490.9551 L831,1497.9038 L821,1507.9038 L658,1507.9038 L658,1490.9551 " fill="#EEEEEE" style="stroke:#000000;stroke-width:1.5;"/><rect fill="none" height="119.8462" style="stroke:#000000;stroke-width:1.5;" width="367" x="658" y="1490.9551"/><text fill="#000000" font-family="sans-serif" font-size="13" font-weight="bold" lengthAdjust="spacing" textLength="128" x="673" y="1504.1489">foreach subscription</text><path d="M668,1514.9038 L728,1514.9038 L728,1521.8525 L718,1531.8525 L668,1531.8525 L668,1514.9038 " fill="#EEEEEE" style="stroke:#000000;stroke-width:1.5;"/><rect fill="none" height="88.8975" style="stroke:#000000;stroke-width:1.5;" width="347" x="668" y="1514.9038"/><text fill="#000000" font-family="sans-serif" font-size="13" font-weight="bold" lengthAdjust="spacing" textLength="15" x="683" y="1528.0977">alt</text><text fill="#000000" font-family="sans-serif" font-size="11" font-weight="bold" lengthAdjust="spacing" textLength="267" x="743" y="1527.2217">[if subscription.subscriptionDate is from this year]</text><line style="stroke:#181818;stroke-width:1.0;" x1="755.5" x2="797.5" y1="1552.8013" y2="1552.8013"/><line style="stroke:#181818;stroke-width:1.0;" x1="797.5" x2="797.5" y1="1552.8013" y2="1565.8013"/><line style="stroke:#181818;stroke-width:1.0;" x1="756.5" x2="797.5" y1="1565.8013" y2="1565.8013"/><polygon fill="#181818" points="766.5,1561.8013,756.5,1565.8013,766.5,1569.8013,762.5,1565.8013" style="stroke:#181818;stroke-width:1.0;"/><text fill="#000000" font-family="sans-serif" font-size="13" lengthAdjust="spacing" textLength="216" x="762.5" y="1548.0464">revenue += subscription.paymentFee</text><polygon fill="#181818" points="1882.5,1619.8013,1892.5,1623.8013,1882.5,1627.8013,1886.5,1623.8013" style="stroke:#181818;stroke-width:1.0;"/><line style="stroke:#181818;stroke-width:1.0;" x1="750.5" x2="1888.5" y1="1623.8013" y2="1623.8013"/><rect fill="#E2E2F0" height="30.0986" rx="2.5" ry="2.5" style="stroke:#181818;stroke-width:0.5;" width="60" x="1894.5" y="1617.8013"/><text fill="#000000" font-family="sans-serif" font-size="14" lengthAdjust="spacing" textLength="46" x="1901.5" y="1637.9331">Metrics</text><polygon fill="#181818" points="1940.5,1675.8486,1930.5,1679.8486,1940.5,1683.8486,1936.5,1679.8486" style="stroke:#181818;stroke-width:1.0;"/><line style="stroke:#181818;stroke-width:1.0;" x1="1934.5" x2="2543.5" y1="1679.8486" y2="1679.8486"/><text fill="#000000" font-family="sans-serif" font-size="13" lengthAdjust="spacing" textLength="458" x="1946.5" y="1675.0938">add(activeSubscriptions, newSubscriptions, cancellations, churnRate, revenue)</text><polygon fill="#181818" points="761.5,1704.7974,751.5,1708.7974,761.5,1712.7974,757.5,1708.7974" style="stroke:#181818;stroke-width:1.0;"/><line style="stroke:#181818;stroke-width:1.0;stroke-dasharray:2.0,2.0;" x1="755.5" x2="1923.5" y1="1708.7974" y2="1708.7974"/><text fill="#000000" font-family="sans-serif" font-size="13" lengthAdjust="spacing" textLength="43" x="767.5" y="1704.0425">metrics</text><polygon fill="#181818" points="1845.5,1733.7461,1855.5,1737.7461,1845.5,1741.7461,1849.5,1737.7461" style="stroke:#181818;stroke-width:1.0;"/><line style="stroke:#181818;stroke-width:1.0;" x1="750.5" x2="1851.5" y1="1737.7461" y2="1737.7461"/><text fill="#000000" font-family="sans-serif" font-size="13" lengthAdjust="spacing" textLength="165" x="757.5" y="1732.9912">addRow(plan.name, metrics)</text><polygon fill="#181818" points="761.5,1747.7461,751.5,1751.7461,761.5,1755.7461,757.5,1751.7461" style="stroke:#181818;stroke-width:1.0;"/><line style="stroke:#181818;stroke-width:1.0;stroke-dasharray:2.0,2.0;" x1="755.5" x2="1861.5" y1="1751.7461" y2="1751.7461"/><line style="stroke:#181818;stroke-width:1.0;" x1="755.5" x2="797.5" y1="1787.6948" y2="1787.6948"/><line style="stroke:#181818;stroke-width:1.0;" x1="797.5" x2="797.5" y1="1787.6948" y2="1800.6948"/><line style="stroke:#181818;stroke-width:1.0;" x1="756.5" x2="797.5" y1="1800.6948" y2="1800.6948"/><polygon fill="#181818" points="766.5,1796.6948,756.5,1800.6948,766.5,1804.6948,762.5,1800.6948" style="stroke:#181818;stroke-width:1.0;"/><text fill="#000000" font-family="sans-serif" font-size="13" lengthAdjust="spacing" textLength="164" x="762.5" y="1782.9399">totalActiveSubscriptions = 0</text><line style="stroke:#181818;stroke-width:1.0;" x1="755.5" x2="797.5" y1="1859.6436" y2="1859.6436"/><line style="stroke:#181818;stroke-width:1.0;" x1="797.5" x2="797.5" y1="1859.6436" y2="1872.6436"/><line style="stroke:#181818;stroke-width:1.0;" x1="756.5" x2="797.5" y1="1872.6436" y2="1872.6436"/><polygon fill="#181818" points="766.5,1868.6436,756.5,1872.6436,766.5,1876.6436,762.5,1872.6436" style="stroke:#181818;stroke-width:1.0;"/><text fill="#000000" font-family="sans-serif" font-size="13" lengthAdjust="spacing" textLength="152" x="762.5" y="1854.8887">totalNewSubscriptions = 0</text><line style="stroke:#181818;stroke-width:1.0;" x1="755.5" x2="797.5" y1="1931.5923" y2="1931.5923"/><line style="stroke:#181818;stroke-width:1.0;" x1="797.5" x2="797.5" y1="1931.5923" y2="1944.5923"/><line style="stroke:#181818;stroke-width:1.0;" x1="756.5" x2="797.5" y1="1944.5923" y2="1944.5923"/><polygon fill="#181818" points="766.5,1940.5923,756.5,1944.5923,766.5,1948.5923,762.5,1944.5923" style="stroke:#181818;stroke-width:1.0;"/><text fill="#000000" font-family="sans-serif" font-size="13" lengthAdjust="spacing" textLength="126" x="762.5" y="1926.8374">totalCancellations = 0</text><line style="stroke:#181818;stroke-width:1.0;" x1="755.5" x2="797.5" y1="2003.541" y2="2003.541"/><line style="stroke:#181818;stroke-width:1.0;" x1="797.5" x2="797.5" y1="2003.541" y2="2016.541"/><line style="stroke:#181818;stroke-width:1.0;" x1="756.5" x2="797.5" y1="2016.541" y2="2016.541"/><polygon fill="#181818" points="766.5,2012.541,756.5,2016.541,766.5,2020.541,762.5,2016.541" style="stroke:#181818;stroke-width:1.0;"/><text fill="#000000" font-family="sans-serif" font-size="13" lengthAdjust="spacing" textLength="109" x="762.5" y="1998.7861">totalChurnRate = 0</text><line style="stroke:#181818;stroke-width:1.0;" x1="755.5" x2="797.5" y1="2075.4897" y2="2075.4897"/><line style="stroke:#181818;stroke-width:1.0;" x1="797.5" x2="797.5" y1="2075.4897" y2="2088.4897"/><line style="stroke:#181818;stroke-width:1.0;" x1="756.5" x2="797.5" y1="2088.4897" y2="2088.4897"/><polygon fill="#181818" points="766.5,2084.4897,756.5,2088.4897,766.5,2092.4897,762.5,2088.4897" style="stroke:#181818;stroke-width:1.0;"/><text fill="#000000" font-family="sans-serif" font-size="13" lengthAdjust="spacing" textLength="99" x="762.5" y="2070.7349">totalRevenue = 0</text><path d="M668,2133.4897 L786,2133.4897 L786,2140.4385 L776,2150.4385 L668,2150.4385 L668,2133.4897 " fill="#EEEEEE" style="stroke:#000000;stroke-width:1.5;"/><rect fill="none" height="376.6924" style="stroke:#000000;stroke-width:1.5;" width="503.5" x="668" y="2133.4897"/><text fill="#000000" font-family="sans-serif" font-size="13" font-weight="bold" lengthAdjust="spacing" textLength="73" x="683" y="2146.6836">foreach row</text><line style="stroke:#181818;stroke-width:1.0;" x1="755.5" x2="797.5" y1="2171.3872" y2="2171.3872"/><line style="stroke:#181818;stroke-width:1.0;" x1="797.5" x2="797.5" y1="2171.3872" y2="2184.3872"/><line style="stroke:#181818;stroke-width:1.0;" x1="756.5" x2="797.5" y1="2184.3872" y2="2184.3872"/><polygon fill="#181818" points="766.5,2180.3872,756.5,2184.3872,766.5,2188.3872,762.5,2184.3872" style="stroke:#181818;stroke-width:1.0;"/><text fill="#000000" font-family="sans-serif" font-size="13" lengthAdjust="spacing" textLength="397" x="762.5" y="2166.6323">totalActiveSubscriptions += row.getMetric().getActiveSubscriptions()</text><line style="stroke:#181818;stroke-width:1.0;" x1="755.5" x2="797.5" y1="2243.3359" y2="2243.3359"/><line style="stroke:#181818;stroke-width:1.0;" x1="797.5" x2="797.5" y1="2243.3359" y2="2256.3359"/><line style="stroke:#181818;stroke-width:1.0;" x1="756.5" x2="797.5" y1="2256.3359" y2="2256.3359"/><polygon fill="#181818" points="766.5,2252.3359,756.5,2256.3359,766.5,2260.3359,762.5,2256.3359" style="stroke:#181818;stroke-width:1.0;"/><text fill="#000000" font-family="sans-serif" font-size="13" lengthAdjust="spacing" textLength="373" x="762.5" y="2238.5811">totalNewSubscriptions += row.getMetric().getNewSubscriptions()</text><line style="stroke:#181818;stroke-width:1.0;" x1="755.5" x2="797.5" y1="2315.2847" y2="2315.2847"/><line style="stroke:#181818;stroke-width:1.0;" x1="797.5" x2="797.5" y1="2315.2847" y2="2328.2847"/><line style="stroke:#181818;stroke-width:1.0;" x1="756.5" x2="797.5" y1="2328.2847" y2="2328.2847"/><polygon fill="#181818" points="766.5,2324.2847,756.5,2328.2847,766.5,2332.2847,762.5,2328.2847" style="stroke:#181818;stroke-width:1.0;"/><text fill="#000000" font-family="sans-serif" font-size="13" lengthAdjust="spacing" textLength="321" x="762.5" y="2310.5298">totalCancellations += row.getMetric().getCancellations()</text><line style="stroke:#181818;stroke-width:1.0;" x1="755.5" x2="797.5" y1="2387.2334" y2="2387.2334"/><line style="stroke:#181818;stroke-width:1.0;" x1="797.5" x2="797.5" y1="2387.2334" y2="2400.2334"/><line style="stroke:#181818;stroke-width:1.0;" x1="756.5" x2="797.5" y1="2400.2334" y2="2400.2334"/><polygon fill="#181818" points="766.5,2396.2334,756.5,2400.2334,766.5,2404.2334,762.5,2400.2334" style="stroke:#181818;stroke-width:1.0;"/><text fill="#000000" font-family="sans-serif" font-size="13" lengthAdjust="spacing" textLength="287" x="762.5" y="2382.4785">totalChurnRate += row.getMetric().getChurnRate()</text><line style="stroke:#181818;stroke-width:1.0;" x1="755.5" x2="797.5" y1="2459.1821" y2="2459.1821"/><line style="stroke:#181818;stroke-width:1.0;" x1="797.5" x2="797.5" y1="2459.1821" y2="2472.1821"/><line style="stroke:#181818;stroke-width:1.0;" x1="756.5" x2="797.5" y1="2472.1821" y2="2472.1821"/><polygon fill="#181818" points="766.5,2468.1821,756.5,2472.1821,766.5,2476.1821,762.5,2472.1821" style="stroke:#181818;stroke-width:1.0;"/><text fill="#000000" font-family="sans-serif" font-size="13" lengthAdjust="spacing" textLength="267" x="762.5" y="2454.4272">totalRevenue += row.getMetric().getRevenue()</text><polygon fill="#181818" points="1940.5,2534.1309,1930.5,2538.1309,1940.5,2542.1309,1936.5,2538.1309" style="stroke:#181818;stroke-width:1.0;"/><line style="stroke:#181818;stroke-width:1.0;" x1="1934.5" x2="2543.5" y1="2538.1309" y2="2538.1309"/><text fill="#000000" font-family="sans-serif" font-size="13" lengthAdjust="spacing" textLength="596" x="1946.5" y="2533.376">add(totalActiveSubscriptions, totalNewSubscriptions, totalCancellations, totalChurnRate, totalRevenue)</text><polygon fill="#181818" points="761.5,2563.0796,751.5,2567.0796,761.5,2571.0796,757.5,2567.0796" style="stroke:#181818;stroke-width:1.0;"/><line style="stroke:#181818;stroke-width:1.0;stroke-dasharray:2.0,2.0;" x1="755.5" x2="1923.5" y1="2567.0796" y2="2567.0796"/><text fill="#000000" font-family="sans-serif" font-size="13" lengthAdjust="spacing" textLength="43" x="767.5" y="2562.3247">metrics</text><polygon fill="#181818" points="1845.5,2592.0283,1855.5,2596.0283,1845.5,2600.0283,1849.5,2596.0283" style="stroke:#181818;stroke-width:1.0;"/><line style="stroke:#181818;stroke-width:1.0;" x1="750.5" x2="1851.5" y1="2596.0283" y2="2596.0283"/><text fill="#000000" font-family="sans-serif" font-size="13" lengthAdjust="spacing" textLength="153" x="757.5" y="2591.2734">addRow("TOTAL" metrics)</text><polygon fill="#181818" points="761.5,2606.0283,751.5,2610.0283,761.5,2614.0283,757.5,2610.0283" style="stroke:#181818;stroke-width:1.0;"/><line style="stroke:#181818;stroke-width:1.0;stroke-dasharray:2.0,2.0;" x1="755.5" x2="1861.5" y1="2610.0283" y2="2610.0283"/><polygon fill="#181818" points="1452.5,2634.9771,1462.5,2638.9771,1452.5,2642.9771,1456.5,2638.9771" style="stroke:#181818;stroke-width:1.0;"/><line style="stroke:#181818;stroke-width:1.0;" x1="750.5" x2="1458.5" y1="2638.9771" y2="2638.9771"/><text fill="#000000" font-family="sans-serif" font-size="13" lengthAdjust="spacing" textLength="181" x="757.5" y="2634.2222">toRevenueDTO(columns, rows)</text><polygon fill="#181818" points="761.5,2663.9258,751.5,2667.9258,761.5,2671.9258,757.5,2667.9258" style="stroke:#181818;stroke-width:1.0;"/><line style="stroke:#181818;stroke-width:1.0;stroke-dasharray:2.0,2.0;" x1="755.5" x2="1468.5" y1="2667.9258" y2="2667.9258"/><text fill="#000000" font-family="sans-serif" font-size="13" lengthAdjust="spacing" textLength="73" x="767.5" y="2663.1709">revenueDTO</text><polygon fill="#181818" points="265,2692.8745,255,2696.8745,265,2700.8745,261,2696.8745" style="stroke:#181818;stroke-width:1.0;"/><line style="stroke:#181818;stroke-width:1.0;stroke-dasharray:2.0,2.0;" x1="259" x2="744.5" y1="2696.8745" y2="2696.8745"/><text fill="#000000" font-family="sans-serif" font-size="13" lengthAdjust="spacing" textLength="73" x="271" y="2692.1196">revenueDTO</text><polygon fill="#181818" points="39,2728.8232,29,2732.8232,39,2736.8232,35,2732.8232" style="stroke:#181818;stroke-width:1.0;"/><line style="stroke:#181818;stroke-width:1.0;stroke-dasharray:2.0,2.0;" x1="33" x2="248" y1="2732.8232" y2="2732.8232"/><text fill="#000000" font-family="sans-serif" font-size="13" lengthAdjust="spacing" textLength="42" x="45" y="2728.0684">200 Ok</text><!--SRC=[nLTRSviu57xdLsXvANP8xDrzOoQxG-qawvd6xX1tNpiAoB5Q6LX99FM_Nrr1O219qqvviJZdEnTzv-Z8lDjpNh9eDYi9p7br81TfSPWnz5-5yXITPnW-K7ZmF8uvGU06SP2WHvHN2DmP35XQ3Anu0LEE7o57eCY58EK51VudXgWF80DouPMGSfpYKeG3VhI4R7zVG9ejYfpJWX03NN1AEj1_42cDLYyxUkazGMN1i8XwLBZAYDf8AOtgfAgHfEuGVSGfKhYxnxG3-oWewmGiZQY3lAlkMKfnoN7HjM3LVO-18VaMbdRB1xNiXost6uN9-82VpVqN1Q3wrLEbqNLIDH6F_0NdVodY8t1pjGKpME9PPgcO6Tk_vHOzYP9eNOW8F20k7Rm_ReklA0-ex0t69vxMW_FQiMHxbTNsja0HsE4yUtzSPO56J3ohwXYtJATJ5Jgk-BwWc6F4WedO6-40xvIZ2z5I25m2_sEoMNvQR3_VnkluvYhnWMpCwzKwNYzMyOVForLojTXk4d_Y0V7O6ABc4KWXIIiYk39a1fA1QqmueXgjuu563D0tp3XJIk52UhADeJUgN6XZgr3RLF5soWVAP7if228C3VkA2Gc6N4c9JWFbcSZHSzsa1QaEEPjENI4jdZeI0ui0pBB0bqdv8V1l4QSubQjjmI4nl1ciJK39CbJtcb7hB1veKPLWLr2XtwjCbTY9R8w6xGqPUWqFclyBKNOhcDI6ng8XW3a7pyHr0YY8oWwv9vI9XfdNs2R_nhwTknkaXjZ7D8UBkS0iLa63oGdycSpEpauidFowAbDqvxMVWXmz_QBzWtYzRElSbwLi6ip0ZXO7mFS84CWu-7CECdXaezHrT_HpU4kXkF-860q_YRJVNioQcydtizRQpzifw-TiNz4yaIbUTlYRzHx5AVXzFiwhwzrSKZ-g5dtDEzAWOdL4a8voR3CyksoxBU7nW79-ZT1BQNz1b-efRGUwKlphAlHGxw4zF3b1ORjQOLF8qEwfcMR6VJE73rfmag2yRbGIIV6avtek1dfeyOr72MnTA_LsNNAvl8lYPmRw2AKdljPZa_4rZXQ3e-9LNfp3ytqUafu3CdH8JW-AgC9eSm_oBxfTsCfBMxT6C97h7cJFbJWoTPwlLt_WBkoDKTl5xG_PmhmrNjq60x6i_ernacPMzKInVuSdhnXOxURg6qP3BHJs5pZigK3OOIbixQQTxlEJQcXQ-TlDDlxWduwgat7bZYdz6IVvRRxT0lE_E5Hcsf76DMdH6jrugx-B7ANaM7-z2Aty98l07_Cvs7prlFy1]--></g></svg>